<?xml version="1.0" encoding="UTF-8" standalone="no"?><svg xmlns="http://www.w3.org/2000/svg" xmlns:xlink="http://www.w3.org/1999/xlink" contentScriptType="application/ecmascript" contentStyleType="text/css" height="796px" preserveAspectRatio="none" style="width:964px;height:796px;" version="1.1" viewBox="0 0 964 796" width="964px" zoomAndPan="magnify"><defs><filter height="300%" id="fdmo8h5zvfxvj" width="300%" x="-1" y="-1"><feGaussianBlur result="blurOut" stdDeviation="2.0"/><feColorMatrix in="blurOut" result="blurOut2" type="matrix" values="0 0 0 0 0 0 0 0 0 0 0 0 0 0 0 0 0 0 .4 0"/><feOffset dx="4.0" dy="4.0" in="blurOut2" result="blurOut3"/><feBlend in="SourceGraphic" in2="blurOut3" mode="normal"/></filter></defs><g><!--class MetaMetaCore--><rect fill="#FFB6C1" filter="url(#fdmo8h5zvfxvj)" height="130.7656" id="MetaMetaCore" style="stroke: #A80036; stroke-width: 1.5;" width="150" x="348" y="8"/><ellipse cx="375.15" cy="26.9688" fill="#ADD1B2" rx="11" ry="11" style="stroke: #A80036; stroke-width: 1.0;"/><path d="M378.1188,32.6094 Q377.5406,32.9063 376.9,33.0469 Q376.2594,33.2031 375.5563,33.2031 Q373.0563,33.2031 371.7281,31.5625 Q370.4156,29.9063 370.4156,26.7813 Q370.4156,23.6563 371.7281,22 Q373.0563,20.3438 375.5563,20.3438 Q376.2594,20.3438 376.9,20.5 Q377.5563,20.6563 378.1188,20.9531 L378.1188,23.6719 Q377.4938,23.0938 376.9,22.8281 Q376.3063,22.5469 375.6813,22.5469 Q374.3375,22.5469 373.65,23.625 Q372.9625,24.6875 372.9625,26.7813 Q372.9625,28.875 373.65,29.9531 Q374.3375,31.0156 375.6813,31.0156 Q376.3063,31.0156 376.9,30.75 Q377.4938,30.4688 378.1188,29.8906 L378.1188,32.6094 Z "/><text fill="#000000" font-family="sans-serif" font-size="12" font-style="italic" lengthAdjust="spacingAndGlyphs" textLength="45" x="414.85" y="24.1387">«Meta»</text><text fill="#000000" font-family="sans-serif" font-size="12" lengthAdjust="spacingAndGlyphs" textLength="91" x="391.85" y="38.1074">MetaMetaCore</text><line style="stroke: #A80036; stroke-width: 1.5;" x1="349" x2="497" y1="45.9375" y2="45.9375"/><ellipse cx="359" cy="57.8398" fill="none" rx="3" ry="3" style="stroke: #038048; stroke-width: 1.0;"/><text fill="#000000" font-family="sans-serif" font-size="11" lengthAdjust="spacingAndGlyphs" textLength="124" x="368" y="60.1479">AbstractionDimension</text><ellipse cx="359" cy="70.6445" fill="none" rx="3" ry="3" style="stroke: #038048; stroke-width: 1.0;"/><text fill="#000000" font-family="sans-serif" font-size="11" lengthAdjust="spacingAndGlyphs" textLength="93" x="368" y="72.9526">AbstractionLevel</text><ellipse cx="359" cy="83.4492" fill="none" rx="3" ry="3" style="stroke: #038048; stroke-width: 1.0;"/><text fill="#000000" font-family="sans-serif" font-size="11" lengthAdjust="spacingAndGlyphs" textLength="104" x="368" y="85.7573">KnowledgeDomain</text><line style="stroke: #A80036; stroke-width: 1.0;" x1="349" x2="497" y1="92.3516" y2="92.3516"/><ellipse cx="359" cy="104.2539" fill="none" rx="3" ry="3" style="stroke: #038048; stroke-width: 1.0;"/><text fill="#000000" font-family="sans-serif" font-size="11" lengthAdjust="spacingAndGlyphs" textLength="50" x="368" y="106.562">hasLevel</text><ellipse cx="359" cy="117.0586" fill="none" rx="3" ry="3" style="stroke: #038048; stroke-width: 1.0;"/><text fill="#000000" font-family="sans-serif" font-size="11" lengthAdjust="spacingAndGlyphs" textLength="71" x="368" y="119.3667">levelNumber</text><ellipse cx="359" cy="129.8633" fill="none" rx="3" ry="3" style="stroke: #038048; stroke-width: 1.0;"/><text fill="#000000" font-family="sans-serif" font-size="11" lengthAdjust="spacingAndGlyphs" textLength="77" x="368" y="132.1714">domainScope</text><!--class MetaGuidance--><rect fill="#FFB6C1" filter="url(#fdmo8h5zvfxvj)" height="130.7656" id="MetaGuidance" style="stroke: #A80036; stroke-width: 1.5;" width="122" x="362" y="206.5"/><ellipse cx="377" cy="225.4688" fill="#ADD1B2" rx="11" ry="11" style="stroke: #A80036; stroke-width: 1.0;"/><path d="M379.9688,231.1094 Q379.3906,231.4063 378.75,231.5469 Q378.1094,231.7031 377.4063,231.7031 Q374.9063,231.7031 373.5781,230.0625 Q372.2656,228.4063 372.2656,225.2813 Q372.2656,222.1563 373.5781,220.5 Q374.9063,218.8438 377.4063,218.8438 Q378.1094,218.8438 378.75,219 Q379.4063,219.1563 379.9688,219.4531 L379.9688,222.1719 Q379.3438,221.5938 378.75,221.3281 Q378.1563,221.0469 377.5313,221.0469 Q376.1875,221.0469 375.5,222.125 Q374.8125,223.1875 374.8125,225.2813 Q374.8125,227.375 375.5,228.4531 Q376.1875,229.5156 377.5313,229.5156 Q378.1563,229.5156 378.75,229.25 Q379.3438,228.9688 379.9688,228.3906 L379.9688,231.1094 Z "/><text fill="#000000" font-family="sans-serif" font-size="12" font-style="italic" lengthAdjust="spacingAndGlyphs" textLength="45" x="413.5" y="222.6387">«Meta»</text><text fill="#000000" font-family="sans-serif" font-size="12" lengthAdjust="spacingAndGlyphs" textLength="90" x="391" y="236.6074">MetaGuidance</text><line style="stroke: #A80036; stroke-width: 1.5;" x1="363" x2="483" y1="244.4375" y2="244.4375"/><ellipse cx="373" cy="256.3398" fill="none" rx="3" ry="3" style="stroke: #038048; stroke-width: 1.0;"/><text fill="#000000" font-family="sans-serif" font-size="11" lengthAdjust="spacingAndGlyphs" textLength="77" x="382" y="258.6479">Interpretation</text><ellipse cx="373" cy="269.1445" fill="none" rx="3" ry="3" style="stroke: #038048; stroke-width: 1.0;"/><text fill="#000000" font-family="sans-serif" font-size="11" lengthAdjust="spacingAndGlyphs" textLength="34" x="382" y="271.4526">Action</text><ellipse cx="373" cy="281.9492" fill="none" rx="3" ry="3" style="stroke: #038048; stroke-width: 1.0;"/><text fill="#000000" font-family="sans-serif" font-size="11" lengthAdjust="spacingAndGlyphs" textLength="87" x="382" y="284.2573">DomainAnalogy</text><line style="stroke: #A80036; stroke-width: 1.0;" x1="363" x2="483" y1="290.8516" y2="290.8516"/><ellipse cx="373" cy="302.7539" fill="none" rx="3" ry="3" style="stroke: #038048; stroke-width: 1.0;"/><text fill="#000000" font-family="sans-serif" font-size="11" lengthAdjust="spacingAndGlyphs" textLength="55" x="382" y="305.062">hasAction</text><ellipse cx="373" cy="315.5586" fill="none" rx="3" ry="3" style="stroke: #038048; stroke-width: 1.0;"/><text fill="#000000" font-family="sans-serif" font-size="11" lengthAdjust="spacingAndGlyphs" textLength="84" x="382" y="317.8667">analogySource</text><ellipse cx="373" cy="328.3633" fill="none" rx="3" ry="3" style="stroke: #038048; stroke-width: 1.0;"/><text fill="#000000" font-family="sans-serif" font-size="11" lengthAdjust="spacingAndGlyphs" textLength="81" x="382" y="330.6714">analogyTarget</text><!--class BaseModel--><rect fill="#D3D3D3" filter="url(#fdmo8h5zvfxvj)" height="92.3516" id="BaseModel" style="stroke: #A80036; stroke-width: 1.5;" width="152" x="782" y="27.5"/><ellipse cx="820.4" cy="46.4688" fill="#ADD1B2" rx="11" ry="11" style="stroke: #A80036; stroke-width: 1.0;"/><path d="M823.3688,52.1094 Q822.7906,52.4063 822.15,52.5469 Q821.5094,52.7031 820.8063,52.7031 Q818.3063,52.7031 816.9781,51.0625 Q815.6656,49.4063 815.6656,46.2813 Q815.6656,43.1563 816.9781,41.5 Q818.3063,39.8438 820.8063,39.8438 Q821.5094,39.8438 822.15,40 Q822.8063,40.1563 823.3688,40.4531 L823.3688,43.1719 Q822.7438,42.5938 822.15,42.3281 Q821.5563,42.0469 820.9313,42.0469 Q819.5875,42.0469 818.9,43.125 Q818.2125,44.1875 818.2125,46.2813 Q818.2125,48.375 818.9,49.4531 Q819.5875,50.5156 820.9313,50.5156 Q821.5563,50.5156 822.15,50.25 Q822.7438,49.9688 823.3688,49.3906 L823.3688,52.1094 Z "/><text fill="#000000" font-family="sans-serif" font-size="12" font-style="italic" lengthAdjust="spacingAndGlyphs" textLength="44" x="851.6" y="43.6387">«Base»</text><text fill="#000000" font-family="sans-serif" font-size="12" lengthAdjust="spacingAndGlyphs" textLength="68" x="839.6" y="57.6074">BaseModel</text><line style="stroke: #A80036; stroke-width: 1.5;" x1="783" x2="933" y1="65.4375" y2="65.4375"/><ellipse cx="793" cy="77.3398" fill="none" rx="3" ry="3" style="stroke: #038048; stroke-width: 1.0;"/><text fill="#000000" font-family="sans-serif" font-size="11" lengthAdjust="spacingAndGlyphs" textLength="112" x="802" y="79.6479">hasIdentifier: string</text><ellipse cx="793" cy="90.1445" fill="none" rx="3" ry="3" style="stroke: #038048; stroke-width: 1.0;"/><text fill="#000000" font-family="sans-serif" font-size="11" lengthAdjust="spacingAndGlyphs" textLength="95" x="802" y="92.4526">hasName: string</text><ellipse cx="793" cy="102.9492" fill="none" rx="3" ry="3" style="stroke: #038048; stroke-width: 1.0;"/><text fill="#000000" font-family="sans-serif" font-size="11" lengthAdjust="spacingAndGlyphs" textLength="126" x="802" y="105.2573">hasDescription: string</text><line style="stroke: #A80036; stroke-width: 1.5;" x1="783" x2="933" y1="111.8516" y2="111.8516"/><!--class Transformation--><rect fill="#D3D3D3" filter="url(#fdmo8h5zvfxvj)" height="92.3516" id="Transformation" style="stroke: #A80036; stroke-width: 1.5;" width="191" x="762.5" y="226"/><ellipse cx="806.3" cy="244.9688" fill="#ADD1B2" rx="11" ry="11" style="stroke: #A80036; stroke-width: 1.0;"/><path d="M809.2688,250.6094 Q808.6906,250.9063 808.05,251.0469 Q807.4094,251.2031 806.7063,251.2031 Q804.2063,251.2031 802.8781,249.5625 Q801.5656,247.9063 801.5656,244.7813 Q801.5656,241.6563 802.8781,240 Q804.2063,238.3438 806.7063,238.3438 Q807.4094,238.3438 808.05,238.5 Q808.7063,238.6563 809.2688,238.9531 L809.2688,241.6719 Q808.6438,241.0938 808.05,240.8281 Q807.4563,240.5469 806.8313,240.5469 Q805.4875,240.5469 804.8,241.625 Q804.1125,242.6875 804.1125,244.7813 Q804.1125,246.875 804.8,247.9531 Q805.4875,249.0156 806.8313,249.0156 Q807.4563,249.0156 808.05,248.75 Q808.6438,248.4688 809.2688,247.8906 L809.2688,250.6094 Z "/><text fill="#000000" font-family="sans-serif" font-size="12" font-style="italic" lengthAdjust="spacingAndGlyphs" textLength="44" x="852.2" y="242.1387">«Base»</text><text fill="#000000" font-family="sans-serif" font-size="12" lengthAdjust="spacingAndGlyphs" textLength="95" x="826.7" y="256.1074">Transformation</text><line style="stroke: #A80036; stroke-width: 1.5;" x1="763.5" x2="952.5" y1="263.9375" y2="263.9375"/><ellipse cx="773.5" cy="275.8398" fill="none" rx="3" ry="3" style="stroke: #038048; stroke-width: 1.0;"/><text fill="#000000" font-family="sans-serif" font-size="11" lengthAdjust="spacingAndGlyphs" textLength="131" x="782.5" y="278.1479">hasSource: BaseModel</text><ellipse cx="773.5" cy="288.6445" fill="none" rx="3" ry="3" style="stroke: #038048; stroke-width: 1.0;"/><text fill="#000000" font-family="sans-serif" font-size="11" lengthAdjust="spacingAndGlyphs" textLength="128" x="782.5" y="290.9526">hasTarget: BaseModel</text><ellipse cx="773.5" cy="301.4492" fill="none" rx="3" ry="3" style="stroke: #038048; stroke-width: 1.0;"/><text fill="#000000" font-family="sans-serif" font-size="11" lengthAdjust="spacingAndGlyphs" textLength="165" x="782.5" y="303.7573">hasRule: TransformationRule</text><line style="stroke: #A80036; stroke-width: 1.5;" x1="763.5" x2="952.5" y1="310.3516" y2="310.3516"/><!--class ProblemSpace--><rect fill="#90EE90" filter="url(#fdmo8h5zvfxvj)" height="143.5703" id="ProblemSpace" style="stroke: #A80036; stroke-width: 1.5;" width="135" x="604.5" y="421"/><ellipse cx="625.35" cy="439.9688" fill="#ADD1B2" rx="11" ry="11" style="stroke: #A80036; stroke-width: 1.0;"/><path d="M628.3188,445.6094 Q627.7406,445.9063 627.1,446.0469 Q626.4594,446.2031 625.7563,446.2031 Q623.2563,446.2031 621.9281,444.5625 Q620.6156,442.9063 620.6156,439.7813 Q620.6156,436.6563 621.9281,435 Q623.2563,433.3438 625.7563,433.3438 Q626.4594,433.3438 627.1,433.5 Q627.7563,433.6563 628.3188,433.9531 L628.3188,436.6719 Q627.6938,436.0938 627.1,435.8281 Q626.5063,435.5469 625.8813,435.5469 Q624.5375,435.5469 623.85,436.625 Q623.1625,437.6875 623.1625,439.7813 Q623.1625,441.875 623.85,442.9531 Q624.5375,444.0156 625.8813,444.0156 Q626.5063,444.0156 627.1,443.75 Q627.6938,443.4688 628.3188,442.8906 L628.3188,445.6094 Z "/><text fill="#000000" font-family="sans-serif" font-size="12" font-style="italic" lengthAdjust="spacingAndGlyphs" textLength="61" x="655.15" y="437.1387">«Domain»</text><text fill="#000000" font-family="sans-serif" font-size="12" lengthAdjust="spacingAndGlyphs" textLength="90" x="640.65" y="451.1074">ProblemSpace</text><line style="stroke: #A80036; stroke-width: 1.5;" x1="605.5" x2="738.5" y1="458.9375" y2="458.9375"/><ellipse cx="615.5" cy="470.8398" fill="none" rx="3" ry="3" style="stroke: #038048; stroke-width: 1.0;"/><text fill="#000000" font-family="sans-serif" font-size="11" lengthAdjust="spacingAndGlyphs" textLength="82" x="624.5" y="473.1479">BusinessNeed</text><ellipse cx="615.5" cy="483.6445" fill="none" rx="3" ry="3" style="stroke: #038048; stroke-width: 1.0;"/><text fill="#000000" font-family="sans-serif" font-size="11" lengthAdjust="spacingAndGlyphs" textLength="43" x="624.5" y="485.9526">Context</text><ellipse cx="615.5" cy="496.4492" fill="none" rx="3" ry="3" style="stroke: #038048; stroke-width: 1.0;"/><text fill="#000000" font-family="sans-serif" font-size="11" lengthAdjust="spacingAndGlyphs" textLength="59" x="624.5" y="498.7573">Constraint</text><line style="stroke: #A80036; stroke-width: 1.0;" x1="605.5" x2="738.5" y1="505.3516" y2="505.3516"/><ellipse cx="615.5" cy="517.2539" fill="none" rx="3" ry="3" style="stroke: #038048; stroke-width: 1.0;"/><text fill="#000000" font-family="sans-serif" font-size="11" lengthAdjust="spacingAndGlyphs" textLength="93" x="624.5" y="519.562">hasValue: string</text><ellipse cx="615.5" cy="530.0586" fill="none" rx="3" ry="3" style="stroke: #038048; stroke-width: 1.0;"/><text fill="#000000" font-family="sans-serif" font-size="11" lengthAdjust="spacingAndGlyphs" textLength="109" x="624.5" y="532.3667">hasPriority: integer</text><ellipse cx="615.5" cy="542.8633" fill="none" rx="3" ry="3" style="stroke: #038048; stroke-width: 1.0;"/><text fill="#000000" font-family="sans-serif" font-size="11" lengthAdjust="spacingAndGlyphs" textLength="64" x="624.5" y="545.1714">hasContext</text><ellipse cx="615.5" cy="555.668" fill="none" rx="3" ry="3" style="stroke: #038048; stroke-width: 1.0;"/><text fill="#000000" font-family="sans-serif" font-size="11" lengthAdjust="spacingAndGlyphs" textLength="80" x="624.5" y="557.9761">hasConstraint</text><!--class SolutionSpace--><rect fill="#90EE90" filter="url(#fdmo8h5zvfxvj)" height="143.5703" id="SolutionSpace" style="stroke: #A80036; stroke-width: 1.5;" width="135" x="483.5" y="642"/><ellipse cx="504.35" cy="660.9688" fill="#ADD1B2" rx="11" ry="11" style="stroke: #A80036; stroke-width: 1.0;"/><path d="M507.3188,666.6094 Q506.7406,666.9063 506.1,667.0469 Q505.4594,667.2031 504.7563,667.2031 Q502.2563,667.2031 500.9281,665.5625 Q499.6156,663.9063 499.6156,660.7813 Q499.6156,657.6563 500.9281,656 Q502.2563,654.3438 504.7563,654.3438 Q505.4594,654.3438 506.1,654.5 Q506.7563,654.6563 507.3188,654.9531 L507.3188,657.6719 Q506.6938,657.0938 506.1,656.8281 Q505.5063,656.5469 504.8813,656.5469 Q503.5375,656.5469 502.85,657.625 Q502.1625,658.6875 502.1625,660.7813 Q502.1625,662.875 502.85,663.9531 Q503.5375,665.0156 504.8813,665.0156 Q505.5063,665.0156 506.1,664.75 Q506.6938,664.4688 507.3188,663.8906 L507.3188,666.6094 Z "/><text fill="#000000" font-family="sans-serif" font-size="12" font-style="italic" lengthAdjust="spacingAndGlyphs" textLength="61" x="534.15" y="658.1387">«Domain»</text><text fill="#000000" font-family="sans-serif" font-size="12" lengthAdjust="spacingAndGlyphs" textLength="90" x="519.65" y="672.1074">SolutionSpace</text><line style="stroke: #A80036; stroke-width: 1.5;" x1="484.5" x2="617.5" y1="679.9375" y2="679.9375"/><ellipse cx="494.5" cy="691.8398" fill="none" rx="3" ry="3" style="stroke: #038048; stroke-width: 1.0;"/><text fill="#000000" font-family="sans-serif" font-size="11" lengthAdjust="spacingAndGlyphs" textLength="99" x="503.5" y="694.1479">TechnicalSolution</text><ellipse cx="494.5" cy="704.6445" fill="none" rx="3" ry="3" style="stroke: #038048; stroke-width: 1.0;"/><text fill="#000000" font-family="sans-serif" font-size="11" lengthAdjust="spacingAndGlyphs" textLength="88" x="503.5" y="706.9526">Implementation</text><ellipse cx="494.5" cy="717.4492" fill="none" rx="3" ry="3" style="stroke: #038048; stroke-width: 1.0;"/><text fill="#000000" font-family="sans-serif" font-size="11" lengthAdjust="spacingAndGlyphs" textLength="55" x="503.5" y="719.7573">Validation</text><line style="stroke: #A80036; stroke-width: 1.0;" x1="484.5" x2="617.5" y1="726.3516" y2="726.3516"/><ellipse cx="494.5" cy="738.2539" fill="none" rx="3" ry="3" style="stroke: #038048; stroke-width: 1.0;"/><text fill="#000000" font-family="sans-serif" font-size="11" lengthAdjust="spacingAndGlyphs" textLength="49" x="503.5" y="740.562">satisfies</text><ellipse cx="494.5" cy="751.0586" fill="none" rx="3" ry="3" style="stroke: #038048; stroke-width: 1.0;"/><text fill="#000000" font-family="sans-serif" font-size="11" lengthAdjust="spacingAndGlyphs" textLength="109" x="503.5" y="753.3667">hasImplementation</text><ellipse cx="494.5" cy="763.8633" fill="none" rx="3" ry="3" style="stroke: #038048; stroke-width: 1.0;"/><text fill="#000000" font-family="sans-serif" font-size="11" lengthAdjust="spacingAndGlyphs" textLength="76" x="503.5" y="766.1714">hasValidation</text><ellipse cx="494.5" cy="776.668" fill="none" rx="3" ry="3" style="stroke: #038048; stroke-width: 1.0;"/><text fill="#000000" font-family="sans-serif" font-size="11" lengthAdjust="spacingAndGlyphs" textLength="91" x="503.5" y="778.9761">validationStatus</text><!--class ProjectRisks--><rect fill="#90EE90" filter="url(#fdmo8h5zvfxvj)" height="143.5703" id="ProjectRisks" style="stroke: #A80036; stroke-width: 1.5;" width="127" x="185.5" y="421"/><ellipse cx="209.05" cy="439.9688" fill="#ADD1B2" rx="11" ry="11" style="stroke: #A80036; stroke-width: 1.0;"/><path d="M212.0188,445.6094 Q211.4406,445.9063 210.8,446.0469 Q210.1594,446.2031 209.4563,446.2031 Q206.9563,446.2031 205.6281,444.5625 Q204.3156,442.9063 204.3156,439.7813 Q204.3156,436.6563 205.6281,435 Q206.9563,433.3438 209.4563,433.3438 Q210.1594,433.3438 210.8,433.5 Q211.4563,433.6563 212.0188,433.9531 L212.0188,436.6719 Q211.3938,436.0938 210.8,435.8281 Q210.2063,435.5469 209.5813,435.5469 Q208.2375,435.5469 207.55,436.625 Q206.8625,437.6875 206.8625,439.7813 Q206.8625,441.875 207.55,442.9531 Q208.2375,444.0156 209.5813,444.0156 Q210.2063,444.0156 210.8,443.75 Q211.3938,443.4688 212.0188,442.8906 L212.0188,445.6094 Z "/><text fill="#000000" font-family="sans-serif" font-size="12" font-style="italic" lengthAdjust="spacingAndGlyphs" textLength="61" x="232.45" y="437.1387">«Domain»</text><text fill="#000000" font-family="sans-serif" font-size="12" lengthAdjust="spacingAndGlyphs" textLength="76" x="224.95" y="451.1074">ProjectRisks</text><line style="stroke: #A80036; stroke-width: 1.5;" x1="186.5" x2="311.5" y1="458.9375" y2="458.9375"/><ellipse cx="196.5" cy="470.8398" fill="none" rx="3" ry="3" style="stroke: #038048; stroke-width: 1.0;"/><text fill="#000000" font-family="sans-serif" font-size="11" lengthAdjust="spacingAndGlyphs" textLength="23" x="205.5" y="473.1479">Risk</text><ellipse cx="196.5" cy="483.6445" fill="none" rx="3" ry="3" style="stroke: #038048; stroke-width: 1.0;"/><text fill="#000000" font-family="sans-serif" font-size="11" lengthAdjust="spacingAndGlyphs" textLength="54" x="205.5" y="485.9526">Mitigation</text><ellipse cx="196.5" cy="496.4492" fill="none" rx="3" ry="3" style="stroke: #038048; stroke-width: 1.0;"/><text fill="#000000" font-family="sans-serif" font-size="11" lengthAdjust="spacingAndGlyphs" textLength="38" x="205.5" y="498.7573">Impact</text><line style="stroke: #A80036; stroke-width: 1.0;" x1="186.5" x2="311.5" y1="505.3516" y2="505.3516"/><ellipse cx="196.5" cy="517.2539" fill="none" rx="3" ry="3" style="stroke: #038048; stroke-width: 1.0;"/><text fill="#000000" font-family="sans-serif" font-size="11" lengthAdjust="spacingAndGlyphs" textLength="93" x="205.5" y="519.562">severity: integer</text><ellipse cx="196.5" cy="530.0586" fill="none" rx="3" ry="3" style="stroke: #038048; stroke-width: 1.0;"/><text fill="#000000" font-family="sans-serif" font-size="11" lengthAdjust="spacingAndGlyphs" textLength="101" x="205.5" y="532.3667">likelihood: integer</text><ellipse cx="196.5" cy="542.8633" fill="none" rx="3" ry="3" style="stroke: #038048; stroke-width: 1.0;"/><text fill="#000000" font-family="sans-serif" font-size="11" lengthAdjust="spacingAndGlyphs" textLength="75" x="205.5" y="545.1714">hasMitigation</text><ellipse cx="196.5" cy="555.668" fill="none" rx="3" ry="3" style="stroke: #038048; stroke-width: 1.0;"/><text fill="#000000" font-family="sans-serif" font-size="11" lengthAdjust="spacingAndGlyphs" textLength="59" x="205.5" y="557.9761">hasImpact</text><!--class CreativeAnalogies--><rect fill="#90EE90" filter="url(#fdmo8h5zvfxvj)" height="130.7656" id="CreativeAnalogies" style="stroke: #A80036; stroke-width: 1.5;" width="144" x="6" y="427.5"/><ellipse cx="21" cy="446.4688" fill="#ADD1B2" rx="11" ry="11" style="stroke: #A80036; stroke-width: 1.0;"/><path d="M23.9688,452.1094 Q23.3906,452.4063 22.75,452.5469 Q22.1094,452.7031 21.4063,452.7031 Q18.9063,452.7031 17.5781,451.0625 Q16.2656,449.4063 16.2656,446.2813 Q16.2656,443.1563 17.5781,441.5 Q18.9063,439.8438 21.4063,439.8438 Q22.1094,439.8438 22.75,440 Q23.4063,440.1563 23.9688,440.4531 L23.9688,443.1719 Q23.3438,442.5938 22.75,442.3281 Q22.1563,442.0469 21.5313,442.0469 Q20.1875,442.0469 19.5,443.125 Q18.8125,444.1875 18.8125,446.2813 Q18.8125,448.375 19.5,449.4531 Q20.1875,450.5156 21.5313,450.5156 Q22.1563,450.5156 22.75,450.25 Q23.3438,449.9688 23.9688,449.3906 L23.9688,452.1094 Z "/><text fill="#000000" font-family="sans-serif" font-size="12" font-style="italic" lengthAdjust="spacingAndGlyphs" textLength="61" x="60.5" y="443.6387">«Domain»</text><text fill="#000000" font-family="sans-serif" font-size="12" lengthAdjust="spacingAndGlyphs" textLength="112" x="35" y="457.6074">CreativeAnalogies</text><line style="stroke: #A80036; stroke-width: 1.5;" x1="7" x2="149" y1="465.4375" y2="465.4375"/><ellipse cx="17" cy="477.3398" fill="none" rx="3" ry="3" style="stroke: #038048; stroke-width: 1.0;"/><text fill="#000000" font-family="sans-serif" font-size="11" lengthAdjust="spacingAndGlyphs" textLength="81" x="26" y="479.6479">PlayfulAnalogy</text><ellipse cx="17" cy="490.1445" fill="none" rx="3" ry="3" style="stroke: #038048; stroke-width: 1.0;"/><text fill="#000000" font-family="sans-serif" font-size="11" lengthAdjust="spacingAndGlyphs" textLength="94" x="26" y="492.4526">AnalogicalBridge</text><ellipse cx="17" cy="502.9492" fill="none" rx="3" ry="3" style="stroke: #038048; stroke-width: 1.0;"/><text fill="#000000" font-family="sans-serif" font-size="11" lengthAdjust="spacingAndGlyphs" textLength="106" x="26" y="505.2573">ExplanationPattern</text><line style="stroke: #A80036; stroke-width: 1.0;" x1="7" x2="149" y1="511.8516" y2="511.8516"/><ellipse cx="17" cy="523.7539" fill="none" rx="3" ry="3" style="stroke: #038048; stroke-width: 1.0;"/><text fill="#000000" font-family="sans-serif" font-size="11" lengthAdjust="spacingAndGlyphs" textLength="101" x="26" y="526.062">funFactor: integer</text><ellipse cx="17" cy="536.5586" fill="none" rx="3" ry="3" style="stroke: #038048; stroke-width: 1.0;"/><text fill="#000000" font-family="sans-serif" font-size="11" lengthAdjust="spacingAndGlyphs" textLength="58" x="26" y="538.8667">hasBridge</text><ellipse cx="17" cy="549.3633" fill="none" rx="3" ry="3" style="stroke: #038048; stroke-width: 1.0;"/><text fill="#000000" font-family="sans-serif" font-size="11" lengthAdjust="spacingAndGlyphs" textLength="69" x="26" y="551.6714">usesPattern</text><!--class AITools--><rect fill="#90EE90" filter="url(#fdmo8h5zvfxvj)" height="130.7656" id="AITools" style="stroke: #A80036; stroke-width: 1.5;" width="150" x="348" y="427.5"/><ellipse cx="390.45" cy="446.4688" fill="#ADD1B2" rx="11" ry="11" style="stroke: #A80036; stroke-width: 1.0;"/><path d="M393.4188,452.1094 Q392.8406,452.4063 392.2,452.5469 Q391.5594,452.7031 390.8563,452.7031 Q388.3563,452.7031 387.0281,451.0625 Q385.7156,449.4063 385.7156,446.2813 Q385.7156,443.1563 387.0281,441.5 Q388.3563,439.8438 390.8563,439.8438 Q391.5594,439.8438 392.2,440 Q392.8563,440.1563 393.4188,440.4531 L393.4188,443.1719 Q392.7938,442.5938 392.2,442.3281 Q391.6063,442.0469 390.9813,442.0469 Q389.6375,442.0469 388.95,443.125 Q388.2625,444.1875 388.2625,446.2813 Q388.2625,448.375 388.95,449.4531 Q389.6375,450.5156 390.9813,450.5156 Q391.6063,450.5156 392.2,450.25 Q392.7938,449.9688 393.4188,449.3906 L393.4188,452.1094 Z "/><text fill="#000000" font-family="sans-serif" font-size="12" font-style="italic" lengthAdjust="spacingAndGlyphs" textLength="61" x="408.55" y="443.6387">«Domain»</text><text fill="#000000" font-family="sans-serif" font-size="12" lengthAdjust="spacingAndGlyphs" textLength="44" x="417.05" y="457.6074">AITools</text><line style="stroke: #A80036; stroke-width: 1.5;" x1="349" x2="497" y1="465.4375" y2="465.4375"/><ellipse cx="359" cy="477.3398" fill="none" rx="3" ry="3" style="stroke: #038048; stroke-width: 1.0;"/><text fill="#000000" font-family="sans-serif" font-size="11" lengthAdjust="spacingAndGlyphs" textLength="34" x="368" y="479.6479">AITool</text><ellipse cx="359" cy="490.1445" fill="none" rx="3" ry="3" style="stroke: #038048; stroke-width: 1.0;"/><text fill="#000000" font-family="sans-serif" font-size="11" lengthAdjust="spacingAndGlyphs" textLength="51" x="368" y="492.4526">Category</text><ellipse cx="359" cy="502.9492" fill="none" rx="3" ry="3" style="stroke: #038048; stroke-width: 1.0;"/><text fill="#000000" font-family="sans-serif" font-size="11" lengthAdjust="spacingAndGlyphs" textLength="55" x="368" y="505.2573">Capability</text><line style="stroke: #A80036; stroke-width: 1.0;" x1="349" x2="497" y1="511.8516" y2="511.8516"/><ellipse cx="359" cy="523.7539" fill="none" rx="3" ry="3" style="stroke: #038048; stroke-width: 1.0;"/><text fill="#000000" font-family="sans-serif" font-size="11" lengthAdjust="spacingAndGlyphs" textLength="72" x="368" y="526.062">hasCategory</text><ellipse cx="359" cy="536.5586" fill="none" rx="3" ry="3" style="stroke: #038048; stroke-width: 1.0;"/><text fill="#000000" font-family="sans-serif" font-size="11" lengthAdjust="spacingAndGlyphs" textLength="76" x="368" y="538.8667">hasCapability</text><ellipse cx="359" cy="549.3633" fill="none" rx="3" ry="3" style="stroke: #038048; stroke-width: 1.0;"/><text fill="#000000" font-family="sans-serif" font-size="11" lengthAdjust="spacingAndGlyphs" textLength="124" x="368" y="551.6714">maturityLevel: integer</text><!--class OracleStory--><rect fill="#90EE90" filter="url(#fdmo8h5zvfxvj)" height="143.5703" id="OracleStory" style="stroke: #A80036; stroke-width: 1.5;" width="111" x="616.5" y="200"/><ellipse cx="634.65" cy="218.9688" fill="#ADD1B2" rx="11" ry="11" style="stroke: #A80036; stroke-width: 1.0;"/><path d="M637.6188,224.6094 Q637.0406,224.9063 636.4,225.0469 Q635.7594,225.2031 635.0563,225.2031 Q632.5563,225.2031 631.2281,223.5625 Q629.9156,221.9063 629.9156,218.7813 Q629.9156,215.6563 631.2281,214 Q632.5563,212.3438 635.0563,212.3438 Q635.7594,212.3438 636.4,212.5 Q637.0563,212.6563 637.6188,212.9531 L637.6188,215.6719 Q636.9938,215.0938 636.4,214.8281 Q635.8063,214.5469 635.1813,214.5469 Q633.8375,214.5469 633.15,215.625 Q632.4625,216.6875 632.4625,218.7813 Q632.4625,220.875 633.15,221.9531 Q633.8375,223.0156 635.1813,223.0156 Q635.8063,223.0156 636.4,222.75 Q636.9938,222.4688 637.6188,221.8906 L637.6188,224.6094 Z "/><text fill="#000000" font-family="sans-serif" font-size="12" font-style="italic" lengthAdjust="spacingAndGlyphs" textLength="61" x="654.85" y="216.1387">«Domain»</text><text fill="#000000" font-family="sans-serif" font-size="12" lengthAdjust="spacingAndGlyphs" textLength="72" x="649.35" y="230.1074">OracleStory</text><line style="stroke: #A80036; stroke-width: 1.5;" x1="617.5" x2="726.5" y1="237.9375" y2="237.9375"/><ellipse cx="627.5" cy="249.8398" fill="none" rx="3" ry="3" style="stroke: #038048; stroke-width: 1.0;"/><text fill="#000000" font-family="sans-serif" font-size="11" lengthAdjust="spacingAndGlyphs" textLength="40" x="636.5" y="252.1479">Person</text><ellipse cx="627.5" cy="262.6445" fill="none" rx="3" ry="3" style="stroke: #038048; stroke-width: 1.0;"/><text fill="#000000" font-family="sans-serif" font-size="11" lengthAdjust="spacingAndGlyphs" textLength="45" x="636.5" y="264.9526">Position</text><ellipse cx="627.5" cy="275.4492" fill="none" rx="3" ry="3" style="stroke: #038048; stroke-width: 1.0;"/><text fill="#000000" font-family="sans-serif" font-size="11" lengthAdjust="spacingAndGlyphs" textLength="53" x="636.5" y="277.7573">Company</text><ellipse cx="627.5" cy="288.2539" fill="none" rx="3" ry="3" style="stroke: #038048; stroke-width: 1.0;"/><text fill="#000000" font-family="sans-serif" font-size="11" lengthAdjust="spacingAndGlyphs" textLength="51" x="636.5" y="290.562">Interview</text><line style="stroke: #A80036; stroke-width: 1.0;" x1="617.5" x2="726.5" y1="297.1563" y2="297.1563"/><ellipse cx="627.5" cy="309.0586" fill="none" rx="3" ry="3" style="stroke: #038048; stroke-width: 1.0;"/><text fill="#000000" font-family="sans-serif" font-size="11" lengthAdjust="spacingAndGlyphs" textLength="85" x="636.5" y="311.3667">isCandidateFor</text><ellipse cx="627.5" cy="321.8633" fill="none" rx="3" ry="3" style="stroke: #038048; stroke-width: 1.0;"/><text fill="#000000" font-family="sans-serif" font-size="11" lengthAdjust="spacingAndGlyphs" textLength="56" x="636.5" y="324.1714">reportsTo</text><ellipse cx="627.5" cy="334.668" fill="none" rx="3" ry="3" style="stroke: #038048; stroke-width: 1.0;"/><text fill="#000000" font-family="sans-serif" font-size="11" lengthAdjust="spacingAndGlyphs" textLength="53" x="636.5" y="336.9761">oversees</text><!--class SSHDebug--><rect fill="#90EE90" filter="url(#fdmo8h5zvfxvj)" height="143.5703" id="SSHDebug" style="stroke: #A80036; stroke-width: 1.5;" width="106" x="196" y="200"/><ellipse cx="214.6" cy="218.9688" fill="#ADD1B2" rx="11" ry="11" style="stroke: #A80036; stroke-width: 1.0;"/><path d="M217.5688,224.6094 Q216.9906,224.9063 216.35,225.0469 Q215.7094,225.2031 215.0063,225.2031 Q212.5063,225.2031 211.1781,223.5625 Q209.8656,221.9063 209.8656,218.7813 Q209.8656,215.6563 211.1781,214 Q212.5063,212.3438 215.0063,212.3438 Q215.7094,212.3438 216.35,212.5 Q217.0063,212.6563 217.5688,212.9531 L217.5688,215.6719 Q216.9438,215.0938 216.35,214.8281 Q215.7563,214.5469 215.1313,214.5469 Q213.7875,214.5469 213.1,215.625 Q212.4125,216.6875 212.4125,218.7813 Q212.4125,220.875 213.1,221.9531 Q213.7875,223.0156 215.1313,223.0156 Q215.7563,223.0156 216.35,222.75 Q216.9438,222.4688 217.5688,221.8906 L217.5688,224.6094 Z "/><text fill="#000000" font-family="sans-serif" font-size="12" font-style="italic" lengthAdjust="spacingAndGlyphs" textLength="61" x="231.9" y="216.1387">«Domain»</text><text fill="#000000" font-family="sans-serif" font-size="12" lengthAdjust="spacingAndGlyphs" textLength="66" x="229.4" y="230.1074">SSHDebug</text><line style="stroke: #A80036; stroke-width: 1.5;" x1="197" x2="301" y1="237.9375" y2="237.9375"/><ellipse cx="207" cy="249.8398" fill="none" rx="3" ry="3" style="stroke: #038048; stroke-width: 1.0;"/><text fill="#000000" font-family="sans-serif" font-size="11" lengthAdjust="spacingAndGlyphs" textLength="31" x="216" y="252.1479">Issue</text><ellipse cx="207" cy="262.6445" fill="none" rx="3" ry="3" style="stroke: #038048; stroke-width: 1.0;"/><text fill="#000000" font-family="sans-serif" font-size="11" lengthAdjust="spacingAndGlyphs" textLength="23" x="216" y="264.9526">Risk</text><ellipse cx="207" cy="275.4492" fill="none" rx="3" ry="3" style="stroke: #038048; stroke-width: 1.0;"/><text fill="#000000" font-family="sans-serif" font-size="11" lengthAdjust="spacingAndGlyphs" textLength="59" x="216" y="277.7573">Constraint</text><ellipse cx="207" cy="288.2539" fill="none" rx="3" ry="3" style="stroke: #038048; stroke-width: 1.0;"/><text fill="#000000" font-family="sans-serif" font-size="11" lengthAdjust="spacingAndGlyphs" textLength="46" x="216" y="290.562">Solution</text><line style="stroke: #A80036; stroke-width: 1.0;" x1="197" x2="301" y1="297.1563" y2="297.1563"/><ellipse cx="207" cy="309.0586" fill="none" rx="3" ry="3" style="stroke: #038048; stroke-width: 1.0;"/><text fill="#000000" font-family="sans-serif" font-size="11" lengthAdjust="spacingAndGlyphs" textLength="44" x="216" y="311.3667">hasRisk</text><ellipse cx="207" cy="321.8633" fill="none" rx="3" ry="3" style="stroke: #038048; stroke-width: 1.0;"/><text fill="#000000" font-family="sans-serif" font-size="11" lengthAdjust="spacingAndGlyphs" textLength="80" x="216" y="324.1714">hasConstraint</text><ellipse cx="207" cy="334.668" fill="none" rx="3" ry="3" style="stroke: #038048; stroke-width: 1.0;"/><text fill="#000000" font-family="sans-serif" font-size="11" lengthAdjust="spacingAndGlyphs" textLength="67" x="216" y="336.9761">hasSolution</text><!--class OracleOCIDiscovery--><rect fill="#90EE90" filter="url(#fdmo8h5zvfxvj)" height="130.7656" id="OracleOCIDiscovery" style="stroke: #A80036; stroke-width: 1.5;" width="158" x="775" y="427.5"/><ellipse cx="793.15" cy="446.4688" fill="#ADD1B2" rx="11" ry="11" style="stroke: #A80036; stroke-width: 1.0;"/><path d="M796.1188,452.1094 Q795.5406,452.4063 794.9,452.5469 Q794.2594,452.7031 793.5563,452.7031 Q791.0563,452.7031 789.7281,451.0625 Q788.4156,449.4063 788.4156,446.2813 Q788.4156,443.1563 789.7281,441.5 Q791.0563,439.8438 793.5563,439.8438 Q794.2594,439.8438 794.9,440 Q795.5563,440.1563 796.1188,440.4531 L796.1188,443.1719 Q795.4938,442.5938 794.9,442.3281 Q794.3063,442.0469 793.6813,442.0469 Q792.3375,442.0469 791.65,443.125 Q790.9625,444.1875 790.9625,446.2813 Q790.9625,448.375 791.65,449.4531 Q792.3375,450.5156 793.6813,450.5156 Q794.3063,450.5156 794.9,450.25 Q795.4938,449.9688 796.1188,449.3906 L796.1188,452.1094 Z "/><text fill="#000000" font-family="sans-serif" font-size="12" font-style="italic" lengthAdjust="spacingAndGlyphs" textLength="61" x="836.85" y="443.6387">«Domain»</text><text fill="#000000" font-family="sans-serif" font-size="12" lengthAdjust="spacingAndGlyphs" textLength="119" x="807.85" y="457.6074">OracleOCIDiscovery</text><line style="stroke: #A80036; stroke-width: 1.5;" x1="776" x2="932" y1="465.4375" y2="465.4375"/><ellipse cx="786" cy="477.3398" fill="none" rx="3" ry="3" style="stroke: #038048; stroke-width: 1.0;"/><text fill="#000000" font-family="sans-serif" font-size="11" lengthAdjust="spacingAndGlyphs" textLength="132" x="795" y="479.6479">OracleTechnologyStack</text><ellipse cx="786" cy="490.1445" fill="none" rx="3" ry="3" style="stroke: #038048; stroke-width: 1.0;"/><text fill="#000000" font-family="sans-serif" font-size="11" lengthAdjust="spacingAndGlyphs" textLength="74" x="795" y="492.4526">CloudService</text><ellipse cx="786" cy="502.9492" fill="none" rx="3" ry="3" style="stroke: #038048; stroke-width: 1.0;"/><text fill="#000000" font-family="sans-serif" font-size="11" lengthAdjust="spacingAndGlyphs" textLength="102" x="795" y="505.2573">LearningResource</text><line style="stroke: #A80036; stroke-width: 1.0;" x1="776" x2="932" y1="511.8516" y2="511.8516"/><ellipse cx="786" cy="523.7539" fill="none" rx="3" ry="3" style="stroke: #038048; stroke-width: 1.0;"/><text fill="#000000" font-family="sans-serif" font-size="11" lengthAdjust="spacingAndGlyphs" textLength="86" x="795" y="526.062">hasComponent</text><ellipse cx="786" cy="536.5586" fill="none" rx="3" ry="3" style="stroke: #038048; stroke-width: 1.0;"/><text fill="#000000" font-family="sans-serif" font-size="11" lengthAdjust="spacingAndGlyphs" textLength="48" x="795" y="538.8667">requires</text><ellipse cx="786" cy="549.3633" fill="none" rx="3" ry="3" style="stroke: #038048; stroke-width: 1.0;"/><text fill="#000000" font-family="sans-serif" font-size="11" lengthAdjust="spacingAndGlyphs" textLength="49" x="795" y="551.6714">provides</text><!--link MetaMetaCore to MetaGuidance--><path d="M423,159.13 C423,174.95 423,191.25 423,206.35 " fill="none" id="MetaMetaCore-MetaGuidance" style="stroke: #A80036; stroke-width: 1.0;"/><polygon fill="none" points="416,159.11,423,139.11,430,159.11,416,159.11" style="stroke: #A80036; stroke-width: 1.0;"/><!--link BaseModel to Transformation--><path d="M858,139.71 C858,167.93 858,200.27 858,225.79 " fill="none" id="BaseModel-Transformation" style="stroke: #A80036; stroke-width: 1.0;"/><polygon fill="none" points="851,139.58,858,119.58,865,139.58,851,139.58" style="stroke: #A80036; stroke-width: 1.0;"/><!--link MetaGuidance to ProblemSpace--><path d="M501.41,317.73 C526.77,333.91 554.2,353.32 577,374 C592.39,387.96 607.33,404.54 620.63,420.8 " fill="none" id="MetaGuidance-ProblemSpace" style="stroke: #A80036; stroke-width: 1.0;"/><polygon fill="none" points="497.56,323.58,484.27,307.08,504.95,311.69,497.56,323.58" style="stroke: #A80036; stroke-width: 1.0;"/><!--link MetaGuidance to SolutionSpace--><path d="M482.38,354.56 C495.03,375.35 506.97,398.27 515,421 C540.55,493.37 548.51,581.37 550.73,641.73 " fill="none" id="MetaGuidance-SolutionSpace" style="stroke: #A80036; stroke-width: 1.0;"/><polygon fill="none" points="476.46,358.29,471.67,337.65,488.29,350.79,476.46,358.29" style="stroke: #A80036; stroke-width: 1.0;"/><!--link MetaGuidance to ProjectRisks--><path d="M382.17,355.27 C374.75,367.67 366.62,379.98 358,391 C350.1,401.11 331.87,418.62 312.54,436.25 " fill="none" id="MetaGuidance-ProjectRisks" style="stroke: #A80036; stroke-width: 1.0;"/><polygon fill="none" points="376.14,351.7,392.14,337.81,388.3,358.64,376.14,351.7" style="stroke: #A80036; stroke-width: 1.0;"/><!--link MetaGuidance to CreativeAnalogies--><path d="M361.24,352.45 C346.52,367.15 329.85,381 312,391 C254.97,422.95 227.24,393.35 168,421 C161.96,423.82 155.96,427.12 150.09,430.72 " fill="none" id="MetaGuidance-CreativeAnalogies" style="stroke: #A80036; stroke-width: 1.0;"/><polygon fill="none" points="356.46,347.32,375.28,337.58,366.64,356.93,356.46,347.32" style="stroke: #A80036; stroke-width: 1.0;"/><!--link MetaGuidance to AITools--><path d="M423,357.72 C423,380.79 423,405.41 423,427.18 " fill="none" id="MetaGuidance-AITools" style="stroke: #A80036; stroke-width: 1.0;"/><polygon fill="none" points="416,357.52,423,337.52,430,357.52,416,357.52" style="stroke: #A80036; stroke-width: 1.0;"/><!--link ProblemSpace to SolutionSpace--><path d="M632.71,565.1 C619.97,588.17 605.79,613.84 592.86,637.23 " fill="none" id="ProblemSpace-SolutionSpace" style="stroke: #A80036; stroke-width: 1.0;"/><polygon fill="#A80036" points="590.3,641.88,598.1526,635.9355,592.7173,637.5032,591.1496,632.0679,590.3,641.88" style="stroke: #A80036; stroke-width: 1.0;"/><text fill="#000000" font-family="sans-serif" font-size="13" lengthAdjust="spacingAndGlyphs" textLength="64" x="617" y="608.0669">influences</text><!--link ProjectRisks to SolutionSpace--><path d="M312.91,551.36 C318.62,556.06 324.36,560.67 330,565 C378.07,601.92 434.95,639.89 478.97,668.13 " fill="none" id="ProjectRisks-SolutionSpace" style="stroke: #A80036; stroke-width: 1.0;"/><polygon fill="#A80036" points="483.19,670.83,477.7824,662.5985,478.9841,668.1262,473.4564,669.3279,483.19,670.83" style="stroke: #A80036; stroke-width: 1.0;"/><text fill="#000000" font-family="sans-serif" font-size="13" lengthAdjust="spacingAndGlyphs" textLength="66" x="390" y="608.0669">constrains</text><!--link CreativeAnalogies to SolutionSpace--><path d="M150.14,553.84 C156.04,557.82 162.04,561.6 168,565 C269.79,623.06 398.79,667.58 478.07,692.01 " fill="none" id="CreativeAnalogies-SolutionSpace" style="stroke: #A80036; stroke-width: 1.0;"/><polygon fill="#A80036" points="483.22,693.59,475.7753,687.142,478.4368,692.1336,473.4451,694.7951,483.22,693.59" style="stroke: #A80036; stroke-width: 1.0;"/><text fill="#000000" font-family="sans-serif" font-size="13" lengthAdjust="spacingAndGlyphs" textLength="62" x="260" y="608.0669">enhances</text><!--link OracleStory to ProblemSpace--><path d="M672,344.1 C672,366.98 672,392.41 672,415.65 " fill="none" id="OracleStory-ProblemSpace" style="stroke: #A80036; stroke-width: 1.0;"/><polygon fill="#A80036" points="672,420.88,676,411.88,672,415.88,668,411.88,672,420.88" style="stroke: #A80036; stroke-width: 1.0;"/><text fill="#000000" font-family="sans-serif" font-size="13" lengthAdjust="spacingAndGlyphs" textLength="46" x="673" y="387.0669">defines</text><!--link OracleOCIDiscovery to SolutionSpace--><path d="M774.9,551.99 C768.85,556.4 762.83,560.77 757,565 C712.63,597.18 662.71,633.05 623.12,661.42 " fill="none" id="OracleOCIDiscovery-SolutionSpace" style="stroke: #A80036; stroke-width: 1.0;"/><polygon fill="#A80036" points="618.84,664.49,628.4833,662.4881,622.9009,661.573,623.8161,655.9907,618.84,664.49" style="stroke: #A80036; stroke-width: 1.0;"/><text fill="#000000" font-family="sans-serif" font-size="13" lengthAdjust="spacingAndGlyphs" textLength="76" x="713" y="608.0669">implements</text><!--link SSHDebug to ProjectRisks--><path d="M249,344.1 C249,366.98 249,392.41 249,415.65 " fill="none" id="SSHDebug-ProjectRisks" style="stroke: #A80036; stroke-width: 1.0;"/><polygon fill="#A80036" points="249,420.88,253,411.88,249,415.88,245,411.88,249,420.88" style="stroke: #A80036; stroke-width: 1.0;"/><text fill="#000000" font-family="sans-serif" font-size="13" lengthAdjust="spacingAndGlyphs" textLength="57" x="250" y="387.0669">identifies</text><!--
@startuml Ontology Framework

skinparam class {
    BackgroundColor<<Core>> LightBlue
    BackgroundColor<<Domain>> LightGreen
    BackgroundColor<<Meta>> LightPink
    BackgroundColor<<Base>> LightGray
}

class MetaMetaCore <<Meta>> {
    + AbstractionDimension
    + AbstractionLevel
    + KnowledgeDomain
    - -
    + hasLevel
    + levelNumber
    + domainScope
}

class MetaGuidance <<Meta>> {
    + Interpretation
    + Action
    + DomainAnalogy
    - -
    + hasAction
    + analogySource
    + analogyTarget
}

class BaseModel <<Base>> {
    + hasIdentifier: string
    + hasName: string
    + hasDescription: string
}

class Transformation <<Base>> {
    + hasSource: BaseModel
    + hasTarget: BaseModel
    + hasRule: TransformationRule
}

class ProblemSpace <<Domain>> {
    + BusinessNeed
    + Context
    + Constraint
    - -
    + hasValue: string
    + hasPriority: integer
    + hasContext
    + hasConstraint
}

class SolutionSpace <<Domain>> {
    + TechnicalSolution
    + Implementation
    + Validation
    - -
    + satisfies
    + hasImplementation
    + hasValidation
    + validationStatus
}

class ProjectRisks <<Domain>> {
    + Risk
    + Mitigation
    + Impact
    - -
    + severity: integer
    + likelihood: integer
    + hasMitigation
    + hasImpact
}

class CreativeAnalogies <<Domain>> {
    + PlayfulAnalogy
    + AnalogicalBridge
    + ExplanationPattern
    - -
    + funFactor: integer
    + hasBridge
    + usesPattern
}

class AITools <<Domain>> {
    + AITool
    + Category
    + Capability
    - -
    + hasCategory
    + hasCapability
    + maturityLevel: integer
}

class OracleStory <<Domain>> {
    + Person
    + Position
    + Company
    + Interview
    - -
    + isCandidateFor
    + reportsTo
    + oversees
}

class SSHDebug <<Domain>> {
    + Issue
    + Risk
    + Constraint
    + Solution
    - -
    + hasRisk
    + hasConstraint
    + hasSolution
}

class OracleOCIDiscovery <<Domain>> {
    + OracleTechnologyStack
    + CloudService
    + LearningResource
    - -
    + hasComponent
    + requires
    + provides
}

MetaMetaCore <|- - MetaGuidance
BaseModel <|- - Transformation
MetaGuidance <|- - ProblemSpace
MetaGuidance <|- - SolutionSpace
MetaGuidance <|- - ProjectRisks
MetaGuidance <|- - CreativeAnalogies
MetaGuidance <|- - AITools

ProblemSpace - -> SolutionSpace : influences
ProjectRisks - -> SolutionSpace : constrains
CreativeAnalogies - -> SolutionSpace : enhances

OracleStory - -> ProblemSpace : defines
OracleOCIDiscovery - -> SolutionSpace : implements
SSHDebug - -> ProjectRisks : identifies

@enduml 

PlantUML version 1.2018.13(Mon Nov 26 17:11:51 UTC 2018)
(GPL source distribution)
Java Runtime: OpenJDK Runtime Environment
JVM: OpenJDK 64-Bit Server VM
Java Version: 11.0.24+8-post-Ubuntu-1ubuntu320.04
Operating System: Linux
OS Version: 5.15.0-1068-oracle
Default Encoding: UTF-8
Language: en
Country: null
--></g></svg>