<svg xmlns="http://www.w3.org/2000/svg" xmlns:xlink="http://www.w3.org/1999/xlink" contentStyleType="text/css" data-diagram-type="CLASS" height="900px" preserveAspectRatio="none" style="width:1066px;height:900px;background:#FFFFFF;" version="1.1" viewBox="0 0 1066 900" width="1066px" zoomAndPan="magnify"><defs/><g><!--class MetaMetaCore--><g id="elem_MetaMetaCore"><rect codeLine="11" fill="#FFB6C1" height="155.5508" id="MetaMetaCore" rx="2.5" ry="2.5" style="stroke:#181818;stroke-width:0.5;" width="176.6094" x="379.65" y="7"/><ellipse cx="415.8642" cy="27.3105" fill="#ADD1B2" rx="11" ry="11" style="stroke:#181818;stroke-width:1;"/><path d="M418.3373,33.4536 Q417.7562,33.7524 417.1171,33.9019 Q416.4779,34.0513 415.7724,34.0513 Q413.2655,34.0513 411.9457,32.3994 Q410.6259,30.7476 410.6259,27.6265 Q410.6259,24.4971 411.9457,22.8452 Q413.2655,21.1934 415.7724,21.1934 Q416.4779,21.1934 417.1254,21.3428 Q417.7729,21.4922 418.3373,21.791 L418.3373,24.5137 Q417.7064,23.9326 417.1129,23.6628 Q416.5194,23.3931 415.8886,23.3931 Q414.5438,23.3931 413.859,24.4597 Q413.1742,25.5264 413.1742,27.6265 Q413.1742,29.7183 413.859,30.7849 Q414.5438,31.8516 415.8886,31.8516 Q416.5194,31.8516 417.1129,31.5818 Q417.7064,31.312 418.3373,30.731 Z " fill="#000000"/><text fill="#000000" font-family="sans-serif" font-size="12" font-style="italic" lengthAdjust="spacing" textLength="40.7109" x="462.9563" y="23.6016">&#171;Meta&#187;</text><text fill="#000000" font-family="sans-serif" font-size="14" lengthAdjust="spacing" textLength="97.4668" x="434.5784" y="39.668">MetaMetaCore</text><line style="stroke:#181818;stroke-width:0.5;" x1="380.65" x2="555.2594" y1="47.6211" y2="47.6211"/><ellipse cx="390.65" cy="61.3652" fill="transparent" rx="3" ry="3" style="stroke:#038048;stroke-width:1;"/><text fill="#000000" font-family="sans-serif" font-size="14" lengthAdjust="spacing" textLength="150.6094" x="399.65" y="65.1563">AbstractionDimension</text><ellipse cx="390.65" cy="77.8535" fill="transparent" rx="3" ry="3" style="stroke:#038048;stroke-width:1;"/><text fill="#000000" font-family="sans-serif" font-size="14" lengthAdjust="spacing" textLength="112.4033" x="399.65" y="81.6445">AbstractionLevel</text><ellipse cx="390.65" cy="94.3418" fill="transparent" rx="3" ry="3" style="stroke:#038048;stroke-width:1;"/><text fill="#000000" font-family="sans-serif" font-size="14" lengthAdjust="spacing" textLength="127.0254" x="399.65" y="98.1328">KnowledgeDomain</text><line style="stroke:#181818;stroke-width:1;" x1="380.65" x2="555.2594" y1="105.0859" y2="105.0859"/><ellipse cx="390.65" cy="118.8301" fill="transparent" rx="3" ry="3" style="stroke:#038048;stroke-width:1;"/><text fill="#000000" font-family="sans-serif" font-size="14" lengthAdjust="spacing" textLength="57.9141" x="399.65" y="122.6211">hasLevel</text><ellipse cx="390.65" cy="135.3184" fill="transparent" rx="3" ry="3" style="stroke:#038048;stroke-width:1;"/><text fill="#000000" font-family="sans-serif" font-size="14" lengthAdjust="spacing" textLength="85.3809" x="399.65" y="139.1094">levelNumber</text><ellipse cx="390.65" cy="151.8066" fill="transparent" rx="3" ry="3" style="stroke:#038048;stroke-width:1;"/><text fill="#000000" font-family="sans-serif" font-size="14" lengthAdjust="spacing" textLength="90.8701" x="399.65" y="155.5977">domainScope</text></g><!--class MetaGuidance--><g id="elem_MetaGuidance"><rect codeLine="21" fill="#FFB6C1" height="155.5508" id="MetaGuidance" rx="2.5" ry="2.5" style="stroke:#181818;stroke-width:0.5;" width="133.3926" x="401.26" y="231.8"/><ellipse cx="418.7403" cy="252.1105" fill="#ADD1B2" rx="11" ry="11" style="stroke:#181818;stroke-width:1;"/><path d="M421.2134,258.2536 Q420.6324,258.5524 419.9932,258.7019 Q419.354,258.8513 418.6485,258.8513 Q416.1416,258.8513 414.8218,257.1994 Q413.502,255.5476 413.502,252.4265 Q413.502,249.2971 414.8218,247.6452 Q416.1416,245.9934 418.6485,245.9934 Q419.354,245.9934 420.0015,246.1428 Q420.649,246.2922 421.2134,246.591 L421.2134,249.3137 Q420.5826,248.7326 419.9891,248.4628 Q419.3955,248.1931 418.7647,248.1931 Q417.42,248.1931 416.7351,249.2597 Q416.0503,250.3264 416.0503,252.4265 Q416.0503,254.5183 416.7351,255.5849 Q417.42,256.6516 418.7647,256.6516 Q419.3955,256.6516 419.9891,256.3818 Q420.5826,256.112 421.2134,255.531 Z " fill="#000000"/><text fill="#000000" font-family="sans-serif" font-size="12" font-style="italic" lengthAdjust="spacing" textLength="40.7109" x="460.8764" y="248.4016">&#171;Meta&#187;</text><text fill="#000000" font-family="sans-serif" font-size="14" lengthAdjust="spacing" textLength="95.8809" x="433.2914" y="264.468">MetaGuidance</text><line style="stroke:#181818;stroke-width:0.5;" x1="402.26" x2="533.6526" y1="272.4211" y2="272.4211"/><ellipse cx="412.26" cy="286.1652" fill="transparent" rx="3" ry="3" style="stroke:#038048;stroke-width:1;"/><text fill="#000000" font-family="sans-serif" font-size="14" lengthAdjust="spacing" textLength="93.3652" x="421.26" y="289.9562">Interpretation</text><ellipse cx="412.26" cy="302.6535" fill="transparent" rx="3" ry="3" style="stroke:#038048;stroke-width:1;"/><text fill="#000000" font-family="sans-serif" font-size="14" lengthAdjust="spacing" textLength="43.4014" x="421.26" y="306.4445">Action</text><ellipse cx="412.26" cy="319.1418" fill="transparent" rx="3" ry="3" style="stroke:#038048;stroke-width:1;"/><text fill="#000000" font-family="sans-serif" font-size="14" lengthAdjust="spacing" textLength="107.3926" x="421.26" y="322.9328">DomainAnalogy</text><line style="stroke:#181818;stroke-width:1;" x1="402.26" x2="533.6526" y1="329.8859" y2="329.8859"/><ellipse cx="412.26" cy="343.6301" fill="transparent" rx="3" ry="3" style="stroke:#038048;stroke-width:1;"/><text fill="#000000" font-family="sans-serif" font-size="14" lengthAdjust="spacing" textLength="66.958" x="421.26" y="347.4211">hasAction</text><ellipse cx="412.26" cy="360.1184" fill="transparent" rx="3" ry="3" style="stroke:#038048;stroke-width:1;"/><text fill="#000000" font-family="sans-serif" font-size="14" lengthAdjust="spacing" textLength="98.3691" x="421.26" y="363.9094">analogySource</text><ellipse cx="412.26" cy="376.6066" fill="transparent" rx="3" ry="3" style="stroke:#038048;stroke-width:1;"/><text fill="#000000" font-family="sans-serif" font-size="14" lengthAdjust="spacing" textLength="96.9199" x="421.26" y="380.3977">analogyTarget</text></g><!--class BaseModel--><g id="elem_BaseModel"><rect codeLine="32" fill="#D3D3D3" height="106.0859" id="BaseModel" rx="2.5" ry="2.5" style="stroke:#181818;stroke-width:0.5;" width="175.7344" x="860.09" y="31.73"/><ellipse cx="907.6886" cy="52.0405" fill="#ADD1B2" rx="11" ry="11" style="stroke:#181818;stroke-width:1;"/><path d="M910.1618,58.1836 Q909.5807,58.4824 908.9416,58.6319 Q908.3024,58.7813 907.5968,58.7813 Q905.09,58.7813 903.7702,57.1294 Q902.4504,55.4776 902.4504,52.3565 Q902.4504,49.2271 903.7702,47.5752 Q905.09,45.9234 907.5968,45.9234 Q908.3024,45.9234 908.9499,46.0728 Q909.5973,46.2222 910.1618,46.521 L910.1618,49.2437 Q909.5309,48.6626 908.9374,48.3928 Q908.3439,48.1231 907.713,48.1231 Q906.3683,48.1231 905.6835,49.1897 Q904.9987,50.2564 904.9987,52.3565 Q904.9987,54.4483 905.6835,55.5149 Q906.3683,56.5816 907.713,56.5816 Q908.3439,56.5816 908.9374,56.3118 Q909.5309,56.042 910.1618,55.461 Z " fill="#000000"/><text fill="#000000" font-family="sans-serif" font-size="12" font-style="italic" lengthAdjust="spacing" textLength="38.9063" x="944.7541" y="48.3316">&#171;Base&#187;</text><text fill="#000000" font-family="sans-serif" font-size="14" lengthAdjust="spacing" textLength="72.0371" x="928.1886" y="64.398">BaseModel</text><line style="stroke:#181818;stroke-width:0.5;" x1="861.09" x2="1034.8244" y1="72.3511" y2="72.3511"/><ellipse cx="871.09" cy="86.0952" fill="transparent" rx="3" ry="3" style="stroke:#038048;stroke-width:1;"/><text fill="#000000" font-family="sans-serif" font-size="14" lengthAdjust="spacing" textLength="133.3213" x="880.09" y="89.8862">hasIdentifier: string</text><ellipse cx="871.09" cy="102.5835" fill="transparent" rx="3" ry="3" style="stroke:#038048;stroke-width:1;"/><text fill="#000000" font-family="sans-serif" font-size="14" lengthAdjust="spacing" textLength="110.9268" x="880.09" y="106.3745">hasName: string</text><ellipse cx="871.09" cy="119.0718" fill="transparent" rx="3" ry="3" style="stroke:#038048;stroke-width:1;"/><text fill="#000000" font-family="sans-serif" font-size="14" lengthAdjust="spacing" textLength="149.7344" x="880.09" y="122.8628">hasDescription: string</text><line style="stroke:#181818;stroke-width:0.5;" x1="861.09" x2="1034.8244" y1="129.8159" y2="129.8159"/></g><!--class Transformation--><g id="elem_Transformation"><rect codeLine="38" fill="#D3D3D3" height="106.0859" id="Transformation" rx="2.5" ry="2.5" style="stroke:#181818;stroke-width:0.5;" width="222.1777" x="836.87" y="256.53"/><ellipse cx="891.2157" cy="276.8405" fill="#ADD1B2" rx="11" ry="11" style="stroke:#181818;stroke-width:1;"/><path d="M893.6888,282.9836 Q893.1078,283.2824 892.4686,283.4319 Q891.8295,283.5813 891.1239,283.5813 Q888.6171,283.5813 887.2972,281.9294 Q885.9774,280.2776 885.9774,277.1565 Q885.9774,274.0271 887.2972,272.3752 Q888.6171,270.7234 891.1239,270.7234 Q891.8295,270.7234 892.4769,270.8728 Q893.1244,271.0222 893.6888,271.321 L893.6888,274.0437 Q893.058,273.4626 892.4645,273.1928 Q891.871,272.9231 891.2401,272.9231 Q889.8954,272.9231 889.2106,273.9897 Q888.5258,275.0564 888.5258,277.1565 Q888.5258,279.2483 889.2106,280.3149 Q889.8954,281.3816 891.2401,281.3816 Q891.871,281.3816 892.4645,281.1118 Q893.058,280.842 893.6888,280.261 Z " fill="#000000"/><text fill="#000000" font-family="sans-serif" font-size="12" font-style="italic" lengthAdjust="spacing" textLength="38.9063" x="944.7557" y="273.1316">&#171;Base&#187;</text><text fill="#000000" font-family="sans-serif" font-size="14" lengthAdjust="spacing" textLength="104.9863" x="911.7157" y="289.198">Transformation</text><line style="stroke:#181818;stroke-width:0.5;" x1="837.87" x2="1058.0477" y1="297.1511" y2="297.1511"/><ellipse cx="847.87" cy="310.8952" fill="transparent" rx="3" ry="3" style="stroke:#038048;stroke-width:1;"/><text fill="#000000" font-family="sans-serif" font-size="14" lengthAdjust="spacing" textLength="149.9805" x="856.87" y="314.6863">hasSource: BaseModel</text><ellipse cx="847.87" cy="327.3835" fill="transparent" rx="3" ry="3" style="stroke:#038048;stroke-width:1;"/><text fill="#000000" font-family="sans-serif" font-size="14" lengthAdjust="spacing" textLength="148.5313" x="856.87" y="331.1745">hasTarget: BaseModel</text><ellipse cx="847.87" cy="343.8718" fill="transparent" rx="3" ry="3" style="stroke:#038048;stroke-width:1;"/><text fill="#000000" font-family="sans-serif" font-size="14" lengthAdjust="spacing" textLength="196.1777" x="856.87" y="347.6628">hasRule: TransformationRule</text><line style="stroke:#181818;stroke-width:0.5;" x1="837.87" x2="1058.0477" y1="354.6159" y2="354.6159"/></g><!--class ProblemSpace--><g id="elem_ProblemSpace"><rect codeLine="45" fill="#90EE90" height="172.0391" id="ProblemSpace" rx="2.5" ry="2.5" style="stroke:#181818;stroke-width:0.5;" width="154.8848" x="660.51" y="472.59"/><ellipse cx="688.1263" cy="492.9005" fill="#ADD1B2" rx="11" ry="11" style="stroke:#181818;stroke-width:1;"/><path d="M690.5994,499.0436 Q690.0183,499.3424 689.3792,499.4919 Q688.74,499.6413 688.0345,499.6413 Q685.5276,499.6413 684.2078,497.9894 Q682.888,496.3376 682.888,493.2165 Q682.888,490.0871 684.2078,488.4352 Q685.5276,486.7834 688.0345,486.7834 Q688.74,486.7834 689.3875,486.9328 Q690.035,487.0822 690.5994,487.381 L690.5994,490.1037 Q689.9685,489.5226 689.375,489.2528 Q688.7815,488.9831 688.1507,488.9831 Q686.8059,488.9831 686.1211,490.0497 Q685.4363,491.1164 685.4363,493.2165 Q685.4363,495.3083 686.1211,496.3749 Q686.8059,497.4416 688.1507,497.4416 Q688.7815,497.4416 689.375,497.1718 Q689.9685,496.902 690.5994,496.321 Z " fill="#000000"/><text fill="#000000" font-family="sans-serif" font-size="12" font-style="italic" lengthAdjust="spacing" textLength="57.6797" x="723.5143" y="489.1916">&#171;Domain&#187;</text><text fill="#000000" font-family="sans-serif" font-size="14" lengthAdjust="spacing" textLength="94.8486" x="704.9299" y="505.258">ProblemSpace</text><line style="stroke:#181818;stroke-width:0.5;" x1="661.51" x2="814.3948" y1="513.2111" y2="513.2111"/><ellipse cx="671.51" cy="526.9552" fill="transparent" rx="3" ry="3" style="stroke:#038048;stroke-width:1;"/><text fill="#000000" font-family="sans-serif" font-size="14" lengthAdjust="spacing" textLength="93.4404" x="680.51" y="530.7462">BusinessNeed</text><ellipse cx="671.51" cy="543.4435" fill="transparent" rx="3" ry="3" style="stroke:#038048;stroke-width:1;"/><text fill="#000000" font-family="sans-serif" font-size="14" lengthAdjust="spacing" textLength="53.833" x="680.51" y="547.2345">Context</text><ellipse cx="671.51" cy="559.9318" fill="transparent" rx="3" ry="3" style="stroke:#038048;stroke-width:1;"/><text fill="#000000" font-family="sans-serif" font-size="14" lengthAdjust="spacing" textLength="70.7793" x="680.51" y="563.7228">Constraint</text><line style="stroke:#181818;stroke-width:1;" x1="661.51" x2="814.3948" y1="570.6759" y2="570.6759"/><ellipse cx="671.51" cy="584.4201" fill="transparent" rx="3" ry="3" style="stroke:#038048;stroke-width:1;"/><text fill="#000000" font-family="sans-serif" font-size="14" lengthAdjust="spacing" textLength="109.4023" x="680.51" y="588.2111">hasValue: string</text><ellipse cx="671.51" cy="600.9084" fill="transparent" rx="3" ry="3" style="stroke:#038048;stroke-width:1;"/><text fill="#000000" font-family="sans-serif" font-size="14" lengthAdjust="spacing" textLength="128.8848" x="680.51" y="604.6994">hasPriority: integer</text><ellipse cx="671.51" cy="617.3966" fill="transparent" rx="3" ry="3" style="stroke:#038048;stroke-width:1;"/><text fill="#000000" font-family="sans-serif" font-size="14" lengthAdjust="spacing" textLength="77.3896" x="680.51" y="621.1877">hasContext</text><ellipse cx="671.51" cy="633.8849" fill="transparent" rx="3" ry="3" style="stroke:#038048;stroke-width:1;"/><text fill="#000000" font-family="sans-serif" font-size="14" lengthAdjust="spacing" textLength="94.3359" x="680.51" y="637.6759">hasConstraint</text></g><!--class SolutionSpace--><g id="elem_SolutionSpace"><rect codeLine="56" fill="#90EE90" height="172.0391" id="SolutionSpace" rx="2.5" ry="2.5" style="stroke:#181818;stroke-width:0.5;" width="156.416" x="529.75" y="721.63"/><ellipse cx="558.2122" cy="741.9405" fill="#ADD1B2" rx="11" ry="11" style="stroke:#181818;stroke-width:1;"/><path d="M560.6854,748.0836 Q560.1043,748.3824 559.4651,748.5319 Q558.826,748.6813 558.1204,748.6813 Q555.6136,748.6813 554.2938,747.0294 Q552.9739,745.3776 552.9739,742.2565 Q552.9739,739.1271 554.2938,737.4752 Q555.6136,735.8234 558.1204,735.8234 Q558.826,735.8234 559.4734,735.9728 Q560.1209,736.1222 560.6854,736.421 L560.6854,739.1437 Q560.0545,738.5626 559.461,738.2928 Q558.8675,738.0231 558.2366,738.0231 Q556.8919,738.0231 556.2071,739.0897 Q555.5223,740.1564 555.5223,742.2565 Q555.5223,744.3483 556.2071,745.4149 Q556.8919,746.4816 558.2366,746.4816 Q558.8675,746.4816 559.461,746.2118 Q560.0545,745.942 560.6854,745.361 Z " fill="#000000"/><text fill="#000000" font-family="sans-serif" font-size="12" font-style="italic" lengthAdjust="spacing" textLength="57.6797" x="593.614" y="738.2316">&#171;Domain&#187;</text><text fill="#000000" font-family="sans-serif" font-size="14" lengthAdjust="spacing" textLength="94.5" x="575.2038" y="754.298">SolutionSpace</text><line style="stroke:#181818;stroke-width:0.5;" x1="530.75" x2="685.166" y1="762.2511" y2="762.2511"/><ellipse cx="540.75" cy="775.9952" fill="transparent" rx="3" ry="3" style="stroke:#038048;stroke-width:1;"/><text fill="#000000" font-family="sans-serif" font-size="14" lengthAdjust="spacing" textLength="119.6426" x="549.75" y="779.7863">TechnicalSolution</text><ellipse cx="540.75" cy="792.4835" fill="transparent" rx="3" ry="3" style="stroke:#038048;stroke-width:1;"/><text fill="#000000" font-family="sans-serif" font-size="14" lengthAdjust="spacing" textLength="106.8594" x="549.75" y="796.2745">Implementation</text><ellipse cx="540.75" cy="808.9718" fill="transparent" rx="3" ry="3" style="stroke:#038048;stroke-width:1;"/><text fill="#000000" font-family="sans-serif" font-size="14" lengthAdjust="spacing" textLength="68.0928" x="549.75" y="812.7628">Validation</text><line style="stroke:#181818;stroke-width:1;" x1="530.75" x2="685.166" y1="819.7159" y2="819.7159"/><ellipse cx="540.75" cy="833.4601" fill="transparent" rx="3" ry="3" style="stroke:#038048;stroke-width:1;"/><text fill="#000000" font-family="sans-serif" font-size="14" lengthAdjust="spacing" textLength="55.4189" x="549.75" y="837.2511">satisfies</text><ellipse cx="540.75" cy="849.9484" fill="transparent" rx="3" ry="3" style="stroke:#038048;stroke-width:1;"/><text fill="#000000" font-family="sans-serif" font-size="14" lengthAdjust="spacing" textLength="130.416" x="549.75" y="853.7394">hasImplementation</text><ellipse cx="540.75" cy="866.4366" fill="transparent" rx="3" ry="3" style="stroke:#038048;stroke-width:1;"/><text fill="#000000" font-family="sans-serif" font-size="14" lengthAdjust="spacing" textLength="91.6494" x="549.75" y="870.2277">hasValidation</text><ellipse cx="540.75" cy="882.9249" fill="transparent" rx="3" ry="3" style="stroke:#038048;stroke-width:1;"/><text fill="#000000" font-family="sans-serif" font-size="14" lengthAdjust="spacing" textLength="107.7549" x="549.75" y="886.7159">validationStatus</text></g><!--class ProjectRisks--><g id="elem_ProjectRisks"><rect codeLine="67" fill="#90EE90" height="172.0391" id="ProjectRisks" rx="2.5" ry="2.5" style="stroke:#181818;stroke-width:0.5;" width="149.7578" x="196.08" y="472.59"/><ellipse cx="227.2216" cy="492.9005" fill="#ADD1B2" rx="11" ry="11" style="stroke:#181818;stroke-width:1;"/><path d="M229.6947,499.0436 Q229.1136,499.3424 228.4745,499.4919 Q227.8353,499.6413 227.1298,499.6413 Q224.6229,499.6413 223.3031,497.9894 Q221.9833,496.3376 221.9833,493.2165 Q221.9833,490.0871 223.3031,488.4352 Q224.6229,486.7834 227.1298,486.7834 Q227.8353,486.7834 228.4828,486.9328 Q229.1302,487.0822 229.6947,487.381 L229.6947,490.1037 Q229.0638,489.5226 228.4703,489.2528 Q227.8768,488.9831 227.246,488.9831 Q225.9012,488.9831 225.2164,490.0497 Q224.5316,491.1164 224.5316,493.2165 Q224.5316,495.3083 225.2164,496.3749 Q225.9012,497.4416 227.246,497.4416 Q227.8768,497.4416 228.4703,497.1718 Q229.0638,496.902 229.6947,496.321 Z " fill="#000000"/><text fill="#000000" font-family="sans-serif" font-size="12" font-style="italic" lengthAdjust="spacing" textLength="57.6797" x="256.9126" y="489.1916">&#171;Domain&#187;</text><text fill="#000000" font-family="sans-serif" font-size="14" lengthAdjust="spacing" textLength="81.8877" x="244.8086" y="505.258">ProjectRisks</text><line style="stroke:#181818;stroke-width:0.5;" x1="197.08" x2="344.8378" y1="513.2111" y2="513.2111"/><ellipse cx="207.08" cy="526.9552" fill="transparent" rx="3" ry="3" style="stroke:#038048;stroke-width:1;"/><text fill="#000000" font-family="sans-serif" font-size="14" lengthAdjust="spacing" textLength="28.2188" x="216.08" y="530.7462">Risk</text><ellipse cx="207.08" cy="543.4435" fill="transparent" rx="3" ry="3" style="stroke:#038048;stroke-width:1;"/><text fill="#000000" font-family="sans-serif" font-size="14" lengthAdjust="spacing" textLength="68.4209" x="216.08" y="547.2345">Mitigation</text><ellipse cx="207.08" cy="559.9318" fill="transparent" rx="3" ry="3" style="stroke:#038048;stroke-width:1;"/><text fill="#000000" font-family="sans-serif" font-size="14" lengthAdjust="spacing" textLength="46.0537" x="216.08" y="563.7228">Impact</text><line style="stroke:#181818;stroke-width:1;" x1="197.08" x2="344.8378" y1="570.6759" y2="570.6759"/><ellipse cx="207.08" cy="584.4201" fill="transparent" rx="3" ry="3" style="stroke:#038048;stroke-width:1;"/><text fill="#000000" font-family="sans-serif" font-size="14" lengthAdjust="spacing" textLength="109.1973" x="216.08" y="588.2111">severity: integer</text><ellipse cx="207.08" cy="600.9084" fill="transparent" rx="3" ry="3" style="stroke:#038048;stroke-width:1;"/><text fill="#000000" font-family="sans-serif" font-size="14" lengthAdjust="spacing" textLength="123.7578" x="216.08" y="604.6994">likelihood: integer</text><ellipse cx="207.08" cy="617.3966" fill="transparent" rx="3" ry="3" style="stroke:#038048;stroke-width:1;"/><text fill="#000000" font-family="sans-serif" font-size="14" lengthAdjust="spacing" textLength="91.9775" x="216.08" y="621.1877">hasMitigation</text><ellipse cx="207.08" cy="633.8849" fill="transparent" rx="3" ry="3" style="stroke:#038048;stroke-width:1;"/><text fill="#000000" font-family="sans-serif" font-size="14" lengthAdjust="spacing" textLength="69.6104" x="216.08" y="637.6759">hasImpact</text></g><!--class CreativeAnalogies--><g id="elem_CreativeAnalogies"><rect codeLine="78" fill="#90EE90" height="155.5508" id="CreativeAnalogies" rx="2.5" ry="2.5" style="stroke:#181818;stroke-width:0.5;" width="153.9141" x="7" y="480.84"/><ellipse cx="22.0901" cy="501.1505" fill="#ADD1B2" rx="11" ry="11" style="stroke:#181818;stroke-width:1;"/><path d="M24.5632,507.2936 Q23.9822,507.5924 23.343,507.7419 Q22.7039,507.8913 21.9983,507.8913 Q19.4915,507.8913 18.1716,506.2394 Q16.8518,504.5876 16.8518,501.4665 Q16.8518,498.3371 18.1716,496.6852 Q19.4915,495.0334 21.9983,495.0334 Q22.7039,495.0334 23.3513,495.1828 Q23.9988,495.3322 24.5632,495.631 L24.5632,498.3537 Q23.9324,497.7726 23.3389,497.5028 Q22.7454,497.2331 22.1145,497.2331 Q20.7698,497.2331 20.085,498.2997 Q19.4001,499.3664 19.4001,501.4665 Q19.4001,503.5583 20.085,504.6249 Q20.7698,505.6916 22.1145,505.6916 Q22.7454,505.6916 23.3389,505.4218 Q23.9324,505.152 24.5632,504.571 Z " fill="#000000"/><text fill="#000000" font-family="sans-serif" font-size="12" font-style="italic" lengthAdjust="spacing" textLength="57.6797" x="68.1272" y="497.4416">&#171;Domain&#187;</text><text fill="#000000" font-family="sans-serif" font-size="14" lengthAdjust="spacing" textLength="121.7139" x="36.1101" y="513.508">CreativeAnalogies</text><line style="stroke:#181818;stroke-width:0.5;" x1="8" x2="159.9141" y1="521.4611" y2="521.4611"/><ellipse cx="18" cy="535.2052" fill="transparent" rx="3" ry="3" style="stroke:#038048;stroke-width:1;"/><text fill="#000000" font-family="sans-serif" font-size="14" lengthAdjust="spacing" textLength="99.4834" x="27" y="538.9962">PlayfulAnalogy</text><ellipse cx="18" cy="551.6935" fill="transparent" rx="3" ry="3" style="stroke:#038048;stroke-width:1;"/><text fill="#000000" font-family="sans-serif" font-size="14" lengthAdjust="spacing" textLength="113.6201" x="27" y="555.4845">AnalogicalBridge</text><ellipse cx="18" cy="568.1818" fill="transparent" rx="3" ry="3" style="stroke:#038048;stroke-width:1;"/><text fill="#000000" font-family="sans-serif" font-size="14" lengthAdjust="spacing" textLength="127.9141" x="27" y="571.9728">ExplanationPattern</text><line style="stroke:#181818;stroke-width:1;" x1="8" x2="159.9141" y1="578.9259" y2="578.9259"/><ellipse cx="18" cy="592.6701" fill="transparent" rx="3" ry="3" style="stroke:#038048;stroke-width:1;"/><text fill="#000000" font-family="sans-serif" font-size="14" lengthAdjust="spacing" textLength="121.3857" x="27" y="596.4611">funFactor: integer</text><ellipse cx="18" cy="609.1584" fill="transparent" rx="3" ry="3" style="stroke:#038048;stroke-width:1;"/><text fill="#000000" font-family="sans-serif" font-size="14" lengthAdjust="spacing" textLength="66.7256" x="27" y="612.9494">hasBridge</text><ellipse cx="18" cy="625.6466" fill="transparent" rx="3" ry="3" style="stroke:#038048;stroke-width:1;"/><text fill="#000000" font-family="sans-serif" font-size="14" lengthAdjust="spacing" textLength="78.9209" x="27" y="629.4377">usesPattern</text></g><!--class AITools--><g id="elem_AITools"><rect codeLine="88" fill="#90EE90" height="155.5508" id="AITools" rx="2.5" ry="2.5" style="stroke:#181818;stroke-width:0.5;" width="174.2988" x="380.81" y="480.84"/><ellipse cx="436.8696" cy="501.1505" fill="#ADD1B2" rx="11" ry="11" style="stroke:#181818;stroke-width:1;"/><path d="M439.3427,507.2936 Q438.7617,507.5924 438.1225,507.7419 Q437.4833,507.8913 436.7778,507.8913 Q434.2709,507.8913 432.9511,506.2394 Q431.6313,504.5876 431.6313,501.4665 Q431.6313,498.3371 432.9511,496.6852 Q434.2709,495.0334 436.7778,495.0334 Q437.4833,495.0334 438.1308,495.1828 Q438.7783,495.3322 439.3427,495.631 L439.3427,498.3537 Q438.7119,497.7726 438.1183,497.5028 Q437.5248,497.2331 436.894,497.2331 Q435.5493,497.2331 434.8644,498.2997 Q434.1796,499.3664 434.1796,501.4665 Q434.1796,503.5583 434.8644,504.6249 Q435.5493,505.6916 436.894,505.6916 Q437.5248,505.6916 438.1183,505.4218 Q438.7119,505.152 439.3427,504.571 Z " fill="#000000"/><text fill="#000000" font-family="sans-serif" font-size="12" font-style="italic" lengthAdjust="spacing" textLength="57.6797" x="455.3696" y="497.4416">&#171;Domain&#187;</text><text fill="#000000" font-family="sans-serif" font-size="14" lengthAdjust="spacing" textLength="50.9277" x="458.7455" y="513.508">AITools</text><line style="stroke:#181818;stroke-width:0.5;" x1="381.81" x2="554.1088" y1="521.4611" y2="521.4611"/><ellipse cx="391.81" cy="535.2052" fill="transparent" rx="3" ry="3" style="stroke:#038048;stroke-width:1;"/><text fill="#000000" font-family="sans-serif" font-size="14" lengthAdjust="spacing" textLength="43.791" x="400.81" y="538.9962">AITool</text><ellipse cx="391.81" cy="551.6935" fill="transparent" rx="3" ry="3" style="stroke:#038048;stroke-width:1;"/><text fill="#000000" font-family="sans-serif" font-size="14" lengthAdjust="spacing" textLength="60.8262" x="400.81" y="555.4845">Category</text><ellipse cx="391.81" cy="568.1818" fill="transparent" rx="3" ry="3" style="stroke:#038048;stroke-width:1;"/><text fill="#000000" font-family="sans-serif" font-size="14" lengthAdjust="spacing" textLength="67.4639" x="400.81" y="571.9728">Capability</text><line style="stroke:#181818;stroke-width:1;" x1="381.81" x2="554.1088" y1="578.9259" y2="578.9259"/><ellipse cx="391.81" cy="592.6701" fill="transparent" rx="3" ry="3" style="stroke:#038048;stroke-width:1;"/><text fill="#000000" font-family="sans-serif" font-size="14" lengthAdjust="spacing" textLength="84.3828" x="400.81" y="596.4611">hasCategory</text><ellipse cx="391.81" cy="609.1584" fill="transparent" rx="3" ry="3" style="stroke:#038048;stroke-width:1;"/><text fill="#000000" font-family="sans-serif" font-size="14" lengthAdjust="spacing" textLength="91.0205" x="400.81" y="612.9494">hasCapability</text><ellipse cx="391.81" cy="625.6466" fill="transparent" rx="3" ry="3" style="stroke:#038048;stroke-width:1;"/><text fill="#000000" font-family="sans-serif" font-size="14" lengthAdjust="spacing" textLength="148.2988" x="400.81" y="629.4377">maturityLevel: integer</text></g><!--class OracleStory--><g id="elem_OracleStory"><rect codeLine="99" fill="#90EE90" height="172.0391" id="OracleStory" rx="2.5" ry="2.5" style="stroke:#181818;stroke-width:0.5;" width="127.5615" x="674.18" y="223.55"/><ellipse cx="697.1851" cy="243.8605" fill="#ADD1B2" rx="11" ry="11" style="stroke:#181818;stroke-width:1;"/><path d="M699.6582,250.0036 Q699.0772,250.3024 698.438,250.4519 Q697.7988,250.6013 697.0933,250.6013 Q694.5864,250.6013 693.2666,248.9494 Q691.9468,247.2976 691.9468,244.1765 Q691.9468,241.0471 693.2666,239.3952 Q694.5864,237.7434 697.0933,237.7434 Q697.7988,237.7434 698.4463,237.8928 Q699.0938,238.0422 699.6582,238.341 L699.6582,241.0637 Q699.0274,240.4826 698.4339,240.2128 Q697.8404,239.9431 697.2095,239.9431 Q695.8648,239.9431 695.18,241.0097 Q694.4951,242.0764 694.4951,244.1765 Q694.4951,246.2683 695.18,247.3349 Q695.8648,248.4016 697.2095,248.4016 Q697.8404,248.4016 698.4339,248.1318 Q699.0274,247.862 699.6582,247.281 Z " fill="#000000"/><text fill="#000000" font-family="sans-serif" font-size="12" font-style="italic" lengthAdjust="spacing" textLength="57.6797" x="723.0104" y="240.1516">&#171;Domain&#187;</text><text fill="#000000" font-family="sans-serif" font-size="14" lengthAdjust="spacing" textLength="77.7725" x="712.964" y="256.218">OracleStory</text><line style="stroke:#181818;stroke-width:0.5;" x1="675.18" x2="800.7415" y1="264.1711" y2="264.1711"/><ellipse cx="685.18" cy="277.9152" fill="transparent" rx="3" ry="3" style="stroke:#038048;stroke-width:1;"/><text fill="#000000" font-family="sans-serif" font-size="14" lengthAdjust="spacing" textLength="45.6914" x="694.18" y="281.7062">Person</text><ellipse cx="685.18" cy="294.4035" fill="transparent" rx="3" ry="3" style="stroke:#038048;stroke-width:1;"/><text fill="#000000" font-family="sans-serif" font-size="14" lengthAdjust="spacing" textLength="54.0928" x="694.18" y="298.1945">Position</text><ellipse cx="685.18" cy="310.8918" fill="transparent" rx="3" ry="3" style="stroke:#038048;stroke-width:1;"/><text fill="#000000" font-family="sans-serif" font-size="14" lengthAdjust="spacing" textLength="63.9023" x="694.18" y="314.6828">Company</text><ellipse cx="685.18" cy="327.3801" fill="transparent" rx="3" ry="3" style="stroke:#038048;stroke-width:1;"/><text fill="#000000" font-family="sans-serif" font-size="14" lengthAdjust="spacing" textLength="61.3662" x="694.18" y="331.1711">Interview</text><line style="stroke:#181818;stroke-width:1;" x1="675.18" x2="800.7415" y1="338.1242" y2="338.1242"/><ellipse cx="685.18" cy="351.8684" fill="transparent" rx="3" ry="3" style="stroke:#038048;stroke-width:1;"/><text fill="#000000" font-family="sans-serif" font-size="14" lengthAdjust="spacing" textLength="101.5615" x="694.18" y="355.6594">isCandidateFor</text><ellipse cx="685.18" cy="368.3566" fill="transparent" rx="3" ry="3" style="stroke:#038048;stroke-width:1;"/><text fill="#000000" font-family="sans-serif" font-size="14" lengthAdjust="spacing" textLength="66.4932" x="694.18" y="372.1477">reportsTo</text><ellipse cx="685.18" cy="384.8449" fill="transparent" rx="3" ry="3" style="stroke:#038048;stroke-width:1;"/><text fill="#000000" font-family="sans-serif" font-size="14" lengthAdjust="spacing" textLength="59.2471" x="694.18" y="388.6359">oversees</text></g><!--class SSHDebug--><g id="elem_SSHDebug"><rect codeLine="110" fill="#90EE90" height="172.0391" id="SSHDebug" rx="2.5" ry="2.5" style="stroke:#181818;stroke-width:0.5;" width="120.3359" x="210.79" y="223.55"/><ellipse cx="234.0935" cy="243.8605" fill="#ADD1B2" rx="11" ry="11" style="stroke:#181818;stroke-width:1;"/><path d="M236.5666,250.0036 Q235.9856,250.3024 235.3464,250.4519 Q234.7072,250.6013 234.0017,250.6013 Q231.4948,250.6013 230.175,248.9494 Q228.8552,247.2976 228.8552,244.1765 Q228.8552,241.0471 230.175,239.3952 Q231.4948,237.7434 234.0017,237.7434 Q234.7072,237.7434 235.3547,237.8928 Q236.0022,238.0422 236.5666,238.341 L236.5666,241.0637 Q235.9358,240.4826 235.3422,240.2128 Q234.7487,239.9431 234.1179,239.9431 Q232.7732,239.9431 232.0883,241.0097 Q231.4035,242.0764 231.4035,244.1765 Q231.4035,246.2683 232.0883,247.3349 Q232.7732,248.4016 234.1179,248.4016 Q234.7487,248.4016 235.3422,248.1318 Q235.9358,247.862 236.5666,247.281 Z " fill="#000000"/><text fill="#000000" font-family="sans-serif" font-size="12" font-style="italic" lengthAdjust="spacing" textLength="57.6797" x="256.0407" y="240.1516">&#171;Domain&#187;</text><text fill="#000000" font-family="sans-serif" font-size="14" lengthAdjust="spacing" textLength="69.8838" x="249.9387" y="256.218">SSHDebug</text><line style="stroke:#181818;stroke-width:0.5;" x1="211.79" x2="330.1259" y1="264.1711" y2="264.1711"/><ellipse cx="221.79" cy="277.9152" fill="transparent" rx="3" ry="3" style="stroke:#038048;stroke-width:1;"/><text fill="#000000" font-family="sans-serif" font-size="14" lengthAdjust="spacing" textLength="34.7949" x="230.79" y="281.7062">Issue</text><ellipse cx="221.79" cy="294.4035" fill="transparent" rx="3" ry="3" style="stroke:#038048;stroke-width:1;"/><text fill="#000000" font-family="sans-serif" font-size="14" lengthAdjust="spacing" textLength="28.2188" x="230.79" y="298.1945">Risk</text><ellipse cx="221.79" cy="310.8918" fill="transparent" rx="3" ry="3" style="stroke:#038048;stroke-width:1;"/><text fill="#000000" font-family="sans-serif" font-size="14" lengthAdjust="spacing" textLength="70.7793" x="230.79" y="314.6828">Constraint</text><ellipse cx="221.79" cy="327.3801" fill="transparent" rx="3" ry="3" style="stroke:#038048;stroke-width:1;"/><text fill="#000000" font-family="sans-serif" font-size="14" lengthAdjust="spacing" textLength="55.4463" x="230.79" y="331.1711">Solution</text><line style="stroke:#181818;stroke-width:1;" x1="211.79" x2="330.1259" y1="338.1242" y2="338.1242"/><ellipse cx="221.79" cy="351.8684" fill="transparent" rx="3" ry="3" style="stroke:#038048;stroke-width:1;"/><text fill="#000000" font-family="sans-serif" font-size="14" lengthAdjust="spacing" textLength="51.7754" x="230.79" y="355.6594">hasRisk</text><ellipse cx="221.79" cy="368.3566" fill="transparent" rx="3" ry="3" style="stroke:#038048;stroke-width:1;"/><text fill="#000000" font-family="sans-serif" font-size="14" lengthAdjust="spacing" textLength="94.3359" x="230.79" y="372.1477">hasConstraint</text><ellipse cx="221.79" cy="384.8449" fill="transparent" rx="3" ry="3" style="stroke:#038048;stroke-width:1;"/><text fill="#000000" font-family="sans-serif" font-size="14" lengthAdjust="spacing" textLength="79.0029" x="230.79" y="388.6359">hasSolution</text></g><!--class OracleOCIDiscovery--><g id="elem_OracleOCIDiscovery"><rect codeLine="121" fill="#90EE90" height="155.5508" id="OracleOCIDiscovery" rx="2.5" ry="2.5" style="stroke:#181818;stroke-width:0.5;" width="183.7051" x="850.1" y="480.84"/><ellipse cx="873.302" cy="501.1505" fill="#ADD1B2" rx="11" ry="11" style="stroke:#181818;stroke-width:1;"/><path d="M875.7751,507.2936 Q875.194,507.5924 874.5549,507.7419 Q873.9157,507.8913 873.2102,507.8913 Q870.7033,507.8913 869.3835,506.2394 Q868.0637,504.5876 868.0637,501.4665 Q868.0637,498.3371 869.3835,496.6852 Q870.7033,495.0334 873.2102,495.0334 Q873.9157,495.0334 874.5632,495.1828 Q875.2106,495.3322 875.7751,495.631 L875.7751,498.3537 Q875.1442,497.7726 874.5507,497.5028 Q873.9572,497.2331 873.3264,497.2331 Q871.9816,497.2331 871.2968,498.2997 Q870.612,499.3664 870.612,501.4665 Q870.612,503.5583 871.2968,504.6249 Q871.9816,505.6916 873.3264,505.6916 Q873.9572,505.6916 874.5507,505.4218 Q875.1442,505.152 875.7751,504.571 Z " fill="#000000"/><text fill="#000000" font-family="sans-serif" font-size="12" font-style="italic" lengthAdjust="spacing" textLength="57.6797" x="927.024" y="497.4416">&#171;Domain&#187;</text><text fill="#000000" font-family="sans-serif" font-size="14" lengthAdjust="spacing" textLength="133.4785" x="889.1246" y="513.508">OracleOCIDiscovery</text><line style="stroke:#181818;stroke-width:0.5;" x1="851.1" x2="1032.8051" y1="521.4611" y2="521.4611"/><ellipse cx="861.1" cy="535.2052" fill="transparent" rx="3" ry="3" style="stroke:#038048;stroke-width:1;"/><text fill="#000000" font-family="sans-serif" font-size="14" lengthAdjust="spacing" textLength="157.7051" x="870.1" y="538.9962">OracleTechnologyStack</text><ellipse cx="861.1" cy="551.6935" fill="transparent" rx="3" ry="3" style="stroke:#038048;stroke-width:1;"/><text fill="#000000" font-family="sans-serif" font-size="14" lengthAdjust="spacing" textLength="87.165" x="870.1" y="555.4845">CloudService</text><ellipse cx="861.1" cy="568.1818" fill="transparent" rx="3" ry="3" style="stroke:#038048;stroke-width:1;"/><text fill="#000000" font-family="sans-serif" font-size="14" lengthAdjust="spacing" textLength="120.6543" x="870.1" y="571.9728">LearningResource</text><line style="stroke:#181818;stroke-width:1;" x1="851.1" x2="1032.8051" y1="578.9259" y2="578.9259"/><ellipse cx="861.1" cy="592.6701" fill="transparent" rx="3" ry="3" style="stroke:#038048;stroke-width:1;"/><text fill="#000000" font-family="sans-serif" font-size="14" lengthAdjust="spacing" textLength="102.7373" x="870.1" y="596.4611">hasComponent</text><ellipse cx="861.1" cy="609.1584" fill="transparent" rx="3" ry="3" style="stroke:#038048;stroke-width:1;"/><text fill="#000000" font-family="sans-serif" font-size="14" lengthAdjust="spacing" textLength="55.7402" x="870.1" y="612.9494">requires</text><ellipse cx="861.1" cy="625.6466" fill="transparent" rx="3" ry="3" style="stroke:#038048;stroke-width:1;"/><text fill="#000000" font-family="sans-serif" font-size="14" lengthAdjust="spacing" textLength="58.1807" x="870.1" y="629.4377">provides</text></g><!--reverse link MetaMetaCore to MetaGuidance--><g id="link_MetaMetaCore_MetaGuidance"><path codeLine="132" d="M467.96,180.76 C467.96,203.03 467.96,209.32 467.96,231.58 " fill="transparent" id="MetaMetaCore-backto-MetaGuidance" style="stroke:#181818;stroke-width:1;"/><polygon fill="transparent" points="467.96,162.76,461.96,180.76,473.96,180.76,467.96,162.76" style="stroke:#181818;stroke-width:1;"/></g><!--reverse link BaseModel to Transformation--><g id="link_BaseModel_Transformation"><path codeLine="133" d="M947.96,156.29 C947.96,191.93 947.96,220.85 947.96,256.41 " fill="transparent" id="BaseModel-backto-Transformation" style="stroke:#181818;stroke-width:1;"/><polygon fill="transparent" points="947.96,138.29,941.96,156.29,953.96,156.29,947.96,138.29" style="stroke:#181818;stroke-width:1;"/></g><!--reverse link MetaGuidance to ProblemSpace--><g id="link_MetaGuidance_ProblemSpace"><path codeLine="134" d="M549.9249,360.1189 C581.6349,380.5789 603.95,397.37 633.96,425.59 C648.94,439.68 663.56,456.03 676.88,472.31 " fill="transparent" id="MetaGuidance-backto-ProblemSpace" style="stroke:#181818;stroke-width:1;"/><polygon fill="transparent" points="534.8,350.36,546.6719,365.1606,553.1779,355.0773,534.8,350.36" style="stroke:#181818;stroke-width:1;"/></g><!--reverse link MetaGuidance to SolutionSpace--><g id="link_MetaGuidance_SolutionSpace"><path codeLine="135" d="M538.5508,402.7861 C555.6908,428.4361 562.51,443.04 572.96,472.59 C601.62,553.69 608.87,652.23 609.87,721.2 " fill="transparent" id="MetaGuidance-backto-SolutionSpace" style="stroke:#181818;stroke-width:1;"/><polygon fill="transparent" points="528.55,387.82,533.562,406.1197,543.5395,399.4525,528.55,387.82" style="stroke:#181818;stroke-width:1;"/></g><!--reverse link MetaGuidance to ProjectRisks--><g id="link_MetaGuidance_ProjectRisks"><path codeLine="136" d="M422.8348,403.4105 C412.4848,422.1705 409.11,425.86 395.96,442.59 C383.71,458.18 377.57,459.2 362.96,472.59 C357.51,477.59 351.88,482.76 346.22,487.96 " fill="transparent" id="MetaGuidance-backto-ProjectRisks" style="stroke:#181818;stroke-width:1;"/><polygon fill="transparent" points="431.53,387.65,417.5813,400.5121,428.0883,406.3089,431.53,387.65" style="stroke:#181818;stroke-width:1;"/></g><!--reverse link MetaGuidance to CreativeAnalogies--><g id="link_MetaGuidance_CreativeAnalogies"><path codeLine="137" d="M395.5629,400.6318 C375.7129,421.4318 364.53,428.91 338.96,442.59 C275.16,476.72 243.86,440.62 178.96,472.59 C172.9,475.57 166.94,479.05 161.14,482.87 " fill="transparent" id="MetaGuidance-backto-CreativeAnalogies" style="stroke:#181818;stroke-width:1;"/><polygon fill="transparent" points="407.99,387.61,391.2223,396.4895,399.9035,404.7742,407.99,387.61" style="stroke:#181818;stroke-width:1;"/></g><!--reverse link MetaGuidance to AITools--><g id="link_MetaGuidance_AITools"><path codeLine="138" d="M467.96,405.72 C467.96,435.31 467.96,451.05 467.96,480.62 " fill="transparent" id="MetaGuidance-backto-AITools" style="stroke:#181818;stroke-width:1;"/><polygon fill="transparent" points="467.96,387.72,461.96,405.72,473.96,405.72,467.96,387.72" style="stroke:#181818;stroke-width:1;"/></g><!--link ProblemSpace to SolutionSpace--><g id="link_ProblemSpace_SolutionSpace"><path codeLine="140" d="M693.04,644.97 C680.05,669.66 668.6646,691.2905 655.6746,715.9705 " fill="transparent" id="ProblemSpace-to-SolutionSpace" style="stroke:#181818;stroke-width:1;"/><polygon fill="#181818" points="652.88,721.28,660.6115,715.1789,655.2088,716.8554,653.5322,711.4528,652.88,721.28" style="stroke:#181818;stroke-width:1;"/><text fill="#000000" font-family="sans-serif" font-size="13" lengthAdjust="spacing" textLength="64.27" x="677.85" y="688.1984">influences</text></g><!--link ProjectRisks to SolutionSpace--><g id="link_ProjectRisks_SolutionSpace"><path codeLine="141" d="M346.17,630.89 C351.76,635.64 357.4,640.27 362.96,644.63 C416.22,686.41 475.0435,725.2476 524.2235,756.0176 " fill="transparent" id="ProjectRisks-to-SolutionSpace" style="stroke:#181818;stroke-width:1;"/><polygon fill="#181818" points="529.31,759.2,523.8019,751.0354,525.0713,756.548,519.5587,757.8174,529.31,759.2" style="stroke:#181818;stroke-width:1;"/><text fill="#000000" font-family="sans-serif" font-size="13" lengthAdjust="spacing" textLength="65.1523" x="422.21" y="688.1984">constrains</text></g><!--link CreativeAnalogies to SolutionSpace--><g id="link_CreativeAnalogies_SolutionSpace"><path codeLine="142" d="M161.25,632.74 C167.07,637 173,641.01 178.96,644.63 C292.44,713.52 434.3231,759.7791 523.4931,784.7991 " fill="transparent" id="CreativeAnalogies-to-SolutionSpace" style="stroke:#181818;stroke-width:1;"/><polygon fill="#181818" points="529.27,786.42,521.6853,780.1373,524.4559,785.0692,519.524,787.8399,529.27,786.42" style="stroke:#181818;stroke-width:1;"/><text fill="#000000" font-family="sans-serif" font-size="13" lengthAdjust="spacing" textLength="59.1538" x="268.4" y="688.1984">enhances</text></g><!--link OracleStory to ProblemSpace--><g id="link_OracleStory_ProblemSpace"><path codeLine="144" d="M737.96,395.94 C737.96,420.62 737.96,441.56 737.96,466.25 " fill="transparent" id="OracleStory-to-ProblemSpace" style="stroke:#181818;stroke-width:1;"/><polygon fill="#181818" points="737.96,472.25,741.96,463.25,737.96,467.25,733.96,463.25,737.96,472.25" style="stroke:#181818;stroke-width:1;"/><text fill="#000000" font-family="sans-serif" font-size="13" lengthAdjust="spacing" textLength="45.8999" x="738.96" y="439.1584">defines</text></g><!--link OracleOCIDiscovery to SolutionSpace--><g id="link_OracleOCIDiscovery_SolutionSpace"><path codeLine="145" d="M849.68,631.98 C844.04,636.29 838.43,640.53 832.96,644.63 C784.81,680.72 734.9275,716.7197 691.4775,747.6597 " fill="transparent" id="OracleOCIDiscovery-to-SolutionSpace" style="stroke:#181818;stroke-width:1;"/><polygon fill="#181818" points="686.59,751.14,696.2414,749.1779,690.6629,748.2398,691.601,742.6612,686.59,751.14" style="stroke:#181818;stroke-width:1;"/><text fill="#000000" font-family="sans-serif" font-size="13" lengthAdjust="spacing" textLength="74.0137" x="791.33" y="688.1984">implements</text></g><!--link SSHDebug to ProjectRisks--><g id="link_SSHDebug_ProjectRisks"><path codeLine="146" d="M270.96,395.94 C270.96,420.62 270.96,441.56 270.96,466.25 " fill="transparent" id="SSHDebug-to-ProjectRisks" style="stroke:#181818;stroke-width:1;"/><polygon fill="#181818" points="270.96,472.25,274.96,463.25,270.96,467.25,266.96,463.25,270.96,472.25" style="stroke:#181818;stroke-width:1;"/><text fill="#000000" font-family="sans-serif" font-size="13" lengthAdjust="spacing" textLength="58.2778" x="271.96" y="439.1584">identifies</text></g><!--SRC=[TLR9Rjim4BtpAtZB8V0F1440BqrgD8iH6RtJqbXcJPCg5oT6sd_lK9GeqM83191c7aTltYpq3ItiHN1P4tFaic6QdMWfc37qYr3yMx3oM6lbPBLKGkdx-wNIyF10dtbzi0lX88zQgHFZiiSzQG2P1xw0PJrim-KnZrem0qCmTY5_2RcXdWhr0UYRj0YiEHWIo7kh_syXyIiXfLiwtnchMMcvaYj-0cdmOUfwXZE8pln3gWy1LGqXiTOwctNE0pDZhF3Fh-wq0zrPglPGKQe6FFE1ufFZ5PDbXk9QMj2DHgCTaIj7Bu79N39C_38Xb41P01NAwH9IsvRf6cpGqwjC7x43u4FfOqVJ6rzK1OB6CdmDdrbN82tVSz1t58NpVHHzhnXeQbs1AJLlFBleZ9fiDPDch_IfpJhxnP34tS1hS8LSigvt9_1C6jxRGk91ocaNRRJQ2JWL3MjB59kwfxDmXaimvXMWwanBXONxjCERRoSkxQH0FnaEprIUZUPAStkvetW8wjX2w4f31qCVFIfOAE5ySl_bl8No87d9H8_i6-xKOAfOpN738Kbiq6Y8_0tQpDuBDNH2xdp8SnpYbfwZeK2iCmDtbFiNbFQTcwF9KVUExl65Mrwpb3vExHLB7CISbe8VGV23KbL6vKdaa9iF7eakDI3Y367uK8OSsurWbxqJum752GudKFw5vhXEElEtpqRWGFglRfZ5oR_IU-_a8p9GEaCu2UGCc3v2f3jVRvKIMPB1rNShmz1AN-9hmtPSe82Jvhr2jfO4V4jnnfmNlzsC0-rstee6IbmQPJzuywOHg8bFln-zDrp20WfC-P8L5xI95TeemqS5MoeibxoC5-cPmqUQ14V6ilAD28-gLrD3exGrMzMzA-mV0p1gqQBuleATgtESriOucBRgrGwufSdWZLKT7KgdUxJykgEHKD3fRRbUSLDwlbcv0geTVTNU11Pls9wVKAugl4RnRdW6fYMkfNSmmvMHr1ybLX8YDGs_7TTn7JHQdNaLTBkXxo12QG-yCIIzcV_CPib5I4RNZVUb6vkaTwO7Z5Tqnfsim_pnk78oxicWPp3TT16It1QpsSFLBlOpiCUTZmSDILPT3blsrJTakcro1q0UM1kQZ4V78nDUTxI2lR-qIAPpigJxlMv8RFukwf01mleV0eRy0m00]--></g></svg>