<svg xmlns="http://www.w3.org/2000/svg" xmlns:xlink="http://www.w3.org/1999/xlink" contentStyleType="text/css" data-diagram-type="CLASS" height="1438px" preserveAspectRatio="none" style="width:851px;height:1438px;background:#FFFFFF;" version="1.1" viewBox="0 0 851 1438" width="851px" zoomAndPan="magnify"><defs/><g><!--class MetaMetaOntology--><g id="elem_MetaMetaOntology"><rect codeLine="12" fill="#FFB6C1" height="155.5508" id="MetaMetaOntology" rx="2.5" ry="2.5" style="stroke:#181818;stroke-width:0.5;" width="176.6094" x="577.48" y="223.07"/><ellipse cx="600.0698" cy="243.3805" fill="#ADD1B2" rx="11" ry="11" style="stroke:#181818;stroke-width:1;"/><path d="M602.5429,249.5236 Q601.9619,249.8224 601.3227,249.9719 Q600.6836,250.1213 599.978,250.1213 Q597.4712,250.1213 596.1513,248.4694 Q594.8315,246.8176 594.8315,243.6965 Q594.8315,240.5671 596.1513,238.9152 Q597.4712,237.2634 599.978,237.2634 Q600.6836,237.2634 601.331,237.4128 Q601.9785,237.5622 602.5429,237.861 L602.5429,240.5837 Q601.9121,240.0026 601.3186,239.7328 Q600.7251,239.4631 600.0942,239.4631 Q598.7495,239.4631 598.0647,240.5297 Q597.3799,241.5964 597.3799,243.6965 Q597.3799,245.7883 598.0647,246.8549 Q598.7495,247.9216 600.0942,247.9216 Q600.7251,247.9216 601.3186,247.6518 Q601.9121,247.382 602.5429,246.801 Z " fill="#000000"/><text fill="#000000" font-family="sans-serif" font-size="12" font-style="italic" lengthAdjust="spacing" textLength="40.7109" x="659.2725" y="239.6716">&#171;Meta&#187;</text><text fill="#000000" font-family="sans-serif" font-size="14" lengthAdjust="spacing" textLength="127.7432" x="615.7564" y="255.738">MetaMetaOntology</text><line style="stroke:#181818;stroke-width:0.5;" x1="578.48" x2="753.0894" y1="263.6911" y2="263.6911"/><ellipse cx="588.48" cy="277.4352" fill="transparent" rx="3" ry="3" style="stroke:#038048;stroke-width:1;"/><text fill="#000000" font-family="sans-serif" font-size="14" lengthAdjust="spacing" textLength="150.6094" x="597.48" y="281.2262">AbstractionDimension</text><ellipse cx="588.48" cy="293.9235" fill="transparent" rx="3" ry="3" style="stroke:#038048;stroke-width:1;"/><text fill="#000000" font-family="sans-serif" font-size="14" lengthAdjust="spacing" textLength="112.4033" x="597.48" y="297.7145">AbstractionLevel</text><ellipse cx="588.48" cy="310.4118" fill="transparent" rx="3" ry="3" style="stroke:#038048;stroke-width:1;"/><text fill="#000000" font-family="sans-serif" font-size="14" lengthAdjust="spacing" textLength="127.0254" x="597.48" y="314.2028">KnowledgeDomain</text><line style="stroke:#181818;stroke-width:1;" x1="578.48" x2="753.0894" y1="321.1559" y2="321.1559"/><ellipse cx="588.48" cy="334.9001" fill="transparent" rx="3" ry="3" style="stroke:#038048;stroke-width:1;"/><text fill="#000000" font-family="sans-serif" font-size="14" lengthAdjust="spacing" textLength="57.9141" x="597.48" y="338.6911">hasLevel</text><ellipse cx="588.48" cy="351.3884" fill="transparent" rx="3" ry="3" style="stroke:#038048;stroke-width:1;"/><text fill="#000000" font-family="sans-serif" font-size="14" lengthAdjust="spacing" textLength="85.3809" x="597.48" y="355.1794">levelNumber</text><ellipse cx="588.48" cy="367.8766" fill="transparent" rx="3" ry="3" style="stroke:#038048;stroke-width:1;"/><text fill="#000000" font-family="sans-serif" font-size="14" lengthAdjust="spacing" textLength="90.8701" x="597.48" y="371.6677">domainScope</text></g><!--class LLMGuidanceOntology--><g id="elem_LLMGuidanceOntology"><rect codeLine="22" fill="#FFB6C1" height="155.5508" id="LLMGuidanceOntology" rx="2.5" ry="2.5" style="stroke:#181818;stroke-width:0.5;" width="184.1338" x="377.72" y="455.62"/><ellipse cx="392.72" cy="475.9305" fill="#ADD1B2" rx="11" ry="11" style="stroke:#181818;stroke-width:1;"/><path d="M395.1931,482.0736 Q394.6121,482.3724 393.9729,482.5219 Q393.3338,482.6713 392.6282,482.6713 Q390.1214,482.6713 388.8015,481.0194 Q387.4817,479.3676 387.4817,476.2465 Q387.4817,473.1171 388.8015,471.4652 Q390.1214,469.8134 392.6282,469.8134 Q393.3338,469.8134 393.9812,469.9628 Q394.6287,470.1122 395.1931,470.411 L395.1931,473.1337 Q394.5623,472.5526 393.9688,472.2828 Q393.3753,472.0131 392.7444,472.0131 Q391.3997,472.0131 390.7149,473.0797 Q390.0301,474.1464 390.0301,476.2465 Q390.0301,478.3383 390.7149,479.4049 Q391.3997,480.4716 392.7444,480.4716 Q393.3753,480.4716 393.9688,480.2018 Q394.5623,479.932 395.1931,479.351 Z " fill="#000000"/><text fill="#000000" font-family="sans-serif" font-size="12" font-style="italic" lengthAdjust="spacing" textLength="40.7109" x="462.4314" y="472.2216">&#171;Meta&#187;</text><text fill="#000000" font-family="sans-serif" font-size="14" lengthAdjust="spacing" textLength="152.1338" x="406.72" y="488.288">LLMGuidanceOntology</text><line style="stroke:#181818;stroke-width:0.5;" x1="378.72" x2="560.8538" y1="496.2411" y2="496.2411"/><ellipse cx="388.72" cy="509.9852" fill="transparent" rx="3" ry="3" style="stroke:#038048;stroke-width:1;"/><text fill="#000000" font-family="sans-serif" font-size="14" lengthAdjust="spacing" textLength="93.3652" x="397.72" y="513.7762">Interpretation</text><ellipse cx="388.72" cy="526.4735" fill="transparent" rx="3" ry="3" style="stroke:#038048;stroke-width:1;"/><text fill="#000000" font-family="sans-serif" font-size="14" lengthAdjust="spacing" textLength="43.4014" x="397.72" y="530.2645">Action</text><ellipse cx="388.72" cy="542.9618" fill="transparent" rx="3" ry="3" style="stroke:#038048;stroke-width:1;"/><text fill="#000000" font-family="sans-serif" font-size="14" lengthAdjust="spacing" textLength="107.3926" x="397.72" y="546.7528">DomainAnalogy</text><line style="stroke:#181818;stroke-width:1;" x1="378.72" x2="560.8538" y1="553.7059" y2="553.7059"/><ellipse cx="388.72" cy="567.4501" fill="transparent" rx="3" ry="3" style="stroke:#038048;stroke-width:1;"/><text fill="#000000" font-family="sans-serif" font-size="14" lengthAdjust="spacing" textLength="66.958" x="397.72" y="571.2411">hasAction</text><ellipse cx="388.72" cy="583.9384" fill="transparent" rx="3" ry="3" style="stroke:#038048;stroke-width:1;"/><text fill="#000000" font-family="sans-serif" font-size="14" lengthAdjust="spacing" textLength="98.3691" x="397.72" y="587.7294">analogySource</text><ellipse cx="388.72" cy="600.4266" fill="transparent" rx="3" ry="3" style="stroke:#038048;stroke-width:1;"/><text fill="#000000" font-family="sans-serif" font-size="14" lengthAdjust="spacing" textLength="96.9199" x="397.72" y="604.2177">analogyTarget</text></g><!--class ProblemOntology--><g id="elem_ProblemOntology"><rect codeLine="33" fill="#ADD8E6" height="155.5508" id="ProblemOntology" rx="2.5" ry="2.5" style="stroke:#181818;stroke-width:0.5;" width="149.8857" x="239.84" y="857.72"/><ellipse cx="254.84" cy="878.0305" fill="#ADD1B2" rx="11" ry="11" style="stroke:#181818;stroke-width:1;"/><path d="M257.3131,884.1736 Q256.7321,884.4724 256.0929,884.6219 Q255.4538,884.7713 254.7482,884.7713 Q252.2414,884.7713 250.9215,883.1194 Q249.6017,881.4676 249.6017,878.3465 Q249.6017,875.2171 250.9215,873.5652 Q252.2414,871.9134 254.7482,871.9134 Q255.4538,871.9134 256.1012,872.0628 Q256.7487,872.2122 257.3131,872.511 L257.3131,875.2337 Q256.6823,874.6526 256.0888,874.3828 Q255.4953,874.1131 254.8644,874.1131 Q253.5197,874.1131 252.8349,875.1797 Q252.1501,876.2464 252.1501,878.3465 Q252.1501,880.4383 252.8349,881.5049 Q253.5197,882.5716 254.8644,882.5716 Q255.4953,882.5716 256.0888,882.3018 Q256.6823,882.032 257.3131,881.451 Z " fill="#000000"/><text fill="#000000" font-family="sans-serif" font-size="12" font-style="italic" lengthAdjust="spacing" textLength="39.8438" x="307.861" y="874.3216">&#171;Core&#187;</text><text fill="#000000" font-family="sans-serif" font-size="14" lengthAdjust="spacing" textLength="117.8857" x="268.84" y="890.388">ProblemOntology</text><line style="stroke:#181818;stroke-width:0.5;" x1="240.84" x2="388.7257" y1="898.3411" y2="898.3411"/><ellipse cx="250.84" cy="912.0852" fill="transparent" rx="3" ry="3" style="stroke:#038048;stroke-width:1;"/><text fill="#000000" font-family="sans-serif" font-size="14" lengthAdjust="spacing" textLength="93.4404" x="259.84" y="915.8762">BusinessNeed</text><ellipse cx="250.84" cy="928.5735" fill="transparent" rx="3" ry="3" style="stroke:#038048;stroke-width:1;"/><text fill="#000000" font-family="sans-serif" font-size="14" lengthAdjust="spacing" textLength="53.833" x="259.84" y="932.3645">Context</text><ellipse cx="250.84" cy="945.0618" fill="transparent" rx="3" ry="3" style="stroke:#038048;stroke-width:1;"/><text fill="#000000" font-family="sans-serif" font-size="14" lengthAdjust="spacing" textLength="70.7793" x="259.84" y="948.8528">Constraint</text><line style="stroke:#181818;stroke-width:1;" x1="240.84" x2="388.7257" y1="955.8059" y2="955.8059"/><ellipse cx="250.84" cy="969.5501" fill="transparent" rx="3" ry="3" style="stroke:#038048;stroke-width:1;"/><text fill="#000000" font-family="sans-serif" font-size="14" lengthAdjust="spacing" textLength="60.9766" x="259.84" y="973.3411">hasValue</text><ellipse cx="250.84" cy="986.0384" fill="transparent" rx="3" ry="3" style="stroke:#038048;stroke-width:1;"/><text fill="#000000" font-family="sans-serif" font-size="14" lengthAdjust="spacing" textLength="71.9961" x="259.84" y="989.8294">hasPriority</text><ellipse cx="250.84" cy="1002.5266" fill="transparent" rx="3" ry="3" style="stroke:#038048;stroke-width:1;"/><text fill="#000000" font-family="sans-serif" font-size="14" lengthAdjust="spacing" textLength="77.3896" x="259.84" y="1006.3177">hasContext</text></g><!--class SolutionOntology--><g id="elem_SolutionOntology"><rect codeLine="43" fill="#ADD8E6" height="155.5508" id="SolutionOntology" rx="2.5" ry="2.5" style="stroke:#181818;stroke-width:0.5;" width="156.416" x="285.58" y="1275.82"/><ellipse cx="303.6755" cy="1296.1305" fill="#ADD1B2" rx="11" ry="11" style="stroke:#181818;stroke-width:1;"/><path d="M306.1487,1302.2736 Q305.5676,1302.5724 304.9284,1302.7219 Q304.2893,1302.8713 303.5837,1302.8713 Q301.0769,1302.8713 299.7571,1301.2194 Q298.4372,1299.5676 298.4372,1296.4465 Q298.4372,1293.3171 299.7571,1291.6652 Q301.0769,1290.0134 303.5837,1290.0134 Q304.2893,1290.0134 304.9367,1290.1628 Q305.5842,1290.3122 306.1487,1290.611 L306.1487,1293.3337 Q305.5178,1292.7526 304.9243,1292.4828 Q304.3308,1292.2131 303.6999,1292.2131 Q302.3552,1292.2131 301.6704,1293.2797 Q300.9856,1294.3464 300.9856,1296.4465 Q300.9856,1298.5383 301.6704,1299.6049 Q302.3552,1300.6716 303.6999,1300.6716 Q304.3308,1300.6716 304.9243,1300.4018 Q305.5178,1300.132 306.1487,1299.551 Z " fill="#000000"/><text fill="#000000" font-family="sans-serif" font-size="12" font-style="italic" lengthAdjust="spacing" textLength="39.8438" x="357.2101" y="1292.4216">&#171;Core&#187;</text><text fill="#000000" font-family="sans-serif" font-size="14" lengthAdjust="spacing" textLength="117.5371" x="318.3634" y="1308.488">SolutionOntology</text><line style="stroke:#181818;stroke-width:0.5;" x1="286.58" x2="440.996" y1="1316.4411" y2="1316.4411"/><ellipse cx="296.58" cy="1330.1852" fill="transparent" rx="3" ry="3" style="stroke:#038048;stroke-width:1;"/><text fill="#000000" font-family="sans-serif" font-size="14" lengthAdjust="spacing" textLength="119.6426" x="305.58" y="1333.9763">TechnicalSolution</text><ellipse cx="296.58" cy="1346.6735" fill="transparent" rx="3" ry="3" style="stroke:#038048;stroke-width:1;"/><text fill="#000000" font-family="sans-serif" font-size="14" lengthAdjust="spacing" textLength="106.8594" x="305.58" y="1350.4645">Implementation</text><ellipse cx="296.58" cy="1363.1618" fill="transparent" rx="3" ry="3" style="stroke:#038048;stroke-width:1;"/><text fill="#000000" font-family="sans-serif" font-size="14" lengthAdjust="spacing" textLength="68.0928" x="305.58" y="1366.9528">Validation</text><line style="stroke:#181818;stroke-width:1;" x1="286.58" x2="440.996" y1="1373.9059" y2="1373.9059"/><ellipse cx="296.58" cy="1387.6501" fill="transparent" rx="3" ry="3" style="stroke:#038048;stroke-width:1;"/><text fill="#000000" font-family="sans-serif" font-size="14" lengthAdjust="spacing" textLength="55.4189" x="305.58" y="1391.4411">satisfies</text><ellipse cx="296.58" cy="1404.1384" fill="transparent" rx="3" ry="3" style="stroke:#038048;stroke-width:1;"/><text fill="#000000" font-family="sans-serif" font-size="14" lengthAdjust="spacing" textLength="130.416" x="305.58" y="1407.9294">hasImplementation</text><ellipse cx="296.58" cy="1420.6266" fill="transparent" rx="3" ry="3" style="stroke:#038048;stroke-width:1;"/><text fill="#000000" font-family="sans-serif" font-size="14" lengthAdjust="spacing" textLength="107.7549" x="305.58" y="1424.4177">validationStatus</text></g><!--class ConversationOntology--><g id="elem_ConversationOntology"><rect codeLine="53" fill="#ADD8E6" height="155.5508" id="ConversationOntology" rx="2.5" ry="2.5" style="stroke:#181818;stroke-width:0.5;" width="183.2793" x="477.15" y="672.17"/><ellipse cx="492.15" cy="692.4805" fill="#ADD1B2" rx="11" ry="11" style="stroke:#181818;stroke-width:1;"/><path d="M494.6231,698.6236 Q494.0421,698.9224 493.4029,699.0719 Q492.7638,699.2213 492.0582,699.2213 Q489.5514,699.2213 488.2315,697.5694 Q486.9117,695.9176 486.9117,692.7965 Q486.9117,689.6671 488.2315,688.0152 Q489.5514,686.3634 492.0582,686.3634 Q492.7638,686.3634 493.4112,686.5128 Q494.0587,686.6622 494.6231,686.961 L494.6231,689.6837 Q493.9923,689.1026 493.3988,688.8328 Q492.8053,688.5631 492.1744,688.5631 Q490.8297,688.5631 490.1449,689.6297 Q489.4601,690.6964 489.4601,692.7965 Q489.4601,694.8883 490.1449,695.9549 Q490.8297,697.0216 492.1744,697.0216 Q492.8053,697.0216 493.3988,696.7518 Q493.9923,696.482 494.6231,695.901 Z " fill="#000000"/><text fill="#000000" font-family="sans-serif" font-size="12" font-style="italic" lengthAdjust="spacing" textLength="39.8438" x="561.8678" y="688.7716">&#171;Core&#187;</text><text fill="#000000" font-family="sans-serif" font-size="14" lengthAdjust="spacing" textLength="151.2793" x="506.15" y="704.838">ConversationOntology</text><line style="stroke:#181818;stroke-width:0.5;" x1="478.15" x2="659.4293" y1="712.7911" y2="712.7911"/><ellipse cx="488.15" cy="726.5352" fill="transparent" rx="3" ry="3" style="stroke:#038048;stroke-width:1;"/><text fill="#000000" font-family="sans-serif" font-size="14" lengthAdjust="spacing" textLength="82.6533" x="497.15" y="730.3262">BacklogItem</text><ellipse cx="488.15" cy="743.0235" fill="transparent" rx="3" ry="3" style="stroke:#038048;stroke-width:1;"/><text fill="#000000" font-family="sans-serif" font-size="14" lengthAdjust="spacing" textLength="89.1885" x="497.15" y="746.8145">Conversation</text><ellipse cx="488.15" cy="759.5118" fill="transparent" rx="3" ry="3" style="stroke:#038048;stroke-width:1;"/><text fill="#000000" font-family="sans-serif" font-size="14" lengthAdjust="spacing" textLength="41.5693" x="497.15" y="763.3028">Status</text><line style="stroke:#181818;stroke-width:1;" x1="478.15" x2="659.4293" y1="770.2559" y2="770.2559"/><ellipse cx="488.15" cy="784.0001" fill="transparent" rx="3" ry="3" style="stroke:#038048;stroke-width:1;"/><text fill="#000000" font-family="sans-serif" font-size="14" lengthAdjust="spacing" textLength="65.126" x="497.15" y="787.7911">hasStatus</text><ellipse cx="488.15" cy="800.4884" fill="transparent" rx="3" ry="3" style="stroke:#038048;stroke-width:1;"/><text fill="#000000" font-family="sans-serif" font-size="14" lengthAdjust="spacing" textLength="95.7236" x="497.15" y="804.2794">hasParticipant</text><ellipse cx="488.15" cy="816.9766" fill="transparent" rx="3" ry="3" style="stroke:#038048;stroke-width:1;"/><text fill="#000000" font-family="sans-serif" font-size="14" lengthAdjust="spacing" textLength="72.1396" x="497.15" y="820.7677">timestamp</text></g><!--class CognitionPatternsOntology--><g id="elem_CognitionPatternsOntology"><rect codeLine="63" fill="#ADD8E6" height="155.5508" id="CognitionPatternsOntology" rx="2.5" ry="2.5" style="stroke:#181818;stroke-width:0.5;" width="215.709" x="476.93" y="1043.27"/><ellipse cx="491.93" cy="1063.5805" fill="#ADD1B2" rx="11" ry="11" style="stroke:#181818;stroke-width:1;"/><path d="M494.4031,1069.7236 Q493.8221,1070.0224 493.1829,1070.1719 Q492.5438,1070.3213 491.8382,1070.3213 Q489.3314,1070.3213 488.0115,1068.6694 Q486.6917,1067.0176 486.6917,1063.8965 Q486.6917,1060.7671 488.0115,1059.1152 Q489.3314,1057.4634 491.8382,1057.4634 Q492.5438,1057.4634 493.1912,1057.6128 Q493.8387,1057.7622 494.4031,1058.061 L494.4031,1060.7837 Q493.7723,1060.2026 493.1788,1059.9328 Q492.5853,1059.6631 491.9544,1059.6631 Q490.6097,1059.6631 489.9249,1060.7297 Q489.2401,1061.7964 489.2401,1063.8965 Q489.2401,1065.9883 489.9249,1067.0549 Q490.6097,1068.1216 491.9544,1068.1216 Q492.5853,1068.1216 493.1788,1067.8518 Q493.7723,1067.582 494.4031,1067.001 Z " fill="#000000"/><text fill="#000000" font-family="sans-serif" font-size="12" font-style="italic" lengthAdjust="spacing" textLength="39.8438" x="577.8626" y="1059.8716">&#171;Core&#187;</text><text fill="#000000" font-family="sans-serif" font-size="14" lengthAdjust="spacing" textLength="183.709" x="505.93" y="1075.938">CognitionPatternsOntology</text><line style="stroke:#181818;stroke-width:0.5;" x1="477.93" x2="691.639" y1="1083.8911" y2="1083.8911"/><ellipse cx="487.93" cy="1097.6352" fill="transparent" rx="3" ry="3" style="stroke:#038048;stroke-width:1;"/><text fill="#000000" font-family="sans-serif" font-size="14" lengthAdjust="spacing" textLength="120.873" x="496.93" y="1101.4263">ProcessingSystem</text><ellipse cx="487.93" cy="1114.1235" fill="transparent" rx="3" ry="3" style="stroke:#038048;stroke-width:1;"/><text fill="#000000" font-family="sans-serif" font-size="14" lengthAdjust="spacing" textLength="48.1592" x="496.93" y="1117.9145">Pattern</text><ellipse cx="487.93" cy="1130.6118" fill="transparent" rx="3" ry="3" style="stroke:#038048;stroke-width:1;"/><text fill="#000000" font-family="sans-serif" font-size="14" lengthAdjust="spacing" textLength="118.4736" x="496.93" y="1134.4028">TemporalContext</text><line style="stroke:#181818;stroke-width:1;" x1="477.93" x2="691.639" y1="1141.3559" y2="1141.3559"/><ellipse cx="487.93" cy="1155.1001" fill="transparent" rx="3" ry="3" style="stroke:#038048;stroke-width:1;"/><text fill="#000000" font-family="sans-serif" font-size="14" lengthAdjust="spacing" textLength="136.835" x="496.93" y="1158.8911">hasConfidenceScore</text><ellipse cx="487.93" cy="1171.5884" fill="transparent" rx="3" ry="3" style="stroke:#038048;stroke-width:1;"/><text fill="#000000" font-family="sans-serif" font-size="14" lengthAdjust="spacing" textLength="168.5264" x="496.93" y="1175.3794">implementsMetaConcept</text><ellipse cx="487.93" cy="1188.0766" fill="transparent" rx="3" ry="3" style="stroke:#038048;stroke-width:1;"/><text fill="#000000" font-family="sans-serif" font-size="14" lengthAdjust="spacing" textLength="97.7607" x="496.93" y="1191.8677">solvesProblem</text></g><!--class CreativeAnalogiesOntology--><g id="elem_CreativeAnalogiesOntology"><rect codeLine="74" fill="#90EE90" height="155.5508" id="CreativeAnalogiesOntology" rx="2.5" ry="2.5" style="stroke:#181818;stroke-width:0.5;" width="215.8047" x="146.88" y="223.07"/><ellipse cx="161.88" cy="243.3805" fill="#ADD1B2" rx="11" ry="11" style="stroke:#181818;stroke-width:1;"/><path d="M164.3531,249.5236 Q163.7721,249.8224 163.1329,249.9719 Q162.4938,250.1213 161.7882,250.1213 Q159.2814,250.1213 157.9615,248.4694 Q156.6417,246.8176 156.6417,243.6965 Q156.6417,240.5671 157.9615,238.9152 Q159.2814,237.2634 161.7882,237.2634 Q162.4938,237.2634 163.1412,237.4128 Q163.7887,237.5622 164.3531,237.861 L164.3531,240.5837 Q163.7223,240.0026 163.1288,239.7328 Q162.5353,239.4631 161.9044,239.4631 Q160.5597,239.4631 159.8749,240.5297 Q159.1901,241.5964 159.1901,243.6965 Q159.1901,245.7883 159.8749,246.8549 Q160.5597,247.9216 161.9044,247.9216 Q162.5353,247.9216 163.1288,247.6518 Q163.7223,247.382 164.3531,246.801 Z " fill="#000000"/><text fill="#000000" font-family="sans-serif" font-size="12" font-style="italic" lengthAdjust="spacing" textLength="57.6797" x="238.9425" y="239.6716">&#171;Domain&#187;</text><text fill="#000000" font-family="sans-serif" font-size="14" lengthAdjust="spacing" textLength="183.8047" x="175.88" y="255.738">CreativeAnalogiesOntology</text><line style="stroke:#181818;stroke-width:0.5;" x1="147.88" x2="361.6847" y1="263.6911" y2="263.6911"/><ellipse cx="157.88" cy="277.4352" fill="transparent" rx="3" ry="3" style="stroke:#038048;stroke-width:1;"/><text fill="#000000" font-family="sans-serif" font-size="14" lengthAdjust="spacing" textLength="99.4834" x="166.88" y="281.2262">PlayfulAnalogy</text><ellipse cx="157.88" cy="293.9235" fill="transparent" rx="3" ry="3" style="stroke:#038048;stroke-width:1;"/><text fill="#000000" font-family="sans-serif" font-size="14" lengthAdjust="spacing" textLength="113.6201" x="166.88" y="297.7145">AnalogicalBridge</text><ellipse cx="157.88" cy="310.4118" fill="transparent" rx="3" ry="3" style="stroke:#038048;stroke-width:1;"/><text fill="#000000" font-family="sans-serif" font-size="14" lengthAdjust="spacing" textLength="127.9141" x="166.88" y="314.2028">ExplanationPattern</text><line style="stroke:#181818;stroke-width:1;" x1="147.88" x2="361.6847" y1="321.1559" y2="321.1559"/><ellipse cx="157.88" cy="334.9001" fill="transparent" rx="3" ry="3" style="stroke:#038048;stroke-width:1;"/><text fill="#000000" font-family="sans-serif" font-size="14" lengthAdjust="spacing" textLength="64.4971" x="166.88" y="338.6911">funFactor</text><ellipse cx="157.88" cy="351.3884" fill="transparent" rx="3" ry="3" style="stroke:#038048;stroke-width:1;"/><text fill="#000000" font-family="sans-serif" font-size="14" lengthAdjust="spacing" textLength="66.7256" x="166.88" y="355.1794">hasBridge</text><ellipse cx="157.88" cy="367.8766" fill="transparent" rx="3" ry="3" style="stroke:#038048;stroke-width:1;"/><text fill="#000000" font-family="sans-serif" font-size="14" lengthAdjust="spacing" textLength="78.9209" x="166.88" y="371.6677">usesPattern</text></g><!--class AIToolsOntology--><g id="elem_AIToolsOntology"><rect codeLine="84" fill="#90EE90" height="155.5508" id="AIToolsOntology" rx="2.5" ry="2.5" style="stroke:#181818;stroke-width:0.5;" width="145.0186" x="397.28" y="223.07"/><ellipse cx="412.28" cy="243.3805" fill="#ADD1B2" rx="11" ry="11" style="stroke:#181818;stroke-width:1;"/><path d="M414.7531,249.5236 Q414.1721,249.8224 413.5329,249.9719 Q412.8938,250.1213 412.1882,250.1213 Q409.6814,250.1213 408.3615,248.4694 Q407.0417,246.8176 407.0417,243.6965 Q407.0417,240.5671 408.3615,238.9152 Q409.6814,237.2634 412.1882,237.2634 Q412.8938,237.2634 413.5412,237.4128 Q414.1887,237.5622 414.7531,237.861 L414.7531,240.5837 Q414.1223,240.0026 413.5288,239.7328 Q412.9353,239.4631 412.3044,239.4631 Q410.9597,239.4631 410.2749,240.5297 Q409.5901,241.5964 409.5901,243.6965 Q409.5901,245.7883 410.2749,246.8549 Q410.9597,247.9216 412.3044,247.9216 Q412.9353,247.9216 413.5288,247.6518 Q414.1223,247.382 414.7531,246.801 Z " fill="#000000"/><text fill="#000000" font-family="sans-serif" font-size="12" font-style="italic" lengthAdjust="spacing" textLength="57.6797" x="453.9494" y="239.6716">&#171;Domain&#187;</text><text fill="#000000" font-family="sans-serif" font-size="14" lengthAdjust="spacing" textLength="113.0186" x="426.28" y="255.738">AIToolsOntology</text><line style="stroke:#181818;stroke-width:0.5;" x1="398.28" x2="541.2986" y1="263.6911" y2="263.6911"/><ellipse cx="408.28" cy="277.4352" fill="transparent" rx="3" ry="3" style="stroke:#038048;stroke-width:1;"/><text fill="#000000" font-family="sans-serif" font-size="14" lengthAdjust="spacing" textLength="43.791" x="417.28" y="281.2262">AITool</text><ellipse cx="408.28" cy="293.9235" fill="transparent" rx="3" ry="3" style="stroke:#038048;stroke-width:1;"/><text fill="#000000" font-family="sans-serif" font-size="14" lengthAdjust="spacing" textLength="60.8262" x="417.28" y="297.7145">Category</text><ellipse cx="408.28" cy="310.4118" fill="transparent" rx="3" ry="3" style="stroke:#038048;stroke-width:1;"/><text fill="#000000" font-family="sans-serif" font-size="14" lengthAdjust="spacing" textLength="67.4639" x="417.28" y="314.2028">Capability</text><line style="stroke:#181818;stroke-width:1;" x1="398.28" x2="541.2986" y1="321.1559" y2="321.1559"/><ellipse cx="408.28" cy="334.9001" fill="transparent" rx="3" ry="3" style="stroke:#038048;stroke-width:1;"/><text fill="#000000" font-family="sans-serif" font-size="14" lengthAdjust="spacing" textLength="84.3828" x="417.28" y="338.6911">hasCategory</text><ellipse cx="408.28" cy="351.3884" fill="transparent" rx="3" ry="3" style="stroke:#038048;stroke-width:1;"/><text fill="#000000" font-family="sans-serif" font-size="14" lengthAdjust="spacing" textLength="91.0205" x="417.28" y="355.1794">hasCapability</text><ellipse cx="408.28" cy="367.8766" fill="transparent" rx="3" ry="3" style="stroke:#038048;stroke-width:1;"/><text fill="#000000" font-family="sans-serif" font-size="14" lengthAdjust="spacing" textLength="91.4102" x="417.28" y="371.6677">maturityLevel</text></g><!--class OracleOCIDiscoveryOntology--><g id="elem_OracleOCIDiscoveryOntology"><rect codeLine="94" fill="#90EE90" height="155.5508" id="OracleOCIDiscoveryOntology" rx="2.5" ry="2.5" style="stroke:#181818;stroke-width:0.5;" width="227.5693" x="7" y="1043.27"/><ellipse cx="22" cy="1063.5805" fill="#ADD1B2" rx="11" ry="11" style="stroke:#181818;stroke-width:1;"/><path d="M24.4731,1069.7236 Q23.8921,1070.0224 23.2529,1070.1719 Q22.6138,1070.3213 21.9082,1070.3213 Q19.4014,1070.3213 18.0815,1068.6694 Q16.7617,1067.0176 16.7617,1063.8965 Q16.7617,1060.7671 18.0815,1059.1152 Q19.4014,1057.4634 21.9082,1057.4634 Q22.6138,1057.4634 23.2612,1057.6128 Q23.9087,1057.7622 24.4731,1058.061 L24.4731,1060.7837 Q23.8423,1060.2026 23.2488,1059.9328 Q22.6553,1059.6631 22.0244,1059.6631 Q20.6797,1059.6631 19.9949,1060.7297 Q19.3101,1061.7964 19.3101,1063.8965 Q19.3101,1065.9883 19.9949,1067.0549 Q20.6797,1068.1216 22.0244,1068.1216 Q22.6553,1068.1216 23.2488,1067.8518 Q23.8423,1067.582 24.4731,1067.001 Z " fill="#000000"/><text fill="#000000" font-family="sans-serif" font-size="12" font-style="italic" lengthAdjust="spacing" textLength="57.6797" x="104.9448" y="1059.8716">&#171;Domain&#187;</text><text fill="#000000" font-family="sans-serif" font-size="14" lengthAdjust="spacing" textLength="195.5693" x="36" y="1075.938">OracleOCIDiscoveryOntology</text><line style="stroke:#181818;stroke-width:0.5;" x1="8" x2="233.5693" y1="1083.8911" y2="1083.8911"/><ellipse cx="18" cy="1097.6352" fill="transparent" rx="3" ry="3" style="stroke:#038048;stroke-width:1;"/><text fill="#000000" font-family="sans-serif" font-size="14" lengthAdjust="spacing" textLength="157.7051" x="27" y="1101.4263">OracleTechnologyStack</text><ellipse cx="18" cy="1114.1235" fill="transparent" rx="3" ry="3" style="stroke:#038048;stroke-width:1;"/><text fill="#000000" font-family="sans-serif" font-size="14" lengthAdjust="spacing" textLength="87.165" x="27" y="1117.9145">CloudService</text><ellipse cx="18" cy="1130.6118" fill="transparent" rx="3" ry="3" style="stroke:#038048;stroke-width:1;"/><text fill="#000000" font-family="sans-serif" font-size="14" lengthAdjust="spacing" textLength="120.6543" x="27" y="1134.4028">LearningResource</text><line style="stroke:#181818;stroke-width:1;" x1="8" x2="233.5693" y1="1141.3559" y2="1141.3559"/><ellipse cx="18" cy="1155.1001" fill="transparent" rx="3" ry="3" style="stroke:#038048;stroke-width:1;"/><text fill="#000000" font-family="sans-serif" font-size="14" lengthAdjust="spacing" textLength="102.7373" x="27" y="1158.8911">hasComponent</text><ellipse cx="18" cy="1171.5884" fill="transparent" rx="3" ry="3" style="stroke:#038048;stroke-width:1;"/><text fill="#000000" font-family="sans-serif" font-size="14" lengthAdjust="spacing" textLength="55.7402" x="27" y="1175.3794">requires</text><ellipse cx="18" cy="1188.0766" fill="transparent" rx="3" ry="3" style="stroke:#038048;stroke-width:1;"/><text fill="#000000" font-family="sans-serif" font-size="14" lengthAdjust="spacing" textLength="58.1807" x="27" y="1191.8677">provides</text></g><!--class PrefixManagementOntology--><g id="elem_PrefixManagementOntology"><rect codeLine="105" fill="#FFFFE0" height="139.0625" id="PrefixManagementOntology" rx="2.5" ry="2.5" style="stroke:#181818;stroke-width:0.5;" width="220.6719" x="447.45" y="7"/><ellipse cx="462.45" cy="27.3105" fill="#ADD1B2" rx="11" ry="11" style="stroke:#181818;stroke-width:1;"/><path d="M464.9231,33.4536 Q464.3421,33.7524 463.7029,33.9019 Q463.0638,34.0513 462.3582,34.0513 Q459.8514,34.0513 458.5315,32.3994 Q457.2117,30.7476 457.2117,27.6265 Q457.2117,24.4971 458.5315,22.8452 Q459.8514,21.1934 462.3582,21.1934 Q463.0638,21.1934 463.7112,21.3428 Q464.3587,21.4922 464.9231,21.791 L464.9231,24.5137 Q464.2923,23.9326 463.6988,23.6628 Q463.1053,23.3931 462.4744,23.3931 Q461.1297,23.3931 460.4449,24.4597 Q459.7601,25.5264 459.7601,27.6265 Q459.7601,29.7183 460.4449,30.7849 Q461.1297,31.8516 462.4744,31.8516 Q463.1053,31.8516 463.6988,31.5818 Q464.2923,31.312 464.9231,30.731 Z " fill="#000000"/><text fill="#000000" font-family="sans-serif" font-size="12" font-style="italic" lengthAdjust="spacing" textLength="76.4473" x="532.5623" y="23.6016">&#171;Integration&#187;</text><text fill="#000000" font-family="sans-serif" font-size="14" lengthAdjust="spacing" textLength="188.6719" x="476.45" y="39.668">PrefixManagementOntology</text><line style="stroke:#181818;stroke-width:0.5;" x1="448.45" x2="667.1219" y1="47.6211" y2="47.6211"/><ellipse cx="458.45" cy="61.3652" fill="transparent" rx="3" ry="3" style="stroke:#038048;stroke-width:1;"/><text fill="#000000" font-family="sans-serif" font-size="14" lengthAdjust="spacing" textLength="39.0469" x="467.45" y="65.1563">Prefix</text><ellipse cx="458.45" cy="77.8535" fill="transparent" rx="3" ry="3" style="stroke:#038048;stroke-width:1;"/><text fill="#000000" font-family="sans-serif" font-size="14" lengthAdjust="spacing" textLength="99.873" x="467.45" y="81.6445">PrefixCategory</text><line style="stroke:#181818;stroke-width:1;" x1="448.45" x2="667.1219" y1="88.5977" y2="88.5977"/><ellipse cx="458.45" cy="102.3418" fill="transparent" rx="3" ry="3" style="stroke:#038048;stroke-width:1;"/><text fill="#000000" font-family="sans-serif" font-size="14" lengthAdjust="spacing" textLength="62.6035" x="467.45" y="106.1328">hasPrefix</text><ellipse cx="458.45" cy="118.8301" fill="transparent" rx="3" ry="3" style="stroke:#038048;stroke-width:1;"/><text fill="#000000" font-family="sans-serif" font-size="14" lengthAdjust="spacing" textLength="46.1426" x="467.45" y="122.6211">hasURI</text><ellipse cx="458.45" cy="135.3184" fill="transparent" rx="3" ry="3" style="stroke:#038048;stroke-width:1;"/><text fill="#000000" font-family="sans-serif" font-size="14" lengthAdjust="spacing" textLength="93.3379" x="467.45" y="139.1094">isRelativePath</text></g><!--class OntologyShapes--><g id="elem_OntologyShapes"><rect codeLine="114" fill="#FFFFE0" height="122.5742" id="OntologyShapes" rx="2.5" ry="2.5" style="stroke:#181818;stroke-width:0.5;" width="141.7988" x="702.89" y="15.25"/><ellipse cx="717.89" cy="35.5605" fill="#ADD1B2" rx="11" ry="11" style="stroke:#181818;stroke-width:1;"/><path d="M720.3631,41.7036 Q719.7821,42.0024 719.1429,42.1519 Q718.5038,42.3013 717.7982,42.3013 Q715.2914,42.3013 713.9715,40.6494 Q712.6517,38.9976 712.6517,35.8765 Q712.6517,32.7471 713.9715,31.0952 Q715.2914,29.4434 717.7982,29.4434 Q718.5038,29.4434 719.1512,29.5928 Q719.7987,29.7422 720.3631,30.041 L720.3631,32.7637 Q719.7323,32.1826 719.1388,31.9128 Q718.5453,31.6431 717.9144,31.6431 Q716.5697,31.6431 715.8849,32.7097 Q715.2001,33.7764 715.2001,35.8765 Q715.2001,37.9683 715.8849,39.0349 Q716.5697,40.1016 717.9144,40.1016 Q718.5453,40.1016 719.1388,39.8318 Q719.7323,39.562 720.3631,38.981 Z " fill="#000000"/><text fill="#000000" font-family="sans-serif" font-size="12" font-style="italic" lengthAdjust="spacing" textLength="76.4473" x="748.5658" y="31.8516">&#171;Integration&#187;</text><text fill="#000000" font-family="sans-serif" font-size="14" lengthAdjust="spacing" textLength="109.7988" x="731.89" y="47.918">OntologyShapes</text><line style="stroke:#181818;stroke-width:0.5;" x1="703.89" x2="843.6888" y1="55.8711" y2="55.8711"/><ellipse cx="713.89" cy="69.6152" fill="transparent" rx="3" ry="3" style="stroke:#038048;stroke-width:1;"/><text fill="#000000" font-family="sans-serif" font-size="14" lengthAdjust="spacing" textLength="102.6621" x="722.89" y="73.4063">OntologyShape</text><ellipse cx="713.89" cy="86.1035" fill="transparent" rx="3" ry="3" style="stroke:#038048;stroke-width:1;"/><text fill="#000000" font-family="sans-serif" font-size="14" lengthAdjust="spacing" textLength="76.3096" x="722.89" y="89.8945">ClassShape</text><line style="stroke:#181818;stroke-width:1;" x1="703.89" x2="843.6888" y1="96.8477" y2="96.8477"/><ellipse cx="713.89" cy="110.5918" fill="transparent" rx="3" ry="3" style="stroke:#038048;stroke-width:1;"/><text fill="#000000" font-family="sans-serif" font-size="14" lengthAdjust="spacing" textLength="91.6494" x="722.89" y="114.3828">hasValidation</text><ellipse cx="713.89" cy="127.0801" fill="transparent" rx="3" ry="3" style="stroke:#038048;stroke-width:1;"/><text fill="#000000" font-family="sans-serif" font-size="14" lengthAdjust="spacing" textLength="94.3359" x="722.89" y="130.8711">hasConstraint</text></g><!--reverse link MetaMetaOntology to LLMGuidanceOntology--><g id="link_MetaMetaOntology_LLMGuidanceOntology"><path codeLine="123" d="M588.5918,392.6445 C567.6718,417.2545 556.18,430.77 535.26,455.37 " fill="transparent" id="MetaMetaOntology-backto-LLMGuidanceOntology" style="stroke:#181818;stroke-width:1;"/><polygon fill="transparent" points="600.25,378.93,584.0203,388.7584,593.1633,396.5305,600.25,378.93" style="stroke:#181818;stroke-width:1;"/></g><!--reverse link LLMGuidanceOntology to ProblemOntology--><g id="link_LLMGuidanceOntology_ProblemOntology"><path codeLine="124" d="M404.4621,626.8707 C398.6121,636.6107 402.4,631.23 397.78,641.17 C365.26,711.26 342.83,796.81 329.57,857.38 " fill="transparent" id="LLMGuidanceOntology-backto-ProblemOntology" style="stroke:#181818;stroke-width:1;"/><polygon fill="transparent" points="413.73,611.44,399.3185,623.7814,409.6056,629.96,413.73,611.44" style="stroke:#181818;stroke-width:1;"/></g><!--reverse link LLMGuidanceOntology to SolutionOntology--><g id="link_LLMGuidanceOntology_SolutionOntology"><path codeLine="125" d="M461.7253,629.4136 C448.8053,779.4136 421.11,1087.65 401.78,1198.82 C397.4,1224.02 391.19,1251.2 385.06,1275.6 " fill="transparent" id="LLMGuidanceOntology-backto-SolutionOntology" style="stroke:#181818;stroke-width:1;"/><polygon fill="transparent" points="463.27,611.48,455.7475,628.8987,467.7032,629.9285,463.27,611.48" style="stroke:#181818;stroke-width:1;"/></g><!--reverse link LLMGuidanceOntology to ConversationOntology--><g id="link_LLMGuidanceOntology_ConversationOntology"><path codeLine="126" d="M512.9283,627.8955 C521.9583,647.4755 524.13,652.17 533.17,671.75 " fill="transparent" id="LLMGuidanceOntology-backto-ConversationOntology" style="stroke:#181818;stroke-width:1;"/><polygon fill="transparent" points="505.39,611.55,507.4798,630.4082,518.3768,625.3827,505.39,611.55" style="stroke:#181818;stroke-width:1;"/></g><!--reverse link LLMGuidanceOntology to CognitionPatternsOntology--><g id="link_LLMGuidanceOntology_CognitionPatternsOntology"><path codeLine="127" d="M578.1717,578.9035 C621.5717,601.1935 653.09,626.19 677.78,672.17 C741.76,791.28 679.51,950.05 630.63,1043.05 " fill="transparent" id="LLMGuidanceOntology-backto-CognitionPatternsOntology" style="stroke:#181818;stroke-width:1;"/><polygon fill="transparent" points="562.16,570.68,575.4305,584.2407,580.9128,573.5663,562.16,570.68" style="stroke:#181818;stroke-width:1;"/></g><!--link ProblemOntology to SolutionOntology--><g id="link_ProblemOntology_SolutionOntology"><path codeLine="129" d="M316.94,1013.68 C319.1,1066.09 323.37,1136.86 331.78,1198.82 C335.2,1223.95 339.1022,1245.2412 344.2922,1269.6512 " fill="transparent" id="ProblemOntology-to-SolutionOntology" style="stroke:#181818;stroke-width:1;"/><polygon fill="#181818" points="345.54,1275.52,347.5808,1265.8849,344.5002,1270.6293,339.7557,1267.5487,345.54,1275.52" style="stroke:#181818;stroke-width:1;"/><text fill="#000000" font-family="sans-serif" font-size="13" lengthAdjust="spacing" textLength="64.27" x="332.78" y="1126.1084">influences</text></g><!--link CognitionPatternsOntology to SolutionOntology--><g id="link_CognitionPatternsOntology_SolutionOntology"><path codeLine="130" d="M510.89,1199.13 C487.3,1223.74 465.3519,1246.6385 441.7619,1271.2485 " fill="transparent" id="CognitionPatternsOntology-to-SolutionOntology" style="stroke:#181818;stroke-width:1;"/><polygon fill="#181818" points="437.61,1275.58,446.7255,1271.8508,441.0699,1271.9705,440.9503,1266.3149,437.61,1275.58" style="stroke:#181818;stroke-width:1;"/><text fill="#000000" font-family="sans-serif" font-size="13" lengthAdjust="spacing" textLength="59.1538" x="481.91" y="1242.3884">enhances</text></g><!--link ConversationOntology to CognitionPatternsOntology--><g id="link_ConversationOntology_CognitionPatternsOntology"><path codeLine="131" d="M572.12,827.87 C574.85,890.93 578.4398,973.7756 581.1798,1036.9056 " fill="transparent" id="ConversationOntology-to-CognitionPatternsOntology" style="stroke:#181818;stroke-width:1;"/><polygon fill="#181818" points="581.44,1042.9,585.046,1033.735,581.2232,1037.9047,577.0535,1034.0819,581.44,1042.9" style="stroke:#181818;stroke-width:1;"/><text fill="#000000" font-family="sans-serif" font-size="13" lengthAdjust="spacing" textLength="48.6738" x="581.06" y="940.5584">informs</text></g><!--link CreativeAnalogiesOntology to LLMGuidanceOntology--><g id="link_CreativeAnalogiesOntology_LLMGuidanceOntology"><path codeLine="133" d="M326.68,378.93 C349.63,403.54 370.928,426.3819 393.868,450.9819 " fill="transparent" id="CreativeAnalogiesOntology-to-LLMGuidanceOntology" style="stroke:#181818;stroke-width:1;"/><polygon fill="#181818" points="397.96,455.37,394.7474,446.0598,394.55,451.7132,388.8966,451.5158,397.96,455.37" style="stroke:#181818;stroke-width:1;"/><text fill="#000000" font-family="sans-serif" font-size="13" lengthAdjust="spacing" textLength="50.1973" x="369.73" y="422.1884">extends</text></g><!--link AIToolsOntology to LLMGuidanceOntology--><g id="link_AIToolsOntology_LLMGuidanceOntology"><path codeLine="134" d="M469.78,378.93 C469.78,403.54 469.78,424.77 469.78,449.37 " fill="transparent" id="AIToolsOntology-to-LLMGuidanceOntology" style="stroke:#181818;stroke-width:1;"/><polygon fill="#181818" points="469.78,455.37,473.78,446.37,469.78,450.37,465.78,446.37,469.78,455.37" style="stroke:#181818;stroke-width:1;"/><text fill="#000000" font-family="sans-serif" font-size="13" lengthAdjust="spacing" textLength="74.0137" x="470.78" y="422.1884">implements</text></g><!--link OracleOCIDiscoveryOntology to SolutionOntology--><g id="link_OracleOCIDiscoveryOntology_SolutionOntology"><path codeLine="135" d="M169.19,1199.03 C181.13,1215.35 194.6,1231.85 208.78,1245.82 C231.48,1268.18 254.3753,1285.6754 280.2153,1302.8754 " fill="transparent" id="OracleOCIDiscoveryOntology-to-SolutionOntology" style="stroke:#181818;stroke-width:1;"/><polygon fill="#181818" points="285.21,1306.2,279.9344,1297.8833,281.0478,1303.4295,275.5016,1304.5428,285.21,1306.2" style="stroke:#181818;stroke-width:1;"/><text fill="#000000" font-family="sans-serif" font-size="13" lengthAdjust="spacing" textLength="68.4849" x="209.78" y="1242.3884">specializes</text></g><!--link PrefixManagementOntology to MetaMetaOntology--><g id="link_PrefixManagementOntology_MetaMetaOntology"><path codeLine="137" d="M591.22,146.35 C602.99,170.58 613.6677,192.5634 625.7477,217.4234 " fill="transparent" id="PrefixManagementOntology-to-MetaMetaOntology" style="stroke:#181818;stroke-width:1;stroke-dasharray:7.0,7.0;"/><polygon fill="#181818" points="628.37,222.82,628.0342,212.9769,626.1847,218.3228,620.8388,216.4733,628.37,222.82" style="stroke:#181818;stroke-width:1;"/><text fill="#000000" font-family="sans-serif" font-size="13" lengthAdjust="spacing" textLength="56.5386" x="612.78" y="189.6384">manages</text></g><!--link OntologyShapes to MetaMetaOntology--><g id="link_OntologyShapes_MetaMetaOntology"><path codeLine="138" d="M744.27,138.28 C731.59,164.38 719.2515,189.783 705.8115,217.453 " fill="transparent" id="OntologyShapes-to-MetaMetaOntology" style="stroke:#181818;stroke-width:1;stroke-dasharray:7.0,7.0;"/><polygon fill="#181818" points="703.19,222.85,710.7202,216.5021,705.3746,218.3525,703.5242,213.0068,703.19,222.85" style="stroke:#181818;stroke-width:1;"/><text fill="#000000" font-family="sans-serif" font-size="13" lengthAdjust="spacing" textLength="55.5166" x="724.02" y="189.6384">validates</text></g><!--SRC=[VLRRRk8m47tFL-Ij3nNzWAf2AdItGajRr7HNsaUJ3C72iREsGybU_dt7SUpOa824X2Tdd3FZCyVSf9bk6ULbeWwKrqIIAiqPKIhzawJuMP3yK4hHy68fc90F3o-WoNoUhccvrnlA3-EefP3WK0lMm3ZgILI4SeTxbW1y7BWW2WOOQSTHAwwXb4HJuVVy2Oo9p-HVajoaXdcw9Yt8n5Pe0kRxnZLkKBQfhyxMVfi-RfMM93SxFj4AkC8Vbu_MS0JMXxznyScWAC7MraLdi_xXdgWGoyplrwRQ8YCRARgaB1Sr6CwMvdhzyjpGWl0SffcQscKjCQW3Zdcmi8GUEJ4RNF2AeCI2Cj787EBO1v4bQDjGSyXHGpTIR1bK0SjU1uxbeb6KWrAl04KVMWfaVjB3ohILSdt1y0TnEkgM6qc5fBeT8cudtxXCiCPKDStd0_8zfpbX3kgwMTLO1_2ecqW0Jy47F3U5CRMZe0Oge_b7dvzXl543KMH-1Ad8TR96x_XafQ4QkkNp-b2_zNdpWh3j7f6QvhGct7LUexwL9bKTqYevDNjlY4PrSJND3Ky-ntD57ybQDH3i4tstgrf8mi8Z3qbYV4SBG9tZ14XtrjJrKXd98oQ7sf5MWXr1zRApehGoZsIvb80jEeBLFXvKK8Ut85y98-skOU6Su23PJ1JAGb8SxZxyvLGpd8kWHN5DkuP_HOiGSgWnocyKakyJVTSVLnz2iAiSBSI9WA3h2TdwPKssbBd9YFeR8xj81BvDAvI9cIfhKvxJ6peTWxVbwecgNA3csclqBBgRhGw3uiiFZXuJJP61F5BlB6iWagDota4DXXFh0dN3mKjLmg-6IZzljHH7b8sovnzS0cVU13jwUi7ZAZir1GN4zyOWQPCGBQ86XWmZBAw_lw-SUjKxi4vzUD3xeAFzwxCzgK5DaeXWleMumH0uyyZGejnKEKlj6cJvO71FQvLSte5_PxEnAoSPlOOC-Cprfu7dVZoD73F4Q-W9dqgIynjfDfjVNWltAUKxl5nmOvLCczv4Bl0zwJD7NDmaJM_PlLd8IYN9j4cPBSPgnrUVDF129UUMCPqnc6boPQOdAbKrv1GLzXkBJIRdwUvkVldFwXwTnI3njR7m9z3zNOdu_m00]--></g></svg>