<svg xmlns="http://www.w3.org/2000/svg" xmlns:xlink="http://www.w3.org/1999/xlink" contentStyleType="text/css" data-diagram-type="CLASS" height="1438px" preserveAspectRatio="none" style="width:1528px;height:1438px;background:#FFFFFF;" version="1.1" viewBox="0 0 1528 1438" width="1528px" zoomAndPan="magnify"><defs/><g><g id="elem_N1"><path d="M1073.19,10.29 L1073.19,142.7744 L1521.0889,142.7744 L1521.0889,20.29 L1511.0889,10.29 L1073.19,10.29 " fill="#FEFFDD" style="stroke:#181818;stroke-width:0.5;"/><path d="M1511.0889,10.29 L1511.0889,20.29 L1521.0889,20.29 L1511.0889,10.29 " fill="#FEFFDD" style="stroke:#181818;stroke-width:1;"/><text fill="#000000" font-family="sans-serif" font-size="13" lengthAdjust="spacing" textLength="426.8989" x="1079.19" y="27.8584">The most important aspects of this framework are the relationships</text><text fill="#000000" font-family="sans-serif" font-size="13" lengthAdjust="spacing" textLength="423.0776" x="1079.19" y="43.1689">between ontologies and how they enable semantic interoperability.</text><text fill="#000000" font-family="sans-serif" font-size="13" lengthAdjust="spacing" textLength="4.1133" x="1079.19" y="58.4795">&#160;</text><text fill="#000000" font-family="sans-serif" font-size="13" lengthAdjust="spacing" textLength="92.3013" x="1079.19" y="73.79">Key principles:</text><text fill="#000000" font-family="sans-serif" font-size="13" lengthAdjust="spacing" textLength="279.043" x="1079.19" y="89.1005">- Meta layer provides foundational concepts</text><text fill="#000000" font-family="sans-serif" font-size="13" lengthAdjust="spacing" textLength="322.353" x="1079.19" y="104.4111">- Core layer implements domain-agnostic patterns</text><text fill="#000000" font-family="sans-serif" font-size="13" lengthAdjust="spacing" textLength="290.9385" x="1079.19" y="119.7216">- Domain layer adds specific knowledge areas</text><text fill="#000000" font-family="sans-serif" font-size="13" lengthAdjust="spacing" textLength="246.0034" x="1079.19" y="135.0322">- Integration layer ensures consistency</text></g><!--class MetaMetaOntology--><g id="elem_MetaMetaOntology"><rect codeLine="23" fill="#FFB6C1" height="155.5508" id="MetaMetaOntology" rx="2.5" ry="2.5" style="stroke:#181818;stroke-width:0.5;" width="176.6094" x="653.84" y="223.07"/><ellipse cx="676.4298" cy="243.3805" fill="#ADD1B2" rx="11" ry="11" style="stroke:#181818;stroke-width:1;"/><path d="M678.9029,249.5236 Q678.3219,249.8224 677.6827,249.9719 Q677.0436,250.1213 676.338,250.1213 Q673.8312,250.1213 672.5113,248.4694 Q671.1915,246.8176 671.1915,243.6965 Q671.1915,240.5671 672.5113,238.9152 Q673.8312,237.2634 676.338,237.2634 Q677.0436,237.2634 677.691,237.4128 Q678.3385,237.5622 678.9029,237.861 L678.9029,240.5837 Q678.2721,240.0026 677.6786,239.7328 Q677.0851,239.4631 676.4542,239.4631 Q675.1095,239.4631 674.4247,240.5297 Q673.7399,241.5964 673.7399,243.6965 Q673.7399,245.7883 674.4247,246.8549 Q675.1095,247.9216 676.4542,247.9216 Q677.0851,247.9216 677.6786,247.6518 Q678.2721,247.382 678.9029,246.801 Z " fill="#000000"/><text fill="#000000" font-family="sans-serif" font-size="12" font-style="italic" lengthAdjust="spacing" textLength="40.7109" x="735.6325" y="239.6716">&#171;Meta&#187;</text><text fill="#000000" font-family="sans-serif" font-size="14" lengthAdjust="spacing" textLength="127.7432" x="692.1164" y="255.738">MetaMetaOntology</text><line style="stroke:#181818;stroke-width:0.5;" x1="654.84" x2="829.4494" y1="263.6911" y2="263.6911"/><ellipse cx="664.84" cy="277.4352" fill="transparent" rx="3" ry="3" style="stroke:#038048;stroke-width:1;"/><text fill="#000000" font-family="sans-serif" font-size="14" lengthAdjust="spacing" textLength="150.6094" x="673.84" y="281.2262">AbstractionDimension</text><ellipse cx="664.84" cy="293.9235" fill="transparent" rx="3" ry="3" style="stroke:#038048;stroke-width:1;"/><text fill="#000000" font-family="sans-serif" font-size="14" lengthAdjust="spacing" textLength="112.4033" x="673.84" y="297.7145">AbstractionLevel</text><ellipse cx="664.84" cy="310.4118" fill="transparent" rx="3" ry="3" style="stroke:#038048;stroke-width:1;"/><text fill="#000000" font-family="sans-serif" font-size="14" lengthAdjust="spacing" textLength="127.0254" x="673.84" y="314.2028">KnowledgeDomain</text><line style="stroke:#181818;stroke-width:1;" x1="654.84" x2="829.4494" y1="321.1559" y2="321.1559"/><ellipse cx="664.84" cy="334.9001" fill="transparent" rx="3" ry="3" style="stroke:#038048;stroke-width:1;"/><text fill="#000000" font-family="sans-serif" font-size="14" lengthAdjust="spacing" textLength="57.9141" x="673.84" y="338.6911">hasLevel</text><ellipse cx="664.84" cy="351.3884" fill="transparent" rx="3" ry="3" style="stroke:#038048;stroke-width:1;"/><text fill="#000000" font-family="sans-serif" font-size="14" lengthAdjust="spacing" textLength="85.3809" x="673.84" y="355.1794">levelNumber</text><ellipse cx="664.84" cy="367.8766" fill="transparent" rx="3" ry="3" style="stroke:#038048;stroke-width:1;"/><text fill="#000000" font-family="sans-serif" font-size="14" lengthAdjust="spacing" textLength="90.8701" x="673.84" y="371.6677">domainScope</text></g><g id="elem_GMN4"><path d="M1121.76,272.87 L1121.76,328.8016 L1376.5315,328.8016 L1376.5315,282.87 L1366.5315,272.87 L1121.76,272.87 " fill="#FEFFDD" style="stroke:#181818;stroke-width:0.5;"/><path d="M1366.5315,272.87 L1366.5315,282.87 L1376.5315,282.87 L1366.5315,272.87 " fill="#FEFFDD" style="stroke:#181818;stroke-width:1;"/><text fill="#000000" font-family="sans-serif" font-size="13" lengthAdjust="spacing" textLength="183.9805" x="1127.76" y="290.4384">Foundation of the framework</text><text fill="#000000" font-family="sans-serif" font-size="13" lengthAdjust="spacing" textLength="233.7715" x="1127.76" y="305.7489">Defines how knowledge is structured</text><text fill="#000000" font-family="sans-serif" font-size="13" lengthAdjust="spacing" textLength="196.3965" x="1127.76" y="321.0595">and abstracted across domains</text></g><!--class LLMGuidanceOntology--><g id="elem_LLMGuidanceOntology"><rect codeLine="39" fill="#FFB6C1" height="155.5508" id="LLMGuidanceOntology" rx="2.5" ry="2.5" style="stroke:#181818;stroke-width:0.5;" width="184.1338" x="454.07" y="455.62"/><ellipse cx="469.07" cy="475.9305" fill="#ADD1B2" rx="11" ry="11" style="stroke:#181818;stroke-width:1;"/><path d="M471.5431,482.0736 Q470.9621,482.3724 470.3229,482.5219 Q469.6838,482.6713 468.9782,482.6713 Q466.4714,482.6713 465.1515,481.0194 Q463.8317,479.3676 463.8317,476.2465 Q463.8317,473.1171 465.1515,471.4652 Q466.4714,469.8134 468.9782,469.8134 Q469.6838,469.8134 470.3312,469.9628 Q470.9787,470.1122 471.5431,470.411 L471.5431,473.1337 Q470.9123,472.5526 470.3188,472.2828 Q469.7253,472.0131 469.0944,472.0131 Q467.7497,472.0131 467.0649,473.0797 Q466.3801,474.1464 466.3801,476.2465 Q466.3801,478.3383 467.0649,479.4049 Q467.7497,480.4716 469.0944,480.4716 Q469.7253,480.4716 470.3188,480.2018 Q470.9123,479.932 471.5431,479.351 Z " fill="#000000"/><text fill="#000000" font-family="sans-serif" font-size="12" font-style="italic" lengthAdjust="spacing" textLength="40.7109" x="538.7814" y="472.2216">&#171;Meta&#187;</text><text fill="#000000" font-family="sans-serif" font-size="14" lengthAdjust="spacing" textLength="152.1338" x="483.07" y="488.288">LLMGuidanceOntology</text><line style="stroke:#181818;stroke-width:0.5;" x1="455.07" x2="637.2038" y1="496.2411" y2="496.2411"/><ellipse cx="465.07" cy="509.9852" fill="transparent" rx="3" ry="3" style="stroke:#038048;stroke-width:1;"/><text fill="#000000" font-family="sans-serif" font-size="14" lengthAdjust="spacing" textLength="93.3652" x="474.07" y="513.7762">Interpretation</text><ellipse cx="465.07" cy="526.4735" fill="transparent" rx="3" ry="3" style="stroke:#038048;stroke-width:1;"/><text fill="#000000" font-family="sans-serif" font-size="14" lengthAdjust="spacing" textLength="43.4014" x="474.07" y="530.2645">Action</text><ellipse cx="465.07" cy="542.9618" fill="transparent" rx="3" ry="3" style="stroke:#038048;stroke-width:1;"/><text fill="#000000" font-family="sans-serif" font-size="14" lengthAdjust="spacing" textLength="107.3926" x="474.07" y="546.7528">DomainAnalogy</text><line style="stroke:#181818;stroke-width:1;" x1="455.07" x2="637.2038" y1="553.7059" y2="553.7059"/><ellipse cx="465.07" cy="567.4501" fill="transparent" rx="3" ry="3" style="stroke:#038048;stroke-width:1;"/><text fill="#000000" font-family="sans-serif" font-size="14" lengthAdjust="spacing" textLength="66.958" x="474.07" y="571.2411">hasAction</text><ellipse cx="465.07" cy="583.9384" fill="transparent" rx="3" ry="3" style="stroke:#038048;stroke-width:1;"/><text fill="#000000" font-family="sans-serif" font-size="14" lengthAdjust="spacing" textLength="98.3691" x="474.07" y="587.7294">analogySource</text><ellipse cx="465.07" cy="600.4266" fill="transparent" rx="3" ry="3" style="stroke:#038048;stroke-width:1;"/><text fill="#000000" font-family="sans-serif" font-size="14" lengthAdjust="spacing" textLength="96.9199" x="474.07" y="604.2177">analogyTarget</text></g><g id="elem_GMN8"><path d="M673.59,505.43 L673.59,529.39 L638.31,533.39 L673.59,537.39 L673.59,561.3616 A0,0 0 0 0 673.59,561.3616 L920.6935,561.3616 A0,0 0 0 0 920.6935,561.3616 L920.6935,515.43 L910.6935,505.43 L673.59,505.43 A0,0 0 0 0 673.59,505.43 " fill="#FEFFDD" style="stroke:#181818;stroke-width:0.5;"/><path d="M910.6935,505.43 L910.6935,515.43 L920.6935,515.43 L910.6935,505.43 " fill="#FEFFDD" style="stroke:#181818;stroke-width:0.5;"/><text fill="#000000" font-family="sans-serif" font-size="13" lengthAdjust="spacing" textLength="208.1143" x="679.59" y="522.9984">Bridges between LLM capabilities</text><text fill="#000000" font-family="sans-serif" font-size="13" lengthAdjust="spacing" textLength="226.1035" x="679.59" y="538.3089">and domain-specific needs through</text><text fill="#000000" font-family="sans-serif" font-size="13" lengthAdjust="spacing" textLength="130.0952" x="679.59" y="553.6195">analogical reasoning</text></g><!--class ProblemOntology--><g id="elem_ProblemOntology"><rect codeLine="56" fill="#ADD8E6" height="155.5508" id="ProblemOntology" rx="2.5" ry="2.5" style="stroke:#181818;stroke-width:0.5;" width="149.8857" x="308.2" y="857.72"/><ellipse cx="323.2" cy="878.0305" fill="#ADD1B2" rx="11" ry="11" style="stroke:#181818;stroke-width:1;"/><path d="M325.6731,884.1736 Q325.0921,884.4724 324.4529,884.6219 Q323.8138,884.7713 323.1082,884.7713 Q320.6014,884.7713 319.2815,883.1194 Q317.9617,881.4676 317.9617,878.3465 Q317.9617,875.2171 319.2815,873.5652 Q320.6014,871.9134 323.1082,871.9134 Q323.8138,871.9134 324.4612,872.0628 Q325.1087,872.2122 325.6731,872.511 L325.6731,875.2337 Q325.0423,874.6526 324.4488,874.3828 Q323.8553,874.1131 323.2244,874.1131 Q321.8797,874.1131 321.1949,875.1797 Q320.5101,876.2464 320.5101,878.3465 Q320.5101,880.4383 321.1949,881.5049 Q321.8797,882.5716 323.2244,882.5716 Q323.8553,882.5716 324.4488,882.3018 Q325.0423,882.032 325.6731,881.451 Z " fill="#000000"/><text fill="#000000" font-family="sans-serif" font-size="12" font-style="italic" lengthAdjust="spacing" textLength="39.8438" x="376.221" y="874.3216">&#171;Core&#187;</text><text fill="#000000" font-family="sans-serif" font-size="14" lengthAdjust="spacing" textLength="117.8857" x="337.2" y="890.388">ProblemOntology</text><line style="stroke:#181818;stroke-width:0.5;" x1="309.2" x2="457.0857" y1="898.3411" y2="898.3411"/><ellipse cx="319.2" cy="912.0852" fill="transparent" rx="3" ry="3" style="stroke:#038048;stroke-width:1;"/><text fill="#000000" font-family="sans-serif" font-size="14" lengthAdjust="spacing" textLength="93.4404" x="328.2" y="915.8762">BusinessNeed</text><ellipse cx="319.2" cy="928.5735" fill="transparent" rx="3" ry="3" style="stroke:#038048;stroke-width:1;"/><text fill="#000000" font-family="sans-serif" font-size="14" lengthAdjust="spacing" textLength="53.833" x="328.2" y="932.3645">Context</text><ellipse cx="319.2" cy="945.0618" fill="transparent" rx="3" ry="3" style="stroke:#038048;stroke-width:1;"/><text fill="#000000" font-family="sans-serif" font-size="14" lengthAdjust="spacing" textLength="70.7793" x="328.2" y="948.8528">Constraint</text><line style="stroke:#181818;stroke-width:1;" x1="309.2" x2="457.0857" y1="955.8059" y2="955.8059"/><ellipse cx="319.2" cy="969.5501" fill="transparent" rx="3" ry="3" style="stroke:#038048;stroke-width:1;"/><text fill="#000000" font-family="sans-serif" font-size="14" lengthAdjust="spacing" textLength="60.9766" x="328.2" y="973.3411">hasValue</text><ellipse cx="319.2" cy="986.0384" fill="transparent" rx="3" ry="3" style="stroke:#038048;stroke-width:1;"/><text fill="#000000" font-family="sans-serif" font-size="14" lengthAdjust="spacing" textLength="71.9961" x="328.2" y="989.8294">hasPriority</text><ellipse cx="319.2" cy="1002.5266" fill="transparent" rx="3" ry="3" style="stroke:#038048;stroke-width:1;"/><text fill="#000000" font-family="sans-serif" font-size="14" lengthAdjust="spacing" textLength="77.3896" x="328.2" y="1006.3177">hasContext</text></g><!--class SolutionOntology--><g id="elem_SolutionOntology"><rect codeLine="66" fill="#ADD8E6" height="155.5508" id="SolutionOntology" rx="2.5" ry="2.5" style="stroke:#181818;stroke-width:0.5;" width="156.416" x="182.93" y="1275.82"/><ellipse cx="201.0255" cy="1296.1305" fill="#ADD1B2" rx="11" ry="11" style="stroke:#181818;stroke-width:1;"/><path d="M203.4987,1302.2736 Q202.9176,1302.5724 202.2784,1302.7219 Q201.6393,1302.8713 200.9337,1302.8713 Q198.4269,1302.8713 197.1071,1301.2194 Q195.7872,1299.5676 195.7872,1296.4465 Q195.7872,1293.3171 197.1071,1291.6652 Q198.4269,1290.0134 200.9337,1290.0134 Q201.6393,1290.0134 202.2867,1290.1628 Q202.9342,1290.3122 203.4987,1290.611 L203.4987,1293.3337 Q202.8678,1292.7526 202.2743,1292.4828 Q201.6808,1292.2131 201.0499,1292.2131 Q199.7052,1292.2131 199.0204,1293.2797 Q198.3356,1294.3464 198.3356,1296.4465 Q198.3356,1298.5383 199.0204,1299.6049 Q199.7052,1300.6716 201.0499,1300.6716 Q201.6808,1300.6716 202.2743,1300.4018 Q202.8678,1300.132 203.4987,1299.551 Z " fill="#000000"/><text fill="#000000" font-family="sans-serif" font-size="12" font-style="italic" lengthAdjust="spacing" textLength="39.8438" x="254.5601" y="1292.4216">&#171;Core&#187;</text><text fill="#000000" font-family="sans-serif" font-size="14" lengthAdjust="spacing" textLength="117.5371" x="215.7134" y="1308.488">SolutionOntology</text><line style="stroke:#181818;stroke-width:0.5;" x1="183.93" x2="338.346" y1="1316.4411" y2="1316.4411"/><ellipse cx="193.93" cy="1330.1852" fill="transparent" rx="3" ry="3" style="stroke:#038048;stroke-width:1;"/><text fill="#000000" font-family="sans-serif" font-size="14" lengthAdjust="spacing" textLength="119.6426" x="202.93" y="1333.9763">TechnicalSolution</text><ellipse cx="193.93" cy="1346.6735" fill="transparent" rx="3" ry="3" style="stroke:#038048;stroke-width:1;"/><text fill="#000000" font-family="sans-serif" font-size="14" lengthAdjust="spacing" textLength="106.8594" x="202.93" y="1350.4645">Implementation</text><ellipse cx="193.93" cy="1363.1618" fill="transparent" rx="3" ry="3" style="stroke:#038048;stroke-width:1;"/><text fill="#000000" font-family="sans-serif" font-size="14" lengthAdjust="spacing" textLength="68.0928" x="202.93" y="1366.9528">Validation</text><line style="stroke:#181818;stroke-width:1;" x1="183.93" x2="338.346" y1="1373.9059" y2="1373.9059"/><ellipse cx="193.93" cy="1387.6501" fill="transparent" rx="3" ry="3" style="stroke:#038048;stroke-width:1;"/><text fill="#000000" font-family="sans-serif" font-size="14" lengthAdjust="spacing" textLength="55.4189" x="202.93" y="1391.4411">satisfies</text><ellipse cx="193.93" cy="1404.1384" fill="transparent" rx="3" ry="3" style="stroke:#038048;stroke-width:1;"/><text fill="#000000" font-family="sans-serif" font-size="14" lengthAdjust="spacing" textLength="130.416" x="202.93" y="1407.9294">hasImplementation</text><ellipse cx="193.93" cy="1420.6266" fill="transparent" rx="3" ry="3" style="stroke:#038048;stroke-width:1;"/><text fill="#000000" font-family="sans-serif" font-size="14" lengthAdjust="spacing" textLength="107.7549" x="202.93" y="1424.4177">validationStatus</text></g><g id="elem_GMN13"><path d="M374.12,1325.63 L374.12,1349.59 L339.77,1353.59 L374.12,1357.59 L374.12,1381.5616 A0,0 0 0 0 374.12,1381.5616 L588.1649,1381.5616 A0,0 0 0 0 588.1649,1381.5616 L588.1649,1335.63 L578.1649,1325.63 L374.12,1325.63 A0,0 0 0 0 374.12,1325.63 " fill="#FEFFDD" style="stroke:#181818;stroke-width:0.5;"/><path d="M578.1649,1325.63 L578.1649,1335.63 L588.1649,1335.63 L578.1649,1325.63 " fill="#FEFFDD" style="stroke:#181818;stroke-width:0.5;"/><text fill="#000000" font-family="sans-serif" font-size="13" lengthAdjust="spacing" textLength="193.0449" x="380.12" y="1343.1984">Solutions are validated against</text><text fill="#000000" font-family="sans-serif" font-size="13" lengthAdjust="spacing" textLength="190.2837" x="380.12" y="1358.5089">problem constraints and must</text><text fill="#000000" font-family="sans-serif" font-size="13" lengthAdjust="spacing" textLength="141.4131" x="380.12" y="1373.8195">satisfy business needs</text></g><!--class ConversationOntology--><g id="elem_ConversationOntology"><rect codeLine="82" fill="#ADD8E6" height="155.5508" id="ConversationOntology" rx="2.5" ry="2.5" style="stroke:#181818;stroke-width:0.5;" width="183.2793" x="714.5" y="672.17"/><ellipse cx="729.5" cy="692.4805" fill="#ADD1B2" rx="11" ry="11" style="stroke:#181818;stroke-width:1;"/><path d="M731.9731,698.6236 Q731.3921,698.9224 730.7529,699.0719 Q730.1138,699.2213 729.4082,699.2213 Q726.9014,699.2213 725.5815,697.5694 Q724.2617,695.9176 724.2617,692.7965 Q724.2617,689.6671 725.5815,688.0152 Q726.9014,686.3634 729.4082,686.3634 Q730.1138,686.3634 730.7612,686.5128 Q731.4087,686.6622 731.9731,686.961 L731.9731,689.6837 Q731.3423,689.1026 730.7488,688.8328 Q730.1553,688.5631 729.5244,688.5631 Q728.1797,688.5631 727.4949,689.6297 Q726.8101,690.6964 726.8101,692.7965 Q726.8101,694.8883 727.4949,695.9549 Q728.1797,697.0216 729.5244,697.0216 Q730.1553,697.0216 730.7488,696.7518 Q731.3423,696.482 731.9731,695.901 Z " fill="#000000"/><text fill="#000000" font-family="sans-serif" font-size="12" font-style="italic" lengthAdjust="spacing" textLength="39.8438" x="799.2178" y="688.7716">&#171;Core&#187;</text><text fill="#000000" font-family="sans-serif" font-size="14" lengthAdjust="spacing" textLength="151.2793" x="743.5" y="704.838">ConversationOntology</text><line style="stroke:#181818;stroke-width:0.5;" x1="715.5" x2="896.7793" y1="712.7911" y2="712.7911"/><ellipse cx="725.5" cy="726.5352" fill="transparent" rx="3" ry="3" style="stroke:#038048;stroke-width:1;"/><text fill="#000000" font-family="sans-serif" font-size="14" lengthAdjust="spacing" textLength="82.6533" x="734.5" y="730.3262">BacklogItem</text><ellipse cx="725.5" cy="743.0235" fill="transparent" rx="3" ry="3" style="stroke:#038048;stroke-width:1;"/><text fill="#000000" font-family="sans-serif" font-size="14" lengthAdjust="spacing" textLength="89.1885" x="734.5" y="746.8145">Conversation</text><ellipse cx="725.5" cy="759.5118" fill="transparent" rx="3" ry="3" style="stroke:#038048;stroke-width:1;"/><text fill="#000000" font-family="sans-serif" font-size="14" lengthAdjust="spacing" textLength="41.5693" x="734.5" y="763.3028">Status</text><line style="stroke:#181818;stroke-width:1;" x1="715.5" x2="896.7793" y1="770.2559" y2="770.2559"/><ellipse cx="725.5" cy="784.0001" fill="transparent" rx="3" ry="3" style="stroke:#038048;stroke-width:1;"/><text fill="#000000" font-family="sans-serif" font-size="14" lengthAdjust="spacing" textLength="65.126" x="734.5" y="787.7911">hasStatus</text><ellipse cx="725.5" cy="800.4884" fill="transparent" rx="3" ry="3" style="stroke:#038048;stroke-width:1;"/><text fill="#000000" font-family="sans-serif" font-size="14" lengthAdjust="spacing" textLength="95.7236" x="734.5" y="804.2794">hasParticipant</text><ellipse cx="725.5" cy="816.9766" fill="transparent" rx="3" ry="3" style="stroke:#038048;stroke-width:1;"/><text fill="#000000" font-family="sans-serif" font-size="14" lengthAdjust="spacing" textLength="72.1396" x="734.5" y="820.7677">timestamp</text></g><!--class CognitionPatternsOntology--><g id="elem_CognitionPatternsOntology"><rect codeLine="92" fill="#ADD8E6" height="155.5508" id="CognitionPatternsOntology" rx="2.5" ry="2.5" style="stroke:#181818;stroke-width:0.5;" width="215.709" x="728.29" y="1043.27"/><ellipse cx="743.29" cy="1063.5805" fill="#ADD1B2" rx="11" ry="11" style="stroke:#181818;stroke-width:1;"/><path d="M745.7631,1069.7236 Q745.1821,1070.0224 744.5429,1070.1719 Q743.9038,1070.3213 743.1982,1070.3213 Q740.6914,1070.3213 739.3715,1068.6694 Q738.0517,1067.0176 738.0517,1063.8965 Q738.0517,1060.7671 739.3715,1059.1152 Q740.6914,1057.4634 743.1982,1057.4634 Q743.9038,1057.4634 744.5512,1057.6128 Q745.1987,1057.7622 745.7631,1058.061 L745.7631,1060.7837 Q745.1323,1060.2026 744.5388,1059.9328 Q743.9453,1059.6631 743.3144,1059.6631 Q741.9697,1059.6631 741.2849,1060.7297 Q740.6001,1061.7964 740.6001,1063.8965 Q740.6001,1065.9883 741.2849,1067.0549 Q741.9697,1068.1216 743.3144,1068.1216 Q743.9453,1068.1216 744.5388,1067.8518 Q745.1323,1067.582 745.7631,1067.001 Z " fill="#000000"/><text fill="#000000" font-family="sans-serif" font-size="12" font-style="italic" lengthAdjust="spacing" textLength="39.8438" x="829.2226" y="1059.8716">&#171;Core&#187;</text><text fill="#000000" font-family="sans-serif" font-size="14" lengthAdjust="spacing" textLength="183.709" x="757.29" y="1075.938">CognitionPatternsOntology</text><line style="stroke:#181818;stroke-width:0.5;" x1="729.29" x2="942.999" y1="1083.8911" y2="1083.8911"/><ellipse cx="739.29" cy="1097.6352" fill="transparent" rx="3" ry="3" style="stroke:#038048;stroke-width:1;"/><text fill="#000000" font-family="sans-serif" font-size="14" lengthAdjust="spacing" textLength="120.873" x="748.29" y="1101.4263">ProcessingSystem</text><ellipse cx="739.29" cy="1114.1235" fill="transparent" rx="3" ry="3" style="stroke:#038048;stroke-width:1;"/><text fill="#000000" font-family="sans-serif" font-size="14" lengthAdjust="spacing" textLength="48.1592" x="748.29" y="1117.9145">Pattern</text><ellipse cx="739.29" cy="1130.6118" fill="transparent" rx="3" ry="3" style="stroke:#038048;stroke-width:1;"/><text fill="#000000" font-family="sans-serif" font-size="14" lengthAdjust="spacing" textLength="118.4736" x="748.29" y="1134.4028">TemporalContext</text><line style="stroke:#181818;stroke-width:1;" x1="729.29" x2="942.999" y1="1141.3559" y2="1141.3559"/><ellipse cx="739.29" cy="1155.1001" fill="transparent" rx="3" ry="3" style="stroke:#038048;stroke-width:1;"/><text fill="#000000" font-family="sans-serif" font-size="14" lengthAdjust="spacing" textLength="136.835" x="748.29" y="1158.8911">hasConfidenceScore</text><ellipse cx="739.29" cy="1171.5884" fill="transparent" rx="3" ry="3" style="stroke:#038048;stroke-width:1;"/><text fill="#000000" font-family="sans-serif" font-size="14" lengthAdjust="spacing" textLength="168.5264" x="748.29" y="1175.3794">implementsMetaConcept</text><ellipse cx="739.29" cy="1188.0766" fill="transparent" rx="3" ry="3" style="stroke:#038048;stroke-width:1;"/><text fill="#000000" font-family="sans-serif" font-size="14" lengthAdjust="spacing" textLength="97.7607" x="748.29" y="1191.8677">solvesProblem</text></g><g id="elem_GMN18"><path d="M454.6,1093.08 L454.6,1149.0116 A0,0 0 0 0 454.6,1149.0116 L693.6801,1149.0116 A0,0 0 0 0 693.6801,1149.0116 L693.6801,1125.04 L727.98,1121.04 L693.6801,1117.04 L693.6801,1103.08 L683.6801,1093.08 L454.6,1093.08 A0,0 0 0 0 454.6,1093.08 " fill="#FEFFDD" style="stroke:#181818;stroke-width:0.5;"/><path d="M683.6801,1093.08 L683.6801,1103.08 L693.6801,1103.08 L683.6801,1093.08 " fill="#FEFFDD" style="stroke:#181818;stroke-width:0.5;"/><text fill="#000000" font-family="sans-serif" font-size="13" lengthAdjust="spacing" textLength="190.8423" x="460.6" y="1110.6484">Captures recurring patterns in</text><text fill="#000000" font-family="sans-serif" font-size="13" lengthAdjust="spacing" textLength="218.0801" x="460.6" y="1125.9589">how LLMs process and understand</text><text fill="#000000" font-family="sans-serif" font-size="13" lengthAdjust="spacing" textLength="107.707" x="460.6" y="1141.2695">domain concepts</text></g><!--class CreativeAnalogiesOntology--><g id="elem_CreativeAnalogiesOntology"><rect codeLine="109" fill="#90EE90" height="155.5508" id="CreativeAnalogiesOntology" rx="2.5" ry="2.5" style="stroke:#181818;stroke-width:0.5;" width="215.8047" x="223.24" y="223.07"/><ellipse cx="238.24" cy="243.3805" fill="#ADD1B2" rx="11" ry="11" style="stroke:#181818;stroke-width:1;"/><path d="M240.7131,249.5236 Q240.1321,249.8224 239.4929,249.9719 Q238.8538,250.1213 238.1482,250.1213 Q235.6414,250.1213 234.3215,248.4694 Q233.0017,246.8176 233.0017,243.6965 Q233.0017,240.5671 234.3215,238.9152 Q235.6414,237.2634 238.1482,237.2634 Q238.8538,237.2634 239.5012,237.4128 Q240.1487,237.5622 240.7131,237.861 L240.7131,240.5837 Q240.0823,240.0026 239.4888,239.7328 Q238.8953,239.4631 238.2644,239.4631 Q236.9197,239.4631 236.2349,240.5297 Q235.5501,241.5964 235.5501,243.6965 Q235.5501,245.7883 236.2349,246.8549 Q236.9197,247.9216 238.2644,247.9216 Q238.8953,247.9216 239.4888,247.6518 Q240.0823,247.382 240.7131,246.801 Z " fill="#000000"/><text fill="#000000" font-family="sans-serif" font-size="12" font-style="italic" lengthAdjust="spacing" textLength="57.6797" x="315.3025" y="239.6716">&#171;Domain&#187;</text><text fill="#000000" font-family="sans-serif" font-size="14" lengthAdjust="spacing" textLength="183.8047" x="252.24" y="255.738">CreativeAnalogiesOntology</text><line style="stroke:#181818;stroke-width:0.5;" x1="224.24" x2="438.0447" y1="263.6911" y2="263.6911"/><ellipse cx="234.24" cy="277.4352" fill="transparent" rx="3" ry="3" style="stroke:#038048;stroke-width:1;"/><text fill="#000000" font-family="sans-serif" font-size="14" lengthAdjust="spacing" textLength="99.4834" x="243.24" y="281.2262">PlayfulAnalogy</text><ellipse cx="234.24" cy="293.9235" fill="transparent" rx="3" ry="3" style="stroke:#038048;stroke-width:1;"/><text fill="#000000" font-family="sans-serif" font-size="14" lengthAdjust="spacing" textLength="113.6201" x="243.24" y="297.7145">AnalogicalBridge</text><ellipse cx="234.24" cy="310.4118" fill="transparent" rx="3" ry="3" style="stroke:#038048;stroke-width:1;"/><text fill="#000000" font-family="sans-serif" font-size="14" lengthAdjust="spacing" textLength="127.9141" x="243.24" y="314.2028">ExplanationPattern</text><line style="stroke:#181818;stroke-width:1;" x1="224.24" x2="438.0447" y1="321.1559" y2="321.1559"/><ellipse cx="234.24" cy="334.9001" fill="transparent" rx="3" ry="3" style="stroke:#038048;stroke-width:1;"/><text fill="#000000" font-family="sans-serif" font-size="14" lengthAdjust="spacing" textLength="64.4971" x="243.24" y="338.6911">funFactor</text><ellipse cx="234.24" cy="351.3884" fill="transparent" rx="3" ry="3" style="stroke:#038048;stroke-width:1;"/><text fill="#000000" font-family="sans-serif" font-size="14" lengthAdjust="spacing" textLength="66.7256" x="243.24" y="355.1794">hasBridge</text><ellipse cx="234.24" cy="367.8766" fill="transparent" rx="3" ry="3" style="stroke:#038048;stroke-width:1;"/><text fill="#000000" font-family="sans-serif" font-size="14" lengthAdjust="spacing" textLength="78.9209" x="243.24" y="371.6677">usesPattern</text></g><!--class AIToolsOntology--><g id="elem_AIToolsOntology"><rect codeLine="119" fill="#90EE90" height="155.5508" id="AIToolsOntology" rx="2.5" ry="2.5" style="stroke:#181818;stroke-width:0.5;" width="145.0186" x="473.63" y="223.07"/><ellipse cx="488.63" cy="243.3805" fill="#ADD1B2" rx="11" ry="11" style="stroke:#181818;stroke-width:1;"/><path d="M491.1031,249.5236 Q490.5221,249.8224 489.8829,249.9719 Q489.2438,250.1213 488.5382,250.1213 Q486.0314,250.1213 484.7115,248.4694 Q483.3917,246.8176 483.3917,243.6965 Q483.3917,240.5671 484.7115,238.9152 Q486.0314,237.2634 488.5382,237.2634 Q489.2438,237.2634 489.8912,237.4128 Q490.5387,237.5622 491.1031,237.861 L491.1031,240.5837 Q490.4723,240.0026 489.8788,239.7328 Q489.2853,239.4631 488.6544,239.4631 Q487.3097,239.4631 486.6249,240.5297 Q485.9401,241.5964 485.9401,243.6965 Q485.9401,245.7883 486.6249,246.8549 Q487.3097,247.9216 488.6544,247.9216 Q489.2853,247.9216 489.8788,247.6518 Q490.4723,247.382 491.1031,246.801 Z " fill="#000000"/><text fill="#000000" font-family="sans-serif" font-size="12" font-style="italic" lengthAdjust="spacing" textLength="57.6797" x="530.2994" y="239.6716">&#171;Domain&#187;</text><text fill="#000000" font-family="sans-serif" font-size="14" lengthAdjust="spacing" textLength="113.0186" x="502.63" y="255.738">AIToolsOntology</text><line style="stroke:#181818;stroke-width:0.5;" x1="474.63" x2="617.6486" y1="263.6911" y2="263.6911"/><ellipse cx="484.63" cy="277.4352" fill="transparent" rx="3" ry="3" style="stroke:#038048;stroke-width:1;"/><text fill="#000000" font-family="sans-serif" font-size="14" lengthAdjust="spacing" textLength="43.791" x="493.63" y="281.2262">AITool</text><ellipse cx="484.63" cy="293.9235" fill="transparent" rx="3" ry="3" style="stroke:#038048;stroke-width:1;"/><text fill="#000000" font-family="sans-serif" font-size="14" lengthAdjust="spacing" textLength="60.8262" x="493.63" y="297.7145">Category</text><ellipse cx="484.63" cy="310.4118" fill="transparent" rx="3" ry="3" style="stroke:#038048;stroke-width:1;"/><text fill="#000000" font-family="sans-serif" font-size="14" lengthAdjust="spacing" textLength="67.4639" x="493.63" y="314.2028">Capability</text><line style="stroke:#181818;stroke-width:1;" x1="474.63" x2="617.6486" y1="321.1559" y2="321.1559"/><ellipse cx="484.63" cy="334.9001" fill="transparent" rx="3" ry="3" style="stroke:#038048;stroke-width:1;"/><text fill="#000000" font-family="sans-serif" font-size="14" lengthAdjust="spacing" textLength="84.3828" x="493.63" y="338.6911">hasCategory</text><ellipse cx="484.63" cy="351.3884" fill="transparent" rx="3" ry="3" style="stroke:#038048;stroke-width:1;"/><text fill="#000000" font-family="sans-serif" font-size="14" lengthAdjust="spacing" textLength="91.0205" x="493.63" y="355.1794">hasCapability</text><ellipse cx="484.63" cy="367.8766" fill="transparent" rx="3" ry="3" style="stroke:#038048;stroke-width:1;"/><text fill="#000000" font-family="sans-serif" font-size="14" lengthAdjust="spacing" textLength="91.4102" x="493.63" y="371.6677">maturityLevel</text></g><!--class OracleOCIDiscoveryOntology--><g id="elem_OracleOCIDiscoveryOntology"><rect codeLine="129" fill="#90EE90" height="155.5508" id="OracleOCIDiscoveryOntology" rx="2.5" ry="2.5" style="stroke:#181818;stroke-width:0.5;" width="227.5693" x="55.36" y="1043.27"/><ellipse cx="70.36" cy="1063.5805" fill="#ADD1B2" rx="11" ry="11" style="stroke:#181818;stroke-width:1;"/><path d="M72.8331,1069.7236 Q72.2521,1070.0224 71.6129,1070.1719 Q70.9738,1070.3213 70.2682,1070.3213 Q67.7614,1070.3213 66.4415,1068.6694 Q65.1217,1067.0176 65.1217,1063.8965 Q65.1217,1060.7671 66.4415,1059.1152 Q67.7614,1057.4634 70.2682,1057.4634 Q70.9738,1057.4634 71.6212,1057.6128 Q72.2687,1057.7622 72.8331,1058.061 L72.8331,1060.7837 Q72.2023,1060.2026 71.6088,1059.9328 Q71.0153,1059.6631 70.3844,1059.6631 Q69.0397,1059.6631 68.3549,1060.7297 Q67.6701,1061.7964 67.6701,1063.8965 Q67.6701,1065.9883 68.3549,1067.0549 Q69.0397,1068.1216 70.3844,1068.1216 Q71.0153,1068.1216 71.6088,1067.8518 Q72.2023,1067.582 72.8331,1067.001 Z " fill="#000000"/><text fill="#000000" font-family="sans-serif" font-size="12" font-style="italic" lengthAdjust="spacing" textLength="57.6797" x="153.3048" y="1059.8716">&#171;Domain&#187;</text><text fill="#000000" font-family="sans-serif" font-size="14" lengthAdjust="spacing" textLength="195.5693" x="84.36" y="1075.938">OracleOCIDiscoveryOntology</text><line style="stroke:#181818;stroke-width:0.5;" x1="56.36" x2="281.9293" y1="1083.8911" y2="1083.8911"/><ellipse cx="66.36" cy="1097.6352" fill="transparent" rx="3" ry="3" style="stroke:#038048;stroke-width:1;"/><text fill="#000000" font-family="sans-serif" font-size="14" lengthAdjust="spacing" textLength="157.7051" x="75.36" y="1101.4263">OracleTechnologyStack</text><ellipse cx="66.36" cy="1114.1235" fill="transparent" rx="3" ry="3" style="stroke:#038048;stroke-width:1;"/><text fill="#000000" font-family="sans-serif" font-size="14" lengthAdjust="spacing" textLength="87.165" x="75.36" y="1117.9145">CloudService</text><ellipse cx="66.36" cy="1130.6118" fill="transparent" rx="3" ry="3" style="stroke:#038048;stroke-width:1;"/><text fill="#000000" font-family="sans-serif" font-size="14" lengthAdjust="spacing" textLength="120.6543" x="75.36" y="1134.4028">LearningResource</text><line style="stroke:#181818;stroke-width:1;" x1="56.36" x2="281.9293" y1="1141.3559" y2="1141.3559"/><ellipse cx="66.36" cy="1155.1001" fill="transparent" rx="3" ry="3" style="stroke:#038048;stroke-width:1;"/><text fill="#000000" font-family="sans-serif" font-size="14" lengthAdjust="spacing" textLength="102.7373" x="75.36" y="1158.8911">hasComponent</text><ellipse cx="66.36" cy="1171.5884" fill="transparent" rx="3" ry="3" style="stroke:#038048;stroke-width:1;"/><text fill="#000000" font-family="sans-serif" font-size="14" lengthAdjust="spacing" textLength="55.7402" x="75.36" y="1175.3794">requires</text><ellipse cx="66.36" cy="1188.0766" fill="transparent" rx="3" ry="3" style="stroke:#038048;stroke-width:1;"/><text fill="#000000" font-family="sans-serif" font-size="14" lengthAdjust="spacing" textLength="58.1807" x="75.36" y="1191.8677">provides</text></g><!--class PrefixManagementOntology--><g id="elem_PrefixManagementOntology"><rect codeLine="140" fill="#FFFFE0" height="139.0625" id="PrefixManagementOntology" rx="2.5" ry="2.5" style="stroke:#181818;stroke-width:0.5;" width="220.6719" x="631.81" y="7"/><ellipse cx="646.81" cy="27.3105" fill="#ADD1B2" rx="11" ry="11" style="stroke:#181818;stroke-width:1;"/><path d="M649.2831,33.4536 Q648.7021,33.7524 648.0629,33.9019 Q647.4238,34.0513 646.7182,34.0513 Q644.2114,34.0513 642.8915,32.3994 Q641.5717,30.7476 641.5717,27.6265 Q641.5717,24.4971 642.8915,22.8452 Q644.2114,21.1934 646.7182,21.1934 Q647.4238,21.1934 648.0712,21.3428 Q648.7187,21.4922 649.2831,21.791 L649.2831,24.5137 Q648.6523,23.9326 648.0588,23.6628 Q647.4653,23.3931 646.8344,23.3931 Q645.4897,23.3931 644.8049,24.4597 Q644.1201,25.5264 644.1201,27.6265 Q644.1201,29.7183 644.8049,30.7849 Q645.4897,31.8516 646.8344,31.8516 Q647.4653,31.8516 648.0588,31.5818 Q648.6523,31.312 649.2831,30.731 Z " fill="#000000"/><text fill="#000000" font-family="sans-serif" font-size="12" font-style="italic" lengthAdjust="spacing" textLength="76.4473" x="716.9223" y="23.6016">&#171;Integration&#187;</text><text fill="#000000" font-family="sans-serif" font-size="14" lengthAdjust="spacing" textLength="188.6719" x="660.81" y="39.668">PrefixManagementOntology</text><line style="stroke:#181818;stroke-width:0.5;" x1="632.81" x2="851.4819" y1="47.6211" y2="47.6211"/><ellipse cx="642.81" cy="61.3652" fill="transparent" rx="3" ry="3" style="stroke:#038048;stroke-width:1;"/><text fill="#000000" font-family="sans-serif" font-size="14" lengthAdjust="spacing" textLength="39.0469" x="651.81" y="65.1563">Prefix</text><ellipse cx="642.81" cy="77.8535" fill="transparent" rx="3" ry="3" style="stroke:#038048;stroke-width:1;"/><text fill="#000000" font-family="sans-serif" font-size="14" lengthAdjust="spacing" textLength="99.873" x="651.81" y="81.6445">PrefixCategory</text><line style="stroke:#181818;stroke-width:1;" x1="632.81" x2="851.4819" y1="88.5977" y2="88.5977"/><ellipse cx="642.81" cy="102.3418" fill="transparent" rx="3" ry="3" style="stroke:#038048;stroke-width:1;"/><text fill="#000000" font-family="sans-serif" font-size="14" lengthAdjust="spacing" textLength="62.6035" x="651.81" y="106.1328">hasPrefix</text><ellipse cx="642.81" cy="118.8301" fill="transparent" rx="3" ry="3" style="stroke:#038048;stroke-width:1;"/><text fill="#000000" font-family="sans-serif" font-size="14" lengthAdjust="spacing" textLength="46.1426" x="651.81" y="122.6211">hasURI</text><ellipse cx="642.81" cy="135.3184" fill="transparent" rx="3" ry="3" style="stroke:#038048;stroke-width:1;"/><text fill="#000000" font-family="sans-serif" font-size="14" lengthAdjust="spacing" textLength="93.3379" x="651.81" y="139.1094">isRelativePath</text></g><!--class OntologyShapes--><g id="elem_OntologyShapes"><rect codeLine="149" fill="#FFFFE0" height="122.5742" id="OntologyShapes" rx="2.5" ry="2.5" style="stroke:#181818;stroke-width:0.5;" width="141.7988" x="896.24" y="15.25"/><ellipse cx="911.24" cy="35.5605" fill="#ADD1B2" rx="11" ry="11" style="stroke:#181818;stroke-width:1;"/><path d="M913.7131,41.7036 Q913.1321,42.0024 912.4929,42.1519 Q911.8538,42.3013 911.1482,42.3013 Q908.6414,42.3013 907.3215,40.6494 Q906.0017,38.9976 906.0017,35.8765 Q906.0017,32.7471 907.3215,31.0952 Q908.6414,29.4434 911.1482,29.4434 Q911.8538,29.4434 912.5012,29.5928 Q913.1487,29.7422 913.7131,30.041 L913.7131,32.7637 Q913.0823,32.1826 912.4888,31.9128 Q911.8953,31.6431 911.2644,31.6431 Q909.9197,31.6431 909.2349,32.7097 Q908.5501,33.7764 908.5501,35.8765 Q908.5501,37.9683 909.2349,39.0349 Q909.9197,40.1016 911.2644,40.1016 Q911.8953,40.1016 912.4888,39.8318 Q913.0823,39.562 913.7131,38.981 Z " fill="#000000"/><text fill="#000000" font-family="sans-serif" font-size="12" font-style="italic" lengthAdjust="spacing" textLength="76.4473" x="941.9158" y="31.8516">&#171;Integration&#187;</text><text fill="#000000" font-family="sans-serif" font-size="14" lengthAdjust="spacing" textLength="109.7988" x="925.24" y="47.918">OntologyShapes</text><line style="stroke:#181818;stroke-width:0.5;" x1="897.24" x2="1037.0388" y1="55.8711" y2="55.8711"/><ellipse cx="907.24" cy="69.6152" fill="transparent" rx="3" ry="3" style="stroke:#038048;stroke-width:1;"/><text fill="#000000" font-family="sans-serif" font-size="14" lengthAdjust="spacing" textLength="102.6621" x="916.24" y="73.4063">OntologyShape</text><ellipse cx="907.24" cy="86.1035" fill="transparent" rx="3" ry="3" style="stroke:#038048;stroke-width:1;"/><text fill="#000000" font-family="sans-serif" font-size="14" lengthAdjust="spacing" textLength="76.3096" x="916.24" y="89.8945">ClassShape</text><line style="stroke:#181818;stroke-width:1;" x1="897.24" x2="1037.0388" y1="96.8477" y2="96.8477"/><ellipse cx="907.24" cy="110.5918" fill="transparent" rx="3" ry="3" style="stroke:#038048;stroke-width:1;"/><text fill="#000000" font-family="sans-serif" font-size="14" lengthAdjust="spacing" textLength="91.6494" x="916.24" y="114.3828">hasValidation</text><ellipse cx="907.24" cy="127.0801" fill="transparent" rx="3" ry="3" style="stroke:#038048;stroke-width:1;"/><text fill="#000000" font-family="sans-serif" font-size="14" lengthAdjust="spacing" textLength="94.3359" x="916.24" y="130.8711">hasConstraint</text></g><g id="elem_GMN26"><path d="M865.3,272.87 L865.3,328.8016 A0,0 0 0 0 865.3,328.8016 L1086.9748,328.8016 A0,0 0 0 0 1086.9748,328.8016 L1086.9748,282.87 L1076.9748,272.87 L979.03,272.87 L969.6,138.28 L971.03,272.87 L865.3,272.87 A0,0 0 0 0 865.3,272.87 " fill="#FEFFDD" style="stroke:#181818;stroke-width:0.5;"/><path d="M1076.9748,272.87 L1076.9748,282.87 L1086.9748,282.87 L1076.9748,272.87 " fill="#FEFFDD" style="stroke:#181818;stroke-width:0.5;"/><text fill="#000000" font-family="sans-serif" font-size="13" lengthAdjust="spacing" textLength="200.6748" x="871.3" y="290.4384">Ensures ontological consistency</text><text fill="#000000" font-family="sans-serif" font-size="13" lengthAdjust="spacing" textLength="171.6216" x="871.3" y="305.7489">through SHACL shapes and</text><text fill="#000000" font-family="sans-serif" font-size="13" lengthAdjust="spacing" textLength="96.5859" x="871.3" y="321.0595">validation rules</text></g><!--link MetaMetaOntology to GMN4--><g id="link_MetaMetaOntology_GMN4"><path d="M807.26,222.65 C824.48,207.14 844.29,193.03 865.64,184.57 C956.94,148.35 993.12,154.55 1086.64,184.57 C1140.32,201.79 1191.32,244 1221.42,272.53 " fill="transparent" id="MetaMetaOntology-GMN4" style="stroke:#181818;stroke-width:1;stroke-dasharray:7.0,7.0;"/></g><!--reverse link MetaMetaOntology to LLMGuidanceOntology--><g id="link_MetaMetaOntology_LLMGuidanceOntology"><path codeLine="164" d="M664.9418,392.6445 C644.0218,417.2545 632.53,430.77 611.62,455.37 " fill="transparent" id="MetaMetaOntology-backto-LLMGuidanceOntology" style="stroke:#181818;stroke-width:1;"/><polygon fill="transparent" points="676.6,378.93,660.3703,388.7584,669.5133,396.5305,676.6,378.93" style="stroke:#181818;stroke-width:1;"/></g><!--reverse link LLMGuidanceOntology to ProblemOntology--><g id="link_LLMGuidanceOntology_ProblemOntology"><path codeLine="165" d="M507.9207,628.2005 C479.1107,698.9405 443.44,786.48 414.61,857.25 " fill="transparent" id="LLMGuidanceOntology-backto-ProblemOntology" style="stroke:#181818;stroke-width:1;"/><polygon fill="transparent" points="514.71,611.53,502.3638,625.9374,513.4775,630.4636,514.71,611.53" style="stroke:#181818;stroke-width:1;"/></g><!--reverse link LLMGuidanceOntology to SolutionOntology--><g id="link_LLMGuidanceOntology_SolutionOntology"><path codeLine="166" d="M438.8103,602.5095 C316.7303,685.2595 122.31,839.82 38.14,1043.27 C11.71,1107.15 6,1137.61 38.14,1198.82 C68.42,1256.49 131.21,1296.76 182.47,1321.59 " fill="transparent" id="LLMGuidanceOntology-backto-SolutionOntology" style="stroke:#181818;stroke-width:1;"/><polygon fill="transparent" points="453.71,592.41,435.4438,597.5429,442.1768,607.4761,453.71,592.41" style="stroke:#181818;stroke-width:1;"/></g><!--reverse link LLMGuidanceOntology to ConversationOntology--><g id="link_LLMGuidanceOntology_ConversationOntology"><path codeLine="167" d="M652.4244,622.0952 C676.9444,642.3252 689.53,652.72 714.04,672.94 " fill="transparent" id="LLMGuidanceOntology-backto-ConversationOntology" style="stroke:#181818;stroke-width:1;"/><polygon fill="transparent" points="638.54,610.64,648.606,626.7234,656.2429,617.4671,638.54,610.64" style="stroke:#181818;stroke-width:1;"/></g><!--reverse link LLMGuidanceOntology to CognitionPatternsOntology--><g id="link_LLMGuidanceOntology_CognitionPatternsOntology"><path codeLine="168" d="M592.3377,627.6906 C647.9377,739.9706 742.56,931.06 798.08,1043.17 " fill="transparent" id="LLMGuidanceOntology-backto-CognitionPatternsOntology" style="stroke:#181818;stroke-width:1;"/><polygon fill="transparent" points="584.35,611.56,586.9609,630.3532,597.7146,625.028,584.35,611.56" style="stroke:#181818;stroke-width:1;"/></g><!--link ProblemOntology to SolutionOntology--><g id="link_ProblemOntology_SolutionOntology"><path codeLine="170" d="M362.42,1013.67 C345.33,1076.4 320.1,1167.1 296.14,1245.82 C293.22,1255.43 291.8835,1259.787 288.6935,1269.727 " fill="transparent" id="ProblemOntology-to-SolutionOntology" style="stroke:#181818;stroke-width:1;"/><polygon fill="#181818" points="286.86,1275.44,293.4188,1268.0928,288.3879,1270.6792,285.8015,1265.6482,286.86,1275.44" style="stroke:#181818;stroke-width:1;"/><text fill="#000000" font-family="sans-serif" font-size="13" lengthAdjust="spacing" textLength="64.27" x="354.8" y="1126.1084">influences</text></g><!--link CognitionPatternsOntology to SolutionOntology--><g id="link_CognitionPatternsOntology_SolutionOntology"><path codeLine="171" d="M727.85,1191.47 C722.28,1194.12 716.69,1196.59 711.14,1198.82 C561.34,1259.03 501.75,1206.08 356.14,1275.82 C350.59,1278.48 350.2123,1278.3955 344.8023,1281.6955 " fill="transparent" id="CognitionPatternsOntology-to-SolutionOntology" style="stroke:#181818;stroke-width:1;"/><polygon fill="#181818" points="339.68,1284.82,349.4464,1283.5481,343.9486,1282.2163,345.2804,1276.7184,339.68,1284.82" style="stroke:#181818;stroke-width:1;"/><text fill="#000000" font-family="sans-serif" font-size="13" lengthAdjust="spacing" textLength="59.1538" x="596.92" y="1242.3884">enhances</text></g><!--link ConversationOntology to CognitionPatternsOntology--><g id="link_ConversationOntology_CognitionPatternsOntology"><path codeLine="172" d="M812.39,827.87 C817.52,890.93 824.254,973.7897 829.384,1036.9197 " fill="transparent" id="ConversationOntology-to-CognitionPatternsOntology" style="stroke:#181818;stroke-width:1;"/><polygon fill="#181818" points="829.87,1042.9,833.1279,1033.6056,829.465,1037.9164,825.1542,1034.2535,829.87,1042.9" style="stroke:#181818;stroke-width:1;"/><text fill="#000000" font-family="sans-serif" font-size="13" lengthAdjust="spacing" textLength="48.6738" x="828.28" y="940.5584">informs</text></g><!--link CreativeAnalogiesOntology to LLMGuidanceOntology--><g id="link_CreativeAnalogiesOntology_LLMGuidanceOntology"><path codeLine="174" d="M403.03,378.93 C425.98,403.54 447.277,426.3828 470.227,450.9828 " fill="transparent" id="CreativeAnalogiesOntology-to-LLMGuidanceOntology" style="stroke:#181818;stroke-width:1;"/><polygon fill="#181818" points="474.32,455.37,471.1054,446.0605,470.9092,451.714,465.2558,451.5178,474.32,455.37" style="stroke:#181818;stroke-width:1;"/><text fill="#000000" font-family="sans-serif" font-size="13" lengthAdjust="spacing" textLength="50.1973" x="446.09" y="422.1884">extends</text></g><!--link AIToolsOntology to LLMGuidanceOntology--><g id="link_AIToolsOntology_LLMGuidanceOntology"><path codeLine="175" d="M546.14,378.93 C546.14,403.54 546.14,424.77 546.14,449.37 " fill="transparent" id="AIToolsOntology-to-LLMGuidanceOntology" style="stroke:#181818;stroke-width:1;"/><polygon fill="#181818" points="546.14,455.37,550.14,446.37,546.14,450.37,542.14,446.37,546.14,455.37" style="stroke:#181818;stroke-width:1;"/><text fill="#000000" font-family="sans-serif" font-size="13" lengthAdjust="spacing" textLength="74.0137" x="547.14" y="422.1884">implements</text></g><!--link OracleOCIDiscoveryOntology to SolutionOntology--><g id="link_OracleOCIDiscoveryOntology_SolutionOntology"><path codeLine="176" d="M199.9,1199.13 C209.72,1223.74 218.3663,1245.3973 228.1863,1270.0073 " fill="transparent" id="OracleOCIDiscoveryOntology-to-SolutionOntology" style="stroke:#181818;stroke-width:1;"/><polygon fill="#181818" points="230.41,1275.58,230.7897,1265.7385,228.557,1270.9361,223.3594,1268.7033,230.41,1275.58" style="stroke:#181818;stroke-width:1;"/><text fill="#000000" font-family="sans-serif" font-size="13" lengthAdjust="spacing" textLength="68.4849" x="218.9" y="1242.3884">specializes</text></g><!--link PrefixManagementOntology to MetaMetaOntology--><g id="link_PrefixManagementOntology_MetaMetaOntology"><path codeLine="178" d="M742.14,146.35 C742.14,170.58 742.14,191.96 742.14,216.82 " fill="transparent" id="PrefixManagementOntology-to-MetaMetaOntology" style="stroke:#181818;stroke-width:1;stroke-dasharray:7.0,7.0;"/><polygon fill="#181818" points="742.14,222.82,746.14,213.82,742.14,217.82,738.14,213.82,742.14,222.82" style="stroke:#181818;stroke-width:1;"/><text fill="#000000" font-family="sans-serif" font-size="13" lengthAdjust="spacing" textLength="56.5386" x="743.14" y="189.6384">manages</text></g><!--link OntologyShapes to MetaMetaOntology--><g id="link_OntologyShapes_MetaMetaOntology"><path codeLine="179" d="M905.66,138.28 C879.25,164.38 852.3377,190.9626 824.3377,218.6326 " fill="transparent" id="OntologyShapes-to-MetaMetaOntology" style="stroke:#181818;stroke-width:1;stroke-dasharray:7.0,7.0;"/><polygon fill="#181818" points="820.07,222.85,829.2832,219.369,823.6264,219.3355,823.66,213.6787,820.07,222.85" style="stroke:#181818;stroke-width:1;"/><text fill="#000000" font-family="sans-serif" font-size="13" lengthAdjust="spacing" textLength="55.5166" x="862.39" y="189.6384">validates</text></g><!--SRC=[VLPDR-Cs4BthL_2Mmy81UWqM0H9dTnkiyu4uBT0ZBOyb8XIfafGJjzt_taVnGv9jPP45hD4CDVFcpHjUiBKxIA6gmhu9rNB36rPARYtxjs3uTylBjyheJcsNMchpzUi3ENvzpLQYgjspK6_dlPRQKFAwbHsTzxhJ3HSg-VqmHEgyuostDBZnmtclU-MeCjm9dS_yYwJKxyMleb3Q4UEMFVw6uDUQMAEjOw9fjN5SERnggNIMwHrpjR1i1oJeNPitnWt1HCoGxC-sjMWj3jcGUqV6J2k7xrU2BEDgoshzxjqFZ1JVI6AM6fmlIYQGdj4j6RuHKhZ39Sx0tq-ujaQeKhIIx1Ki2-P1Pf8VoE2LteijpjxvIli4k6IbLYMrplRU7kpeZNeaDQHGoBO7Ty4hXKBn-POxV5-5a81y3EBRhMM-VB63tvlIxvAs5Vd2UN0V8HjZIDdE82iaOeLrfCf3GQZUmrmK5w62bNSj0fsymVz_2cWTMAPI8DeNThEnpl3IV-HEe0QB7wUlLhGd6Sq_KwgXdDwwMCINDRTZN-b_FtRD1Xa5Im1eNQ8bcI36ayPpu3XTn7pF3GWaeO4ZU7j7Ew40Y6__0268XCoxqW6iBRmyGNWiXl2pDDgcLjaHW06prUhXHoUs7BsUXyttnhG6HZS2h1mz17Hkm9jGo1IaYIiFJclTcPAcjbTkAdAdI9r94e6tHg1-cuS4NgpaRQ0-HYLY4KcQoQU8m4LNOwohklVntnObAE_9g9LNgZ7FUkwFUVPiDAQk6U4LjIZXTTjPtoZxI7r7l6c94QOFDppv1c5SJx3waoSjwn-VZT06apnOqac_KWlNMdOUt_byNgcibQymkQQ-fb4UznK9YErWoBbPsEmku1fJEHk_p_5hs3jxsixZX16OJBQNmdY4Ps_bMUjHQWFelHe4w88MDbt_EcHtO9i8VMZp2Tq1tfwCvP_ZvMKVR-uTDKF3SbmqnUgE-pSoXmPo0saKBLUf-GxAOnrlsg65IrqfuSz-ZWewdnl8Lw8-a7Hzi4E2CJ0tt2yTBiUi6oS9-mwAZtc2Dfb4jq7P_VmlW_wdxckv9nkPdrigQTTtT3P_H2zvwteTDrHs1bkeodk2zOBgvGopQtsBVMbzMw63m1jhqmzG6E5X8usdCwwPyNmkCSTEx2d84HWxGZFV1pAUM3QxJewb2zgMDI68J3H_-sWbv69Kw1JPNQU-GtMr6P2Un7SM4CR0tFkR-rUjvQSv1fT4HGn6fSqXFqR5EvNT8y_UCd7-mXgGrSjBM6CvfoSi3qbFo_ixOKiDvXy-IozuzoBJ-s04ohUKdjJTTarcBxBOhuWRBx8lP8STC6KdsAie3uoXlpjXil2awufFzs9oRvYADBRbnmFQLVMS7XKmlSGDW-K39WyJ0CSPJdpn_CVBVPeX-zBVuVQ4HjSZHEFdrpLlCGjpIKpSCeGuO30SBOknLgVPJhibZUb6EwSRFwZJD13qBLwoqWsp33U_VE5YQLEozUytonMp8VymbuFKCzFXPZaPp9V9NVRqRlRVOd5siP-zaNZdexKxxtYoNsOzpws3pxpdLAuulX8i5jUdU_aAUhV3TiV1jfYN_9bOKZMFaMTsc0-QFxB_iZQDBOfvSVH7dAiTd_u06R1DZwLgFc9O9SKdMZ9JQNzL0xN-GR75x1nVNbwVtlYle6ZU4v-T3joCTxffsE9_]--></g></svg>