
<svg xmlns="http://www.w3.org/2000/svg" xmlns:xlink="http://www.w3.org/1999/xlink" contentStyleType="text/css" data-diagram-type="DESCRIPTION" height="705px" preserveAspectRatio="none" style="width:659px;height:705px;background:#FFFFFF;" version="1.1" viewBox="0 0 659 705" width="659px" zoomAndPan="magnify"><defs/><g><!--cluster lpad--><g id="cluster_lpad"><rect fill="#FFFFFF" height="103.3" rx="2.5" ry="2.5" style="stroke:#000000;stroke-width:1;" width="259" x="12" y="146.6"/><text fill="#000000" font-family="Verdana" font-size="14" font-weight="bold" lengthAdjust="spacing" textLength="116.0059" x="83.4971" y="161.5951">L-Pad Network</text></g><!--cluster High-Pass--><g id="cluster_High-Pass"><path d="M133.5,281.9 L213.1885,281.9 A3.75,3.75 0 0 1 215.6885,284.4 L222.6885,304.1969 L226.5,304.1969 A2.5,2.5 0 0 1 229,306.6969 L229,495.58 A2.5,2.5 0 0 1 226.5,498.08 L133.5,498.08 A2.5,2.5 0 0 1 131,495.58 L131,284.4 A2.5,2.5 0 0 1 133.5,281.9 " fill="#FFFFFF" style="stroke:#000000;stroke-width:1;"/><line style="stroke:#000000;stroke-width:1;" x1="131" x2="222.6885" y1="304.1969" y2="304.1969"/><text fill="#000000" font-family="Verdana" font-size="14" font-weight="bold" lengthAdjust="spacing" textLength="78.6885" x="135" y="296.8951">High-Pass</text></g><!--cluster Low-Pass--><g id="cluster_Low-Pass"><path d="M299.5,281.9 L374.1572,281.9 A3.75,3.75 0 0 1 376.6572,284.4 L383.6572,304.1969 L392.5,304.1969 A2.5,2.5 0 0 1 395,306.6969 L395,495.58 A2.5,2.5 0 0 1 392.5,498.08 L299.5,498.08 A2.5,2.5 0 0 1 297,495.58 L297,284.4 A2.5,2.5 0 0 1 299.5,281.9 " fill="#FFFFFF" style="stroke:#000000;stroke-width:1;"/><line style="stroke:#000000;stroke-width:1;" x1="297" x2="383.6572" y1="304.1969" y2="304.1969"/><text fill="#000000" font-family="Verdana" font-size="14" font-weight="bold" lengthAdjust="spacing" textLength="73.6572" x="301" y="296.8951">Low-Pass</text></g><!--cluster Zobel--><g id="cluster_Zobel"><path d="M484.5,11 L529.585,11 A3.75,3.75 0 0 1 532.085,13.5 L539.085,33.2969 L649.5,33.2969 A2.5,2.5 0 0 1 652,35.7969 L652,112.1 A2.5,2.5 0 0 1 649.5,114.6 L484.5,114.6 A2.5,2.5 0 0 1 482,112.1 L482,13.5 A2.5,2.5 0 0 1 484.5,11 " fill="#FFFFFF" style="stroke:#000000;stroke-width:1;"/><line style="stroke:#000000;stroke-width:1;" x1="482" x2="539.085" y1="33.2969" y2="33.2969"/><text fill="#000000" font-family="Verdana" font-size="14" font-weight="bold" lengthAdjust="spacing" textLength="44.085" x="486" y="25.9951">Zobel</text></g><!--entity r1--><g id="elem_r1"><rect fill="#FFFFFF" height="36.2969" rx="2.5" ry="2.5" style="stroke:#000000;stroke-width:1;" width="73.6143" x="36.19" y="189.6"/><text fill="#000000" font-family="Verdana" font-size="14" lengthAdjust="spacing" textLength="53.6143" x="46.19" y="212.5951">R1 (8&#937;)</text></g><!--entity r2--><g id="elem_r2"><rect fill="#FFFFFF" height="36.2969" rx="2.5" ry="2.5" style="stroke:#000000;stroke-width:1;" width="82.5215" x="144.74" y="189.6"/><text fill="#000000" font-family="Verdana" font-size="14" lengthAdjust="spacing" textLength="62.5215" x="154.74" y="212.5951">R2 (16&#937;)</text></g><!--entity l1--><g id="elem_l1"><rect fill="#FFFFFF" height="52.5938" rx="2.5" ry="2.5" style="stroke:#000000;stroke-width:1;" width="66.4297" x="146.79" y="316.9"/><text fill="#000000" font-family="Verdana" font-size="14" lengthAdjust="spacing" textLength="16.707" x="156.79" y="339.8951">L1</text><text fill="#000000" font-family="Verdana" font-size="14" lengthAdjust="spacing" textLength="46.4297" x="156.79" y="356.192">0.5mH</text></g><!--entity c1--><g id="elem_c1"><rect fill="#FFFFFF" height="52.5938" rx="2.5" ry="2.5" style="stroke:#000000;stroke-width:1;" width="54.7744" x="149.61" y="429.49"/><text fill="#000000" font-family="Verdana" font-size="14" lengthAdjust="spacing" textLength="18.6826" x="159.61" y="452.4851">C1</text><text fill="#000000" font-family="Verdana" font-size="14" lengthAdjust="spacing" textLength="34.7744" x="159.61" y="468.782">10&#181;F</text></g><!--entity l2--><g id="elem_l2"><rect fill="#FFFFFF" height="52.5938" rx="2.5" ry="2.5" style="stroke:#000000;stroke-width:1;" width="66.4297" x="312.79" y="316.9"/><text fill="#000000" font-family="Verdana" font-size="14" lengthAdjust="spacing" textLength="16.707" x="322.79" y="339.8951">L2</text><text fill="#000000" font-family="Verdana" font-size="14" lengthAdjust="spacing" textLength="46.4297" x="322.79" y="356.192">1.0mH</text></g><!--entity c2--><g id="elem_c2"><rect fill="#FFFFFF" height="52.5938" rx="2.5" ry="2.5" style="stroke:#000000;stroke-width:1;" width="54.7744" x="321.61" y="429.49"/><text fill="#000000" font-family="Verdana" font-size="14" lengthAdjust="spacing" textLength="18.6826" x="331.61" y="452.4851">C2</text><text fill="#000000" font-family="Verdana" font-size="14" lengthAdjust="spacing" textLength="34.7744" x="331.61" y="468.782">20&#181;F</text></g><!--entity rz--><g id="elem_rz"><rect fill="#FFFFFF" height="52.5938" rx="2.5" ry="2.5" style="stroke:#000000;stroke-width:1;" width="48.5127" x="497.74" y="46"/><text fill="#000000" font-family="Verdana" font-size="14" lengthAdjust="spacing" textLength="17.0762" x="507.74" y="68.9951">Rz</text><text fill="#000000" font-family="Verdana" font-size="14" lengthAdjust="spacing" textLength="28.5127" x="507.74" y="85.292">10&#937;</text></g><!--entity cz--><g id="elem_cz"><rect fill="#FFFFFF" height="52.5938" rx="2.5" ry="2.5" style="stroke:#000000;stroke-width:1;" width="54.7744" x="581.61" y="46"/><text fill="#000000" font-family="Verdana" font-size="14" lengthAdjust="spacing" textLength="17.124" x="591.61" y="68.9951">Cz</text><text fill="#000000" font-family="Verdana" font-size="14" lengthAdjust="spacing" textLength="34.7744" x="591.61" y="85.292">10&#181;F</text></g><!--entity input--><g id="elem_input"><rect fill="#FFFFFF" height="36.2969" rx="2.5" ry="2.5" style="stroke:#000000;stroke-width:1;" width="122.4912" x="201.75" y="54.15"/><text fill="#000000" font-family="Verdana" font-size="14" lengthAdjust="spacing" textLength="102.4912" x="211.75" y="77.1451">Input Terminal</text></g><!--entity hornout--><g id="elem_hornout"><rect fill="#FFFFFF" height="36.2969" rx="2.5" ry="2.5" style="stroke:#000000;stroke-width:1;" width="83.5537" x="86.22" y="542.08"/><text fill="#000000" font-family="Verdana" font-size="14" lengthAdjust="spacing" textLength="63.5537" x="96.22" y="565.0751">Horn Out</text></g><!--entity rs100out--><g id="elem_rs100out"><rect fill="#FFFFFF" height="36.2969" rx="2.5" ry="2.5" style="stroke:#000000;stroke-width:1;" width="100.2197" x="345.89" y="542.08"/><text fill="#000000" font-family="Verdana" font-size="14" lengthAdjust="spacing" textLength="80.2197" x="355.89" y="565.0751">RS-100 Out</text></g><!--entity zobel--><g id="elem_zobel"><ellipse cx="128" cy="667.38" fill="#FFFFFF" rx="8" ry="8" style="stroke:#000000;stroke-width:1;"/><text fill="#000000" font-family="Verdana" font-size="14" lengthAdjust="spacing" textLength="37.3037" x="109.3481" y="697.3751">zobel</text></g><g id="elem_GMN26"><path d="M359.47,59.74 L359.47,68.3 L324.57,72.3 L359.47,76.3 L359.47,84.8728 A0,0 0 0 0 359.47,84.8728 L462.5325,84.8728 A0,0 0 0 0 462.5325,84.8728 L462.5325,69.74 L452.5325,59.74 L359.47,59.74 A0,0 0 0 0 359.47,59.74 " fill="#FFFFFF" style="stroke:#000000;stroke-width:1;"/><path d="M452.5325,59.74 L452.5325,69.74 L462.5325,69.74 L452.5325,59.74 " fill="#FFFFFF" style="stroke:#000000;stroke-width:1;"/><text fill="#000000" font-family="Verdana" font-size="13" lengthAdjust="spacing" textLength="82.0625" x="365.47" y="76.8069">"Top center"</text></g><g id="elem_GMN29"><path d="M204.97,547.67 L204.97,556.23 L170.15,560.23 L204.97,564.23 L204.97,572.8028 A0,0 0 0 0 204.97,572.8028 L311.0286,572.8028 A0,0 0 0 0 311.0286,572.8028 L311.0286,557.67 L301.0286,547.67 L204.97,547.67 A0,0 0 0 0 204.97,547.67 " fill="#FFFFFF" style="stroke:#000000;stroke-width:1;"/><path d="M301.0286,547.67 L301.0286,557.67 L311.0286,557.67 L301.0286,547.67 " fill="#FFFFFF" style="stroke:#000000;stroke-width:1;"/><text fill="#000000" font-family="Verdana" font-size="13" lengthAdjust="spacing" textLength="85.0586" x="210.97" y="564.7369">"Bottom left"</text></g><g id="elem_GMN32"><path d="M481.34,547.67 L481.34,556.23 L446.55,560.23 L481.34,564.23 L481.34,572.8028 A0,0 0 0 0 481.34,572.8028 L596.6598,572.8028 A0,0 0 0 0 596.6598,572.8028 L596.6598,557.67 L586.6598,547.67 L481.34,547.67 A0,0 0 0 0 481.34,547.67 " fill="#FFFFFF" style="stroke:#000000;stroke-width:1;"/><path d="M586.6598,547.67 L586.6598,557.67 L596.6598,557.67 L586.6598,547.67 " fill="#FFFFFF" style="stroke:#000000;stroke-width:1;"/><text fill="#000000" font-family="Verdana" font-size="13" lengthAdjust="spacing" textLength="94.3198" x="487.34" y="564.7369">"Bottom right"</text></g><!--link input to lpad--><g id="link_input_lpad"><path d="M263,90.75 C263,99.65 263,111.1944 263,123.5427 C263,129.7168 263,136.0919 263,142.4379 C263,143.2312 263,144.024 263,144.8159 C263,145.2118 263,145.6076 263,146.003 C263,146.2007 263,140.3984 263,140.596 " fill="none" id="input-to-lpad" style="stroke:#000000;stroke-width:1;"/><polygon fill="#000000" points="263,146.596,267,137.596,263,141.596,259,137.596,263,146.596" style="stroke:#000000;stroke-width:1;"/></g><!--link lpad to l1--><g id="link_lpad_l1"><path d="M250.5309,250.0313 C250.2138,250.813 249.8908,251.5938 249.5618,252.3725 C248.9039,253.93 248.2222,255.479 247.5167,257.01 C246.1058,260.0719 244.6,263.0613 243,265.9 C232.62,284.3 221.6939,298.1794 208.9639,312.2594 " fill="none" id="lpad-to-l1" style="stroke:#000000;stroke-width:1;"/><polygon fill="#000000" points="204.94,316.71,213.943,312.7166,208.2933,313.0011,208.0088,307.3514,204.94,316.71" style="stroke:#000000;stroke-width:1;"/></g><!--link l1 to c1--><g id="link_l1_c1"><path d="M179.3,369.84 C178.82,387.71 178.3448,405.4423 177.8548,423.2723 " fill="none" id="l1-to-c1" style="stroke:#000000;stroke-width:1;"/><polygon fill="#000000" points="177.69,429.27,181.9357,420.3833,177.8274,424.2719,173.9388,420.1635,177.69,429.27" style="stroke:#000000;stroke-width:1;"/></g><!--link c1 to hornout--><g id="link_c1_hornout"><path d="M164.76,482.37 C155.92,500.86 146.7873,519.9465 138.9873,536.2665 " fill="none" id="c1-to-hornout" style="stroke:#000000;stroke-width:1;"/><polygon fill="#000000" points="136.4,541.68,143.89,535.2847,138.5561,537.1688,136.672,531.8349,136.4,541.68" style="stroke:#000000;stroke-width:1;"/></g><!--link lpad to l2--><g id="link_lpad_l2"><path d="M271.1838,221.8991 C271.2552,222.0139 271.327,222.1294 271.3992,222.2455 C271.5436,222.4776 271.6895,222.7122 271.8369,222.9492 C272.1318,223.4232 272.4325,223.9067 272.7391,224.3995 C273.3521,225.3852 273.9882,226.4078 274.6454,227.4645 C275.96,229.5779 277.3595,231.8279 278.8297,234.1917 C281.7702,238.9193 284.9938,244.1022 288.3875,249.5588 C301.9625,271.385 315.0916,292.4948 326.8816,311.4548 " fill="none" id="lpad-to-l2" style="stroke:#000000;stroke-width:1;"/><polygon fill="#000000" points="330.05,316.55,328.6942,306.7949,327.4097,312.304,321.9006,311.0194,330.05,316.55" style="stroke:#000000;stroke-width:1;"/></g><!--link l2 to c2--><g id="link_l2_c2"><path d="M346.7,369.84 C347.18,387.71 347.6552,405.4423 348.1452,423.2723 " fill="none" id="l2-to-c2" style="stroke:#000000;stroke-width:1;"/><polygon fill="#000000" points="348.31,429.27,352.0612,420.1635,348.1726,424.2719,344.0643,420.3833,348.31,429.27" style="stroke:#000000;stroke-width:1;"/></g><!--link c2 to rs100out--><g id="link_c2_rs100out"><path d="M360.74,482.37 C369.22,500.86 377.9573,519.9069 385.4473,536.2269 " fill="none" id="c2-to-rs100out" style="stroke:#000000;stroke-width:1;"/><polygon fill="#000000" points="387.95,541.68,387.8314,531.8319,385.8644,537.1357,380.5606,535.1688,387.95,541.68" style="stroke:#000000;stroke-width:1;"/></g><!--link hornout to zobel--><g id="link_hornout_zobel"><path d="M128,578.59 C128,601.69 128,641.57 128,658.46 " fill="none" id="hornout-zobel" style="stroke:#000000;stroke-width:1;"/></g><!--SRC=[TP91JWCX58RtxnJFMTN5D0E9nhXmeOcfIQEcxSgueKZRIHaW34tZ60_K0tW13z0poJ3ET0RZ3lW_FXuypjn650ADPBc2SfihmomhaEl2Q2MKcxjtAT0AxfXQIm7G9PWyABDpk12so1MJ2R8IytgfpqpJP_Q6ZyBjjTq6H1g_y068FMf6S7HrF9m7m98ef3WYbrrAuHF0CBvbQu7995zl_15bcSJEANbLsVYYc3IdHj8xdvBi- -i-f9mCf5Ez_yT9_QvnrZffvFGfFJc7XRxefP1_XBEgBkDuQAvMHRvgK6DL-thnH5k5JpiNqesVwE7Jp-OfoRAEiAMVrGY49c6QteHUG6X8c16G98pyU_1cr7fF40L96uW2RqQT-fVsYrZLzmLGsldluvlaKA-Qxu7Nc2oqGUwh53Q9a5RXeLljd2vGYfMBgVR47XQov0S0]--></g></svg>