<svg xmlns="http://www.w3.org/2000/svg" xmlns:xlink="http://www.w3.org/1999/xlink" contentStyleType="text/css" data-diagram-type="SEQUENCE" height="416px" preserveAspectRatio="none" style="width:611px;height:416px;background:#FFFFFF;" version="1.1" viewBox="0 0 611 416" width="611px" zoomAndPan="magnify"><defs/><g><g><title>Issue Detector</title><rect fill="#FFFFFF" height="29.3105" style="stroke:#181818;stroke-width:1;" width="10" x="155.4829" y="112.7988"/></g><g><title>BFG9K Validator</title><rect fill="#FFFFFF" height="29.3105" style="stroke:#181818;stroke-width:1;" width="10" x="282.7158" y="171.4199"/></g><g><title>Elimination Engine</title><rect fill="#FFFFFF" height="87.9316" style="stroke:#181818;stroke-width:1;" width="10" x="424.188" y="230.041"/></g><g><title>Telemetry</title><rect fill="#FFFFFF" height="29.3105" style="stroke:#181818;stroke-width:1;" width="10" x="560.0698" y="259.3516"/></g><g><title>Test Runner</title><rect fill="#000000" fill-opacity="0.00000" height="254.4844" width="8" x="44.9507" y="81.4883"/><line style="stroke:#181818;stroke-width:0.5;stroke-dasharray:5.0,5.0;" x1="48" x2="48" y1="81.4883" y2="335.9727"/></g><g><title>Issue Detector</title><rect fill="#000000" fill-opacity="0.00000" height="254.4844" width="8" x="156.4829" y="81.4883"/><line style="stroke:#181818;stroke-width:0.5;stroke-dasharray:5.0,5.0;" x1="159.8418" x2="159.8418" y1="81.4883" y2="335.9727"/></g><g><title>BFG9K Validator</title><rect fill="#000000" fill-opacity="0.00000" height="254.4844" width="8" x="283.7158" y="81.4883"/><line style="stroke:#181818;stroke-width:0.5;stroke-dasharray:5.0,5.0;" x1="287.124" x2="287.124" y1="81.4883" y2="335.9727"/></g><g><title>Elimination Engine</title><rect fill="#000000" fill-opacity="0.00000" height="254.4844" width="8" x="425.188" y="81.4883"/><line style="stroke:#181818;stroke-width:0.5;stroke-dasharray:5.0,5.0;" x1="428.3076" x2="428.3076" y1="81.4883" y2="335.9727"/></g><g><title>Telemetry</title><rect fill="#000000" fill-opacity="0.00000" height="254.4844" width="8" x="561.0698" y="81.4883"/><line style="stroke:#181818;stroke-width:0.5;stroke-dasharray:5.0,5.0;" x1="564.2456" x2="564.2456" y1="81.4883" y2="335.9727"/></g><g class="participant participant-head" data-participant="TR"><text fill="#000000" font-family="sans-serif" font-size="14" lengthAdjust="spacing" textLength="81.9014" x="5" y="78.5352">Test Runner</text><ellipse cx="48.9507" cy="13.5" fill="#E2E2F0" rx="8" ry="8" style="stroke:#181818;stroke-width:0.5;"/><path d="M48.9507,21.5 L48.9507,48.5 M35.9507,29.5 L61.9507,29.5 M48.9507,48.5 L35.9507,63.5 M48.9507,48.5 L61.9507,63.5" fill="none" style="stroke:#181818;stroke-width:0.5;"/></g><g class="participant participant-tail" data-participant="TR"><text fill="#000000" font-family="sans-serif" font-size="14" lengthAdjust="spacing" textLength="81.9014" x="5" y="348.5078">Test Runner</text><ellipse cx="48.9507" cy="359.9609" fill="#E2E2F0" rx="8" ry="8" style="stroke:#181818;stroke-width:0.5;"/><path d="M48.9507,367.9609 L48.9507,394.9609 M35.9507,375.9609 L61.9507,375.9609 M48.9507,394.9609 L35.9507,409.9609 M48.9507,394.9609 L61.9507,409.9609" fill="none" style="stroke:#181818;stroke-width:0.5;"/></g><g class="participant participant-head" data-participant="ID"><rect fill="#E2E2F0" height="30.4883" rx="2.5" ry="2.5" style="stroke:#181818;stroke-width:0.5;" width="111.2822" x="104.8418" y="50"/><text fill="#000000" font-family="sans-serif" font-size="14" lengthAdjust="spacing" textLength="97.2822" x="111.8418" y="70.5352">Issue Detector</text></g><g class="participant participant-tail" data-participant="ID"><rect fill="#E2E2F0" height="30.4883" rx="2.5" ry="2.5" style="stroke:#181818;stroke-width:0.5;" width="111.2822" x="104.8418" y="334.9727"/><text fill="#000000" font-family="sans-serif" font-size="14" lengthAdjust="spacing" textLength="97.2822" x="111.8418" y="355.5078">Issue Detector</text></g><g class="participant participant-head" data-participant="BV"><rect fill="#E2E2F0" height="30.4883" rx="2.5" ry="2.5" style="stroke:#181818;stroke-width:0.5;" width="123.1836" x="226.124" y="50"/><text fill="#000000" font-family="sans-serif" font-size="14" lengthAdjust="spacing" textLength="109.1836" x="233.124" y="70.5352">BFG9K Validator</text></g><g class="participant participant-tail" data-participant="BV"><rect fill="#E2E2F0" height="30.4883" rx="2.5" ry="2.5" style="stroke:#181818;stroke-width:0.5;" width="123.1836" x="226.124" y="334.9727"/><text fill="#000000" font-family="sans-serif" font-size="14" lengthAdjust="spacing" textLength="109.1836" x="233.124" y="355.5078">BFG9K Validator</text></g><g class="participant participant-head" data-participant="EE"><rect fill="#E2E2F0" height="30.4883" rx="2.5" ry="2.5" style="stroke:#181818;stroke-width:0.5;" width="139.7607" x="359.3076" y="50"/><text fill="#000000" font-family="sans-serif" font-size="14" lengthAdjust="spacing" textLength="125.7607" x="366.3076" y="70.5352">Elimination Engine</text></g><g class="participant participant-tail" data-participant="EE"><rect fill="#E2E2F0" height="30.4883" rx="2.5" ry="2.5" style="stroke:#181818;stroke-width:0.5;" width="139.7607" x="359.3076" y="334.9727"/><text fill="#000000" font-family="sans-serif" font-size="14" lengthAdjust="spacing" textLength="125.7607" x="366.3076" y="355.5078">Elimination Engine</text></g><g class="participant participant-head" data-participant="T"><rect fill="#E2E2F0" height="30.4883" rx="2.5" ry="2.5" style="stroke:#181818;stroke-width:0.5;" width="81.6484" x="524.2456" y="50"/><text fill="#000000" font-family="sans-serif" font-size="14" lengthAdjust="spacing" textLength="67.6484" x="531.2456" y="70.5352">Telemetry</text></g><g class="participant participant-tail" data-participant="T"><rect fill="#E2E2F0" height="30.4883" rx="2.5" ry="2.5" style="stroke:#181818;stroke-width:0.5;" width="81.6484" x="524.2456" y="334.9727"/><text fill="#000000" font-family="sans-serif" font-size="14" lengthAdjust="spacing" textLength="67.6484" x="531.2456" y="355.5078">Telemetry</text></g><g><title>Issue Detector</title><rect fill="#FFFFFF" height="29.3105" style="stroke:#181818;stroke-width:1;" width="10" x="155.4829" y="112.7988"/></g><g><title>BFG9K Validator</title><rect fill="#FFFFFF" height="29.3105" style="stroke:#181818;stroke-width:1;" width="10" x="282.7158" y="171.4199"/></g><g><title>Elimination Engine</title><rect fill="#FFFFFF" height="87.9316" style="stroke:#181818;stroke-width:1;" width="10" x="424.188" y="230.041"/></g><g><title>Telemetry</title><rect fill="#FFFFFF" height="29.3105" style="stroke:#181818;stroke-width:1;" width="10" x="560.0698" y="259.3516"/></g><g class="message" data-participant-1="TR" data-participant-2="ID"><polygon fill="#181818" points="143.4829,108.7988,153.4829,112.7988,143.4829,116.7988,147.4829,112.7988" style="stroke:#181818;stroke-width:1;"/><line style="stroke:#181818;stroke-width:1;" x1="48.9507" x2="149.4829" y1="112.7988" y2="112.7988"/><text fill="#000000" font-family="sans-serif" font-size="13" lengthAdjust="spacing" textLength="84.5" x="55.9507" y="108.0566">detect_issues</text></g><g class="message" data-participant-1="ID" data-participant-2="TR"><polygon fill="#181818" points="59.9507,138.1094,49.9507,142.1094,59.9507,146.1094,55.9507,142.1094" style="stroke:#181818;stroke-width:1;"/><line style="stroke:#181818;stroke-width:1;stroke-dasharray:2.0,2.0;" x1="53.9507" x2="159.4829" y1="142.1094" y2="142.1094"/><text fill="#000000" font-family="sans-serif" font-size="13" lengthAdjust="spacing" textLength="82.5322" x="65.9507" y="137.3672">issues_found</text></g><g class="message" data-participant-1="TR" data-participant-2="BV"><polygon fill="#181818" points="270.7158,167.4199,280.7158,171.4199,270.7158,175.4199,274.7158,171.4199" style="stroke:#181818;stroke-width:1;"/><line style="stroke:#181818;stroke-width:1;" x1="48.9507" x2="276.7158" y1="171.4199" y2="171.4199"/><text fill="#000000" font-family="sans-serif" font-size="13" lengthAdjust="spacing" textLength="94.3389" x="55.9507" y="166.6777">validate_issues</text></g><g class="message" data-participant-1="BV" data-participant-2="TR"><polygon fill="#181818" points="59.9507,196.7305,49.9507,200.7305,59.9507,204.7305,55.9507,200.7305" style="stroke:#181818;stroke-width:1;"/><line style="stroke:#181818;stroke-width:1;stroke-dasharray:2.0,2.0;" x1="53.9507" x2="286.7158" y1="200.7305" y2="200.7305"/><text fill="#000000" font-family="sans-serif" font-size="13" lengthAdjust="spacing" textLength="103.835" x="65.9507" y="195.9883">validation_result</text></g><g class="message" data-participant-1="TR" data-participant-2="EE"><polygon fill="#181818" points="412.188,226.041,422.188,230.041,412.188,234.041,416.188,230.041" style="stroke:#181818;stroke-width:1;"/><line style="stroke:#181818;stroke-width:1;" x1="48.9507" x2="418.188" y1="230.041" y2="230.041"/><text fill="#000000" font-family="sans-serif" font-size="13" lengthAdjust="spacing" textLength="103.4541" x="55.9507" y="225.2988">eliminate_issues</text></g><g class="message" data-participant-1="EE" data-participant-2="T"><polygon fill="#181818" points="548.0698,255.3516,558.0698,259.3516,548.0698,263.3516,552.0698,259.3516" style="stroke:#181818;stroke-width:1;"/><line style="stroke:#181818;stroke-width:1;" x1="434.188" x2="554.0698" y1="259.3516" y2="259.3516"/><text fill="#000000" font-family="sans-serif" font-size="13" lengthAdjust="spacing" textLength="106.8818" x="441.188" y="254.6094">collect_telemetry</text></g><g class="message" data-participant-1="T" data-participant-2="EE"><polygon fill="#181818" points="445.188,284.6621,435.188,288.6621,445.188,292.6621,441.188,288.6621" style="stroke:#181818;stroke-width:1;"/><line style="stroke:#181818;stroke-width:1;stroke-dasharray:2.0,2.0;" x1="439.188" x2="564.0698" y1="288.6621" y2="288.6621"/><text fill="#000000" font-family="sans-serif" font-size="13" lengthAdjust="spacing" textLength="93.3613" x="451.188" y="283.9199">telemetry_data</text></g><g class="message" data-participant-1="EE" data-participant-2="TR"><polygon fill="#181818" points="59.9507,313.9727,49.9507,317.9727,59.9507,321.9727,55.9507,317.9727" style="stroke:#181818;stroke-width:1;"/><line style="stroke:#181818;stroke-width:1;stroke-dasharray:2.0,2.0;" x1="53.9507" x2="428.188" y1="317.9727" y2="317.9727"/><text fill="#000000" font-family="sans-serif" font-size="13" lengthAdjust="spacing" textLength="112.9502" x="65.9507" y="313.2305">elimination_result</text></g><!--SRC=[RP31QiCm343l_WgHUpzWFUmGwewoMp2v1f6eG-0wnLOA-_l9Jj8cT6Szdfw4lOmHAaT9e9b2e5W19d2DkMCKxlcEGQ2wf3GHd4WeymMvdFP8VVxw-8OMFG-uCdMxPwpd6mSK7WFOyCE12cRj7dFawKOIV-SMOrm3Xq_T24SOIaF7EIWPx8KVA9HhT7nGIjaZpEFkEavXC0DjiKLMjuezvbfwqscu0a_Tmcbs5obDNhPEPHUdjShISkExLCzK8ZiLwqVlyo6otlhYd75bTT4zvvq6u7QlAxOraLwl_QTHL_y1]--></g></svg>