<svg xmlns="http://www.w3.org/2000/svg" xmlns:xlink="http://www.w3.org/1999/xlink" contentStyleType="text/css" data-diagram-type="CLASS" height="615px" preserveAspectRatio="none" style="width:2901px;height:615px;background:#FFFFFF;" version="1.1" viewBox="0 0 2901 615" width="2901px" zoomAndPan="magnify"><defs/><g><!--cluster MCP (Model Context Protocol)--><g class="cluster" data-entity="MCP (Model Context Protocol)" data-source-line="3" data-uid="ent0002" id="cluster_MCP (Model Context Protocol)"><path d="M8.5,6 L224.0527,6 A3.75,3.75 0 0 1 226.5527,8.5 L233.5527,28.4883 L915.5,28.4883 A2.5,2.5 0 0 1 918,30.9883 L918,429.88 A2.5,2.5 0 0 1 915.5,432.38 L8.5,432.38 A2.5,2.5 0 0 1 6,429.88 L6,8.5 A2.5,2.5 0 0 1 8.5,6" fill="none" style="stroke:#000000;stroke-width:1.5;"/><line style="stroke:#000000;stroke-width:1.5;" x1="6" x2="233.5527" y1="28.4883" y2="28.4883"/><text fill="#000000" font-family="sans-serif" font-size="14" font-weight="bold" lengthAdjust="spacing" textLength="214.5527" x="10" y="21.5352">MCP (Model Context Protocol)</text></g><!--cluster PDCA Cycle--><g class="cluster" data-entity="PDCA Cycle" data-source-line="39" data-uid="ent0008" id="cluster_PDCA Cycle"><path d="M944.5,283.91 L1028.4268,283.91 A3.75,3.75 0 0 1 1030.9268,286.41 L1037.9268,306.3983 L2415.5,306.3983 A2.5,2.5 0 0 1 2418,308.8983 L2418,413.39 A2.5,2.5 0 0 1 2415.5,415.89 L944.5,415.89 A2.5,2.5 0 0 1 942,413.39 L942,286.41 A2.5,2.5 0 0 1 944.5,283.91" fill="none" style="stroke:#000000;stroke-width:1.5;"/><line style="stroke:#000000;stroke-width:1.5;" x1="942" x2="1037.9268" y1="306.3983" y2="306.3983"/><text fill="#000000" font-family="sans-serif" font-size="14" font-weight="bold" lengthAdjust="spacing" textLength="82.9268" x="946" y="299.4452">PDCA Cycle</text></g><!--cluster Validation--><g class="cluster" data-entity="Validation" data-source-line="62" data-uid="ent0013" id="cluster_Validation"><path d="M2444.5,267.42 L2518.4873,267.42 A3.75,3.75 0 0 1 2520.9873,269.92 L2527.9873,289.9083 L2891.5,289.9083 A2.5,2.5 0 0 1 2894,292.4083 L2894,606.34 A2.5,2.5 0 0 1 2891.5,608.84 L2444.5,608.84 A2.5,2.5 0 0 1 2442,606.34 L2442,269.92 A2.5,2.5 0 0 1 2444.5,267.42" fill="none" style="stroke:#000000;stroke-width:1.5;"/><line style="stroke:#000000;stroke-width:1.5;" x1="2442" x2="2527.9873" y1="289.9083" y2="289.9083"/><text fill="#000000" font-family="sans-serif" font-size="14" font-weight="bold" lengthAdjust="spacing" textLength="72.9873" x="2446" y="282.9552">Validation</text></g><!--class MCPValidator--><g class="entity" data-entity="MCPValidator" data-source-line="4" data-uid="ent0003" id="entity_MCPValidator"><rect fill="#F1F1F1" height="113.9531" rx="2.5" ry="2.5" style="stroke:#181818;stroke-width:0.5;" width="322.2422" x="579.88" y="65.74"/><ellipse cx="691.4664" cy="81.74" fill="#ADD1B2" rx="11" ry="11" style="stroke:#181818;stroke-width:1;"/><path d="M693.9396,87.8831 Q693.3585,88.1819 692.7194,88.3313 Q692.0802,88.4807 691.3746,88.4807 Q688.8678,88.4807 687.548,86.8289 Q686.2281,85.177 686.2281,82.0559 Q686.2281,78.9265 687.548,77.2747 Q688.8678,75.6228 691.3746,75.6228 Q692.0802,75.6228 692.7277,75.7722 Q693.3751,75.9216 693.9396,76.2205 L693.9396,78.9431 Q693.3087,78.3621 692.7152,78.0923 Q692.1217,77.8225 691.4908,77.8225 Q690.1461,77.8225 689.4613,78.8892 Q688.7765,79.9558 688.7765,82.0559 Q688.7765,84.1477 689.4613,85.2144 Q690.1461,86.281 691.4908,86.281 Q692.1217,86.281 692.7152,86.0112 Q693.3087,85.7415 693.9396,85.1604 Z " fill="#000000"/><text fill="#000000" font-family="sans-serif" font-size="14" lengthAdjust="spacing" textLength="90.5693" x="711.9664" y="87.031">MCPValidator</text><line style="stroke:#181818;stroke-width:0.5;" x1="580.88" x2="901.1222" y1="97.74" y2="97.74"/><line style="stroke:#181818;stroke-width:0.5;" x1="580.88" x2="901.1222" y1="105.74" y2="105.74"/><ellipse cx="590.88" cy="119.4841" fill="#84BE84" rx="3" ry="3" style="stroke:#038048;stroke-width:1;"/><text fill="#000000" font-family="sans-serif" font-size="14" lengthAdjust="spacing" textLength="296.2422" x="599.88" y="123.2752">validate_bfg9k(context: Dict[str, Any]): bool</text><ellipse cx="590.88" cy="135.9724" fill="#84BE84" rx="3" ry="3" style="stroke:#038048;stroke-width:1;"/><text fill="#000000" font-family="sans-serif" font-size="14" lengthAdjust="spacing" textLength="165.1699" x="599.88" y="139.7634">validateHierarchy(): bool</text><ellipse cx="590.88" cy="152.4607" fill="#84BE84" rx="3" ry="3" style="stroke:#038048;stroke-width:1;"/><text fill="#000000" font-family="sans-serif" font-size="14" lengthAdjust="spacing" textLength="169.0938" x="599.88" y="156.2517">validateSemantics(): bool</text><ellipse cx="590.88" cy="168.949" fill="#84BE84" rx="3" ry="3" style="stroke:#038048;stroke-width:1;"/><text fill="#000000" font-family="sans-serif" font-size="14" lengthAdjust="spacing" textLength="145.3115" x="599.88" y="172.74">validateSHACL(): bool</text></g><!--class MCPConfig--><g class="entity" data-entity="MCPConfig" data-source-line="11" data-uid="ent0004" id="entity_MCPConfig"><rect fill="#F1F1F1" height="113.9531" rx="2.5" ry="2.5" style="stroke:#181818;stroke-width:0.5;" width="205.4434" x="638.28" y="302.42"/><ellipse cx="699.5608" cy="318.42" fill="#ADD1B2" rx="11" ry="11" style="stroke:#181818;stroke-width:1;"/><path d="M702.0339,324.5631 Q701.4529,324.8619 700.8137,325.0113 Q700.1745,325.1607 699.469,325.1607 Q696.9621,325.1607 695.6423,323.5089 Q694.3225,321.857 694.3225,318.7359 Q694.3225,315.6065 695.6423,313.9547 Q696.9621,312.3028 699.469,312.3028 Q700.1745,312.3028 700.822,312.4522 Q701.4695,312.6016 702.0339,312.9005 L702.0339,315.6231 Q701.403,315.0421 700.8095,314.7723 Q700.216,314.5025 699.5852,314.5025 Q698.2404,314.5025 697.5556,315.5692 Q696.8708,316.6358 696.8708,318.7359 Q696.8708,320.8277 697.5556,321.8944 Q698.2404,322.961 699.5852,322.961 Q700.216,322.961 700.8095,322.6912 Q701.403,322.4215 702.0339,321.8404 Z " fill="#000000"/><text fill="#000000" font-family="sans-serif" font-size="14" lengthAdjust="spacing" textLength="74.3818" x="720.0608" y="323.711">MCPConfig</text><line style="stroke:#181818;stroke-width:0.5;" x1="639.28" x2="842.7234" y1="334.42" y2="334.42"/><ellipse cx="649.28" cy="348.1641" fill="none" rx="3" ry="3" style="stroke:#038048;stroke-width:1;"/><text fill="#000000" font-family="sans-serif" font-size="14" lengthAdjust="spacing" textLength="114.8711" x="658.28" y="351.9552">core: CoreConfig</text><ellipse cx="649.28" cy="364.6524" fill="none" rx="3" ry="3" style="stroke:#038048;stroke-width:1;"/><text fill="#000000" font-family="sans-serif" font-size="14" lengthAdjust="spacing" textLength="173.6602" x="658.28" y="368.4434">adapters: AdaptersConfig</text><ellipse cx="649.28" cy="381.1407" fill="none" rx="3" ry="3" style="stroke:#038048;stroke-width:1;"/><text fill="#000000" font-family="sans-serif" font-size="14" lengthAdjust="spacing" textLength="179.4434" x="658.28" y="384.9317">metadata: MetadataConfig</text><ellipse cx="649.28" cy="397.629" fill="none" rx="3" ry="3" style="stroke:#038048;stroke-width:1;"/><text fill="#000000" font-family="sans-serif" font-size="14" lengthAdjust="spacing" textLength="160.3164" x="658.28" y="401.42">logging: LoggingConfig</text><line style="stroke:#181818;stroke-width:0.5;" x1="639.28" x2="842.7234" y1="408.3731" y2="408.3731"/></g><!--class CoreConfig--><g class="entity" data-entity="CoreConfig" data-source-line="18" data-uid="ent0005" id="entity_CoreConfig"><rect fill="#F1F1F1" height="80.9766" rx="2.5" ry="2.5" style="stroke:#181818;stroke-width:0.5;" width="287.085" x="22.46" y="82.22"/><ellipse cx="123.396" cy="98.22" fill="#ADD1B2" rx="11" ry="11" style="stroke:#181818;stroke-width:1;"/><path d="M125.8692,104.3631 Q125.2881,104.6619 124.649,104.8113 Q124.0098,104.9607 123.3042,104.9607 Q120.7974,104.9607 119.4776,103.3089 Q118.1578,101.657 118.1578,98.5359 Q118.1578,95.4065 119.4776,93.7547 Q120.7974,92.1028 123.3042,92.1028 Q124.0098,92.1028 124.6573,92.2522 Q125.3047,92.4016 125.8692,92.7005 L125.8692,95.4231 Q125.2383,94.8421 124.6448,94.5723 Q124.0513,94.3025 123.4204,94.3025 Q122.0757,94.3025 121.3909,95.3692 Q120.7061,96.4358 120.7061,98.5359 Q120.7061,100.6277 121.3909,101.6944 Q122.0757,102.761 123.4204,102.761 Q124.0513,102.761 124.6448,102.4912 Q125.2383,102.2215 125.8692,101.6404 Z " fill="#000000"/><text fill="#000000" font-family="sans-serif" font-size="14" lengthAdjust="spacing" textLength="76.7129" x="143.896" y="103.511">CoreConfig</text><line style="stroke:#181818;stroke-width:0.5;" x1="23.46" x2="308.545" y1="114.22" y2="114.22"/><ellipse cx="33.46" cy="127.9641" fill="none" rx="3" ry="3" style="stroke:#038048;stroke-width:1;"/><text fill="#000000" font-family="sans-serif" font-size="14" lengthAdjust="spacing" textLength="188.0361" x="42.46" y="131.7552">validation: ValidationConfig</text><ellipse cx="33.46" cy="144.4524" fill="none" rx="3" ry="3" style="stroke:#038048;stroke-width:1;"/><text fill="#000000" font-family="sans-serif" font-size="14" lengthAdjust="spacing" textLength="261.085" x="42.46" y="148.2434">validationRules: ValidationRulesConfig</text><line style="stroke:#181818;stroke-width:0.5;" x1="23.46" x2="308.545" y1="155.1966" y2="155.1966"/></g><!--class ValidationConfig--><g class="entity" data-entity="ValidationConfig" data-source-line="23" data-uid="ent0006" id="entity_ValidationConfig"><rect fill="#F1F1F1" height="163.418" rx="2.5" ry="2.5" style="stroke:#181818;stroke-width:0.5;" width="200.2617" x="344.87" y="41"/><ellipse cx="384.7417" cy="57" fill="#ADD1B2" rx="11" ry="11" style="stroke:#181818;stroke-width:1;"/><path d="M387.2149,63.1431 Q386.6338,63.4419 385.9947,63.5913 Q385.3555,63.7407 384.6499,63.7407 Q382.1431,63.7407 380.8233,62.0889 Q379.5034,60.437 379.5034,57.3159 Q379.5034,54.1865 380.8233,52.5347 Q382.1431,50.8828 384.6499,50.8828 Q385.3555,50.8828 386.003,51.0322 Q386.6504,51.1816 387.2149,51.4805 L387.2149,54.2031 Q386.584,53.6221 385.9905,53.3523 Q385.397,53.0825 384.7661,53.0825 Q383.4214,53.0825 382.7366,54.1492 Q382.0518,55.2158 382.0518,57.3159 Q382.0518,59.4077 382.7366,60.4744 Q383.4214,61.541 384.7661,61.541 Q385.397,61.541 385.9905,61.2712 Q386.584,61.0015 387.2149,60.4204 Z " fill="#000000"/><text fill="#000000" font-family="sans-serif" font-size="14" lengthAdjust="spacing" textLength="112.9912" x="404.2688" y="62.291">ValidationConfig</text><line style="stroke:#181818;stroke-width:0.5;" x1="345.87" x2="544.1317" y1="73" y2="73"/><ellipse cx="355.87" cy="86.7441" fill="none" rx="3" ry="3" style="stroke:#038048;stroke-width:1;"/><text fill="#000000" font-family="sans-serif" font-size="14" lengthAdjust="spacing" textLength="92.6064" x="364.87" y="90.5352">enabled: bool</text><ellipse cx="355.87" cy="103.2324" fill="none" rx="3" ry="3" style="stroke:#038048;stroke-width:1;"/><text fill="#000000" font-family="sans-serif" font-size="14" lengthAdjust="spacing" textLength="165.5596" x="364.87" y="107.0234">requirePhaseOrder: bool</text><ellipse cx="355.87" cy="119.7207" fill="none" rx="3" ry="3" style="stroke:#038048;stroke-width:1;"/><text fill="#000000" font-family="sans-serif" font-size="14" lengthAdjust="spacing" textLength="141.3535" x="364.87" y="123.5117">requireContext: bool</text><ellipse cx="355.87" cy="136.209" fill="none" rx="3" ry="3" style="stroke:#038048;stroke-width:1;"/><text fill="#000000" font-family="sans-serif" font-size="14" lengthAdjust="spacing" textLength="174.2617" x="364.87" y="140">requireServerConfig: bool</text><ellipse cx="355.87" cy="152.6973" fill="none" rx="3" ry="3" style="stroke:#038048;stroke-width:1;"/><text fill="#000000" font-family="sans-serif" font-size="14" lengthAdjust="spacing" textLength="87.001" x="364.87" y="156.4883">dryRun: bool</text><ellipse cx="355.87" cy="169.1855" fill="none" rx="3" ry="3" style="stroke:#038048;stroke-width:1;"/><text fill="#000000" font-family="sans-serif" font-size="14" lengthAdjust="spacing" textLength="141.791" x="364.87" y="172.9766">backupEnabled: bool</text><ellipse cx="355.87" cy="185.6738" fill="none" rx="3" ry="3" style="stroke:#038048;stroke-width:1;"/><text fill="#000000" font-family="sans-serif" font-size="14" lengthAdjust="spacing" textLength="130.9287" x="364.87" y="189.4648">rules: Dict[str, Any]</text><line style="stroke:#181818;stroke-width:0.5;" x1="345.87" x2="544.1317" y1="196.418" y2="196.418"/></g><!--class ValidationRulesConfig--><g class="entity" data-entity="ValidationRulesConfig" data-source-line="33" data-uid="ent0007" id="entity_ValidationRulesConfig"><rect fill="#F1F1F1" height="80.9766" rx="2.5" ry="2.5" style="stroke:#181818;stroke-width:0.5;" width="325.2979" x="22.35" y="318.91"/><ellipse cx="105.9911" cy="334.91" fill="#ADD1B2" rx="11" ry="11" style="stroke:#181818;stroke-width:1;"/><path d="M108.4643,341.0531 Q107.8832,341.3519 107.244,341.5013 Q106.6049,341.6507 105.8993,341.6507 Q103.3925,341.6507 102.0727,339.9989 Q100.7528,338.347 100.7528,335.2259 Q100.7528,332.0965 102.0727,330.4447 Q103.3925,328.7928 105.8993,328.7928 Q106.6049,328.7928 107.2523,328.9422 Q107.8998,329.0916 108.4643,329.3905 L108.4643,332.1131 Q107.8334,331.5321 107.2399,331.2623 Q106.6464,330.9925 106.0155,330.9925 Q104.6708,330.9925 103.986,332.0592 Q103.3012,333.1258 103.3012,335.2259 Q103.3012,337.3177 103.986,338.3844 Q104.6708,339.451 106.0155,339.451 Q106.6464,339.451 107.2399,339.1812 Q107.8334,338.9115 108.4643,338.3304 Z " fill="#000000"/><text fill="#000000" font-family="sans-serif" font-size="14" lengthAdjust="spacing" textLength="149.5156" x="126.4911" y="340.201">ValidationRulesConfig</text><line style="stroke:#181818;stroke-width:0.5;" x1="23.35" x2="346.6479" y1="350.91" y2="350.91"/><ellipse cx="33.35" cy="364.6541" fill="none" rx="3" ry="3" style="stroke:#038048;stroke-width:1;"/><text fill="#000000" font-family="sans-serif" font-size="14" lengthAdjust="spacing" textLength="299.2979" x="42.35" y="368.4452">ontologyStructure: OntologyStructureConfig</text><ellipse cx="33.35" cy="381.1424" fill="none" rx="3" ry="3" style="stroke:#038048;stroke-width:1;"/><text fill="#000000" font-family="sans-serif" font-size="14" lengthAdjust="spacing" textLength="265.8291" x="42.35" y="384.9334">phaseExecution: PhaseExecutionConfig</text><line style="stroke:#181818;stroke-width:0.5;" x1="23.35" x2="346.6479" y1="391.8866" y2="391.8866"/></g><!--class PlanPhase--><g class="entity" data-entity="PlanPhase" data-source-line="40" data-uid="ent0009" id="entity_PlanPhase"><rect fill="#F1F1F1" height="80.9766" rx="2.5" ry="2.5" style="stroke:#181818;stroke-width:0.5;" width="334.5605" x="957.72" y="318.91"/><ellipse cx="1087.1004" cy="334.91" fill="#ADD1B2" rx="11" ry="11" style="stroke:#181818;stroke-width:1;"/><path d="M1089.5735,341.0531 Q1088.9925,341.3519 1088.3533,341.5013 Q1087.7141,341.6507 1087.0086,341.6507 Q1084.5017,341.6507 1083.1819,339.9989 Q1081.8621,338.347 1081.8621,335.2259 Q1081.8621,332.0965 1083.1819,330.4447 Q1084.5017,328.7928 1087.0086,328.7928 Q1087.7141,328.7928 1088.3616,328.9422 Q1089.0091,329.0916 1089.5735,329.3905 L1089.5735,332.1131 Q1088.9427,331.5321 1088.3492,331.2623 Q1087.7556,330.9925 1087.1248,330.9925 Q1085.7801,330.9925 1085.0952,332.0592 Q1084.4104,333.1258 1084.4104,335.2259 Q1084.4104,337.3177 1085.0952,338.3844 Q1085.7801,339.451 1087.1248,339.451 Q1087.7556,339.451 1088.3492,339.1812 Q1088.9427,338.9115 1089.5735,338.3304 Z " fill="#000000"/><text fill="#000000" font-family="sans-serif" font-size="14" lengthAdjust="spacing" textLength="67.2998" x="1107.6004" y="340.201">PlanPhase</text><line style="stroke:#181818;stroke-width:0.5;" x1="958.72" x2="1291.2805" y1="350.91" y2="350.91"/><line style="stroke:#181818;stroke-width:0.5;" x1="958.72" x2="1291.2805" y1="358.91" y2="358.91"/><ellipse cx="968.72" cy="372.6541" fill="#84BE84" rx="3" ry="3" style="stroke:#038048;stroke-width:1;"/><text fill="#000000" font-family="sans-serif" font-size="14" lengthAdjust="spacing" textLength="308.5605" x="977.72" y="376.4452">execute(context: Dict[str, Any]): Dict[str, Any]</text><rect fill="#F24D5C" height="6" style="stroke:#C82930;stroke-width:1;" width="6" x="965.72" y="386.1424"/><text fill="#000000" font-family="sans-serif" font-size="14" lengthAdjust="spacing" textLength="143.9512" x="977.72" y="392.9334">_validate_plan(): bool</text></g><!--class DoPhase--><g class="entity" data-entity="DoPhase" data-source-line="45" data-uid="ent0010" id="entity_DoPhase"><rect fill="#F1F1F1" height="80.9766" rx="2.5" ry="2.5" style="stroke:#181818;stroke-width:0.5;" width="334.5605" x="1327.72" y="318.91"/><ellipse cx="1461.6599" cy="334.91" fill="#ADD1B2" rx="11" ry="11" style="stroke:#181818;stroke-width:1;"/><path d="M1464.1331,341.0531 Q1463.552,341.3519 1462.9129,341.5013 Q1462.2737,341.6507 1461.5681,341.6507 Q1459.0613,341.6507 1457.7415,339.9989 Q1456.4217,338.347 1456.4217,335.2259 Q1456.4217,332.0965 1457.7415,330.4447 Q1459.0613,328.7928 1461.5681,328.7928 Q1462.2737,328.7928 1462.9212,328.9422 Q1463.5686,329.0916 1464.1331,329.3905 L1464.1331,332.1131 Q1463.5022,331.5321 1462.9087,331.2623 Q1462.3152,330.9925 1461.6844,330.9925 Q1460.3396,330.9925 1459.6548,332.0592 Q1458.97,333.1258 1458.97,335.2259 Q1458.97,337.3177 1459.6548,338.3844 Q1460.3396,339.451 1461.6844,339.451 Q1462.3152,339.451 1462.9087,339.1812 Q1463.5022,338.9115 1464.1331,338.3304 Z " fill="#000000"/><text fill="#000000" font-family="sans-serif" font-size="14" lengthAdjust="spacing" textLength="58.1807" x="1482.1599" y="340.201">DoPhase</text><line style="stroke:#181818;stroke-width:0.5;" x1="1328.72" x2="1661.2805" y1="350.91" y2="350.91"/><line style="stroke:#181818;stroke-width:0.5;" x1="1328.72" x2="1661.2805" y1="358.91" y2="358.91"/><ellipse cx="1338.72" cy="372.6541" fill="#84BE84" rx="3" ry="3" style="stroke:#038048;stroke-width:1;"/><text fill="#000000" font-family="sans-serif" font-size="14" lengthAdjust="spacing" textLength="308.5605" x="1347.72" y="376.4452">execute(context: Dict[str, Any]): Dict[str, Any]</text><rect fill="#F24D5C" height="6" style="stroke:#C82930;stroke-width:1;" width="6" x="1335.72" y="386.1424"/><text fill="#000000" font-family="sans-serif" font-size="14" lengthAdjust="spacing" textLength="132.084" x="1347.72" y="392.9334">_validate_do(): bool</text></g><!--class CheckPhase--><g class="entity" data-entity="CheckPhase" data-source-line="50" data-uid="ent0011" id="entity_CheckPhase"><rect fill="#F1F1F1" height="80.9766" rx="2.5" ry="2.5" style="stroke:#181818;stroke-width:0.5;" width="334.5605" x="1697.72" y="318.91"/><ellipse cx="1820.4388" cy="334.91" fill="#ADD1B2" rx="11" ry="11" style="stroke:#181818;stroke-width:1;"/><path d="M1822.9119,341.0531 Q1822.3308,341.3519 1821.6917,341.5013 Q1821.0525,341.6507 1820.347,341.6507 Q1817.8401,341.6507 1816.5203,339.9989 Q1815.2005,338.347 1815.2005,335.2259 Q1815.2005,332.0965 1816.5203,330.4447 Q1817.8401,328.7928 1820.347,328.7928 Q1821.0525,328.7928 1821.7,328.9422 Q1822.3474,329.0916 1822.9119,329.3905 L1822.9119,332.1131 Q1822.281,331.5321 1821.6875,331.2623 Q1821.094,330.9925 1820.4632,330.9925 Q1819.1184,330.9925 1818.4336,332.0592 Q1817.7488,333.1258 1817.7488,335.2259 Q1817.7488,337.3177 1818.4336,338.3844 Q1819.1184,339.451 1820.4632,339.451 Q1821.094,339.451 1821.6875,339.1812 Q1822.281,338.9115 1822.9119,338.3304 Z " fill="#000000"/><text fill="#000000" font-family="sans-serif" font-size="14" lengthAdjust="spacing" textLength="80.623" x="1840.9388" y="340.201">CheckPhase</text><line style="stroke:#181818;stroke-width:0.5;" x1="1698.72" x2="2031.2805" y1="350.91" y2="350.91"/><line style="stroke:#181818;stroke-width:0.5;" x1="1698.72" x2="2031.2805" y1="358.91" y2="358.91"/><ellipse cx="1708.72" cy="372.6541" fill="#84BE84" rx="3" ry="3" style="stroke:#038048;stroke-width:1;"/><text fill="#000000" font-family="sans-serif" font-size="14" lengthAdjust="spacing" textLength="308.5605" x="1717.72" y="376.4452">execute(context: Dict[str, Any]): Dict[str, Any]</text><rect fill="#F24D5C" height="6" style="stroke:#C82930;stroke-width:1;" width="6" x="1705.72" y="386.1424"/><text fill="#000000" font-family="sans-serif" font-size="14" lengthAdjust="spacing" textLength="153.6855" x="1717.72" y="392.9334">_validate_check(): bool</text></g><!--class AdjustPhase--><g class="entity" data-entity="AdjustPhase" data-source-line="55" data-uid="ent0012" id="entity_AdjustPhase"><rect fill="#F1F1F1" height="80.9766" rx="2.5" ry="2.5" style="stroke:#181818;stroke-width:0.5;" width="334.5605" x="2067.72" y="318.91"/><ellipse cx="2189.3074" cy="334.91" fill="#ADD1B2" rx="11" ry="11" style="stroke:#181818;stroke-width:1;"/><path d="M2191.7805,341.0531 Q2191.1995,341.3519 2190.5603,341.5013 Q2189.9212,341.6507 2189.2156,341.6507 Q2186.7088,341.6507 2185.3889,339.9989 Q2184.0691,338.347 2184.0691,335.2259 Q2184.0691,332.0965 2185.3889,330.4447 Q2186.7088,328.7928 2189.2156,328.7928 Q2189.9212,328.7928 2190.5686,328.9422 Q2191.2161,329.0916 2191.7805,329.3905 L2191.7805,332.1131 Q2191.1497,331.5321 2190.5562,331.2623 Q2189.9627,330.9925 2189.3318,330.9925 Q2187.9871,330.9925 2187.3023,332.0592 Q2186.6175,333.1258 2186.6175,335.2259 Q2186.6175,337.3177 2187.3023,338.3844 Q2187.9871,339.451 2189.3318,339.451 Q2189.9627,339.451 2190.5562,339.1812 Q2191.1497,338.9115 2191.7805,338.3304 Z " fill="#000000"/><text fill="#000000" font-family="sans-serif" font-size="14" lengthAdjust="spacing" textLength="82.8857" x="2209.8074" y="340.201">AdjustPhase</text><line style="stroke:#181818;stroke-width:0.5;" x1="2068.72" x2="2401.2805" y1="350.91" y2="350.91"/><line style="stroke:#181818;stroke-width:0.5;" x1="2068.72" x2="2401.2805" y1="358.91" y2="358.91"/><ellipse cx="2078.72" cy="372.6541" fill="#84BE84" rx="3" ry="3" style="stroke:#038048;stroke-width:1;"/><text fill="#000000" font-family="sans-serif" font-size="14" lengthAdjust="spacing" textLength="308.5605" x="2087.72" y="376.4452">execute(context: Dict[str, Any]): Dict[str, Any]</text><rect fill="#F24D5C" height="6" style="stroke:#C82930;stroke-width:1;" width="6" x="2075.72" y="386.1424"/><text fill="#000000" font-family="sans-serif" font-size="14" lengthAdjust="spacing" textLength="156.5361" x="2087.72" y="392.9334">_validate_adjust(): bool</text></g><!--class ValidationHandler--><g class="entity" data-entity="ValidationHandler" data-source-line="63" data-uid="ent0014" id="entity_ValidationHandler"><rect fill="#F1F1F1" height="113.9531" rx="2.5" ry="2.5" style="stroke:#181818;stroke-width:0.5;" width="332.168" x="2479.92" y="302.42"/><ellipse cx="2581.1602" cy="318.42" fill="#ADD1B2" rx="11" ry="11" style="stroke:#181818;stroke-width:1;"/><path d="M2583.6334,324.5631 Q2583.0523,324.8619 2582.4132,325.0113 Q2581.774,325.1607 2581.0684,325.1607 Q2578.5616,325.1607 2577.2418,323.5089 Q2575.922,321.857 2575.922,318.7359 Q2575.922,315.6065 2577.2418,313.9547 Q2578.5616,312.3028 2581.0684,312.3028 Q2581.774,312.3028 2582.4215,312.4522 Q2583.0689,312.6016 2583.6334,312.9005 L2583.6334,315.6231 Q2583.0025,315.0421 2582.409,314.7723 Q2581.8155,314.5025 2581.1846,314.5025 Q2579.8399,314.5025 2579.1551,315.5692 Q2578.4703,316.6358 2578.4703,318.7359 Q2578.4703,320.8277 2579.1551,321.8944 Q2579.8399,322.961 2581.1846,322.961 Q2581.8155,322.961 2582.409,322.6912 Q2583.0025,322.4215 2583.6334,321.8404 Z " fill="#000000"/><text fill="#000000" font-family="sans-serif" font-size="14" lengthAdjust="spacing" textLength="121.1875" x="2601.6602" y="323.711">ValidationHandler</text><line style="stroke:#181818;stroke-width:0.5;" x1="2480.92" x2="2811.088" y1="334.42" y2="334.42"/><line style="stroke:#181818;stroke-width:0.5;" x1="2480.92" x2="2811.088" y1="342.42" y2="342.42"/><ellipse cx="2490.92" cy="356.1641" fill="#84BE84" rx="3" ry="3" style="stroke:#038048;stroke-width:1;"/><text fill="#000000" font-family="sans-serif" font-size="14" lengthAdjust="spacing" textLength="306.168" x="2499.92" y="359.9552">validate(rule: ValidationRule, data: Any): bool</text><rect fill="#F24D5C" height="6" style="stroke:#C82930;stroke-width:1;" width="6" x="2487.92" y="369.6524"/><text fill="#000000" font-family="sans-serif" font-size="14" lengthAdjust="spacing" textLength="139.7676" x="2499.92" y="376.4434">_validate_risk(): bool</text><rect fill="#F24D5C" height="6" style="stroke:#C82930;stroke-width:1;" width="6" x="2487.92" y="386.1407"/><text fill="#000000" font-family="sans-serif" font-size="14" lengthAdjust="spacing" textLength="167.7949" x="2499.92" y="392.9317">_validate_security(): bool</text><rect fill="#F24D5C" height="6" style="stroke:#C82930;stroke-width:1;" width="6" x="2487.92" y="402.629"/><text fill="#000000" font-family="sans-serif" font-size="14" lengthAdjust="spacing" textLength="210.3213" x="2499.92" y="409.42">_validate_sensitive_data(): bool</text></g><!--class BFG9KTargeter--><g class="entity" data-entity="BFG9KTargeter" data-source-line="70" data-uid="ent0015" id="entity_BFG9KTargeter"><rect fill="#F1F1F1" height="97.4648" rx="2.5" ry="2.5" style="stroke:#181818;stroke-width:0.5;" width="420.1533" x="2457.92" y="495.38"/><ellipse cx="2613.1095" cy="511.38" fill="#ADD1B2" rx="11" ry="11" style="stroke:#181818;stroke-width:1;"/><path d="M2615.5826,517.5231 Q2615.0015,517.8219 2614.3624,517.9713 Q2613.7232,518.1207 2613.0177,518.1207 Q2610.5108,518.1207 2609.191,516.4689 Q2607.8712,514.817 2607.8712,511.6959 Q2607.8712,508.5665 2609.191,506.9147 Q2610.5108,505.2628 2613.0177,505.2628 Q2613.7232,505.2628 2614.3707,505.4122 Q2615.0181,505.5616 2615.5826,505.8605 L2615.5826,508.5831 Q2614.9517,508.0021 2614.3582,507.7323 Q2613.7647,507.4625 2613.1339,507.4625 Q2611.7891,507.4625 2611.1043,508.5292 Q2610.4195,509.5958 2610.4195,511.6959 Q2610.4195,513.7877 2611.1043,514.8544 Q2611.7891,515.921 2613.1339,515.921 Q2613.7647,515.921 2614.3582,515.6512 Q2614.9517,515.3815 2615.5826,514.8004 Z " fill="#000000"/><text fill="#000000" font-family="sans-serif" font-size="14" lengthAdjust="spacing" textLength="101.2744" x="2633.6095" y="516.671">BFG9KTargeter</text><line style="stroke:#181818;stroke-width:0.5;" x1="2458.92" x2="2877.0733" y1="527.38" y2="527.38"/><line style="stroke:#181818;stroke-width:0.5;" x1="2458.92" x2="2877.0733" y1="535.38" y2="535.38"/><ellipse cx="2468.92" cy="549.1241" fill="#84BE84" rx="3" ry="3" style="stroke:#038048;stroke-width:1;"/><text fill="#000000" font-family="sans-serif" font-size="14" lengthAdjust="spacing" textLength="344.5039" x="2477.92" y="552.9152">detect_targets(metrics: Dict[str, float]): List[Target]</text><ellipse cx="2468.92" cy="565.6124" fill="#84BE84" rx="3" ry="3" style="stroke:#038048;stroke-width:1;"/><text fill="#000000" font-family="sans-serif" font-size="14" lengthAdjust="spacing" textLength="394.1533" x="2477.92" y="569.4034">generate_elimination_plan(target: Target): EliminationPlan</text><ellipse cx="2468.92" cy="582.1007" fill="#84BE84" rx="3" ry="3" style="stroke:#038048;stroke-width:1;"/><text fill="#000000" font-family="sans-serif" font-size="14" lengthAdjust="spacing" textLength="326.2383" x="2477.92" y="585.8917">execute_elimination(plan: EliminationPlan): bool</text></g><!--link MCPValidator to MCPConfig--><g class="link" data-entity-1="MCPValidator" data-entity-2="MCPConfig" data-source-line="78" data-uid="lnk16" id="link_MCPValidator_MCPConfig"><path codeLine="78" d="M741,179.93 C741,216.95 741,259.23 741,296.24" fill="none" id="MCPValidator-to-MCPConfig" style="stroke:#181818;stroke-width:1;"/><polygon fill="#181818" points="741,302.24,745,293.24,741,297.24,737,293.24,741,302.24" style="stroke:#181818;stroke-width:1;"/><text fill="#000000" font-family="sans-serif" font-size="13" lengthAdjust="spacing" textLength="28.5645" x="742" y="247.9884">uses</text></g><!--link MCPValidator to PlanPhase--><g class="link" data-entity-1="MCPValidator" data-entity-2="PlanPhase" data-source-line="79" data-uid="lnk17" id="link_MCPValidator_PlanPhase"><path codeLine="79" d="M832.98,179.93 C902.87,222.64 992.1807,277.2206 1054.4907,315.3106" fill="none" id="MCPValidator-to-PlanPhase" style="stroke:#181818;stroke-width:1;"/><polygon fill="#181818" points="1059.61,318.44,1054.0174,310.3331,1055.3439,315.8322,1049.8448,317.1587,1059.61,318.44" style="stroke:#181818;stroke-width:1;"/><text fill="#000000" font-family="sans-serif" font-size="13" lengthAdjust="spacing" textLength="28.5645" x="945.51" y="247.9884">uses</text></g><!--link MCPValidator to DoPhase--><g class="link" data-entity-1="MCPValidator" data-entity-2="DoPhase" data-source-line="80" data-uid="lnk18" id="link_MCPValidator_DoPhase"><path codeLine="80" d="M902.49,150.74 C1018.23,172.86 1176.6,208.8 1310,259.42 C1351.72,275.25 1390.6739,295.6 1425.3839,315.64" fill="none" id="MCPValidator-to-DoPhase" style="stroke:#181818;stroke-width:1;"/><polygon fill="#181818" points="1430.58,318.64,1424.7858,310.6759,1426.2499,316.14,1420.7858,317.6041,1430.58,318.64" style="stroke:#181818;stroke-width:1;"/><text fill="#000000" font-family="sans-serif" font-size="13" lengthAdjust="spacing" textLength="28.5645" x="1281.46" y="247.9884">uses</text></g><!--link MCPValidator to CheckPhase--><g class="link" data-entity-1="MCPValidator" data-entity-2="CheckPhase" data-source-line="81" data-uid="lnk19" id="link_MCPValidator_CheckPhase"><path codeLine="81" d="M902.27,130.05 C1092.47,141.37 1416.12,172.74 1680,259.42 C1723.43,273.69 1763.5875,294.6756 1798.4975,315.5056" fill="none" id="MCPValidator-to-CheckPhase" style="stroke:#181818;stroke-width:1;"/><polygon fill="#181818" points="1803.65,318.58,1797.9708,310.5334,1799.3563,316.018,1793.8717,317.4034,1803.65,318.58" style="stroke:#181818;stroke-width:1;"/><text fill="#000000" font-family="sans-serif" font-size="13" lengthAdjust="spacing" textLength="28.5645" x="1632.31" y="247.9884">uses</text></g><!--link MCPValidator to AdjustPhase--><g class="link" data-entity-1="MCPValidator" data-entity-2="AdjustPhase" data-source-line="82" data-uid="lnk20" id="link_MCPValidator_AdjustPhase"><path codeLine="82" d="M902.39,132.64 C1203.48,150.59 1839.4,194.9 2050,259.42 C2094.23,272.97 2134.9787,294.3304 2169.9787,315.5404" fill="none" id="MCPValidator-to-AdjustPhase" style="stroke:#181818;stroke-width:1;"/><polygon fill="#181818" points="2175.11,318.65,2169.4861,310.5647,2170.8339,316.0587,2165.34,317.4065,2175.11,318.65" style="stroke:#181818;stroke-width:1;"/><text fill="#000000" font-family="sans-serif" font-size="13" lengthAdjust="spacing" textLength="28.5645" x="2013.96" y="247.9884">uses</text></g><!--link MCPValidator to ValidationHandler--><g class="link" data-entity-1="MCPValidator" data-entity-2="ValidationHandler" data-source-line="83" data-uid="lnk21" id="link_MCPValidator_ValidationHandler"><path codeLine="83" d="M902.55,130.03 C1265.06,145.31 2133.75,188.31 2418,259.42 C2457.77,269.37 2493.9447,283.1161 2530.6047,299.5461" fill="none" id="MCPValidator-to-ValidationHandler" style="stroke:#181818;stroke-width:1;"/><polygon fill="#181818" points="2536.08,302,2529.503,294.669,2531.5173,299.9551,2526.2312,301.9694,2536.08,302" style="stroke:#181818;stroke-width:1;"/><text fill="#000000" font-family="sans-serif" font-size="13" lengthAdjust="spacing" textLength="28.5645" x="2371.05" y="247.9884">uses</text></g><!--link ValidationHandler to BFG9KTargeter--><g class="link" data-entity-1="ValidationHandler" data-entity-2="BFG9KTargeter" data-source-line="84" data-uid="lnk22" id="link_ValidationHandler_BFG9KTargeter"><path codeLine="84" d="M2652.78,416.71 C2655.8,441.77 2658.5911,465.0132 2661.4911,489.0432" fill="none" id="ValidationHandler-to-BFG9KTargeter" style="stroke:#181818;stroke-width:1;"/><polygon fill="#181818" points="2662.21,495,2665.1029,485.5856,2661.6109,490.036,2657.1605,486.5441,2662.21,495" style="stroke:#181818;stroke-width:1;"/><text fill="#000000" font-family="sans-serif" font-size="13" lengthAdjust="spacing" textLength="28.5645" x="2659.32" y="461.9484">uses</text></g><!--SRC=[jLNDRkCW4BxdAL0lTTNc0Uh3Ibadkv4sKQrarKkrYWYUE6m8U057jLPzzyKchG7_xAaSB3ppySqmVzoYH4WmdtCXE72j9WKc9vm3kbadAOhM8WDcr5p3gqQf55eGmUvkqDy9Ceimh1Goo6VCQ8Qra5T5lUulLWYx_I5_F4N4iiHeJeb-KLe-e1clVjt5Q2y4wnvRKf1OacCL3KAsSCPSKw968CjPilBKRytNzz_Sy41prtbYuX8tqR6wLeCpN6YGAaQpwov4d44RaCOnMbzt8OA9FASyZz7ARXnznxtMXvxWKi5ZzFon3-sqg4t9GBdGHZ1cDsHrhGF7UmPP67G9Vqeg8JrY1Kyo0pa0IDvBeLUx1Na1QOs6a4nMcvA7qhqfsh9O33XbR-vNtV-kx4J7lRVnMvZSLLijIwBBkaIUGb6OWwAEnk8LI6cpbNh_NWRU9ct_fVDaXfAACF2xBMMODnHUFXew6EcndklNQxhxwDB248ytobnyYk5CZ9jDZa1EdsAPrCpZncVPxrBfJx6E6-h0l2c1MxGjYq98RGP3xsXkozGlZLQ-n3nZq3kDexeVma7mWEoyCgw6azHnM59rYaRqoiH4KbsDOxYYcbvCset5yTX__VRzySTFB7FG_bqo8o1wfnkLYioybUOHS6D-O0BhEWqhglIBvMYJS9y3Du-BSGSOFLFUnC4sWEMCaJrY21OjecwzJWcu555DqJdIa-0Di4QjZhHG4-y1dKw_E2zIZ4e5FOXs2WmXtfjrIEzqrH34hVqXJBVchiYkeeRxARr2_m40]--></g></svg>