<svg xmlns="http://www.w3.org/2000/svg" xmlns:xlink="http://www.w3.org/1999/xlink" contentStyleType="text/css" data-diagram-type="DESCRIPTION" height="604px" preserveAspectRatio="none" style="width:527px;height:604px;background:#FFFFFF;" version="1.1" viewBox="0 0 527 604" width="527px" zoomAndPan="magnify"><defs/><g><!--cluster BFG9K System--><g class="cluster" data-entity="BFG9K System" data-source-line="63" data-uid="ent0002" id="cluster_BFG9K System"><path d="M8.5,6 L112.1143,6 A3.75,3.75 0 0 1 114.6143,8.5 L121.6143,28.4883 L487.5,28.4883 A2.5,2.5 0 0 1 490,30.9883 L490,594.94 A2.5,2.5 0 0 1 487.5,597.44 L8.5,597.44 A2.5,2.5 0 0 1 6,594.94 L6,8.5 A2.5,2.5 0 0 1 8.5,6" fill="none" style="stroke:#000000;stroke-width:1.5;"/><line style="stroke:#000000;stroke-width:1.5;" x1="6" x2="121.6143" y1="28.4883" y2="28.4883"/><text fill="#000000" font-family="sans-serif" font-size="14" font-weight="bold" lengthAdjust="spacing" textLength="102.6143" x="10" y="21.5352">BFG9K System</text></g><!--entity Pattern--><g class="entity" data-entity="Pattern" data-source-line="64" data-uid="ent0003" id="entity_Pattern"><rect fill="#F1F1F1" height="46.4883" rx="2.5" ry="2.5" style="stroke:#181818;stroke-width:0.5;" width="131.8271" x="140.09" y="411.46"/><rect fill="#F1F1F1" height="10" style="stroke:#181818;stroke-width:0.5;" width="15" x="251.9171" y="416.46"/><rect fill="#F1F1F1" height="2" style="stroke:#181818;stroke-width:0.5;" width="4" x="249.9171" y="418.46"/><rect fill="#F1F1F1" height="2" style="stroke:#181818;stroke-width:0.5;" width="4" x="249.9171" y="422.46"/><text fill="#000000" font-family="sans-serif" font-size="14" lengthAdjust="spacing" textLength="91.8271" x="155.09" y="444.9952">BFG9KPattern</text></g><!--entity MCP--><g class="entity" data-entity="MCP" data-source-line="65" data-uid="ent0004" id="entity_MCP"><rect fill="#F1F1F1" height="46.4883" rx="2.5" ry="2.5" style="stroke:#181818;stroke-width:0.5;" width="169.3428" x="22.33" y="164.49"/><rect fill="#F1F1F1" height="10" style="stroke:#181818;stroke-width:0.5;" width="15" x="171.6728" y="169.49"/><rect fill="#F1F1F1" height="2" style="stroke:#181818;stroke-width:0.5;" width="4" x="169.6728" y="171.49"/><rect fill="#F1F1F1" height="2" style="stroke:#181818;stroke-width:0.5;" width="4" x="169.6728" y="175.49"/><text fill="#000000" font-family="sans-serif" font-size="14" lengthAdjust="spacing" textLength="129.3428" x="37.33" y="198.0252">BFG9K MCP Service</text></g><!--entity Manager--><g class="entity" data-entity="Manager" data-source-line="66" data-uid="ent0005" id="entity_Manager"><rect fill="#F1F1F1" height="46.4883" rx="2.5" ry="2.5" style="stroke:#181818;stroke-width:0.5;" width="146.5654" x="243.72" y="287.98"/><rect fill="#F1F1F1" height="10" style="stroke:#181818;stroke-width:0.5;" width="15" x="370.2854" y="292.98"/><rect fill="#F1F1F1" height="2" style="stroke:#181818;stroke-width:0.5;" width="4" x="368.2854" y="294.98"/><rect fill="#F1F1F1" height="2" style="stroke:#181818;stroke-width:0.5;" width="4" x="368.2854" y="298.98"/><text fill="#000000" font-family="sans-serif" font-size="14" lengthAdjust="spacing" textLength="106.5654" x="258.72" y="321.5152">BFG9K Manager</text></g><!--entity Artillery--><g class="entity" data-entity="Artillery" data-source-line="67" data-uid="ent0006" id="entity_Artillery"><rect fill="#F1F1F1" height="46.4883" rx="2.5" ry="2.5" style="stroke:#181818;stroke-width:0.5;" width="210.3174" x="226.84" y="164.49"/><rect fill="#F1F1F1" height="10" style="stroke:#181818;stroke-width:0.5;" width="15" x="417.1574" y="169.49"/><rect fill="#F1F1F1" height="2" style="stroke:#181818;stroke-width:0.5;" width="4" x="415.1574" y="171.49"/><rect fill="#F1F1F1" height="2" style="stroke:#181818;stroke-width:0.5;" width="4" x="415.1574" y="175.49"/><text fill="#000000" font-family="sans-serif" font-size="14" lengthAdjust="spacing" textLength="170.3174" x="241.84" y="198.0252">Artillery &amp; Prompt Helper</text></g><!--entity Logs--><g class="entity" data-entity="Logs" data-source-line="68" data-uid="ent0007" id="entity_Logs"><rect fill="#F1F1F1" height="46.4883" rx="2.5" ry="2.5" style="stroke:#181818;stroke-width:0.5;" width="176.042" x="69.98" y="534.95"/><rect fill="#F1F1F1" height="10" style="stroke:#181818;stroke-width:0.5;" width="15" x="226.022" y="539.95"/><rect fill="#F1F1F1" height="2" style="stroke:#181818;stroke-width:0.5;" width="4" x="224.022" y="541.95"/><rect fill="#F1F1F1" height="2" style="stroke:#181818;stroke-width:0.5;" width="4" x="224.022" y="545.95"/><text fill="#000000" font-family="sans-serif" font-size="14" lengthAdjust="spacing" textLength="136.042" x="84.98" y="568.4852">Test Logs &amp; Configs</text></g><!--entity Docs--><g class="entity" data-entity="Docs" data-source-line="69" data-uid="ent0008" id="entity_Docs"><rect fill="#F1F1F1" height="46.4883" rx="2.5" ry="2.5" style="stroke:#181818;stroke-width:0.5;" width="144.043" x="259.98" y="41"/><rect fill="#F1F1F1" height="10" style="stroke:#181818;stroke-width:0.5;" width="15" x="384.023" y="46"/><rect fill="#F1F1F1" height="2" style="stroke:#181818;stroke-width:0.5;" width="4" x="382.023" y="48"/><rect fill="#F1F1F1" height="2" style="stroke:#181818;stroke-width:0.5;" width="4" x="382.023" y="52"/><text fill="#000000" font-family="sans-serif" font-size="14" lengthAdjust="spacing" textLength="104.043" x="274.98" y="74.5352">Documentation</text></g><!--link Artillery to Manager--><g class="link" data-entity-1="Artillery" data-entity-2="Manager" data-source-line="72" data-uid="lnk9" id="link_Artillery_Manager"><path d="M285.06,211.24 C273.85,219.01 263.32,228.88 257,240.98 C247.94,258.32 256.6788,271.3289 273.1488,283.9589" fill="none" id="Artillery-to-Manager" style="stroke:#181818;stroke-width:1;"/><polygon fill="#181818" points="277.91,287.61,273.2023,278.9592,273.9423,284.5674,268.3341,285.3074,277.91,287.61" style="stroke:#181818;stroke-width:1;"/><text fill="#000000" font-family="sans-serif" font-size="13" lengthAdjust="spacing" textLength="101.7847" x="258" y="254.5484">setup/configure</text></g><!--link Manager to Pattern--><g class="link" data-entity-1="Manager" data-entity-2="Pattern" data-source-line="73" data-uid="lnk10" id="link_Manager_Pattern"><path d="M296.38,334.79 C276.44,356.61 250.4572,385.0505 230.5572,406.8305" fill="none" id="Manager-to-Pattern" style="stroke:#181818;stroke-width:1;"/><polygon fill="#181818" points="226.51,411.26,235.5337,407.3139,229.8826,407.5687,229.6277,401.9176,226.51,411.26" style="stroke:#181818;stroke-width:1;"/><text fill="#000000" font-family="sans-serif" font-size="13" lengthAdjust="spacing" textLength="77.9937" x="269.15" y="378.0284">orchestrates</text></g><!--link MCP to Pattern--><g class="link" data-entity-1="MCP" data-entity-2="Pattern" data-source-line="74" data-uid="lnk11" id="link_MCP_Pattern"><path d="M102.36,211.43 C97.41,241.19 92.58,294.32 111,334.46 C119.27,352.48 130.04,350.39 144,364.46 C158.89,379.47 170.8472,392.7187 182.8072,406.4987" fill="none" id="MCP-to-Pattern" style="stroke:#181818;stroke-width:1;"/><polygon fill="#181818" points="186.74,411.03,183.8616,401.6111,183.4626,407.2539,177.8199,406.8549,186.74,411.03" style="stroke:#181818;stroke-width:1;"/><text fill="#000000" font-family="sans-serif" font-size="13" lengthAdjust="spacing" textLength="113.5786" x="112" y="316.2884">invokes validation</text></g><!--link MCP to Manager--><g class="link" data-entity-1="MCP" data-entity-2="Manager" data-source-line="75" data-uid="lnk12" id="link_MCP_Manager"><path d="M113.94,211.37 C119.7,226.58 129.35,245.96 144,257.98 C159.71,270.85 197.9787,282.6165 237.7087,292.5365" fill="none" id="MCP-to-Manager" style="stroke:#181818;stroke-width:1;"/><polygon fill="#181818" points="243.53,293.99,235.7671,287.9289,238.6789,292.7788,233.8291,295.6906,243.53,293.99" style="stroke:#181818;stroke-width:1;"/><text fill="#000000" font-family="sans-serif" font-size="13" lengthAdjust="spacing" textLength="100.8896" x="145" y="254.5484">uses config/env</text></g><!--link Pattern to Logs--><g class="link" data-entity-1="Pattern" data-entity-2="Logs" data-source-line="76" data-uid="lnk13" id="link_Pattern_Logs"><path d="M197.08,458.27 C188.46,480.1 177.6736,507.3893 169.0736,529.1693" fill="none" id="Pattern-to-Logs" style="stroke:#181818;stroke-width:1;"/><polygon fill="#181818" points="166.87,534.75,173.8958,527.848,168.7063,530.0994,166.4549,524.9099,166.87,534.75" style="stroke:#181818;stroke-width:1;"/><text fill="#000000" font-family="sans-serif" font-size="13" lengthAdjust="spacing" textLength="84.4429" x="185.87" y="501.5184">writes results</text></g><!--link MCP to Logs--><g class="link" data-entity-1="MCP" data-entity-2="Logs" data-source-line="77" data-uid="lnk14" id="link_MCP_Logs"><path d="M91.86,211.23 C69.62,247.15 32.53,319.68 50,381.46 C67.2,442.28 108.2,498.1431 134.38,529.8531" fill="none" id="MCP-to-Logs" style="stroke:#181818;stroke-width:1;"/><polygon fill="#181818" points="138.2,534.48,135.5546,524.9931,135.0167,530.6243,129.3855,530.0864,138.2,534.48" style="stroke:#181818;stroke-width:1;"/><text fill="#000000" font-family="sans-serif" font-size="13" lengthAdjust="spacing" textLength="84.4429" x="51" y="378.0284">writes results</text></g><!--link Docs to Pattern--><g class="link" data-entity-1="Docs" data-entity-2="Pattern" data-source-line="78" data-uid="lnk15" id="link_Docs_Pattern"><path d="M370.26,87.98 C383.64,96.58 398.44,106.88 411,117.49 C432.86,135.95 444.49,137.87 455,164.49 C462.59,183.7 458.74,190.65 455,210.98 C439.11,297.37 430.73,336.95 355,381.46 C329.48,396.46 304.6918,406.304 277.9518,414.744" fill="none" id="Docs-to-Pattern" style="stroke:#181818;stroke-width:1;stroke-dasharray:7.0,7.0;"/><polygon fill="#181818" points="272.23,416.55,282.0166,417.6555,276.9981,415.045,279.6087,410.0265,272.23,416.55" style="stroke:#181818;stroke-width:1;"/><text fill="#000000" font-family="sans-serif" font-size="13" lengthAdjust="spacing" textLength="69.8306" x="449.99" y="254.5484">documents</text></g><!--link Docs to MCP--><g class="link" data-entity-1="Docs" data-entity-2="MCP" data-source-line="79" data-uid="lnk16" id="link_Docs_MCP"><path d="M289.94,87.95 C249.62,109.72 194.3797,139.5496 154.1297,161.2796" fill="none" id="Docs-to-MCP" style="stroke:#181818;stroke-width:1;stroke-dasharray:7.0,7.0;"/><polygon fill="#181818" points="148.85,164.13,158.6698,163.3742,153.2498,161.7547,154.8693,156.3346,148.85,164.13" style="stroke:#181818;stroke-width:1;"/><text fill="#000000" font-family="sans-serif" font-size="13" lengthAdjust="spacing" textLength="69.8306" x="233.97" y="131.0584">documents</text></g><!--link Docs to Artillery--><g class="link" data-entity-1="Docs" data-entity-2="Artillery" data-source-line="80" data-uid="lnk17" id="link_Docs_Artillery"><path d="M332,87.81 C332,109.63 332,136.51 332,158.29" fill="none" id="Docs-to-Artillery" style="stroke:#181818;stroke-width:1;stroke-dasharray:7.0,7.0;"/><polygon fill="#181818" points="332,164.29,336,155.29,332,159.29,328,155.29,332,164.29" style="stroke:#181818;stroke-width:1;"/><text fill="#000000" font-family="sans-serif" font-size="13" lengthAdjust="spacing" textLength="69.8306" x="333" y="131.0584">documents</text></g><!--SRC=[RP1DImCn48Rl-HL33zxQdkr1q8eAAYpKctW8wRY6PfDbPh9InFzkalqKUilEy-oyUTDgSz8rmkhkuV7w6Gvd5cnMyAC0tikeqY98_WCqmt2U6BpkApWWTTPW4TBt0cgVDbCF-dE6joJMEQGpN455eMa5dj2rWpZHhBuX2xo4cfEw3_xJrboaFChyFfZOe1SjDlGtJ1DMlqhD8UlrpPWEEs2Ks6vDsHK9rKYoDRHBLY3pbQ992xBA7VzZwxjmGePEEtiisPCq9qLEHX-qHT-fyVTibKex-2QR0e2GevCvw3BDpM2pMTxZEDHVmBpZ8fWVP8d_0000]--></g></svg>