<svg xmlns="http://www.w3.org/2000/svg" xmlns:xlink="http://www.w3.org/1999/xlink" contentStyleType="text/css" data-diagram-type="SEQUENCE" height="416px" preserveAspectRatio="none" style="width:650px;height:416px;background:#FFFFFF;" version="1.1" viewBox="0 0 650 416" width="650px" zoomAndPan="magnify"><defs/><g><g><title>LLM Test</title><rect fill="#FFFFFF" height="205.1738" style="stroke:#181818;stroke-width:1;" width="10" x="147.3345" y="112.7988"/></g><g><title>BFG9K Validator</title><rect fill="#FFFFFF" height="29.3105" style="stroke:#181818;stroke-width:1;" width="10" x="289.0181" y="142.1094"/></g><g><title>Telemetry Collector</title><rect fill="#FFFFFF" height="29.3105" style="stroke:#181818;stroke-width:1;" width="10" x="434.1064" y="200.7305"/></g><g><title>Issue Eliminator</title><rect fill="#FFFFFF" height="29.3105" style="stroke:#181818;stroke-width:1;" width="10" x="578.6069" y="259.3516"/></g><g><title>Test Runner</title><rect fill="#000000" fill-opacity="0.00000" height="254.4844" width="8" x="44.9507" y="81.4883"/><line style="stroke:#181818;stroke-width:0.5;stroke-dasharray:5.0,5.0;" x1="48" x2="48" y1="81.4883" y2="335.9727"/></g><g><title>LLM Test</title><rect fill="#000000" fill-opacity="0.00000" height="254.4844" width="8" x="148.3345" y="81.4883"/><line style="stroke:#181818;stroke-width:0.5;stroke-dasharray:5.0,5.0;" x1="152.1128" x2="152.1128" y1="81.4883" y2="335.9727"/></g><g><title>BFG9K Validator</title><rect fill="#000000" fill-opacity="0.00000" height="254.4844" width="8" x="290.0181" y="81.4883"/><line style="stroke:#181818;stroke-width:0.5;stroke-dasharray:5.0,5.0;" x1="293.4263" x2="293.4263" y1="81.4883" y2="335.9727"/></g><g><title>Telemetry Collector</title><rect fill="#000000" fill-opacity="0.00000" height="254.4844" width="8" x="435.1064" y="81.4883"/><line style="stroke:#181818;stroke-width:0.5;stroke-dasharray:5.0,5.0;" x1="438.6099" x2="438.6099" y1="81.4883" y2="335.9727"/></g><g><title>Issue Eliminator</title><rect fill="#000000" fill-opacity="0.00000" height="254.4844" width="8" x="579.6069" y="81.4883"/><line style="stroke:#181818;stroke-width:0.5;stroke-dasharray:5.0,5.0;" x1="583.603" x2="583.603" y1="81.4883" y2="335.9727"/></g><g class="participant participant-head" data-participant="TR"><text fill="#000000" font-family="sans-serif" font-size="14" lengthAdjust="spacing" textLength="81.9014" x="5" y="78.5352">Test Runner</text><ellipse cx="48.9507" cy="13.5" fill="#E2E2F0" rx="8" ry="8" style="stroke:#181818;stroke-width:0.5;"/><path d="M48.9507,21.5 L48.9507,48.5 M35.9507,29.5 L61.9507,29.5 M48.9507,48.5 L35.9507,63.5 M48.9507,48.5 L61.9507,63.5" fill="none" style="stroke:#181818;stroke-width:0.5;"/></g><g class="participant participant-tail" data-participant="TR"><text fill="#000000" font-family="sans-serif" font-size="14" lengthAdjust="spacing" textLength="81.9014" x="5" y="348.5078">Test Runner</text><ellipse cx="48.9507" cy="359.9609" fill="#E2E2F0" rx="8" ry="8" style="stroke:#181818;stroke-width:0.5;"/><path d="M48.9507,367.9609 L48.9507,394.9609 M35.9507,375.9609 L61.9507,375.9609 M48.9507,394.9609 L35.9507,409.9609 M48.9507,394.9609 L61.9507,409.9609" fill="none" style="stroke:#181818;stroke-width:0.5;"/></g><g class="participant participant-head" data-participant="LT"><rect fill="#E2E2F0" height="30.4883" rx="2.5" ry="2.5" style="stroke:#181818;stroke-width:0.5;" width="74.4434" x="115.1128" y="50"/><text fill="#000000" font-family="sans-serif" font-size="14" lengthAdjust="spacing" textLength="60.4434" x="122.1128" y="70.5352">LLM Test</text></g><g class="participant participant-tail" data-participant="LT"><rect fill="#E2E2F0" height="30.4883" rx="2.5" ry="2.5" style="stroke:#181818;stroke-width:0.5;" width="74.4434" x="115.1128" y="334.9727"/><text fill="#000000" font-family="sans-serif" font-size="14" lengthAdjust="spacing" textLength="60.4434" x="122.1128" y="355.5078">LLM Test</text></g><g class="participant participant-head" data-participant="BV"><rect fill="#E2E2F0" height="30.4883" rx="2.5" ry="2.5" style="stroke:#181818;stroke-width:0.5;" width="123.1836" x="232.4263" y="50"/><text fill="#000000" font-family="sans-serif" font-size="14" lengthAdjust="spacing" textLength="109.1836" x="239.4263" y="70.5352">BFG9K Validator</text></g><g class="participant participant-tail" data-participant="BV"><rect fill="#E2E2F0" height="30.4883" rx="2.5" ry="2.5" style="stroke:#181818;stroke-width:0.5;" width="123.1836" x="232.4263" y="334.9727"/><text fill="#000000" font-family="sans-serif" font-size="14" lengthAdjust="spacing" textLength="109.1836" x="239.4263" y="355.5078">BFG9K Validator</text></g><g class="participant participant-head" data-participant="TC"><rect fill="#E2E2F0" height="30.4883" rx="2.5" ry="2.5" style="stroke:#181818;stroke-width:0.5;" width="146.9932" x="365.6099" y="50"/><text fill="#000000" font-family="sans-serif" font-size="14" lengthAdjust="spacing" textLength="132.9932" x="372.6099" y="70.5352">Telemetry Collector</text></g><g class="participant participant-tail" data-participant="TC"><rect fill="#E2E2F0" height="30.4883" rx="2.5" ry="2.5" style="stroke:#181818;stroke-width:0.5;" width="146.9932" x="365.6099" y="334.9727"/><text fill="#000000" font-family="sans-serif" font-size="14" lengthAdjust="spacing" textLength="132.9932" x="372.6099" y="355.5078">Telemetry Collector</text></g><g class="participant participant-head" data-participant="IE"><rect fill="#E2E2F0" height="30.4883" rx="2.5" ry="2.5" style="stroke:#181818;stroke-width:0.5;" width="122.0078" x="522.603" y="50"/><text fill="#000000" font-family="sans-serif" font-size="14" lengthAdjust="spacing" textLength="108.0078" x="529.603" y="70.5352">Issue Eliminator</text></g><g class="participant participant-tail" data-participant="IE"><rect fill="#E2E2F0" height="30.4883" rx="2.5" ry="2.5" style="stroke:#181818;stroke-width:0.5;" width="122.0078" x="522.603" y="334.9727"/><text fill="#000000" font-family="sans-serif" font-size="14" lengthAdjust="spacing" textLength="108.0078" x="529.603" y="355.5078">Issue Eliminator</text></g><g><title>LLM Test</title><rect fill="#FFFFFF" height="205.1738" style="stroke:#181818;stroke-width:1;" width="10" x="147.3345" y="112.7988"/></g><g><title>BFG9K Validator</title><rect fill="#FFFFFF" height="29.3105" style="stroke:#181818;stroke-width:1;" width="10" x="289.0181" y="142.1094"/></g><g><title>Telemetry Collector</title><rect fill="#FFFFFF" height="29.3105" style="stroke:#181818;stroke-width:1;" width="10" x="434.1064" y="200.7305"/></g><g><title>Issue Eliminator</title><rect fill="#FFFFFF" height="29.3105" style="stroke:#181818;stroke-width:1;" width="10" x="578.6069" y="259.3516"/></g><g class="message" data-participant-1="TR" data-participant-2="LT"><polygon fill="#181818" points="135.3345,108.7988,145.3345,112.7988,135.3345,116.7988,139.3345,112.7988" style="stroke:#181818;stroke-width:1;"/><line style="stroke:#181818;stroke-width:1;" x1="48.9507" x2="141.3345" y1="112.7988" y2="112.7988"/><text fill="#000000" font-family="sans-serif" font-size="13" lengthAdjust="spacing" textLength="79.3838" x="55.9507" y="108.0566">execute_test</text></g><g class="message" data-participant-1="LT" data-participant-2="BV"><polygon fill="#181818" points="277.0181,138.1094,287.0181,142.1094,277.0181,146.1094,281.0181,142.1094" style="stroke:#181818;stroke-width:1;"/><line style="stroke:#181818;stroke-width:1;" x1="157.3345" x2="283.0181" y1="142.1094" y2="142.1094"/><text fill="#000000" font-family="sans-serif" font-size="13" lengthAdjust="spacing" textLength="112.6836" x="164.3345" y="137.3672">validate_response</text></g><g class="message" data-participant-1="BV" data-participant-2="LT"><polygon fill="#181818" points="168.3345,167.4199,158.3345,171.4199,168.3345,175.4199,164.3345,171.4199" style="stroke:#181818;stroke-width:1;"/><line style="stroke:#181818;stroke-width:1;stroke-dasharray:2.0,2.0;" x1="162.3345" x2="293.0181" y1="171.4199" y2="171.4199"/><text fill="#000000" font-family="sans-serif" font-size="13" lengthAdjust="spacing" textLength="103.835" x="174.3345" y="166.6777">validation_result</text></g><g class="message" data-participant-1="LT" data-participant-2="TC"><polygon fill="#181818" points="422.1064,196.7305,432.1064,200.7305,422.1064,204.7305,426.1064,200.7305" style="stroke:#181818;stroke-width:1;"/><line style="stroke:#181818;stroke-width:1;" x1="157.3345" x2="428.1064" y1="200.7305" y2="200.7305"/><text fill="#000000" font-family="sans-serif" font-size="13" lengthAdjust="spacing" textLength="106.8818" x="164.3345" y="195.9883">collect_telemetry</text></g><g class="message" data-participant-1="TC" data-participant-2="LT"><polygon fill="#181818" points="168.3345,226.041,158.3345,230.041,168.3345,234.041,164.3345,230.041" style="stroke:#181818;stroke-width:1;"/><line style="stroke:#181818;stroke-width:1;stroke-dasharray:2.0,2.0;" x1="162.3345" x2="438.1064" y1="230.041" y2="230.041"/><text fill="#000000" font-family="sans-serif" font-size="13" lengthAdjust="spacing" textLength="93.3613" x="174.3345" y="225.2988">telemetry_data</text></g><g class="message" data-participant-1="LT" data-participant-2="IE"><polygon fill="#181818" points="566.6069,255.3516,576.6069,259.3516,566.6069,263.3516,570.6069,259.3516" style="stroke:#181818;stroke-width:1;"/><line style="stroke:#181818;stroke-width:1;" x1="157.3345" x2="572.6069" y1="259.3516" y2="259.3516"/><text fill="#000000" font-family="sans-serif" font-size="13" lengthAdjust="spacing" textLength="96.8271" x="164.3345" y="254.6094">eliminate_issue</text></g><g class="message" data-participant-1="IE" data-participant-2="LT"><polygon fill="#181818" points="168.3345,284.6621,158.3345,288.6621,168.3345,292.6621,164.3345,288.6621" style="stroke:#181818;stroke-width:1;"/><line style="stroke:#181818;stroke-width:1;stroke-dasharray:2.0,2.0;" x1="162.3345" x2="582.6069" y1="288.6621" y2="288.6621"/><text fill="#000000" font-family="sans-serif" font-size="13" lengthAdjust="spacing" textLength="112.9502" x="174.3345" y="283.9199">elimination_result</text></g><g class="message" data-participant-1="LT" data-participant-2="TR"><polygon fill="#181818" points="59.9507,313.9727,49.9507,317.9727,59.9507,321.9727,55.9507,317.9727" style="stroke:#181818;stroke-width:1;"/><line style="stroke:#181818;stroke-width:1;stroke-dasharray:2.0,2.0;" x1="53.9507" x2="151.3345" y1="317.9727" y2="317.9727"/><text fill="#000000" font-family="sans-serif" font-size="13" lengthAdjust="spacing" textLength="65.9712" x="65.9507" y="313.2305">test_result</text></g><!--SRC=[RP0nZeCm44Lxds94dmDiYXGWDa9X6sJHef4pXIN787k8Tc-_Os8WIAddwVt_1msF0GfDaQ6RlQTG04RGdPemi3LsGizGjEqF96OvjlfuBB-lNpVeqTaxYcrXolx8Q7Bq80v_K8tEaLavNHsv9iQPe7RsOVqcQsgbT0UdYqJ36UYNpCmqi1HIQDW-aIcrKd8MgEm5Uhxgq10eJgEFj9FIJP3Jgika7NrYPyVgJkzijkfAMFCgBz5vpcwL9O9ireqOn8tlIW6pigdJchoL1fksxq9PBS0cNBdFFTEBaZGLxPRuo1ymUT8_]--></g></svg>