<svg xmlns="http://www.w3.org/2000/svg" xmlns:xlink="http://www.w3.org/1999/xlink" contentStyleType="text/css" data-diagram-type="CLASS" height="359px" preserveAspectRatio="none" style="width:1131px;height:359px;background:#FFFFFF;" version="1.1" viewBox="0 0 1131 359" width="1131px" zoomAndPan="magnify"><defs/><g><!--class ROOTREADME--><g class="entity" data-entity="ROOTREADME" data-source-line="7" data-uid="ent0002" id="entity_ROOTREADME"><rect fill="#F1F1F1" height="58.9766" rx="2.5" ry="2.5" style="stroke:#181818;stroke-width:0.5;" width="201.2236" x="74.44" y="7"/><ellipse cx="89.44" cy="28.4883" fill="#ADD1B2" rx="11" ry="11" style="stroke:#181818;stroke-width:1;"/><path d="M91.9131,34.6313 Q91.3321,34.9302 90.6929,35.0796 Q90.0538,35.229 89.3482,35.229 Q86.8414,35.229 85.5215,33.5771 Q84.2017,31.9253 84.2017,28.8042 Q84.2017,25.6748 85.5215,24.0229 Q86.8414,22.3711 89.3482,22.3711 Q90.0538,22.3711 90.7012,22.5205 Q91.3487,22.6699 91.9131,22.9688 L91.9131,25.6914 Q91.2823,25.1104 90.6888,24.8406 Q90.0953,24.5708 89.4644,24.5708 Q88.1197,24.5708 87.4349,25.6375 Q86.7501,26.7041 86.7501,28.8042 Q86.7501,30.896 87.4349,31.9626 Q88.1197,33.0293 89.4644,33.0293 Q90.0953,33.0293 90.6888,32.7595 Q91.2823,32.4897 91.9131,31.9087 Z " fill="#000000"/><a href="https://github.com/louspringer/ontology-framework/blob/main/README.md" target="_top" title="https://github.com/louspringer/ontology-framework/blob/main/README.md" xlink:actuate="onRequest" xlink:href="https://github.com/louspringer/ontology-framework/blob/main/README.md" xlink:show="new" xlink:title="https://github.com/louspringer/ontology-framework/blob/main/README.md" xlink:type="simple"><text fill="#0000FF" font-family="sans-serif" font-size="14" lengthAdjust="spacing" text-decoration="underline" textLength="169.2236" x="103.44" y="25.5352">Project Root README.md</text></a><a href="https://github.com/louspringer/ontology-framework/blob/main/README.md" target="_top" title="https://github.com/louspringer/ontology-framework/blob/main/README.md" xlink:actuate="onRequest" xlink:href="https://github.com/louspringer/ontology-framework/blob/main/README.md" xlink:show="new" xlink:title="https://github.com/louspringer/ontology-framework/blob/main/README.md" xlink:type="simple"><text fill="#0000FF" font-family="sans-serif" font-size="14" lengthAdjust="spacing" text-decoration="underline" textLength="82.4004" x="103.44" y="42.0234">(Entry Point)</text></a><line style="stroke:#181818;stroke-width:0.5;" x1="75.44" x2="274.6636" y1="49.9766" y2="49.9766"/><line style="stroke:#181818;stroke-width:0.5;" x1="75.44" x2="274.6636" y1="57.9766" y2="57.9766"/></g><!--class DRY--><g class="entity" data-entity="DRY" data-source-line="8" data-uid="ent0003" id="entity_DRY"><rect fill="#F1F1F1" height="58.9766" rx="2.5" ry="2.5" style="stroke:#181818;stroke-width:0.5;" width="383.7773" x="277.16" y="142.98"/><ellipse cx="292.16" cy="164.4683" fill="#ADD1B2" rx="11" ry="11" style="stroke:#181818;stroke-width:1;"/><path d="M294.6331,170.6113 Q294.0521,170.9102 293.4129,171.0596 Q292.7738,171.209 292.0682,171.209 Q289.5614,171.209 288.2415,169.5571 Q286.9217,167.9053 286.9217,164.7842 Q286.9217,161.6548 288.2415,160.0029 Q289.5614,158.3511 292.0682,158.3511 Q292.7738,158.3511 293.4212,158.5005 Q294.0687,158.6499 294.6331,158.9488 L294.6331,161.6714 Q294.0023,161.0904 293.4088,160.8206 Q292.8153,160.5508 292.1844,160.5508 Q290.8397,160.5508 290.1549,161.6175 Q289.4701,162.6841 289.4701,164.7842 Q289.4701,166.876 290.1549,167.9426 Q290.8397,169.0093 292.1844,169.0093 Q292.8153,169.0093 293.4088,168.7395 Q294.0023,168.4697 294.6331,167.8887 Z " fill="#000000"/><a href="https://github.com/louspringer/ontology-framework/blob/main/docs/architecture/BFG9K_DRY_OVERVIEW.md" target="_top" title="https://github.com/louspringer/ontology-framework/blob/main/docs/architecture/BFG9K_DRY_OVERVIEW.md" xlink:actuate="onRequest" xlink:href="https://github.com/louspringer/ontology-framework/blob/main/docs/architecture/BFG9K_DRY_OVERVIEW.md" xlink:show="new" xlink:title="https://github.com/louspringer/ontology-framework/blob/main/docs/architecture/BFG9K_DRY_OVERVIEW.md" xlink:type="simple"><text fill="#0000FF" font-family="sans-serif" font-size="14" lengthAdjust="spacing" text-decoration="underline" textLength="181.2617" x="306.16" y="161.5152">BFG9K_DRY_OVERVIEW.md</text></a><a href="https://github.com/louspringer/ontology-framework/blob/main/docs/architecture/BFG9K_DRY_OVERVIEW.md" target="_top" title="https://github.com/louspringer/ontology-framework/blob/main/docs/architecture/BFG9K_DRY_OVERVIEW.md" xlink:actuate="onRequest" xlink:href="https://github.com/louspringer/ontology-framework/blob/main/docs/architecture/BFG9K_DRY_OVERVIEW.md" xlink:show="new" xlink:title="https://github.com/louspringer/ontology-framework/blob/main/docs/architecture/BFG9K_DRY_OVERVIEW.md" xlink:type="simple"><text fill="#0000FF" font-family="sans-serif" font-size="14" lengthAdjust="spacing" text-decoration="underline" textLength="351.7773" x="306.16" y="178.0034">(DRY Scientific Overview &amp; Documentation README)</text></a><line style="stroke:#181818;stroke-width:0.5;" x1="278.16" x2="659.9373" y1="185.9566" y2="185.9566"/><line style="stroke:#181818;stroke-width:0.5;" x1="278.16" x2="659.9373" y1="193.9566" y2="193.9566"/></g><!--class SPORE--><g class="entity" data-entity="SPORE" data-source-line="9" data-uid="ent0004" id="entity_SPORE"><rect fill="#F1F1F1" height="58.9766" rx="2.5" ry="2.5" style="stroke:#181818;stroke-width:0.5;" width="238.1992" x="628.95" y="293.95"/><ellipse cx="643.95" cy="315.4383" fill="#ADD1B2" rx="11" ry="11" style="stroke:#181818;stroke-width:1;"/><path d="M646.4231,321.5813 Q645.8421,321.8802 645.2029,322.0296 Q644.5638,322.179 643.8582,322.179 Q641.3514,322.179 640.0315,320.5271 Q638.7117,318.8753 638.7117,315.7542 Q638.7117,312.6248 640.0315,310.9729 Q641.3514,309.3211 643.8582,309.3211 Q644.5638,309.3211 645.2112,309.4705 Q645.8587,309.6199 646.4231,309.9188 L646.4231,312.6414 Q645.7923,312.0604 645.1988,311.7906 Q644.6053,311.5208 643.9744,311.5208 Q642.6297,311.5208 641.9449,312.5875 Q641.2601,313.6541 641.2601,315.7542 Q641.2601,317.846 641.9449,318.9126 Q642.6297,319.9793 643.9744,319.9793 Q644.6053,319.9793 645.1988,319.7095 Q645.7923,319.4397 646.4231,318.8587 Z " fill="#000000"/><a href="https://github.com/louspringer/ontology-framework/blob/main/SPORE_CONCEPT.md" target="_top" title="https://github.com/louspringer/ontology-framework/blob/main/SPORE_CONCEPT.md" xlink:actuate="onRequest" xlink:href="https://github.com/louspringer/ontology-framework/blob/main/SPORE_CONCEPT.md" xlink:show="new" xlink:title="https://github.com/louspringer/ontology-framework/blob/main/SPORE_CONCEPT.md" xlink:type="simple"><text fill="#0000FF" font-family="sans-serif" font-size="14" lengthAdjust="spacing" text-decoration="underline" textLength="140.6768" x="657.95" y="312.4852">SPORE_CONCEPT.md</text></a><a href="https://github.com/louspringer/ontology-framework/blob/main/SPORE_CONCEPT.md" target="_top" title="https://github.com/louspringer/ontology-framework/blob/main/SPORE_CONCEPT.md" xlink:actuate="onRequest" xlink:href="https://github.com/louspringer/ontology-framework/blob/main/SPORE_CONCEPT.md" xlink:show="new" xlink:title="https://github.com/louspringer/ontology-framework/blob/main/SPORE_CONCEPT.md" xlink:type="simple"><text fill="#0000FF" font-family="sans-serif" font-size="14" lengthAdjust="spacing" text-decoration="underline" textLength="206.1992" x="657.95" y="328.9734">(Spore Concept &amp; Governance)</text></a><line style="stroke:#181818;stroke-width:0.5;" x1="629.95" x2="866.1492" y1="336.9266" y2="336.9266"/><line style="stroke:#181818;stroke-width:0.5;" x1="629.95" x2="866.1492" y1="344.9266" y2="344.9266"/></g><!--class ARCH--><g class="entity" data-entity="ARCH" data-source-line="10" data-uid="ent0005" id="entity_ARCH"><rect fill="#F1F1F1" height="58.9766" rx="2.5" ry="2.5" style="stroke:#181818;stroke-width:0.5;" width="222.1143" x="874.99" y="142.98"/><ellipse cx="889.99" cy="164.4683" fill="#ADD1B2" rx="11" ry="11" style="stroke:#181818;stroke-width:1;"/><path d="M892.4631,170.6113 Q891.8821,170.9102 891.2429,171.0596 Q890.6038,171.209 889.8982,171.209 Q887.3914,171.209 886.0715,169.5571 Q884.7517,167.9053 884.7517,164.7842 Q884.7517,161.6548 886.0715,160.0029 Q887.3914,158.3511 889.8982,158.3511 Q890.6038,158.3511 891.2512,158.5005 Q891.8987,158.6499 892.4631,158.9488 L892.4631,161.6714 Q891.8323,161.0904 891.2388,160.8206 Q890.6453,160.5508 890.0144,160.5508 Q888.6697,160.5508 887.9849,161.6175 Q887.3001,162.6841 887.3001,164.7842 Q887.3001,166.876 887.9849,167.9426 Q888.6697,169.0093 890.0144,169.0093 Q890.6453,169.0093 891.2388,168.7395 Q891.8323,168.4697 892.4631,167.8887 Z " fill="#000000"/><a href="https://github.com/louspringer/ontology-framework/blob/main/docs/architecture/bfg9k_mcp_architecture.md" target="_top" title="https://github.com/louspringer/ontology-framework/blob/main/docs/architecture/bfg9k_mcp_architecture.md" xlink:actuate="onRequest" xlink:href="https://github.com/louspringer/ontology-framework/blob/main/docs/architecture/bfg9k_mcp_architecture.md" xlink:show="new" xlink:title="https://github.com/louspringer/ontology-framework/blob/main/docs/architecture/bfg9k_mcp_architecture.md" xlink:type="simple"><text fill="#0000FF" font-family="sans-serif" font-size="14" lengthAdjust="spacing" text-decoration="underline" textLength="190.1143" x="903.99" y="161.5152">bfg9k_mcp_architecture.md</text></a><a href="https://github.com/louspringer/ontology-framework/blob/main/docs/architecture/bfg9k_mcp_architecture.md" target="_top" title="https://github.com/louspringer/ontology-framework/blob/main/docs/architecture/bfg9k_mcp_architecture.md" xlink:actuate="onRequest" xlink:href="https://github.com/louspringer/ontology-framework/blob/main/docs/architecture/bfg9k_mcp_architecture.md" xlink:show="new" xlink:title="https://github.com/louspringer/ontology-framework/blob/main/docs/architecture/bfg9k_mcp_architecture.md" xlink:type="simple"><text fill="#0000FF" font-family="sans-serif" font-size="14" lengthAdjust="spacing" text-decoration="underline" textLength="188.2617" x="903.99" y="178.0034">(MCP &amp; BFG9K Architecture)</text></a><line style="stroke:#181818;stroke-width:0.5;" x1="875.99" x2="1096.1043" y1="185.9566" y2="185.9566"/><line style="stroke:#181818;stroke-width:0.5;" x1="875.99" x2="1096.1043" y1="193.9566" y2="193.9566"/></g><!--class MCPVAL--><g class="entity" data-entity="MCPVAL" data-source-line="11" data-uid="ent0006" id="entity_MCPVAL"><rect fill="#F1F1F1" height="58.9766" rx="2.5" ry="2.5" style="stroke:#181818;stroke-width:0.5;" width="221.957" x="902.07" y="293.95"/><ellipse cx="917.07" cy="315.4383" fill="#ADD1B2" rx="11" ry="11" style="stroke:#181818;stroke-width:1;"/><path d="M919.5431,321.5813 Q918.9621,321.8802 918.3229,322.0296 Q917.6838,322.179 916.9782,322.179 Q914.4714,322.179 913.1515,320.5271 Q911.8317,318.8753 911.8317,315.7542 Q911.8317,312.6248 913.1515,310.9729 Q914.4714,309.3211 916.9782,309.3211 Q917.6838,309.3211 918.3312,309.4705 Q918.9787,309.6199 919.5431,309.9188 L919.5431,312.6414 Q918.9123,312.0604 918.3188,311.7906 Q917.7253,311.5208 917.0944,311.5208 Q915.7497,311.5208 915.0649,312.5875 Q914.3801,313.6541 914.3801,315.7542 Q914.3801,317.846 915.0649,318.9126 Q915.7497,319.9793 917.0944,319.9793 Q917.7253,319.9793 918.3188,319.7095 Q918.9123,319.4397 919.5431,318.8587 Z " fill="#000000"/><a href="https://github.com/louspringer/ontology-framework/blob/main/docs/architecture/mcp_validator_structure.md" target="_top" title="https://github.com/louspringer/ontology-framework/blob/main/docs/architecture/mcp_validator_structure.md" xlink:actuate="onRequest" xlink:href="https://github.com/louspringer/ontology-framework/blob/main/docs/architecture/mcp_validator_structure.md" xlink:show="new" xlink:title="https://github.com/louspringer/ontology-framework/blob/main/docs/architecture/mcp_validator_structure.md" xlink:type="simple"><text fill="#0000FF" font-family="sans-serif" font-size="14" lengthAdjust="spacing" text-decoration="underline" textLength="189.957" x="931.07" y="312.4852">mcp_validator_structure.md</text></a><a href="https://github.com/louspringer/ontology-framework/blob/main/docs/architecture/mcp_validator_structure.md" target="_top" title="https://github.com/louspringer/ontology-framework/blob/main/docs/architecture/mcp_validator_structure.md" xlink:actuate="onRequest" xlink:href="https://github.com/louspringer/ontology-framework/blob/main/docs/architecture/mcp_validator_structure.md" xlink:show="new" xlink:title="https://github.com/louspringer/ontology-framework/blob/main/docs/architecture/mcp_validator_structure.md" xlink:type="simple"><text fill="#0000FF" font-family="sans-serif" font-size="14" lengthAdjust="spacing" text-decoration="underline" textLength="170.3516" x="931.07" y="328.9734">(MCP Validator Structure)</text></a><line style="stroke:#181818;stroke-width:0.5;" x1="903.07" x2="1123.027" y1="336.9266" y2="336.9266"/><line style="stroke:#181818;stroke-width:0.5;" x1="903.07" x2="1123.027" y1="344.9266" y2="344.9266"/></g><!--class CURSOR--><g class="entity" data-entity="CURSOR" data-source-line="12" data-uid="ent0007" id="entity_CURSOR"><rect fill="#F1F1F1" height="58.9766" rx="2.5" ry="2.5" style="stroke:#181818;stroke-width:0.5;" width="317.0176" x="276.54" y="293.95"/><ellipse cx="291.54" cy="315.4383" fill="#ADD1B2" rx="11" ry="11" style="stroke:#181818;stroke-width:1;"/><path d="M294.0131,321.5813 Q293.4321,321.8802 292.7929,322.0296 Q292.1538,322.179 291.4482,322.179 Q288.9414,322.179 287.6215,320.5271 Q286.3017,318.8753 286.3017,315.7542 Q286.3017,312.6248 287.6215,310.9729 Q288.9414,309.3211 291.4482,309.3211 Q292.1538,309.3211 292.8012,309.4705 Q293.4487,309.6199 294.0131,309.9188 L294.0131,312.6414 Q293.3823,312.0604 292.7888,311.7906 Q292.1953,311.5208 291.5644,311.5208 Q290.2197,311.5208 289.5349,312.5875 Q288.8501,313.6541 288.8501,315.7542 Q288.8501,317.846 289.5349,318.9126 Q290.2197,319.9793 291.5644,319.9793 Q292.1953,319.9793 292.7888,319.7095 Q293.3823,319.4397 294.0131,318.8587 Z " fill="#000000"/><a href="https://github.com/louspringer/ontology-framework/blob/main/docs/architecture/CURSOR_BFG9K_INTEGRATION.md" target="_top" title="https://github.com/louspringer/ontology-framework/blob/main/docs/architecture/CURSOR_BFG9K_INTEGRATION.md" xlink:actuate="onRequest" xlink:href="https://github.com/louspringer/ontology-framework/blob/main/docs/architecture/CURSOR_BFG9K_INTEGRATION.md" xlink:show="new" xlink:title="https://github.com/louspringer/ontology-framework/blob/main/docs/architecture/CURSOR_BFG9K_INTEGRATION.md" xlink:type="simple"><text fill="#0000FF" font-family="sans-serif" font-size="14" lengthAdjust="spacing" text-decoration="underline" textLength="233.0371" x="305.54" y="312.4852">CURSOR_BFG9K_INTEGRATION.md</text></a><a href="https://github.com/louspringer/ontology-framework/blob/main/docs/architecture/CURSOR_BFG9K_INTEGRATION.md" target="_top" title="https://github.com/louspringer/ontology-framework/blob/main/docs/architecture/CURSOR_BFG9K_INTEGRATION.md" xlink:actuate="onRequest" xlink:href="https://github.com/louspringer/ontology-framework/blob/main/docs/architecture/CURSOR_BFG9K_INTEGRATION.md" xlink:show="new" xlink:title="https://github.com/louspringer/ontology-framework/blob/main/docs/architecture/CURSOR_BFG9K_INTEGRATION.md" xlink:type="simple"><text fill="#0000FF" font-family="sans-serif" font-size="14" lengthAdjust="spacing" text-decoration="underline" textLength="285.0176" x="305.54" y="328.9734">(Cursor IDE, LLM, BFG9K_MCP Integration)</text></a><line style="stroke:#181818;stroke-width:0.5;" x1="277.54" x2="592.5576" y1="336.9266" y2="336.9266"/><line style="stroke:#181818;stroke-width:0.5;" x1="277.54" x2="592.5576" y1="344.9266" y2="344.9266"/></g><!--class NAV--><g class="entity" data-entity="NAV" data-source-line="13" data-uid="ent0008" id="entity_NAV"><rect fill="#F1F1F1" height="58.9766" rx="2.5" ry="2.5" style="stroke:#181818;stroke-width:0.5;" width="234.0977" x="7" y="293.95"/><ellipse cx="22" cy="315.4383" fill="#ADD1B2" rx="11" ry="11" style="stroke:#181818;stroke-width:1;"/><path d="M24.4731,321.5813 Q23.8921,321.8802 23.2529,322.0296 Q22.6138,322.179 21.9082,322.179 Q19.4014,322.179 18.0815,320.5271 Q16.7617,318.8753 16.7617,315.7542 Q16.7617,312.6248 18.0815,310.9729 Q19.4014,309.3211 21.9082,309.3211 Q22.6138,309.3211 23.2612,309.4705 Q23.9087,309.6199 24.4731,309.9188 L24.4731,312.6414 Q23.8423,312.0604 23.2488,311.7906 Q22.6553,311.5208 22.0244,311.5208 Q20.6797,311.5208 19.9949,312.5875 Q19.3101,313.6541 19.3101,315.7542 Q19.3101,317.846 19.9949,318.9126 Q20.6797,319.9793 22.0244,319.9793 Q22.6553,319.9793 23.2488,319.7095 Q23.8423,319.4397 24.4731,318.8587 Z " fill="#000000"/><a href="https://github.com/louspringer/ontology-framework/blob/main/docs/architecture/BFG9K_DOC_NAVIGATION.md" target="_top" title="https://github.com/louspringer/ontology-framework/blob/main/docs/architecture/BFG9K_DOC_NAVIGATION.md" xlink:actuate="onRequest" xlink:href="https://github.com/louspringer/ontology-framework/blob/main/docs/architecture/BFG9K_DOC_NAVIGATION.md" xlink:show="new" xlink:title="https://github.com/louspringer/ontology-framework/blob/main/docs/architecture/BFG9K_DOC_NAVIGATION.md" xlink:type="simple"><text fill="#0000FF" font-family="sans-serif" font-size="14" lengthAdjust="spacing" text-decoration="underline" textLength="202.0977" x="36" y="312.4852">BFG9K_DOC_NAVIGATION.md</text></a><a href="https://github.com/louspringer/ontology-framework/blob/main/docs/architecture/BFG9K_DOC_NAVIGATION.md" target="_top" title="https://github.com/louspringer/ontology-framework/blob/main/docs/architecture/BFG9K_DOC_NAVIGATION.md" xlink:actuate="onRequest" xlink:href="https://github.com/louspringer/ontology-framework/blob/main/docs/architecture/BFG9K_DOC_NAVIGATION.md" xlink:show="new" xlink:title="https://github.com/louspringer/ontology-framework/blob/main/docs/architecture/BFG9K_DOC_NAVIGATION.md" xlink:type="simple"><text fill="#0000FF" font-family="sans-serif" font-size="14" lengthAdjust="spacing" text-decoration="underline" textLength="143.459" x="36" y="328.9734">(Navigation Diagram)</text></a><line style="stroke:#181818;stroke-width:0.5;" x1="8" x2="240.0977" y1="336.9266" y2="336.9266"/><line style="stroke:#181818;stroke-width:0.5;" x1="8" x2="240.0977" y1="344.9266" y2="344.9266"/></g><!--link ROOTREADME to DRY--><g class="link" data-entity-1="ROOTREADME" data-entity-2="DRY" data-source-line="15" data-uid="lnk9" id="link_ROOTREADME_DRY"><path codeLine="15" d="M238.48,66.39 C287.86,88.9 350.6103,117.4916 400.0203,140.0116" fill="none" id="ROOTREADME-to-DRY" style="stroke:#181818;stroke-width:1;"/><polygon fill="#181818" points="405.48,142.5,398.9494,135.1276,400.9303,140.4263,395.6316,142.4072,405.48,142.5" style="stroke:#181818;stroke-width:1;"/><text fill="#000000" font-family="sans-serif" font-size="13" lengthAdjust="spacing" textLength="168.7842" x="340.65" y="109.5484">Documentation Entry Point</text></g><!--link DRY to ARCH--><g class="link" data-entity-1="DRY" data-entity-2="ARCH" data-source-line="16" data-uid="lnk10" id="link_DRY_ARCH"><path codeLine="16" d="M661.19,172.47 C733.14,172.47 806.45,172.47 868.69,172.47" fill="none" id="DRY-to-ARCH" style="stroke:#181818;stroke-width:1;"/><polygon fill="#181818" points="874.69,172.47,865.69,168.47,869.69,172.47,865.69,176.47,874.69,172.47" style="stroke:#181818;stroke-width:1;"/><text fill="#000000" font-family="sans-serif" font-size="13" lengthAdjust="spacing" textLength="125.8042" x="705.46" y="166.0384">System Architecture</text></g><!--link DRY to SPORE--><g class="link" data-entity-1="DRY" data-entity-2="SPORE" data-source-line="17" data-uid="lnk11" id="link_DRY_SPORE"><path codeLine="17" d="M523.17,202.37 C572.46,228.68 639.5474,264.5036 688.7774,290.7936" fill="none" id="DRY-to-SPORE" style="stroke:#181818;stroke-width:1;"/><polygon fill="#181818" points="694.07,293.62,688.0154,285.852,689.6595,291.2647,684.2469,292.9088,694.07,293.62" style="stroke:#181818;stroke-width:1;"/><text fill="#000000" font-family="sans-serif" font-size="13" lengthAdjust="spacing" textLength="129.3462" x="634.54" y="253.0184">Governance Patterns</text></g><!--link DRY to CURSOR--><g class="link" data-entity-1="DRY" data-entity-2="CURSOR" data-source-line="18" data-uid="lnk12" id="link_DRY_CURSOR"><path codeLine="18" d="M462.49,202.19 C456.49,228.49 448.9963,261.3507 442.9763,287.7007" fill="none" id="DRY-to-CURSOR" style="stroke:#181818;stroke-width:1;"/><polygon fill="#181818" points="441.64,293.55,447.544,285.667,442.7536,288.6756,439.745,283.8852,441.64,293.55" style="stroke:#181818;stroke-width:1;"/><text fill="#000000" font-family="sans-serif" font-size="13" lengthAdjust="spacing" textLength="76.8384" x="456.09" y="245.5184">Use Cases &amp;</text><text fill="#000000" font-family="sans-serif" font-size="13" lengthAdjust="spacing" textLength="69.1958" x="459.9113" y="260.8289">Integration</text></g><!--link ARCH to MCPVAL--><g class="link" data-entity-1="ARCH" data-entity-2="MCPVAL" data-source-line="19" data-uid="lnk13" id="link_ARCH_MCPVAL"><path codeLine="19" d="M991.25,202.19 C996.02,228.49 1001.9712,261.296 1006.7412,287.646" fill="none" id="ARCH-to-MCPVAL" style="stroke:#181818;stroke-width:1;"/><polygon fill="#181818" points="1007.81,293.55,1010.1429,283.9814,1006.9194,288.63,1002.2708,285.4065,1007.81,293.55" style="stroke:#181818;stroke-width:1;"/><text fill="#000000" font-family="sans-serif" font-size="13" lengthAdjust="spacing" textLength="118.2378" x="1002.97" y="253.0184">Validator Structure</text></g><!--link DRY to NAV--><g class="link" data-entity-1="DRY" data-entity-2="NAV" data-source-line="20" data-uid="lnk14" id="link_DRY_NAV"><path codeLine="20" d="M389.43,202.32 C365.37,211.42 338.99,221.75 315.05,231.95 C269.81,251.22 224.9887,272.4716 187.4087,290.8716" fill="none" id="DRY-to-NAV" style="stroke:#181818;stroke-width:1;"/><polygon fill="#181818" points="182.02,293.51,191.8621,293.1448,186.5106,291.3113,188.3442,285.9598,182.02,293.51" style="stroke:#181818;stroke-width:1;"/><text fill="#000000" font-family="sans-serif" font-size="13" lengthAdjust="spacing" textLength="124.7568" x="316.05" y="253.0184">Navigation Diagram</text></g><!--link ROOTREADME to NAV--><g class="link" data-entity-1="ROOTREADME" data-entity-2="NAV" data-source-line="21" data-uid="lnk15" id="link_ROOTREADME_NAV"><path codeLine="21" d="M169.88,66.38 C160.1,121 140.0776,232.8939 130.2876,287.5639" fill="none" id="ROOTREADME-to-NAV" style="stroke:#181818;stroke-width:1;"/><polygon fill="#181818" points="129.23,293.47,134.7538,285.316,130.1114,288.5483,126.8791,283.9058,129.23,293.47" style="stroke:#181818;stroke-width:1;"/><text fill="#000000" font-family="sans-serif" font-size="13" lengthAdjust="spacing" textLength="67.228" x="156.45" y="177.5384">Navigation</text></g><!--link DRY to MCPVAL--><g class="link" data-entity-1="DRY" data-entity-2="MCPVAL" data-source-line="22" data-uid="lnk16" id="link_DRY_MCPVAL"><path codeLine="22" d="M646.07,202.44 C687.71,210.68 731.7,220.57 772.05,231.95 C831.73,248.79 891.9563,271.6892 939.6963,291.2092" fill="none" id="DRY-to-MCPVAL" style="stroke:#181818;stroke-width:1;stroke-dasharray:7.0,7.0;"/><polygon fill="#181818" points="945.25,293.48,938.4333,286.3713,940.6219,291.5877,935.4056,293.7763,945.25,293.48" style="stroke:#181818;stroke-width:1;"/><text fill="#000000" font-family="sans-serif" font-size="13" lengthAdjust="spacing" textLength="104" x="867.1" y="253.0184">Validator Details</text></g><!--SRC=[lPHHRzem4CVV-HHU7gfDAkIvVPYK9HwB1adaKAQfhI8JJF2QsCXsG7pxdWcciCAUobwYvExlo-z_klEdELjmmH31uIH8XYECoffgtUkz1Rp7nwKnAttl-nKtotOsA6NZrxBLAyL5nPGlXP6rhBRzXQ8DsqZruizgEVCRoeLFS12DyQ2Peqp9FwmqY4W93nT-4f-nC6gBCic5-VByx26g4KdJIIVvE9AvBBLFLRda1Z1QnVnltuTtFuk8_2xIAIRJ6F-od6UZW0aHb9US2SCNl4JfcgarPnjqWo9PjWt4gU5IxAqv9t3guopaMKfm4QP9YBE9PVqx09ZvIYg6GYbAjZ80DvG0AYXyEgJTeMlsTRQexbwAfbmLns7BUp43uECm0znTzr5mb7NO0Gb_N9FQKgrfpUVKI5Leeze3zkNKddlgaYXtIOSDwMamkYPu-43ob1JTtCR910z9C8dJn9B_8mVeOQiqCCSHlaMZqVXsF_lMKImCgzHkefsJhjP_MCWqB99W6WyFBYx4mK52rxpgzYxY580RHmjAkCOEzmZgp-L6zB_QXKJto3lTsQChoEjPHL_nQcb0RgVEwlEjDgmv6SozSbztjrLM-RPmAAF6mBi-LNPzjD873PjADTFevaaSTTphxNxh3dGZP0-ScRFJsk3QwjwtnJlfXNFtJjvL6mpE_pHYXl8QxBm2]--></g></svg>