<svg xmlns="http://www.w3.org/2000/svg" xmlns:xlink="http://www.w3.org/1999/xlink" contentStyleType="text/css" data-diagram-type="DESCRIPTION" height="505px" preserveAspectRatio="none" style="width:1842px;height:505px;background:#FFFFFF;" version="1.1" viewBox="0 0 1842 505" width="1842px" zoomAndPan="magnify"><defs/><g><!--entity MV--><g class="entity" data-entity="MV" data-source-line="3" data-uid="ent0002" id="entity_MV"><polygon fill="#F1F1F1" points="504.6,16,514.6,6,635.1693,6,635.1693,58.9766,625.1693,68.9766,504.6,68.9766,504.6,16" style="stroke:#181818;stroke-width:0.5;"/><line style="stroke:#181818;stroke-width:0.5;" x1="625.1693" x2="635.1693" y1="16" y2="6"/><line style="stroke:#181818;stroke-width:0.5;" x1="504.6" x2="625.1693" y1="16" y2="16"/><line style="stroke:#181818;stroke-width:0.5;" x1="625.1693" x2="625.1693" y1="16" y2="68.9766"/><text fill="#000000" font-family="sans-serif" font-size="14" lengthAdjust="spacing" textLength="90.5693" x="519.6" y="39.5352">MCPValidator</text><text fill="#000000" font-family="sans-serif" font-size="14" lengthAdjust="spacing" textLength="72.707" x="519.6" y="56.0234">(owl:Class)</text></g><!--entity VT--><g class="entity" data-entity="VT" data-source-line="4" data-uid="ent0003" id="entity_VT"><polygon fill="#F1F1F1" points="387.79,155.98,397.79,145.98,539.9609,145.98,539.9609,198.9566,529.9609,208.9566,387.79,208.9566,387.79,155.98" style="stroke:#181818;stroke-width:0.5;"/><line style="stroke:#181818;stroke-width:0.5;" x1="529.9609" x2="539.9609" y1="155.98" y2="145.98"/><line style="stroke:#181818;stroke-width:0.5;" x1="387.79" x2="529.9609" y1="155.98" y2="155.98"/><line style="stroke:#181818;stroke-width:0.5;" x1="529.9609" x2="529.9609" y1="155.98" y2="208.9566"/><text fill="#000000" font-family="sans-serif" font-size="14" lengthAdjust="spacing" textLength="112.1709" x="402.79" y="179.5152">ValidationTarget</text><text fill="#000000" font-family="sans-serif" font-size="14" lengthAdjust="spacing" textLength="72.707" x="402.79" y="196.0034">(owl:Class)</text></g><!--entity SQ--><g class="entity" data-entity="SQ" data-source-line="5" data-uid="ent0004" id="entity_SQ"><polygon fill="#F1F1F1" points="728.78,155.98,738.78,145.98,872.987,145.98,872.987,198.9566,862.987,208.9566,728.78,208.9566,728.78,155.98" style="stroke:#181818;stroke-width:0.5;"/><line style="stroke:#181818;stroke-width:0.5;" x1="862.987" x2="872.987" y1="155.98" y2="145.98"/><line style="stroke:#181818;stroke-width:0.5;" x1="728.78" x2="862.987" y1="155.98" y2="155.98"/><line style="stroke:#181818;stroke-width:0.5;" x1="862.987" x2="862.987" y1="155.98" y2="208.9566"/><text fill="#000000" font-family="sans-serif" font-size="14" lengthAdjust="spacing" textLength="104.207" x="743.78" y="179.5152">SPARQLQueries</text><text fill="#000000" font-family="sans-serif" font-size="14" lengthAdjust="spacing" textLength="72.707" x="743.78" y="196.0034">(owl:Class)</text></g><!--entity VR--><g class="entity" data-entity="VR" data-source-line="6" data-uid="ent0005" id="entity_VR"><polygon fill="#F1F1F1" points="1225.57,155.98,1235.57,145.98,1370.1872,145.98,1370.1872,198.9566,1360.1872,208.9566,1225.57,208.9566,1225.57,155.98" style="stroke:#181818;stroke-width:0.5;"/><line style="stroke:#181818;stroke-width:0.5;" x1="1360.1872" x2="1370.1872" y1="155.98" y2="145.98"/><line style="stroke:#181818;stroke-width:0.5;" x1="1225.57" x2="1360.1872" y1="155.98" y2="155.98"/><line style="stroke:#181818;stroke-width:0.5;" x1="1360.1872" x2="1360.1872" y1="155.98" y2="208.9566"/><text fill="#000000" font-family="sans-serif" font-size="14" lengthAdjust="spacing" textLength="104.6172" x="1240.57" y="179.5152">ValidationRules</text><text fill="#000000" font-family="sans-serif" font-size="14" lengthAdjust="spacing" textLength="72.707" x="1240.57" y="196.0034">(owl:Class)</text></g><!--entity CFG--><g class="entity" data-entity="CFG" data-source-line="9" data-uid="ent0006" id="entity_CFG"><polygon fill="#F1F1F1" points="104.69,155.98,114.69,145.98,219.0718,145.98,219.0718,198.9566,209.0718,208.9566,104.69,208.9566,104.69,155.98" style="stroke:#181818;stroke-width:0.5;"/><line style="stroke:#181818;stroke-width:0.5;" x1="209.0718" x2="219.0718" y1="155.98" y2="145.98"/><line style="stroke:#181818;stroke-width:0.5;" x1="104.69" x2="209.0718" y1="155.98" y2="155.98"/><line style="stroke:#181818;stroke-width:0.5;" x1="209.0718" x2="209.0718" y1="155.98" y2="208.9566"/><text fill="#000000" font-family="sans-serif" font-size="14" lengthAdjust="spacing" textLength="74.3818" x="119.69" y="179.5152">MCPConfig</text><text fill="#000000" font-family="sans-serif" font-size="14" lengthAdjust="spacing" textLength="72.707" x="119.69" y="196.0034">(owl:Class)</text></g><!--entity RD--><g class="entity" data-entity="RD" data-source-line="10" data-uid="ent0007" id="entity_RD"><polygon fill="#F1F1F1" points="1205.22,295.96,1215.22,285.96,1348.5315,285.96,1348.5315,338.9366,1338.5315,348.9366,1205.22,348.9366,1205.22,295.96" style="stroke:#181818;stroke-width:0.5;"/><line style="stroke:#181818;stroke-width:0.5;" x1="1338.5315" x2="1348.5315" y1="295.96" y2="285.96"/><line style="stroke:#181818;stroke-width:0.5;" x1="1205.22" x2="1338.5315" y1="295.96" y2="295.96"/><line style="stroke:#181818;stroke-width:0.5;" x1="1338.5315" x2="1338.5315" y1="295.96" y2="348.9366"/><text fill="#000000" font-family="sans-serif" font-size="14" lengthAdjust="spacing" textLength="103.3115" x="1220.22" y="319.4952">RuleDefinitions</text><text fill="#000000" font-family="sans-serif" font-size="14" lengthAdjust="spacing" textLength="72.707" x="1220.22" y="335.9834">(owl:Class)</text></g><!--entity TH--><g class="entity" data-entity="TH" data-source-line="11" data-uid="ent0008" id="entity_TH"><polygon fill="#F1F1F1" points="1531.14,295.96,1541.14,285.96,1646.6293,285.96,1646.6293,338.9366,1636.6293,348.9366,1531.14,348.9366,1531.14,295.96" style="stroke:#181818;stroke-width:0.5;"/><line style="stroke:#181818;stroke-width:0.5;" x1="1636.6293" x2="1646.6293" y1="295.96" y2="285.96"/><line style="stroke:#181818;stroke-width:0.5;" x1="1531.14" x2="1636.6293" y1="295.96" y2="295.96"/><line style="stroke:#181818;stroke-width:0.5;" x1="1636.6293" x2="1636.6293" y1="295.96" y2="348.9366"/><text fill="#000000" font-family="sans-serif" font-size="14" lengthAdjust="spacing" textLength="75.4893" x="1546.14" y="319.4952">Thresholds</text><text fill="#000000" font-family="sans-serif" font-size="14" lengthAdjust="spacing" textLength="72.707" x="1546.14" y="335.9834">(owl:Class)</text></g><!--entity ET--><g class="entity" data-entity="ET" data-source-line="12" data-uid="ent0009" id="entity_ET"><polygon fill="#F1F1F1" points="1681.95,295.96,1691.95,285.96,1825.8084,285.96,1825.8084,338.9366,1815.8084,348.9366,1681.95,348.9366,1681.95,295.96" style="stroke:#181818;stroke-width:0.5;"/><line style="stroke:#181818;stroke-width:0.5;" x1="1815.8084" x2="1825.8084" y1="295.96" y2="285.96"/><line style="stroke:#181818;stroke-width:0.5;" x1="1681.95" x2="1815.8084" y1="295.96" y2="295.96"/><line style="stroke:#181818;stroke-width:0.5;" x1="1815.8084" x2="1815.8084" y1="295.96" y2="348.9366"/><text fill="#000000" font-family="sans-serif" font-size="14" lengthAdjust="spacing" textLength="103.8584" x="1696.95" y="319.4952">ErrorTemplates</text><text fill="#000000" font-family="sans-serif" font-size="14" lengthAdjust="spacing" textLength="72.707" x="1696.95" y="335.9834">(owl:Class)</text></g><!--entity TD--><g class="entity" data-entity="TD" data-source-line="15" data-uid="ent0010" id="entity_TD"><polygon fill="#F1F1F1" points="537.53,295.96,547.53,285.96,650.237,285.96,650.237,338.9366,640.237,348.9366,537.53,348.9366,537.53,295.96" style="stroke:#181818;stroke-width:0.5;"/><line style="stroke:#181818;stroke-width:0.5;" x1="640.237" x2="650.237" y1="295.96" y2="285.96"/><line style="stroke:#181818;stroke-width:0.5;" x1="537.53" x2="640.237" y1="295.96" y2="295.96"/><line style="stroke:#181818;stroke-width:0.5;" x1="640.237" x2="640.237" y1="295.96" y2="348.9366"/><text fill="#000000" font-family="sans-serif" font-size="14" lengthAdjust="spacing" textLength="60.2109" x="552.53" y="319.4952">TestData</text><text fill="#000000" font-family="sans-serif" font-size="14" lengthAdjust="spacing" textLength="72.707" x="552.53" y="335.9834">(owl:Class)</text></g><!--entity TC--><g class="entity" data-entity="TC" data-source-line="16" data-uid="ent0011" id="entity_TC"><polygon fill="#F1F1F1" points="22.35,295.96,32.35,285.96,143.4105,285.96,143.4105,338.9366,133.4105,348.9366,22.35,348.9366,22.35,295.96" style="stroke:#181818;stroke-width:0.5;"/><line style="stroke:#181818;stroke-width:0.5;" x1="133.4105" x2="143.4105" y1="295.96" y2="285.96"/><line style="stroke:#181818;stroke-width:0.5;" x1="22.35" x2="133.4105" y1="295.96" y2="295.96"/><line style="stroke:#181818;stroke-width:0.5;" x1="133.4105" x2="133.4105" y1="295.96" y2="348.9366"/><text fill="#000000" font-family="sans-serif" font-size="14" lengthAdjust="spacing" textLength="81.0605" x="37.35" y="319.4952">TestConfigs</text><text fill="#000000" font-family="sans-serif" font-size="14" lengthAdjust="spacing" textLength="72.707" x="37.35" y="335.9834">(owl:Class)</text></g><!--entity TA--><g class="entity" data-entity="TA" data-source-line="17" data-uid="ent0012" id="entity_TA"><polygon fill="#F1F1F1" points="857.78,295.96,867.78,285.96,997.9743,285.96,997.9743,338.9366,987.9743,348.9366,857.78,348.9366,857.78,295.96" style="stroke:#181818;stroke-width:0.5;"/><line style="stroke:#181818;stroke-width:0.5;" x1="987.9743" x2="997.9743" y1="295.96" y2="285.96"/><line style="stroke:#181818;stroke-width:0.5;" x1="857.78" x2="987.9743" y1="295.96" y2="295.96"/><line style="stroke:#181818;stroke-width:0.5;" x1="987.9743" x2="987.9743" y1="295.96" y2="348.9366"/><text fill="#000000" font-family="sans-serif" font-size="14" lengthAdjust="spacing" textLength="100.1943" x="872.78" y="319.4952">TestAssertions</text><text fill="#000000" font-family="sans-serif" font-size="14" lengthAdjust="spacing" textLength="72.707" x="872.78" y="335.9834">(owl:Class)</text></g><!--entity MO--><g class="entity" data-entity="MO" data-source-line="18" data-uid="ent0013" id="entity_MO"><polygon fill="#F1F1F1" points="530.23,435.93,540.23,425.93,657.5318,425.93,657.5318,478.9066,647.5318,488.9066,530.23,488.9066,530.23,435.93" style="stroke:#181818;stroke-width:0.5;"/><line style="stroke:#181818;stroke-width:0.5;" x1="647.5318" x2="657.5318" y1="435.93" y2="425.93"/><line style="stroke:#181818;stroke-width:0.5;" x1="530.23" x2="647.5318" y1="435.93" y2="435.93"/><line style="stroke:#181818;stroke-width:0.5;" x1="647.5318" x2="647.5318" y1="435.93" y2="488.9066"/><text fill="#000000" font-family="sans-serif" font-size="14" lengthAdjust="spacing" textLength="87.3018" x="545.23" y="459.4652">MockObjects</text><text fill="#000000" font-family="sans-serif" font-size="14" lengthAdjust="spacing" textLength="72.707" x="545.23" y="475.9534">(owl:Class)</text></g><!--entity MD--><g class="entity" data-entity="MD" data-source-line="21" data-uid="ent0014" id="entity_MD"><polygon fill="#F1F1F1" points="241.59,295.96,251.59,285.96,366.1779,285.96,366.1779,338.9366,356.1779,348.9366,241.59,348.9366,241.59,295.96" style="stroke:#181818;stroke-width:0.5;"/><line style="stroke:#181818;stroke-width:0.5;" x1="356.1779" x2="366.1779" y1="295.96" y2="285.96"/><line style="stroke:#181818;stroke-width:0.5;" x1="241.59" x2="356.1779" y1="295.96" y2="295.96"/><line style="stroke:#181818;stroke-width:0.5;" x1="356.1779" x2="356.1779" y1="295.96" y2="348.9366"/><text fill="#000000" font-family="sans-serif" font-size="14" lengthAdjust="spacing" textLength="84.5879" x="256.59" y="319.4952">MethodDocs</text><text fill="#000000" font-family="sans-serif" font-size="14" lengthAdjust="spacing" textLength="72.707" x="256.59" y="335.9834">(owl:Class)</text></g><!--entity TDOC--><g class="entity" data-entity="TDOC" data-source-line="22" data-uid="ent0015" id="entity_TDOC"><polygon fill="#F1F1F1" points="1532.53,435.93,1542.53,425.93,1645.237,425.93,1645.237,478.9066,1635.237,488.9066,1532.53,488.9066,1532.53,435.93" style="stroke:#181818;stroke-width:0.5;"/><line style="stroke:#181818;stroke-width:0.5;" x1="1635.237" x2="1645.237" y1="435.93" y2="425.93"/><line style="stroke:#181818;stroke-width:0.5;" x1="1532.53" x2="1635.237" y1="435.93" y2="435.93"/><line style="stroke:#181818;stroke-width:0.5;" x1="1635.237" x2="1635.237" y1="435.93" y2="488.9066"/><text fill="#000000" font-family="sans-serif" font-size="14" lengthAdjust="spacing" textLength="66.1719" x="1547.53" y="459.4652">TypeDocs</text><text fill="#000000" font-family="sans-serif" font-size="14" lengthAdjust="spacing" textLength="72.707" x="1547.53" y="475.9534">(owl:Class)</text></g><!--entity RDOC--><g class="entity" data-entity="RDOC" data-source-line="23" data-uid="ent0016" id="entity_RDOC"><polygon fill="#F1F1F1" points="1383.53,295.96,1393.53,285.96,1496.237,285.96,1496.237,338.9366,1486.237,348.9366,1383.53,348.9366,1383.53,295.96" style="stroke:#181818;stroke-width:0.5;"/><line style="stroke:#181818;stroke-width:0.5;" x1="1486.237" x2="1496.237" y1="295.96" y2="285.96"/><line style="stroke:#181818;stroke-width:0.5;" x1="1383.53" x2="1486.237" y1="295.96" y2="295.96"/><line style="stroke:#181818;stroke-width:0.5;" x1="1486.237" x2="1486.237" y1="295.96" y2="348.9366"/><text fill="#000000" font-family="sans-serif" font-size="14" lengthAdjust="spacing" textLength="62.7813" x="1398.53" y="319.4952">RuleDocs</text><text fill="#000000" font-family="sans-serif" font-size="14" lengthAdjust="spacing" textLength="72.707" x="1398.53" y="335.9834">(owl:Class)</text></g><!--link MV to VT--><g class="link" data-entity-1="MV" data-entity-2="VT" data-source-line="26" data-uid="lnk17" id="link_MV_VT"><path d="M546.09,69.46 C528.63,92.18 508.6854,118.1521 491.2454,140.8521" fill="none" id="MV-to-VT" style="stroke:#181818;stroke-width:1;"/><polygon fill="#181818" points="487.59,145.61,496.2451,140.9101,490.6362,141.6451,489.9012,136.0362,487.59,145.61" style="stroke:#181818;stroke-width:1;"/><text fill="#000000" font-family="sans-serif" font-size="13" lengthAdjust="spacing" textLength="100.5278" x="524.23" y="112.5484">:requiresUpdate</text></g><!--link MV to SQ--><g class="link" data-entity-1="MV" data-entity-2="SQ" data-source-line="27" data-uid="lnk18" id="link_MV_SQ"><path d="M621.72,69.46 C659.76,92.18 706.0591,119.833 744.0591,142.533" fill="none" id="MV-to-SQ" style="stroke:#181818;stroke-width:1;"/><polygon fill="#181818" points="749.21,145.61,743.5349,137.5605,744.9176,143.0458,739.4323,144.4284,749.21,145.61" style="stroke:#181818;stroke-width:1;"/><text fill="#000000" font-family="sans-serif" font-size="13" lengthAdjust="spacing" textLength="100.5278" x="700.21" y="112.5484">:requiresUpdate</text></g><!--link MV to VR--><g class="link" data-entity-1="MV" data-entity-2="VR" data-source-line="28" data-uid="lnk19" id="link_MV_VR"><path d="M635.45,50.92 C771.4,76.69 1077.2649,134.6528 1219.2049,161.5528" fill="none" id="MV-to-VR" style="stroke:#181818;stroke-width:1;"/><polygon fill="#181818" points="1225.1,162.67,1217.0022,157.0641,1220.1874,161.739,1215.5126,164.9242,1225.1,162.67" style="stroke:#181818;stroke-width:1;"/><text fill="#000000" font-family="sans-serif" font-size="13" lengthAdjust="spacing" textLength="100.5278" x="978.47" y="112.5484">:requiresUpdate</text></g><!--link MV to CFG--><g class="link" data-entity-1="MV" data-entity-2="CFG" data-source-line="29" data-uid="lnk20" id="link_MV_CFG"><path d="M504.33,60.66 C425.49,87.32 300.0938,129.7279 225.0438,155.1079" fill="none" id="MV-to-CFG" style="stroke:#181818;stroke-width:1;"/><polygon fill="#181818" points="219.36,157.03,229.1671,157.936,224.0965,155.4282,226.6043,150.3576,219.36,157.03" style="stroke:#181818;stroke-width:1;"/><text fill="#000000" font-family="sans-serif" font-size="13" lengthAdjust="spacing" textLength="100.5278" x="391.31" y="112.5484">:requiresUpdate</text></g><!--link VT to TD--><g class="link" data-entity-1="VT" data-entity-2="TD" data-source-line="31" data-uid="lnk21" id="link_VT_TD"><path d="M444.46,209.11 C437.53,224.21 433.51,242.1 442.88,255.96 C463.93,287.06 497.9989,300.8966 531.5189,308.2366" fill="none" id="VT-to-TD" style="stroke:#181818;stroke-width:1;"/><polygon fill="#181818" points="537.38,309.52,529.4439,303.6874,532.4957,308.4505,527.7327,311.5023,537.38,309.52" style="stroke:#181818;stroke-width:1;"/><text fill="#000000" font-family="sans-serif" font-size="13" lengthAdjust="spacing" textLength="100.5278" x="443.88" y="252.5284">:requiresUpdate</text></g><!--link VT to TA--><g class="link" data-entity-1="VT" data-entity-2="TA" data-source-line="32" data-uid="lnk22" id="link_VT_TA"><path d="M540.42,194.27 C585.1,204.63 642.1,219.79 690.88,238.96 C705.87,244.85 707.97,249.87 722.88,255.96 C766.51,273.77 811.4999,287.2643 851.6099,297.8843" fill="none" id="VT-to-TA" style="stroke:#181818;stroke-width:1;"/><polygon fill="#181818" points="857.41,299.42,849.7336,293.2497,852.5766,298.1402,847.686,300.9832,857.41,299.42" style="stroke:#181818;stroke-width:1;"/><text fill="#000000" font-family="sans-serif" font-size="13" lengthAdjust="spacing" textLength="100.5278" x="723.88" y="252.5284">:requiresUpdate</text></g><!--link VT to MD--><g class="link" data-entity-1="VT" data-entity-2="MD" data-source-line="33" data-uid="lnk23" id="link_VT_MD"><path d="M387.39,199.25 C365.67,208.37 343.67,221.18 327.88,238.96 C316.47,251.8 311.6683,264.1189 308.5283,279.6589" fill="none" id="VT-to-MD" style="stroke:#181818;stroke-width:1;"/><polygon fill="#181818" points="307.34,285.54,313.0433,277.5105,308.3303,280.639,305.2017,275.9261,307.34,285.54" style="stroke:#181818;stroke-width:1;"/><text fill="#000000" font-family="sans-serif" font-size="13" lengthAdjust="spacing" textLength="100.5278" x="328.88" y="252.5284">:requiresUpdate</text></g><!--link SQ to TD--><g class="link" data-entity-1="SQ" data-entity-2="TD" data-source-line="35" data-uid="lnk24" id="link_SQ_TD"><path d="M827.46,209.17 C837.25,224.29 843.61,242.17 832.88,255.96 C810.7,284.45 719.8578,300.8801 656.4578,309.3001" fill="none" id="SQ-to-TD" style="stroke:#181818;stroke-width:1;"/><polygon fill="#181818" points="650.51,310.09,659.9583,312.8703,655.4665,309.4317,658.9051,304.94,650.51,310.09" style="stroke:#181818;stroke-width:1;"/><text fill="#000000" font-family="sans-serif" font-size="13" lengthAdjust="spacing" textLength="100.5278" x="839.44" y="252.5284">:requiresUpdate</text></g><!--link SQ to TA--><g class="link" data-entity-1="SQ" data-entity-2="TA" data-source-line="36" data-uid="lnk25" id="link_SQ_TA"><path d="M873.18,184.27 C910.02,191.31 951.81,206.51 974.88,238.96 C985.46,253.83 980.7473,266.6213 968.1073,281.0913" fill="none" id="SQ-to-TA" style="stroke:#181818;stroke-width:1;"/><polygon fill="#181818" points="964.16,285.61,973.0934,281.4634,967.4494,281.8444,967.0684,276.2004,964.16,285.61" style="stroke:#181818;stroke-width:1;"/><text fill="#000000" font-family="sans-serif" font-size="13" lengthAdjust="spacing" textLength="100.5278" x="980.62" y="252.5284">:requiresUpdate</text></g><!--link SQ to MD--><g class="link" data-entity-1="SQ" data-entity-2="MD" data-source-line="37" data-uid="lnk26" id="link_SQ_MD"><path d="M728.49,194.12 C684.93,204.58 628.83,219.9 580.88,238.96 C565.91,244.91 563.92,250.21 548.88,255.96 C488.72,278.96 422.757,294.3309 372.477,304.2309" fill="none" id="SQ-to-MD" style="stroke:#181818;stroke-width:1;"/><polygon fill="#181818" points="366.59,305.39,376.1932,307.576,371.4958,304.4241,374.6477,299.7267,366.59,305.39" style="stroke:#181818;stroke-width:1;"/><text fill="#000000" font-family="sans-serif" font-size="13" lengthAdjust="spacing" textLength="100.5278" x="581.88" y="252.5284">:requiresUpdate</text></g><!--link VR to RD--><g class="link" data-entity-1="VR" data-entity-2="RD" data-source-line="39" data-uid="lnk27" id="link_VR_RD"><path d="M1293.17,209.43 C1289.71,232.16 1285.9315,256.9481 1282.4815,279.6481" fill="none" id="VR-to-RD" style="stroke:#181818;stroke-width:1;"/><polygon fill="#181818" points="1281.58,285.58,1286.8869,277.2832,1282.3313,280.6368,1278.9777,276.0811,1281.58,285.58" style="stroke:#181818;stroke-width:1;"/><text fill="#000000" font-family="sans-serif" font-size="13" lengthAdjust="spacing" textLength="100.5278" x="1289.64" y="252.5284">:requiresUpdate</text></g><!--link VR to TH--><g class="link" data-entity-1="VR" data-entity-2="TH" data-source-line="40" data-uid="lnk28" id="link_VR_TH"><path d="M1370.61,186.98 C1416.72,194.96 1476.08,210.19 1521.88,238.96 C1540.71,250.78 1553.5595,264.7006 1565.4295,280.8006" fill="none" id="VR-to-TH" style="stroke:#181818;stroke-width:1;"/><polygon fill="#181818" points="1568.99,285.63,1566.8688,276.0123,1566.0229,281.6055,1560.4296,280.7597,1568.99,285.63" style="stroke:#181818;stroke-width:1;"/><text fill="#000000" font-family="sans-serif" font-size="13" lengthAdjust="spacing" textLength="100.5278" x="1542.61" y="252.5284">:requiresUpdate</text></g><!--link VR to TA--><g class="link" data-entity-1="VR" data-entity-2="TA" data-source-line="41" data-uid="lnk29" id="link_VR_TA"><path d="M1225.22,205.56 C1159.45,230.09 1068.8217,263.8833 1003.8017,288.1333" fill="none" id="VR-to-TA" style="stroke:#181818;stroke-width:1;"/><polygon fill="#181818" points="998.18,290.23,1008.0104,290.8328,1002.8648,288.4828,1005.2148,283.3371,998.18,290.23" style="stroke:#181818;stroke-width:1;"/><text fill="#000000" font-family="sans-serif" font-size="13" lengthAdjust="spacing" textLength="100.5278" x="1136.03" y="252.5284">:requiresUpdate</text></g><!--link VR to RDOC--><g class="link" data-entity-1="VR" data-entity-2="RDOC" data-source-line="42" data-uid="lnk30" id="link_VR_RDOC"><path d="M1361.61,209.41 C1374.95,217.78 1388.19,227.69 1398.88,238.96 C1411.55,252.32 1418.9566,264.8845 1425.8166,280.1945" fill="none" id="VR-to-RDOC" style="stroke:#181818;stroke-width:1;"/><polygon fill="#181818" points="1428.27,285.67,1428.2402,275.8212,1426.2255,281.1071,1420.9396,279.0924,1428.27,285.67" style="stroke:#181818;stroke-width:1;"/><text fill="#000000" font-family="sans-serif" font-size="13" lengthAdjust="spacing" textLength="100.5278" x="1413.12" y="252.5284">:requiresUpdate</text></g><!--link CFG to TC--><g class="link" data-entity-1="CFG" data-entity-2="TC" data-source-line="44" data-uid="lnk31" id="link_CFG_TC"><path d="M104.27,186.83 C72.77,194.66 36.32,209.79 16.88,238.96 C6,255.28 12.4262,268.1016 28.3362,281.8216" fill="none" id="CFG-to-TC" style="stroke:#181818;stroke-width:1;"/><polygon fill="#181818" points="32.88,285.74,28.6765,276.8332,29.0935,282.4747,23.452,282.8917,32.88,285.74" style="stroke:#181818;stroke-width:1;"/><text fill="#000000" font-family="sans-serif" font-size="13" lengthAdjust="spacing" textLength="100.5278" x="17.88" y="252.5284">:requiresUpdate</text></g><!--link CFG to MD--><g class="link" data-entity-1="CFG" data-entity-2="MD" data-source-line="45" data-uid="lnk32" id="link_CFG_MD"><path d="M152.72,209.08 C150.02,224.35 149.85,242.4 158.88,255.96 C177.33,283.65 205.3362,297.1207 235.6562,305.2807" fill="none" id="CFG-to-MD" style="stroke:#181818;stroke-width:1;"/><polygon fill="#181818" points="241.45,306.84,233.7988,300.6385,236.6218,305.5406,231.7197,308.3636,241.45,306.84" style="stroke:#181818;stroke-width:1;"/><text fill="#000000" font-family="sans-serif" font-size="13" lengthAdjust="spacing" textLength="100.5278" x="159.88" y="252.5284">:requiresUpdate</text></g><!--link RD to TDOC--><g class="link" data-entity-1="RD" data-entity-2="TDOC" data-source-line="47" data-uid="lnk33" id="link_RD_TDOC"><path d="M1346.9,349.41 C1402.77,374.12 1474.5629,405.8627 1526.6229,428.8927" fill="none" id="RD-to-TDOC" style="stroke:#181818;stroke-width:1;"/><polygon fill="#181818" points="1532.11,431.32,1525.4976,424.0209,1527.5374,429.2972,1522.2612,431.337,1532.11,431.32" style="stroke:#181818;stroke-width:1;"/><text fill="#000000" font-family="sans-serif" font-size="13" lengthAdjust="spacing" textLength="100.5278" x="1452.56" y="392.4984">:requiresUpdate</text></g><!--link TH to TDOC--><g class="link" data-entity-1="TH" data-entity-2="TDOC" data-source-line="48" data-uid="lnk34" id="link_TH_TDOC"><path d="M1588.88,349.41 C1588.88,372.13 1588.88,396.86 1588.88,419.56" fill="none" id="TH-to-TDOC" style="stroke:#181818;stroke-width:1;"/><polygon fill="#181818" points="1588.88,425.56,1592.88,416.56,1588.88,420.56,1584.88,416.56,1588.88,425.56" style="stroke:#181818;stroke-width:1;"/><text fill="#000000" font-family="sans-serif" font-size="13" lengthAdjust="spacing" textLength="100.5278" x="1589.88" y="392.4984">:requiresUpdate</text></g><!--link ET to TDOC--><g class="link" data-entity-1="ET" data-entity-2="TDOC" data-source-line="49" data-uid="lnk35" id="link_ET_TDOC"><path d="M1736.56,349.28 C1726.88,364.61 1713.78,382.65 1698.88,395.93 C1683.18,409.93 1669.0006,419.1776 1650.8006,428.7476" fill="none" id="ET-to-TDOC" style="stroke:#181818;stroke-width:1;"/><polygon fill="#181818" points="1645.49,431.54,1655.3175,430.8917,1649.9155,429.213,1651.5943,423.811,1645.49,431.54" style="stroke:#181818;stroke-width:1;"/><text fill="#000000" font-family="sans-serif" font-size="13" lengthAdjust="spacing" textLength="100.5278" x="1716.03" y="392.4984">:requiresUpdate</text></g><!--link TD to MO--><g class="link" data-entity-1="TD" data-entity-2="MO" data-source-line="51" data-uid="lnk36" id="link_TD_MO"><path d="M593.88,349.41 C593.88,372.13 593.88,396.86 593.88,419.56" fill="none" id="TD-to-MO" style="stroke:#181818;stroke-width:1;"/><polygon fill="#181818" points="593.88,425.56,597.88,416.56,593.88,420.56,589.88,416.56,593.88,425.56" style="stroke:#181818;stroke-width:1;"/><text fill="#000000" font-family="sans-serif" font-size="13" lengthAdjust="spacing" textLength="100.5278" x="594.88" y="392.4984">:requiresUpdate</text></g><!--link TC to MO--><g class="link" data-entity-1="TC" data-entity-2="MO" data-source-line="52" data-uid="lnk37" id="link_TC_MO"><path d="M143.76,334.88 C241.01,361.14 424.7675,410.7557 524.0075,437.5557" fill="none" id="TC-to-MO" style="stroke:#181818;stroke-width:1;"/><polygon fill="#181818" points="529.8,439.12,522.1541,432.9119,524.9729,437.8164,520.0684,440.6352,529.8,439.12" style="stroke:#181818;stroke-width:1;"/><text fill="#000000" font-family="sans-serif" font-size="13" lengthAdjust="spacing" textLength="100.5278" x="369.97" y="392.4984">:requiresUpdate</text></g><!--link TA to MO--><g class="link" data-entity-1="TA" data-entity-2="MO" data-source-line="53" data-uid="lnk38" id="link_TA_MO"><path d="M857.46,347.54 C798.51,371.89 720.6455,404.0593 663.5355,427.6493" fill="none" id="TA-to-MO" style="stroke:#181818;stroke-width:1;"/><polygon fill="#181818" points="657.99,429.94,667.8354,430.201,662.6113,428.0311,664.7812,422.807,657.99,429.94" style="stroke:#181818;stroke-width:1;"/><text fill="#000000" font-family="sans-serif" font-size="13" lengthAdjust="spacing" textLength="100.5278" x="781.88" y="392.4984">:requiresUpdate</text></g><!--SRC=[VPB1KeCm48RlF4Mcb-gXBz23CmofzY13eP6JbmZRDWe99c4StzwaWDPXmuK3txURFvjTaqHfS9-sKnAaDP5KDP1LcXnAteYQMwLVvPtwQhP9musvNn5kI5gEskW89HdNPx1pjMIZUZp4HVwSzw05cBbtp6SjYxx1pBA8ehLBB4_YtEkh-HTw-3qlIXwVHibtfN0IKlXAf7z1HvDTD9YBQcf4OljHsccjD8EsQxZ5qkwOJyl0sFcG_L_ABKVQqnjbk1CM8hcnOcD01wx4ucb2glh8tjwXieYLPZugLLNVkf3_1Wlsecf7iAhVgDyTu0gZMN8xVLGglEJEFqBBfHKLeT21h45MRb-Yj2IRpOFR9h8bMmsVlN1lyzAvHO697VCmAuimSwk1mCWTvIcZ29nO76OfLXUvZC6c4ul336_gBkTXWIOT6Dili3ZC_ADWH_gPNMinEa4yhOivZ03jx88kq1rReX4RMgSPrZXPO76O_G00]--></g></svg>