<svg xmlns="http://www.w3.org/2000/svg" xmlns:xlink="http://www.w3.org/1999/xlink" contentStyleType="text/css" data-diagram-type="SEQUENCE" height="416px" preserveAspectRatio="none" style="width:746px;height:416px;background:#FFFFFF;" version="1.1" viewBox="0 0 746 416" width="746px" zoomAndPan="magnify"><defs/><g><g><title>Hypercube Analyzer</title><rect fill="#FFFFFF" height="29.3105" style="stroke:#181818;stroke-width:1;" width="10" x="212.6582" y="112.7988"/></g><g><title>Trajectory Predictor</title><rect fill="#FFFFFF" height="29.3105" style="stroke:#181818;stroke-width:1;" width="10" x="371.4321" y="171.4199"/></g><g><title>BFG9K Validator</title><rect fill="#FFFFFF" height="29.3105" style="stroke:#181818;stroke-width:1;" width="10" x="516.8794" y="230.041"/></g><g><title>Telemetry Collector</title><rect fill="#FFFFFF" height="29.3105" style="stroke:#181818;stroke-width:1;" width="10" x="661.9678" y="288.6621"/></g><g><title>Targeting System</title><rect fill="#000000" fill-opacity="0.00000" height="254.4844" width="8" x="63.0352" y="81.4883"/><line style="stroke:#181818;stroke-width:0.5;stroke-dasharray:5.0,5.0;" x1="67" x2="67" y1="81.4883" y2="335.9727"/></g><g><title>Hypercube Analyzer</title><rect fill="#000000" fill-opacity="0.00000" height="254.4844" width="8" x="213.6582" y="81.4883"/><line style="stroke:#181818;stroke-width:0.5;stroke-dasharray:5.0,5.0;" x1="216.7397" x2="216.7397" y1="81.4883" y2="335.9727"/></g><g><title>Trajectory Predictor</title><rect fill="#000000" fill-opacity="0.00000" height="254.4844" width="8" x="372.4321" y="81.4883"/><line style="stroke:#181818;stroke-width:0.5;stroke-dasharray:5.0,5.0;" x1="375.5767" x2="375.5767" y1="81.4883" y2="335.9727"/></g><g><title>BFG9K Validator</title><rect fill="#000000" fill-opacity="0.00000" height="254.4844" width="8" x="517.8794" y="81.4883"/><line style="stroke:#181818;stroke-width:0.5;stroke-dasharray:5.0,5.0;" x1="521.2876" x2="521.2876" y1="81.4883" y2="335.9727"/></g><g><title>Telemetry Collector</title><rect fill="#000000" fill-opacity="0.00000" height="254.4844" width="8" x="662.9678" y="81.4883"/><line style="stroke:#181818;stroke-width:0.5;stroke-dasharray:5.0,5.0;" x1="666.4712" x2="666.4712" y1="81.4883" y2="335.9727"/></g><g class="participant participant-head" data-participant="TS"><text fill="#000000" font-family="sans-serif" font-size="14" lengthAdjust="spacing" textLength="118.0703" x="5" y="78.5352">Targeting System</text><ellipse cx="67.0352" cy="13.5" fill="#E2E2F0" rx="8" ry="8" style="stroke:#181818;stroke-width:0.5;"/><path d="M67.0352,21.5 L67.0352,48.5 M54.0352,29.5 L80.0352,29.5 M67.0352,48.5 L54.0352,63.5 M67.0352,48.5 L80.0352,63.5" fill="none" style="stroke:#181818;stroke-width:0.5;"/></g><g class="participant participant-tail" data-participant="TS"><text fill="#000000" font-family="sans-serif" font-size="14" lengthAdjust="spacing" textLength="118.0703" x="5" y="348.5078">Targeting System</text><ellipse cx="67.0352" cy="359.9609" fill="#E2E2F0" rx="8" ry="8" style="stroke:#181818;stroke-width:0.5;"/><path d="M67.0352,367.9609 L67.0352,394.9609 M54.0352,375.9609 L80.0352,375.9609 M67.0352,394.9609 L54.0352,409.9609 M67.0352,394.9609 L80.0352,409.9609" fill="none" style="stroke:#181818;stroke-width:0.5;"/></g><g class="participant participant-head" data-participant="HA"><rect fill="#E2E2F0" height="30.4883" rx="2.5" ry="2.5" style="stroke:#181818;stroke-width:0.5;" width="149.8369" x="142.7397" y="50"/><text fill="#000000" font-family="sans-serif" font-size="14" lengthAdjust="spacing" textLength="135.8369" x="149.7397" y="70.5352">Hypercube Analyzer</text></g><g class="participant participant-tail" data-participant="HA"><rect fill="#E2E2F0" height="30.4883" rx="2.5" ry="2.5" style="stroke:#181818;stroke-width:0.5;" width="149.8369" x="142.7397" y="334.9727"/><text fill="#000000" font-family="sans-serif" font-size="14" lengthAdjust="spacing" textLength="135.8369" x="149.7397" y="355.5078">Hypercube Analyzer</text></g><g class="participant participant-head" data-participant="TP"><rect fill="#E2E2F0" height="30.4883" rx="2.5" ry="2.5" style="stroke:#181818;stroke-width:0.5;" width="147.7109" x="302.5767" y="50"/><text fill="#000000" font-family="sans-serif" font-size="14" lengthAdjust="spacing" textLength="133.7109" x="309.5767" y="70.5352">Trajectory Predictor</text></g><g class="participant participant-tail" data-participant="TP"><rect fill="#E2E2F0" height="30.4883" rx="2.5" ry="2.5" style="stroke:#181818;stroke-width:0.5;" width="147.7109" x="302.5767" y="334.9727"/><text fill="#000000" font-family="sans-serif" font-size="14" lengthAdjust="spacing" textLength="133.7109" x="309.5767" y="355.5078">Trajectory Predictor</text></g><g class="participant participant-head" data-participant="BV"><rect fill="#E2E2F0" height="30.4883" rx="2.5" ry="2.5" style="stroke:#181818;stroke-width:0.5;" width="123.1836" x="460.2876" y="50"/><text fill="#000000" font-family="sans-serif" font-size="14" lengthAdjust="spacing" textLength="109.1836" x="467.2876" y="70.5352">BFG9K Validator</text></g><g class="participant participant-tail" data-participant="BV"><rect fill="#E2E2F0" height="30.4883" rx="2.5" ry="2.5" style="stroke:#181818;stroke-width:0.5;" width="123.1836" x="460.2876" y="334.9727"/><text fill="#000000" font-family="sans-serif" font-size="14" lengthAdjust="spacing" textLength="109.1836" x="467.2876" y="355.5078">BFG9K Validator</text></g><g class="participant participant-head" data-participant="TC"><rect fill="#E2E2F0" height="30.4883" rx="2.5" ry="2.5" style="stroke:#181818;stroke-width:0.5;" width="146.9932" x="593.4712" y="50"/><text fill="#000000" font-family="sans-serif" font-size="14" lengthAdjust="spacing" textLength="132.9932" x="600.4712" y="70.5352">Telemetry Collector</text></g><g class="participant participant-tail" data-participant="TC"><rect fill="#E2E2F0" height="30.4883" rx="2.5" ry="2.5" style="stroke:#181818;stroke-width:0.5;" width="146.9932" x="593.4712" y="334.9727"/><text fill="#000000" font-family="sans-serif" font-size="14" lengthAdjust="spacing" textLength="132.9932" x="600.4712" y="355.5078">Telemetry Collector</text></g><g><title>Hypercube Analyzer</title><rect fill="#FFFFFF" height="29.3105" style="stroke:#181818;stroke-width:1;" width="10" x="212.6582" y="112.7988"/></g><g><title>Trajectory Predictor</title><rect fill="#FFFFFF" height="29.3105" style="stroke:#181818;stroke-width:1;" width="10" x="371.4321" y="171.4199"/></g><g><title>BFG9K Validator</title><rect fill="#FFFFFF" height="29.3105" style="stroke:#181818;stroke-width:1;" width="10" x="516.8794" y="230.041"/></g><g><title>Telemetry Collector</title><rect fill="#FFFFFF" height="29.3105" style="stroke:#181818;stroke-width:1;" width="10" x="661.9678" y="288.6621"/></g><g class="message" data-participant-1="TS" data-participant-2="HA"><polygon fill="#181818" points="200.6582,108.7988,210.6582,112.7988,200.6582,116.7988,204.6582,112.7988" style="stroke:#181818;stroke-width:1;"/><line style="stroke:#181818;stroke-width:1;" x1="67.0352" x2="206.6582" y1="112.7988" y2="112.7988"/><text fill="#000000" font-family="sans-serif" font-size="13" lengthAdjust="spacing" textLength="126.623" x="74.0352" y="108.0566">analyze_dimensions</text></g><g class="message" data-participant-1="HA" data-participant-2="TS"><polygon fill="#181818" points="78.0352,138.1094,68.0352,142.1094,78.0352,146.1094,74.0352,142.1094" style="stroke:#181818;stroke-width:1;"/><line style="stroke:#181818;stroke-width:1;stroke-dasharray:2.0,2.0;" x1="72.0352" x2="216.6582" y1="142.1094" y2="142.1094"/><text fill="#000000" font-family="sans-serif" font-size="13" lengthAdjust="spacing" textLength="103.2637" x="84.0352" y="137.3672">current_position</text></g><g class="message" data-participant-1="TS" data-participant-2="TP"><polygon fill="#181818" points="359.4321,167.4199,369.4321,171.4199,359.4321,175.4199,363.4321,171.4199" style="stroke:#181818;stroke-width:1;"/><line style="stroke:#181818;stroke-width:1;" x1="67.0352" x2="365.4321" y1="171.4199" y2="171.4199"/><text fill="#000000" font-family="sans-serif" font-size="13" lengthAdjust="spacing" textLength="110.8809" x="74.0352" y="166.6777">predict_trajectory</text></g><g class="message" data-participant-1="TP" data-participant-2="TS"><polygon fill="#181818" points="78.0352,196.7305,68.0352,200.7305,78.0352,204.7305,74.0352,200.7305" style="stroke:#181818;stroke-width:1;"/><line style="stroke:#181818;stroke-width:1;stroke-dasharray:2.0,2.0;" x1="72.0352" x2="375.4321" y1="200.7305" y2="200.7305"/><text fill="#000000" font-family="sans-serif" font-size="13" lengthAdjust="spacing" textLength="102.6924" x="84.0352" y="195.9883">future_positions</text></g><g class="message" data-participant-1="TS" data-participant-2="BV"><polygon fill="#181818" points="504.8794,226.041,514.8794,230.041,504.8794,234.041,508.8794,230.041" style="stroke:#181818;stroke-width:1;"/><line style="stroke:#181818;stroke-width:1;" x1="67.0352" x2="510.8794" y1="230.041" y2="230.041"/><text fill="#000000" font-family="sans-serif" font-size="13" lengthAdjust="spacing" textLength="92.9614" x="74.0352" y="225.2988">validate_target</text></g><g class="message" data-participant-1="BV" data-participant-2="TS"><polygon fill="#181818" points="78.0352,255.3516,68.0352,259.3516,78.0352,263.3516,74.0352,259.3516" style="stroke:#181818;stroke-width:1;"/><line style="stroke:#181818;stroke-width:1;stroke-dasharray:2.0,2.0;" x1="72.0352" x2="520.8794" y1="259.3516" y2="259.3516"/><text fill="#000000" font-family="sans-serif" font-size="13" lengthAdjust="spacing" textLength="103.835" x="84.0352" y="254.6094">validation_result</text></g><g class="message" data-participant-1="TS" data-participant-2="TC"><polygon fill="#181818" points="649.9678,284.6621,659.9678,288.6621,649.9678,292.6621,653.9678,288.6621" style="stroke:#181818;stroke-width:1;"/><line style="stroke:#181818;stroke-width:1;" x1="67.0352" x2="655.9678" y1="288.6621" y2="288.6621"/><text fill="#000000" font-family="sans-serif" font-size="13" lengthAdjust="spacing" textLength="106.8818" x="74.0352" y="283.9199">collect_telemetry</text></g><g class="message" data-participant-1="TC" data-participant-2="TS"><polygon fill="#181818" points="78.0352,313.9727,68.0352,317.9727,78.0352,321.9727,74.0352,317.9727" style="stroke:#181818;stroke-width:1;"/><line style="stroke:#181818;stroke-width:1;stroke-dasharray:2.0,2.0;" x1="72.0352" x2="665.9678" y1="317.9727" y2="317.9727"/><text fill="#000000" font-family="sans-serif" font-size="13" lengthAdjust="spacing" textLength="93.3613" x="84.0352" y="313.2305">telemetry_data</text></g><!--SRC=[NP11ReCm44NtFiM8VGxGB2e5f2PIDqWWjjOK9f4hOv0zH2Adxn30G7TUFB_v_sFDdOUaHFyWDku1nHYOsWGmG5ce7ZsRslJe69BRs9ElXn-2YqCxliY_iTlbY9KUVsdIZf1xQipqd7tv4Ko_hX_VKA4r3QvCMlsJaQMMM5nPPorjhaofie3Jfvo7C-0SI3Uc9HTCvuB2ciqJcQPymfm4bGzdg0VloR7kks1OIDNG7bsiPIveFyVN71jjLYaZJBJU1nuyHMdOMmLTh6abw7CkJ9hVeszAwIv0L2wSsBIdC5ZUEuLTasPJgNaSpUjSkw2P4YHQ8w75ZOUOcVe3]--></g></svg>