<svg xmlns="http://www.w3.org/2000/svg" xmlns:xlink="http://www.w3.org/1999/xlink" contentStyleType="text/css" data-diagram-type="DESCRIPTION" height="229px" preserveAspectRatio="none" style="width:1013px;height:229px;background:#FFFFFF;" version="1.1" viewBox="0 0 1013 229" width="1013px" zoomAndPan="magnify"><defs/><g><!--cluster Hypercube Space--><g class="cluster" data-entity="Hypercube Space" data-source-line="2" data-uid="ent0002" id="cluster_Hypercube Space"><path d="M8.5,6 L132.3281,6 A3.75,3.75 0 0 1 134.8281,8.5 L141.8281,28.4883 L732.5,28.4883 A2.5,2.5 0 0 1 735,30.9883 L735,100.99 A2.5,2.5 0 0 1 732.5,103.49 L8.5,103.49 A2.5,2.5 0 0 1 6,100.99 L6,8.5 A2.5,2.5 0 0 1 8.5,6" fill="none" style="stroke:#000000;stroke-width:1.5;"/><line style="stroke:#000000;stroke-width:1.5;" x1="6" x2="141.8281" y1="28.4883" y2="28.4883"/><text fill="#000000" font-family="sans-serif" font-size="14" font-weight="bold" lengthAdjust="spacing" textLength="122.8281" x="10" y="21.5352">Hypercube Space</text></g><!--entity SA--><g class="entity" data-entity="SA" data-source-line="3" data-uid="ent0003" id="entity_SA"><rect fill="#F1F1F1" height="46.4883" rx="2.5" ry="2.5" style="stroke:#181818;stroke-width:0.5;" width="166.3486" x="21.83" y="41"/><path d="M77.2795,41 L77.2795,46 L70.2795,53 L21.83,53" fill="none" style="stroke:#181818;stroke-width:0.5;"/><text fill="#000000" font-family="sans-serif" font-size="14" lengthAdjust="spacing" textLength="126.3486" x="36.83" y="74.5352">Semantic Accuracy</text></g><!--entity RT--><g class="entity" data-entity="RT" data-source-line="4" data-uid="ent0004" id="entity_RT"><rect fill="#F1F1F1" height="46.4883" rx="2.5" ry="2.5" style="stroke:#181818;stroke-width:0.5;" width="143.0244" x="223.49" y="41"/><path d="M271.1648,41 L271.1648,46 L264.1648,53 L223.49,53" fill="none" style="stroke:#181818;stroke-width:0.5;"/><text fill="#000000" font-family="sans-serif" font-size="14" lengthAdjust="spacing" textLength="103.0244" x="238.49" y="74.5352">Response Time</text></g><!--entity CF--><g class="entity" data-entity="CF" data-source-line="5" data-uid="ent0005" id="entity_CF"><rect fill="#F1F1F1" height="46.4883" rx="2.5" ry="2.5" style="stroke:#181818;stroke-width:0.5;" width="116.4395" x="401.78" y="41"/><path d="M440.5932,41 L440.5932,46 L433.5932,53 L401.78,53" fill="none" style="stroke:#181818;stroke-width:0.5;"/><text fill="#000000" font-family="sans-serif" font-size="14" lengthAdjust="spacing" textLength="76.4395" x="416.78" y="74.5352">Confidence</text></g><!--entity VS--><g class="entity" data-entity="VS" data-source-line="6" data-uid="ent0006" id="entity_VS"><rect fill="#F1F1F1" height="46.4883" rx="2.5" ry="2.5" style="stroke:#181818;stroke-width:0.5;" width="165.166" x="553.42" y="41"/><path d="M608.4753,41 L608.4753,46 L601.4753,53 L553.42,53" fill="none" style="stroke:#181818;stroke-width:0.5;"/><text fill="#000000" font-family="sans-serif" font-size="14" lengthAdjust="spacing" textLength="125.166" x="568.42" y="74.5352">Validation Success</text></g><!--entity CP--><g class="entity" data-entity="CP" data-source-line="9" data-uid="ent0007" id="entity_CP"><polygon fill="#F1F1F1" points="753.96,51,763.96,41,904.0391,41,904.0391,77.4883,894.0391,87.4883,753.96,87.4883,753.96,51" style="stroke:#181818;stroke-width:0.5;"/><line style="stroke:#181818;stroke-width:0.5;" x1="894.0391" x2="904.0391" y1="51" y2="41"/><line style="stroke:#181818;stroke-width:0.5;" x1="753.96" x2="894.0391" y1="51" y2="51"/><line style="stroke:#181818;stroke-width:0.5;" x1="894.0391" x2="894.0391" y1="51" y2="87.4883"/><text fill="#000000" font-family="sans-serif" font-size="14" lengthAdjust="spacing" textLength="110.0791" x="768.96" y="74.5352">Current Position</text></g><!--entity FP--><g class="entity" data-entity="FP" data-source-line="10" data-uid="ent0008" id="entity_FP"><polygon fill="#F1F1F1" points="666.92,176.49,676.92,166.49,809.0899,166.49,809.0899,202.9783,799.0899,212.9783,666.92,212.9783,666.92,176.49" style="stroke:#181818;stroke-width:0.5;"/><line style="stroke:#181818;stroke-width:0.5;" x1="799.0899" x2="809.0899" y1="176.49" y2="166.49"/><line style="stroke:#181818;stroke-width:0.5;" x1="666.92" x2="799.0899" y1="176.49" y2="176.49"/><line style="stroke:#181818;stroke-width:0.5;" x1="799.0899" x2="799.0899" y1="176.49" y2="212.9783"/><text fill="#000000" font-family="sans-serif" font-size="14" lengthAdjust="spacing" textLength="102.1699" x="681.92" y="200.0252">Future Position</text></g><!--entity OP--><g class="entity" data-entity="OP" data-source-line="11" data-uid="ent0009" id="entity_OP"><polygon fill="#F1F1F1" points="843.83,176.49,853.83,166.49,996.1718,166.49,996.1718,202.9783,986.1718,212.9783,843.83,212.9783,843.83,176.49" style="stroke:#181818;stroke-width:0.5;"/><line style="stroke:#181818;stroke-width:0.5;" x1="986.1718" x2="996.1718" y1="176.49" y2="166.49"/><line style="stroke:#181818;stroke-width:0.5;" x1="843.83" x2="986.1718" y1="176.49" y2="176.49"/><line style="stroke:#181818;stroke-width:0.5;" x1="986.1718" x2="986.1718" y1="176.49" y2="212.9783"/><text fill="#000000" font-family="sans-serif" font-size="14" lengthAdjust="spacing" textLength="112.3418" x="858.83" y="200.0252">Optimal Position</text></g><!--link CP to FP--><g class="link" data-entity-1="CP" data-entity-2="FP" data-source-line="13" data-uid="lnk10" id="link_CP_FP"><path d="M812.31,87.9 C795.89,110.18 774.5306,139.1707 758.1406,161.4007" fill="none" id="CP-to-FP" style="stroke:#181818;stroke-width:1;"/><polygon fill="#181818" points="754.58,166.23,763.1404,161.3598,757.5472,162.2056,756.7014,156.6123,754.58,166.23" style="stroke:#181818;stroke-width:1;"/><text fill="#000000" font-family="sans-serif" font-size="13" lengthAdjust="spacing" textLength="60.1758" x="789.95" y="133.0584">trajectory</text></g><!--link CP to OP--><g class="link" data-entity-1="CP" data-entity-2="OP" data-source-line="14" data-uid="lnk11" id="link_CP_OP"><path d="M845.69,87.9 C862.11,110.18 883.4694,139.1707 899.8594,161.4007" fill="none" id="CP-to-OP" style="stroke:#181818;stroke-width:1;"/><polygon fill="#181818" points="903.42,166.23,901.2986,156.6123,900.4528,162.2056,894.8596,161.3598,903.42,166.23" style="stroke:#181818;stroke-width:1;"/><text fill="#000000" font-family="sans-serif" font-size="13" lengthAdjust="spacing" textLength="100.4136" x="880.95" y="133.0584">targeting vector</text></g><!--link SA to RT--><!--link RT to CF--><!--link CF to VS--><!--SRC=[LSz1QiCm40NGlKunUEyBT14m1jETZMMo2LrCnnDNRIo9aLGmfNUlx3IWQFdV7y7tI5-uC5IlcsUXzCwWFH9NyACWlwlWcbNpYZOQWeOe2T9M0GRGJTaPENXd0yDaLZvyd4fldRsQcItTiUrAFEFDp1YDiw0J4OTmbCvQ_IfbtRpV9n6s4GONp5wy_pByQvTY4dx6xe6zZsR5sxFsWrBj07LzoaLuWIZuoHITR8-uFsAKXQEn2tmVgfHkeBvyc3blUJlj8yUf3FAmjYk3FE8F]--></g></svg>