<svg xmlns="http://www.w3.org/2000/svg" xmlns:xlink="http://www.w3.org/1999/xlink" contentStyleType="text/css" data-diagram-type="CLASS" height="896px" preserveAspectRatio="none" style="width:871px;height:896px;background:#FFFFFF;" version="1.1" viewBox="0 0 871 896" width="871px" zoomAndPan="magnify"><defs/><g><!--cluster MCP Validator--><g class="cluster" data-entity="MCP Validator" data-source-line="2" data-uid="ent0002" id="cluster_MCP Validator"><path d="M8.5,6 L110.9863,6 A3.75,3.75 0 0 1 113.4863,8.5 L120.4863,28.4883 L755.5,28.4883 A2.5,2.5 0 0 1 758,30.9883 L758,590.25 A2.5,2.5 0 0 1 755.5,592.75 L8.5,592.75 A2.5,2.5 0 0 1 6,590.25 L6,8.5 A2.5,2.5 0 0 1 8.5,6" fill="none" style="stroke:#000000;stroke-width:1.5;"/><line style="stroke:#000000;stroke-width:1.5;" x1="6" x2="120.4863" y1="28.4883" y2="28.4883"/><text fill="#000000" font-family="sans-serif" font-size="14" font-weight="bold" lengthAdjust="spacing" textLength="101.4863" x="10" y="21.5352">MCP Validator</text></g><!--cluster Tests--><g class="cluster" data-entity="Tests" data-source-line="34" data-uid="ent0006" id="cluster_Tests"><path d="M355.5,641.75 L395.8682,641.75 A3.75,3.75 0 0 1 398.3682,644.25 L405.3682,664.2383 L861.5,664.2383 A2.5,2.5 0 0 1 864,666.7383 L864,886.64 A2.5,2.5 0 0 1 861.5,889.14 L355.5,889.14 A2.5,2.5 0 0 1 353,886.64 L353,644.25 A2.5,2.5 0 0 1 355.5,641.75" fill="none" style="stroke:#000000;stroke-width:1.5;"/><line style="stroke:#000000;stroke-width:1.5;" x1="353" x2="405.3682" y1="664.2383" y2="664.2383"/><text fill="#000000" font-family="sans-serif" font-size="14" font-weight="bold" lengthAdjust="spacing" textLength="39.3682" x="357" y="657.2852">Tests</text></g><!--class ValidationTarget--><g class="entity" data-entity="ValidationTarget" data-source-line="3" data-uid="ent0003" id="entity_ValidationTarget"><rect fill="#F1F1F1" height="146.9297" rx="2.5" ry="2.5" style="stroke:#181818;stroke-width:0.5;" width="199.8584" x="477.07" y="41"/><ellipse cx="517.1294" cy="57" fill="#ADD1B2" rx="11" ry="11" style="stroke:#181818;stroke-width:1;"/><path d="M519.6025,63.1431 Q519.0215,63.4419 518.3823,63.5913 Q517.7431,63.7407 517.0376,63.7407 Q514.5307,63.7407 513.2109,62.0889 Q511.8911,60.437 511.8911,57.3159 Q511.8911,54.1865 513.2109,52.5347 Q514.5307,50.8828 517.0376,50.8828 Q517.7431,50.8828 518.3906,51.0322 Q519.0381,51.1816 519.6025,51.4805 L519.6025,54.2031 Q518.9717,53.6221 518.3782,53.3523 Q517.7846,53.0825 517.1538,53.0825 Q515.8091,53.0825 515.1242,54.1492 Q514.4394,55.2158 514.4394,57.3159 Q514.4394,59.4077 515.1242,60.4744 Q515.8091,61.541 517.1538,61.541 Q517.7846,61.541 518.3782,61.2712 Q518.9717,61.0015 519.6025,60.4204 Z " fill="#000000"/><text fill="#000000" font-family="sans-serif" font-size="14" lengthAdjust="spacing" textLength="112.1709" x="536.6981" y="62.291">ValidationTarget</text><line style="stroke:#181818;stroke-width:0.5;" x1="478.07" x2="675.9284" y1="73" y2="73"/><ellipse cx="488.07" cy="86.7441" fill="none" rx="3" ry="3" style="stroke:#038048;stroke-width:1;"/><text fill="#000000" font-family="sans-serif" font-size="14" lengthAdjust="spacing" textLength="71.709" x="497.07" y="90.5352">uri: URIRef</text><ellipse cx="488.07" cy="103.2324" fill="none" rx="3" ry="3" style="stroke:#038048;stroke-width:1;"/><text fill="#000000" font-family="sans-serif" font-size="14" lengthAdjust="spacing" textLength="103.585" x="497.07" y="107.0234">target_type: str</text><ellipse cx="488.07" cy="119.7207" fill="none" rx="3" ry="3" style="stroke:#038048;stroke-width:1;"/><text fill="#000000" font-family="sans-serif" font-size="14" lengthAdjust="spacing" textLength="76.4736" x="497.07" y="123.5117">priority: str</text><ellipse cx="488.07" cy="136.209" fill="none" rx="3" ry="3" style="stroke:#038048;stroke-width:1;"/><text fill="#000000" font-family="sans-serif" font-size="14" lengthAdjust="spacing" textLength="160.877" x="497.07" y="140">metadata: Dict[str, Any]</text><ellipse cx="488.07" cy="152.6973" fill="none" rx="3" ry="3" style="stroke:#038048;stroke-width:1;"/><text fill="#000000" font-family="sans-serif" font-size="14" lengthAdjust="spacing" textLength="173.8584" x="497.07" y="156.4883">validation_errors: List[str]</text><line style="stroke:#181818;stroke-width:0.5;" x1="478.07" x2="675.9284" y1="163.4414" y2="163.4414"/><ellipse cx="488.07" cy="177.1855" fill="#84BE84" rx="3" ry="3" style="stroke:#038048;stroke-width:1;"/><text fill="#000000" font-family="sans-serif" font-size="14" lengthAdjust="spacing" textLength="135.5908" x="497.07" y="180.9766">add_error(error: str)</text></g><!--class MCPValidator--><g class="entity" data-entity="MCPValidator" data-source-line="12" data-uid="ent0004" id="entity_MCPValidator"><rect fill="#F1F1F1" height="311.8125" rx="2.5" ry="2.5" style="stroke:#181818;stroke-width:0.5;" width="719.5537" x="22.22" y="264.93"/><ellipse cx="332.4622" cy="280.93" fill="#ADD1B2" rx="11" ry="11" style="stroke:#181818;stroke-width:1;"/><path d="M334.9353,287.0731 Q334.3543,287.3719 333.7151,287.5213 Q333.076,287.6707 332.3704,287.6707 Q329.8636,287.6707 328.5437,286.0189 Q327.2239,284.367 327.2239,281.2459 Q327.2239,278.1165 328.5437,276.4647 Q329.8636,274.8128 332.3704,274.8128 Q333.076,274.8128 333.7234,274.9622 Q334.3709,275.1116 334.9353,275.4105 L334.9353,278.1331 Q334.3045,277.5521 333.711,277.2823 Q333.1175,277.0125 332.4866,277.0125 Q331.1419,277.0125 330.4571,278.0792 Q329.7722,279.1458 329.7722,281.2459 Q329.7722,283.3377 330.4571,284.4044 Q331.1419,285.471 332.4866,285.471 Q333.1175,285.471 333.711,285.2012 Q334.3045,284.9315 334.9353,284.3504 Z " fill="#000000"/><text fill="#000000" font-family="sans-serif" font-size="14" lengthAdjust="spacing" textLength="90.5693" x="352.9622" y="286.221">MCPValidator</text><line style="stroke:#181818;stroke-width:0.5;" x1="23.22" x2="740.7737" y1="296.93" y2="296.93"/><rect fill="none" height="6" style="stroke:#C82930;stroke-width:1;" width="6" x="30.22" y="307.6741"/><text fill="#000000" font-family="sans-serif" font-size="14" lengthAdjust="spacing" textLength="139.9111" x="42.22" y="314.4652">config: Dict[str, Any]</text><rect fill="none" height="6" style="stroke:#C82930;stroke-width:1;" width="6" x="30.22" y="324.1624"/><text fill="#000000" font-family="sans-serif" font-size="14" lengthAdjust="spacing" textLength="232.3535" x="42.22" y="330.9534">validation_rules: Dict[str, Callable]</text><line style="stroke:#181818;stroke-width:0.5;" x1="23.22" x2="740.7737" y1="337.9066" y2="337.9066"/><ellipse cx="33.22" cy="351.6507" fill="#84BE84" rx="3" ry="3" style="stroke:#038048;stroke-width:1;"/><text fill="#000000" font-family="sans-serif" font-size="14" lengthAdjust="spacing" textLength="242.4297" x="42.22" y="355.4417">_to_uriref(identifier: Any) -&gt; URIRef</text><ellipse cx="33.22" cy="368.139" fill="#84BE84" rx="3" ry="3" style="stroke:#038048;stroke-width:1;"/><text fill="#000000" font-family="sans-serif" font-size="14" lengthAdjust="spacing" textLength="612.1309" x="42.22" y="371.93">_create_validation_target(identifier: Any, target_type: str, priority: str) -&gt; ValidationTarget</text><ellipse cx="33.22" cy="384.6273" fill="#84BE84" rx="3" ry="3" style="stroke:#038048;stroke-width:1;"/><text fill="#000000" font-family="sans-serif" font-size="14" lengthAdjust="spacing" textLength="693.5537" x="42.22" y="388.4183">_get_sparql_value(row: Union[ResultRow, Mapping, Tuple, bool], var_name: str) -&gt; Optional[Identifier]</text><ellipse cx="33.22" cy="401.1155" fill="#84BE84" rx="3" ry="3" style="stroke:#038048;stroke-width:1;"/><text fill="#000000" font-family="sans-serif" font-size="14" lengthAdjust="spacing" textLength="336.2256" x="42.22" y="404.9066">_examine_sparql_result(row: ResultRow) -&gt; None</text><ellipse cx="33.22" cy="417.6038" fill="#84BE84" rx="3" ry="3" style="stroke:#038048;stroke-width:1;"/><text fill="#000000" font-family="sans-serif" font-size="14" lengthAdjust="spacing" textLength="353.5752" x="42.22" y="421.3948">_log_query_results(query: str, results: Any) -&gt; None</text><ellipse cx="33.22" cy="434.0921" fill="#84BE84" rx="3" ry="3" style="stroke:#038048;stroke-width:1;"/><text fill="#000000" font-family="sans-serif" font-size="14" lengthAdjust="spacing" textLength="439.5645" x="42.22" y="437.8831">acquire_targets(graph: Graph) -&gt; Dict[str, List[ValidationTarget]]</text><ellipse cx="33.22" cy="450.5804" fill="#84BE84" rx="3" ry="3" style="stroke:#038048;stroke-width:1;"/><text fill="#000000" font-family="sans-serif" font-size="14" lengthAdjust="spacing" textLength="448.376" x="42.22" y="454.3714">validate_target(target: ValidationTarget, graph: Graph) -&gt; List[str]</text><ellipse cx="33.22" cy="467.0687" fill="#84BE84" rx="3" ry="3" style="stroke:#038048;stroke-width:1;"/><text fill="#000000" font-family="sans-serif" font-size="14" lengthAdjust="spacing" textLength="300.46" x="42.22" y="470.8597">validate_hierarchy(graph: Graph) -&gt; List[str]</text><ellipse cx="33.22" cy="483.557" fill="#84BE84" rx="3" ry="3" style="stroke:#038048;stroke-width:1;"/><text fill="#000000" font-family="sans-serif" font-size="14" lengthAdjust="spacing" textLength="305.5801" x="42.22" y="487.348">validate_semantics(graph: Graph) -&gt; List[str]</text><ellipse cx="33.22" cy="500.0452" fill="#84BE84" rx="3" ry="3" style="stroke:#038048;stroke-width:1;"/><text fill="#000000" font-family="sans-serif" font-size="14" lengthAdjust="spacing" textLength="272.3369" x="42.22" y="503.8362">validate_shacl(graph: Graph) -&gt; List[str]</text><ellipse cx="33.22" cy="516.5335" fill="#84BE84" rx="3" ry="3" style="stroke:#038048;stroke-width:1;"/><text fill="#000000" font-family="sans-serif" font-size="14" lengthAdjust="spacing" textLength="307.2617" x="42.22" y="520.3245">validate_properties(graph: Graph) -&gt; List[str]</text><ellipse cx="33.22" cy="533.0218" fill="#84BE84" rx="3" ry="3" style="stroke:#038048;stroke-width:1;"/><text fill="#000000" font-family="sans-serif" font-size="14" lengthAdjust="spacing" textLength="310.8643" x="42.22" y="536.8128">validate_individuals(graph: Graph) -&gt; List[str]</text><ellipse cx="33.22" cy="549.5101" fill="#84BE84" rx="3" ry="3" style="stroke:#038048;stroke-width:1;"/><text fill="#000000" font-family="sans-serif" font-size="14" lengthAdjust="spacing" textLength="277.2861" x="42.22" y="553.3011">validate_bfg9k(graph: Graph) -&gt; List[str]</text><ellipse cx="33.22" cy="565.9984" fill="#84BE84" rx="3" ry="3" style="stroke:#038048;stroke-width:1;"/><text fill="#000000" font-family="sans-serif" font-size="14" lengthAdjust="spacing" textLength="377.0566" x="42.22" y="569.7894">validate(ontology_path: Path) -&gt; Dict[str, Dict[str, Any]]</text></g><!--class TestMCPValidator--><g class="entity" data-entity="TestMCPValidator" data-source-line="35" data-uid="ent0007" id="entity_TestMCPValidator"><rect fill="#F1F1F1" height="196.3945" rx="2.5" ry="2.5" style="stroke:#181818;stroke-width:0.5;" width="200.4668" x="368.77" y="676.75"/><ellipse cx="405.7624" cy="692.75" fill="#ADD1B2" rx="11" ry="11" style="stroke:#181818;stroke-width:1;"/><path d="M408.2356,698.8931 Q407.6545,699.1919 407.0154,699.3413 Q406.3762,699.4907 405.6706,699.4907 Q403.1638,699.4907 401.844,697.8389 Q400.5242,696.187 400.5242,693.0659 Q400.5242,689.9365 401.844,688.2847 Q403.1638,686.6328 405.6706,686.6328 Q406.3762,686.6328 407.0237,686.7822 Q407.6711,686.9316 408.2356,687.2305 L408.2356,689.9531 Q407.6047,689.3721 407.0112,689.1023 Q406.4177,688.8325 405.7868,688.8325 Q404.4421,688.8325 403.7573,689.8992 Q403.0725,690.9658 403.0725,693.0659 Q403.0725,695.1577 403.7573,696.2244 Q404.4421,697.291 405.7868,697.291 Q406.4177,697.291 407.0112,697.0212 Q407.6047,696.7515 408.2356,696.1704 Z " fill="#000000"/><text fill="#000000" font-family="sans-serif" font-size="14" lengthAdjust="spacing" textLength="119.5947" x="424.6496" y="698.041">TestMCPValidator</text><line style="stroke:#181818;stroke-width:0.5;" x1="369.77" x2="568.2368" y1="708.75" y2="708.75"/><line style="stroke:#181818;stroke-width:0.5;" x1="369.77" x2="568.2368" y1="716.75" y2="716.75"/><ellipse cx="379.77" cy="730.4941" fill="#84BE84" rx="3" ry="3" style="stroke:#038048;stroke-width:1;"/><text fill="#000000" font-family="sans-serif" font-size="14" lengthAdjust="spacing" textLength="164.0625" x="388.77" y="734.2852">test_validate_hierarchy()</text><ellipse cx="379.77" cy="746.9824" fill="#84BE84" rx="3" ry="3" style="stroke:#038048;stroke-width:1;"/><text fill="#000000" font-family="sans-serif" font-size="14" lengthAdjust="spacing" textLength="169.1826" x="388.77" y="750.7734">test_validate_semantics()</text><ellipse cx="379.77" cy="763.4707" fill="#84BE84" rx="3" ry="3" style="stroke:#038048;stroke-width:1;"/><text fill="#000000" font-family="sans-serif" font-size="14" lengthAdjust="spacing" textLength="135.9395" x="388.77" y="767.2617">test_validate_shacl()</text><ellipse cx="379.77" cy="779.959" fill="#84BE84" rx="3" ry="3" style="stroke:#038048;stroke-width:1;"/><text fill="#000000" font-family="sans-serif" font-size="14" lengthAdjust="spacing" textLength="170.8643" x="388.77" y="783.75">test_validate_properties()</text><ellipse cx="379.77" cy="796.4473" fill="#84BE84" rx="3" ry="3" style="stroke:#038048;stroke-width:1;"/><text fill="#000000" font-family="sans-serif" font-size="14" lengthAdjust="spacing" textLength="174.4668" x="388.77" y="800.2383">test_validate_individuals()</text><ellipse cx="379.77" cy="812.9355" fill="#84BE84" rx="3" ry="3" style="stroke:#038048;stroke-width:1;"/><text fill="#000000" font-family="sans-serif" font-size="14" lengthAdjust="spacing" textLength="140.8887" x="388.77" y="816.7266">test_validate_bfg9k()</text><ellipse cx="379.77" cy="829.4238" fill="#84BE84" rx="3" ry="3" style="stroke:#038048;stroke-width:1;"/><text fill="#000000" font-family="sans-serif" font-size="14" lengthAdjust="spacing" textLength="94.165" x="388.77" y="833.2148">test_validate()</text><ellipse cx="379.77" cy="845.9121" fill="#84BE84" rx="3" ry="3" style="stroke:#038048;stroke-width:1;"/><text fill="#000000" font-family="sans-serif" font-size="14" lengthAdjust="spacing" textLength="146.0908" x="388.77" y="849.7031">test_acquire_targets()</text><ellipse cx="379.77" cy="862.4004" fill="#84BE84" rx="3" ry="3" style="stroke:#038048;stroke-width:1;"/><text fill="#000000" font-family="sans-serif" font-size="14" lengthAdjust="spacing" textLength="141.627" x="388.77" y="866.1914">test_validate_target()</text></g><!--class TestValidationTarget--><g class="entity" data-entity="TestValidationTarget" data-source-line="47" data-uid="ent0008" id="entity_TestValidationTarget"><rect fill="#F1F1F1" height="97.4648" rx="2.5" ry="2.5" style="stroke:#181818;stroke-width:0.5;" width="243.1641" x="604.42" y="726.21"/><ellipse cx="651.1539" cy="742.21" fill="#ADD1B2" rx="11" ry="11" style="stroke:#181818;stroke-width:1;"/><path d="M653.627,748.3531 Q653.046,748.6519 652.4068,748.8013 Q651.7677,748.9507 651.0621,748.9507 Q648.5553,748.9507 647.2354,747.2989 Q645.9156,745.647 645.9156,742.5259 Q645.9156,739.3965 647.2354,737.7447 Q648.5553,736.0928 651.0621,736.0928 Q651.7677,736.0928 652.4151,736.2422 Q653.0626,736.3916 653.627,736.6905 L653.627,739.4131 Q652.9962,738.8321 652.4027,738.5623 Q651.8092,738.2925 651.1783,738.2925 Q649.8336,738.2925 649.1488,739.3592 Q648.4639,740.4258 648.4639,742.5259 Q648.4639,744.6177 649.1488,745.6844 Q649.8336,746.751 651.1783,746.751 Q651.8092,746.751 652.4027,746.4812 Q652.9962,746.2115 653.627,745.6304 Z " fill="#000000"/><text fill="#000000" font-family="sans-serif" font-size="14" lengthAdjust="spacing" textLength="141.1963" x="671.6539" y="747.501">TestValidationTarget</text><line style="stroke:#181818;stroke-width:0.5;" x1="605.42" x2="846.5841" y1="758.21" y2="758.21"/><line style="stroke:#181818;stroke-width:0.5;" x1="605.42" x2="846.5841" y1="766.21" y2="766.21"/><ellipse cx="615.42" cy="779.9541" fill="#84BE84" rx="3" ry="3" style="stroke:#038048;stroke-width:1;"/><text fill="#000000" font-family="sans-serif" font-size="14" lengthAdjust="spacing" textLength="217.1641" x="624.42" y="783.7452">test_validation_target_creation()</text><ellipse cx="615.42" cy="796.4424" fill="#84BE84" rx="3" ry="3" style="stroke:#038048;stroke-width:1;"/><text fill="#000000" font-family="sans-serif" font-size="14" lengthAdjust="spacing" textLength="107.4541" x="624.42" y="800.2334">test_add_error()</text><ellipse cx="615.42" cy="812.9307" fill="#84BE84" rx="3" ry="3" style="stroke:#038048;stroke-width:1;"/><text fill="#000000" font-family="sans-serif" font-size="14" lengthAdjust="spacing" textLength="200.4092" x="624.42" y="816.7217">test_metadata_management()</text></g><!--link ValidationTarget to MCPValidator--><g class="link" data-entity-1="ValidationTarget" data-entity-2="MCPValidator" data-source-line="31" data-uid="lnk5" id="link_ValidationTarget_MCPValidator"><path codeLine="31" d="M530.29,188.37 C515.48,211.5 498.49,238.02 481.42,264.65" fill="none" id="ValidationTarget-MCPValidator" style="stroke:#181818;stroke-width:1;"/><text fill="#000000" font-family="sans-serif" font-size="13" lengthAdjust="spacing" textLength="53.2061" x="509.36" y="231.4984">contains</text><text fill="#000000" font-family="sans-serif" font-size="13" lengthAdjust="spacing" textLength="8.2202" x="517.6254" y="208.4572">1</text><text fill="#000000" font-family="sans-serif" font-size="13" lengthAdjust="spacing" textLength="6.2651" x="480.0969" y="254.2973">*</text></g><!--link MCPValidator to TestMCPValidator--><g class="link" data-entity-1="MCPValidator" data-entity-2="TestMCPValidator" data-source-line="54" data-uid="lnk9" id="link_MCPValidator_TestMCPValidator"><path codeLine="54" d="M420.35,577.05 C428.69,610.78 435.8408,639.7352 443.4408,670.4952" fill="none" id="MCPValidator-to-TestMCPValidator" style="stroke:#181818;stroke-width:1;stroke-dasharray:7.0,7.0;"/><polygon fill="#181818" points="444.88,676.32,446.6045,666.6233,443.6807,671.466,438.838,668.5422,444.88,676.32" style="stroke:#181818;stroke-width:1;"/><text fill="#000000" font-family="sans-serif" font-size="13" lengthAdjust="spacing" textLength="58.1064" x="431.71" y="622.3184">tested by</text></g><!--link ValidationTarget to TestValidationTarget--><g class="link" data-entity-1="ValidationTarget" data-entity-2="TestValidationTarget" data-source-line="55" data-uid="lnk10" id="link_ValidationTarget_TestValidationTarget"><path codeLine="55" d="M676.95,172.44 C709.3,196.46 741.35,227.6 759,264.93 C832.33,420.05 777.6878,626.2482 745.8378,720.1182" fill="none" id="ValidationTarget-to-TestValidationTarget" style="stroke:#181818;stroke-width:1;stroke-dasharray:7.0,7.0;"/><polygon fill="#181818" points="743.91,725.8,750.5897,718.5625,745.5165,721.0651,743.0139,715.992,743.91,725.8" style="stroke:#181818;stroke-width:1;"/><text fill="#000000" font-family="sans-serif" font-size="13" lengthAdjust="spacing" textLength="58.1064" x="795.9" y="425.9084">tested by</text></g><!--SRC=[bLLDZvim4BtdLrYSI9Uir6Cvh5HjfMgbRhkAqbvM4Ph0X5Zhs8vjiaLL_tkD-J8GAi41X6VUlF5xPf2Gla6E97X-V26_WD4CZ501-RCYzaePQDqkKy5te78qJR2wxWf5O_9p-xJ5OxzeN5fYIeanqKRr4QceKDIKe-Kp6h0C49ClD3MlDXQHpxpSzndNheS4bH9An-GRrIxLou8igyEXkpkMjGl_NNaRidljjkfjPfCAVgJvR1CRhmbLCDH-vYCm1WU6NZU94OdLH-4nf1boGuyKRK-svffi7YQg9Qb2C9XuBBMGOtH4nW97P22iApzspIEgi5g2kh2AhC1GYNVh8hUvhrlK1JDRyHwHPv2IyZmYkq8oZCX12BQFo1LKmk6CFTKFMT40Uttg6lLbmDzmfXnRIkKOQiwEpTNvBZXwE2Rov5AWAXk83jrRi-DchTTpY8RqKbZf6mbrc2kGfvXyhHuklRVE7QInNFlfuMkBXVKZdaWSaGdBZKFQLJjPdK2bfp9S1DDu1gjogXV2Jf2oPH2fX4HbA2waeZoZLveLm1O23yVyqziYI2Yu4VQWb8a4Oq4lzZwoT_Wrx_rnC9bimSU0R3Oa-10CXqHCx6mmGBbUMQXiX-OEjT73OLajpSoNEsDZoGtxrtCflTNpASxMsR1duMoERzTiKctDN7WI67z-itMRJ-h6bAwK_D-lnw_J3yjwYjhtQKlTps4SQNy_YLNR-dgsGwnhoBOqiFF-_c7gSKogEfYHGxcQjDmY9W4VzGy0]--></g></svg>