<svg xmlns="http://www.w3.org/2000/svg" xmlns:xlink="http://www.w3.org/1999/xlink" contentStyleType="text/css" data-diagram-type="DESCRIPTION" height="380px" preserveAspectRatio="none" style="width:907px;height:380px;background:#FFFFFF;" version="1.1" viewBox="0 0 907 380" width="907px" zoomAndPan="magnify"><defs/><g><!--cluster MCP Validator--><g class="cluster" data-entity="MCP Validator" data-source-line="2" data-uid="ent0002" id="cluster_MCP Validator"><path d="M8.5,152.48 L110.9863,152.48 A3.75,3.75 0 0 1 113.4863,154.98 L120.4863,174.9683 L897.5,174.9683 A2.5,2.5 0 0 1 900,177.4683 L900,370.96 A2.5,2.5 0 0 1 897.5,373.46 L8.5,373.46 A2.5,2.5 0 0 1 6,370.96 L6,154.98 A2.5,2.5 0 0 1 8.5,152.48" fill="none" style="stroke:#000000;stroke-width:1.5;"/><line style="stroke:#000000;stroke-width:1.5;" x1="6" x2="120.4863" y1="174.9683" y2="174.9683"/><text fill="#000000" font-family="sans-serif" font-size="14" font-weight="bold" lengthAdjust="spacing" textLength="101.4863" x="10" y="168.0152">MCP Validator</text></g><!--cluster Tests--><g class="cluster" data-entity="Tests" data-source-line="11" data-uid="ent0009" id="cluster_Tests"><path d="M265.5,6 L305.8682,6 A3.75,3.75 0 0 1 308.3682,8.5 L315.3682,28.4883 L751.5,28.4883 A2.5,2.5 0 0 1 754,30.9883 L754,100.98 A2.5,2.5 0 0 1 751.5,103.48 L265.5,103.48 A2.5,2.5 0 0 1 263,100.98 L263,8.5 A2.5,2.5 0 0 1 265.5,6" fill="none" style="stroke:#000000;stroke-width:1.5;"/><line style="stroke:#000000;stroke-width:1.5;" x1="263" x2="315.3682" y1="28.4883" y2="28.4883"/><text fill="#000000" font-family="sans-serif" font-size="14" font-weight="bold" lengthAdjust="spacing" textLength="39.3682" x="267" y="21.5352">Tests</text></g><!--entity VT--><g class="entity" data-entity="VT" data-source-line="3" data-uid="ent0003" id="entity_VT"><rect fill="#F1F1F1" height="46.4883" rx="2.5" ry="2.5" style="stroke:#181818;stroke-width:0.5;" width="152.1709" x="731.91" y="310.97"/><rect fill="#F1F1F1" height="10" style="stroke:#181818;stroke-width:0.5;" width="15" x="864.0809" y="315.97"/><rect fill="#F1F1F1" height="2" style="stroke:#181818;stroke-width:0.5;" width="4" x="862.0809" y="317.97"/><rect fill="#F1F1F1" height="2" style="stroke:#181818;stroke-width:0.5;" width="4" x="862.0809" y="321.97"/><text fill="#000000" font-family="sans-serif" font-size="14" lengthAdjust="spacing" textLength="112.1709" x="746.91" y="344.5052">ValidationTarget</text></g><!--entity MV--><g class="entity" data-entity="MV" data-source-line="4" data-uid="ent0004" id="entity_MV"><rect fill="#F1F1F1" height="46.4883" rx="2.5" ry="2.5" style="stroke:#181818;stroke-width:0.5;" width="130.5693" x="416.72" y="187.48"/><rect fill="#F1F1F1" height="10" style="stroke:#181818;stroke-width:0.5;" width="15" x="527.2893" y="192.48"/><rect fill="#F1F1F1" height="2" style="stroke:#181818;stroke-width:0.5;" width="4" x="525.2893" y="194.48"/><rect fill="#F1F1F1" height="2" style="stroke:#181818;stroke-width:0.5;" width="4" x="525.2893" y="198.48"/><text fill="#000000" font-family="sans-serif" font-size="14" lengthAdjust="spacing" textLength="90.5693" x="431.72" y="221.0152">MCPValidator</text></g><!--entity SQH--><g class="entity" data-entity="SQH" data-source-line="5" data-uid="ent0005" id="entity_SQH"><rect fill="#F1F1F1" height="46.4883" rx="2.5" ry="2.5" style="stroke:#181818;stroke-width:0.5;" width="194.4922" x="502.75" y="310.97"/><rect fill="#F1F1F1" height="10" style="stroke:#181818;stroke-width:0.5;" width="15" x="677.2422" y="315.97"/><rect fill="#F1F1F1" height="2" style="stroke:#181818;stroke-width:0.5;" width="4" x="675.2422" y="317.97"/><rect fill="#F1F1F1" height="2" style="stroke:#181818;stroke-width:0.5;" width="4" x="675.2422" y="321.97"/><text fill="#000000" font-family="sans-serif" font-size="14" lengthAdjust="spacing" textLength="154.4922" x="517.75" y="344.5052">SPARQL Query Handler</text></g><!--entity VR--><g class="entity" data-entity="VR" data-source-line="6" data-uid="ent0006" id="entity_VR"><rect fill="#F1F1F1" height="46.4883" rx="2.5" ry="2.5" style="stroke:#181818;stroke-width:0.5;" width="149.0469" x="22.48" y="310.97"/><rect fill="#F1F1F1" height="10" style="stroke:#181818;stroke-width:0.5;" width="15" x="151.5269" y="315.97"/><rect fill="#F1F1F1" height="2" style="stroke:#181818;stroke-width:0.5;" width="4" x="149.5269" y="317.97"/><rect fill="#F1F1F1" height="2" style="stroke:#181818;stroke-width:0.5;" width="4" x="149.5269" y="321.97"/><text fill="#000000" font-family="sans-serif" font-size="14" lengthAdjust="spacing" textLength="109.0469" x="37.48" y="344.5052">Validation Rules</text></g><!--entity EH--><g class="entity" data-entity="EH" data-source-line="7" data-uid="ent0007" id="entity_EH"><rect fill="#F1F1F1" height="46.4883" rx="2.5" ry="2.5" style="stroke:#181818;stroke-width:0.5;" width="130.8975" x="206.55" y="310.97"/><rect fill="#F1F1F1" height="10" style="stroke:#181818;stroke-width:0.5;" width="15" x="317.4475" y="315.97"/><rect fill="#F1F1F1" height="2" style="stroke:#181818;stroke-width:0.5;" width="4" x="315.4475" y="317.97"/><rect fill="#F1F1F1" height="2" style="stroke:#181818;stroke-width:0.5;" width="4" x="315.4475" y="321.97"/><text fill="#000000" font-family="sans-serif" font-size="14" lengthAdjust="spacing" textLength="90.8975" x="221.55" y="344.5052">Error Handler</text></g><!--entity LG--><g class="entity" data-entity="LG" data-source-line="8" data-uid="ent0008" id="entity_LG"><rect fill="#F1F1F1" height="46.4883" rx="2.5" ry="2.5" style="stroke:#181818;stroke-width:0.5;" width="94.9883" x="372.51" y="310.97"/><rect fill="#F1F1F1" height="10" style="stroke:#181818;stroke-width:0.5;" width="15" x="447.4983" y="315.97"/><rect fill="#F1F1F1" height="2" style="stroke:#181818;stroke-width:0.5;" width="4" x="445.4983" y="317.97"/><rect fill="#F1F1F1" height="2" style="stroke:#181818;stroke-width:0.5;" width="4" x="445.4983" y="321.97"/><text fill="#000000" font-family="sans-serif" font-size="14" lengthAdjust="spacing" textLength="54.9883" x="387.51" y="344.5052">Logging</text></g><!--entity UT--><g class="entity" data-entity="UT" data-source-line="12" data-uid="ent0010" id="entity_UT"><rect fill="#F1F1F1" height="46.4883" rx="2.5" ry="2.5" style="stroke:#181818;stroke-width:0.5;" width="108.2637" x="629.87" y="41"/><rect fill="#F1F1F1" height="10" style="stroke:#181818;stroke-width:0.5;" width="15" x="718.1337" y="46"/><rect fill="#F1F1F1" height="2" style="stroke:#181818;stroke-width:0.5;" width="4" x="716.1337" y="48"/><rect fill="#F1F1F1" height="2" style="stroke:#181818;stroke-width:0.5;" width="4" x="716.1337" y="52"/><text fill="#000000" font-family="sans-serif" font-size="14" lengthAdjust="spacing" textLength="68.2637" x="644.87" y="74.5352">Unit Tests</text></g><!--entity IT--><g class="entity" data-entity="IT" data-source-line="13" data-uid="ent0011" id="entity_IT"><rect fill="#F1F1F1" height="46.4883" rx="2.5" ry="2.5" style="stroke:#181818;stroke-width:0.5;" width="155.1104" x="279.44" y="41"/><rect fill="#F1F1F1" height="10" style="stroke:#181818;stroke-width:0.5;" width="15" x="414.5504" y="46"/><rect fill="#F1F1F1" height="2" style="stroke:#181818;stroke-width:0.5;" width="4" x="412.5504" y="48"/><rect fill="#F1F1F1" height="2" style="stroke:#181818;stroke-width:0.5;" width="4" x="412.5504" y="52"/><text fill="#000000" font-family="sans-serif" font-size="14" lengthAdjust="spacing" textLength="115.1104" x="294.44" y="74.5352">Integration Tests</text></g><!--entity ST--><g class="entity" data-entity="ST" data-source-line="14" data-uid="ent0012" id="entity_ST"><rect fill="#F1F1F1" height="46.4883" rx="2.5" ry="2.5" style="stroke:#181818;stroke-width:0.5;" width="125.7842" x="469.11" y="41"/><rect fill="#F1F1F1" height="10" style="stroke:#181818;stroke-width:0.5;" width="15" x="574.8942" y="46"/><rect fill="#F1F1F1" height="2" style="stroke:#181818;stroke-width:0.5;" width="4" x="572.8942" y="48"/><rect fill="#F1F1F1" height="2" style="stroke:#181818;stroke-width:0.5;" width="4" x="572.8942" y="52"/><text fill="#000000" font-family="sans-serif" font-size="14" lengthAdjust="spacing" textLength="85.7842" x="484.11" y="74.5352">Smoke Tests</text></g><!--link MV to VT--><g class="link" data-entity-1="MV" data-entity-2="VT" data-source-line="17" data-uid="lnk13" id="link_MV_VT"><path d="M526.89,234.32 C556.56,248.75 596.56,267.25 633,280.97 C664.75,292.92 694.7624,302.3563 725.6624,311.2163" fill="none" id="MV-to-VT" style="stroke:#181818;stroke-width:1;"/><polygon fill="#181818" points="731.43,312.87,723.8811,306.5443,726.6237,311.4919,721.6761,314.2344,731.43,312.87" style="stroke:#181818;stroke-width:1;"/><text fill="#000000" font-family="sans-serif" font-size="13" lengthAdjust="spacing" textLength="56.5386" x="634" y="277.5384">manages</text></g><!--link MV to SQH--><g class="link" data-entity-1="MV" data-entity-2="SQH" data-source-line="18" data-uid="lnk14" id="link_MV_SQH"><path d="M503.92,234.29 C525.11,256.12 552.8591,284.6865 574.0191,306.4665" fill="none" id="MV-to-SQH" style="stroke:#181818;stroke-width:1;"/><polygon fill="#181818" points="578.2,310.77,574.7975,301.5275,574.7159,307.1838,569.0596,307.1021,578.2,310.77" style="stroke:#181818;stroke-width:1;"/><text fill="#000000" font-family="sans-serif" font-size="13" lengthAdjust="spacing" textLength="28.5645" x="549.06" y="277.5384">uses</text></g><!--link MV to VR--><g class="link" data-entity-1="MV" data-entity-2="VR" data-source-line="19" data-uid="lnk15" id="link_MV_VR"><path d="M416.27,230.55 C382.87,240.26 341.68,252.46 305,263.97 C257.43,278.91 209.7631,294.7659 169.0031,308.5659" fill="none" id="MV-to-VR" style="stroke:#181818;stroke-width:1;"/><polygon fill="#181818" points="163.32,310.49,173.1274,311.3926,168.0559,308.8866,170.5619,303.8151,163.32,310.49" style="stroke:#181818;stroke-width:1;"/><text fill="#000000" font-family="sans-serif" font-size="13" lengthAdjust="spacing" textLength="44.9287" x="306" y="277.5384">applies</text></g><!--link MV to EH--><g class="link" data-entity-1="MV" data-entity-2="EH" data-source-line="20" data-uid="lnk16" id="link_MV_EH"><path d="M440.66,234.34 C424.21,243.44 405.15,254.09 388,263.97 C361.48,279.25 336.9881,293.8517 314.3181,307.5217" fill="none" id="MV-to-EH" style="stroke:#181818;stroke-width:1;"/><polygon fill="#181818" points="309.18,310.62,318.9528,309.398,313.4618,308.0381,314.8217,302.5471,309.18,310.62" style="stroke:#181818;stroke-width:1;"/><text fill="#000000" font-family="sans-serif" font-size="13" lengthAdjust="spacing" textLength="49.1245" x="389" y="277.5384">handles</text></g><!--link MV to LG--><g class="link" data-entity-1="MV" data-entity-2="LG" data-source-line="21" data-uid="lnk17" id="link_MV_LG"><path d="M470.48,234.29 C459.35,256.12 445.2983,283.6462 434.1783,305.4262" fill="none" id="MV-to-LG" style="stroke:#181818;stroke-width:1;"/><polygon fill="#181818" points="431.45,310.77,439.105,304.5732,433.7236,306.3168,431.98,300.9354,431.45,310.77" style="stroke:#181818;stroke-width:1;"/><text fill="#000000" font-family="sans-serif" font-size="13" lengthAdjust="spacing" textLength="26.4761" x="455.71" y="277.5384">logs</text></g><!--link UT to MV--><g class="link" data-entity-1="UT" data-entity-2="MV" data-source-line="23" data-uid="lnk18" id="link_UT_MV"><path d="M652.44,87.82 C614.6,114.88 556.4402,156.4795 518.5502,183.5795" fill="none" id="UT-to-MV" style="stroke:#181818;stroke-width:1;stroke-dasharray:7.0,7.0;"/><polygon fill="#181818" points="513.67,187.07,523.3173,185.0878,517.7369,184.1613,518.6634,178.5808,513.67,187.07" style="stroke:#181818;stroke-width:1;"/><text fill="#000000" font-family="sans-serif" font-size="13" lengthAdjust="spacing" textLength="30.2212" x="608.03" y="133.0484">tests</text></g><!--link UT to VT--><g class="link" data-entity-1="UT" data-entity-2="VT" data-source-line="24" data-uid="lnk19" id="link_UT_VT"><path d="M694.36,87.63 C717.7,138.07 771.6708,254.6945 795.0608,305.2545" fill="none" id="UT-to-VT" style="stroke:#181818;stroke-width:1;stroke-dasharray:7.0,7.0;"/><polygon fill="#181818" points="797.58,310.7,797.4315,300.8523,795.4807,306.1621,790.1709,304.2112,797.58,310.7" style="stroke:#181818;stroke-width:1;"/><text fill="#000000" font-family="sans-serif" font-size="13" lengthAdjust="spacing" textLength="30.2212" x="761.35" y="215.7984">tests</text></g><!--link IT to MV--><g class="link" data-entity-1="IT" data-entity-2="MV" data-source-line="25" data-uid="lnk20" id="link_IT_MV"><path d="M376.53,87.82 C400.01,114.96 435.2534,155.7033 458.6834,182.7733" fill="none" id="IT-to-MV" style="stroke:#181818;stroke-width:1;stroke-dasharray:7.0,7.0;"/><polygon fill="#181818" points="462.61,187.31,459.7445,177.8872,459.3378,183.5294,453.6956,183.1227,462.61,187.31" style="stroke:#181818;stroke-width:1;"/><text fill="#000000" font-family="sans-serif" font-size="13" lengthAdjust="spacing" textLength="30.2212" x="416.75" y="133.0484">tests</text></g><!--link ST to MV--><g class="link" data-entity-1="ST" data-entity-2="MV" data-source-line="26" data-uid="lnk21" id="link_ST_MV"><path d="M524.19,87.82 C514.79,114.96 501.0926,154.5701 491.7226,181.6401" fill="none" id="ST-to-MV" style="stroke:#181818;stroke-width:1;stroke-dasharray:7.0,7.0;"/><polygon fill="#181818" points="489.76,187.31,496.4838,180.1135,491.3955,182.585,488.9239,177.4967,489.76,187.31" style="stroke:#181818;stroke-width:1;"/><text fill="#000000" font-family="sans-serif" font-size="13" lengthAdjust="spacing" textLength="30.2212" x="513.95" y="133.0484">tests</text></g><!--SRC=[PP3DRiCW48JlFCKgz-G1SeXKLLPYoPPYWxbKFQ06KHG25k13LUNTimR_D0t7RsPsTkd5rrKe2Plw_GnS67qHqVaD_1B0zp4HxImJNidu2I80Prd4o998GispGCzlRLD1CqZ_0oTXBqPc0srE_-T2EnWPyjmsYuNtpZ_bYYbMEQMqLObLHt8df9_tPpB4iEpTMHqXeUJjferB6wNokNTLoqcbDtULVpXbOqFDORizuD6mXvkmM1PcXkSW7C9AU8j0zBtHAoj6qtUwPc7L4PbnAX3ICTZj3lXtIEBOFPFKc4dvug4lv040]--></g></svg>