<svg xmlns="http://www.w3.org/2000/svg" xmlns:xlink="http://www.w3.org/1999/xlink" contentStyleType="text/css" data-diagram-type="DESCRIPTION" height="192px" preserveAspectRatio="none" style="width:641px;height:192px;background:#FFFFFF;" version="1.1" viewBox="0 0 641 192" width="641px" zoomAndPan="magnify"><defs/><g><!--entity MC--><g class="entity" data-entity="MC" data-source-line="2" data-uid="ent0002" id="entity_MC"><polygon fill="#F1F1F1" points="216.61,16,226.61,6,363.5582,6,363.5582,42.4883,353.5582,52.4883,216.61,52.4883,216.61,16" style="stroke:#181818;stroke-width:0.5;"/><line style="stroke:#181818;stroke-width:0.5;" x1="353.5582" x2="363.5582" y1="16" y2="6"/><line style="stroke:#181818;stroke-width:0.5;" x1="216.61" x2="353.5582" y1="16" y2="16"/><line style="stroke:#181818;stroke-width:0.5;" x1="353.5582" x2="353.5582" y1="16" y2="52.4883"/><text fill="#000000" font-family="sans-serif" font-size="14" lengthAdjust="spacing" textLength="106.9482" x="231.61" y="39.5352">Method Change</text></g><!--entity T--><g class="entity" data-entity="T" data-source-line="3" data-uid="ent0003" id="entity_T"><polygon fill="#F1F1F1" points="16,139.49,26,129.49,92.1621,129.49,92.1621,165.9783,82.1621,175.9783,16,175.9783,16,139.49" style="stroke:#181818;stroke-width:0.5;"/><line style="stroke:#181818;stroke-width:0.5;" x1="82.1621" x2="92.1621" y1="139.49" y2="129.49"/><line style="stroke:#181818;stroke-width:0.5;" x1="16" x2="82.1621" y1="139.49" y2="139.49"/><line style="stroke:#181818;stroke-width:0.5;" x1="82.1621" x2="82.1621" y1="139.49" y2="175.9783"/><text fill="#000000" font-family="sans-serif" font-size="14" lengthAdjust="spacing" textLength="36.1621" x="31" y="163.0252">Tests</text></g><!--entity D--><g class="entity" data-entity="D" data-source-line="4" data-uid="ent0004" id="entity_D"><polygon fill="#F1F1F1" points="127.06,139.49,137.06,129.49,271.103,129.49,271.103,165.9783,261.103,175.9783,127.06,175.9783,127.06,139.49" style="stroke:#181818;stroke-width:0.5;"/><line style="stroke:#181818;stroke-width:0.5;" x1="261.103" x2="271.103" y1="139.49" y2="129.49"/><line style="stroke:#181818;stroke-width:0.5;" x1="127.06" x2="261.103" y1="139.49" y2="139.49"/><line style="stroke:#181818;stroke-width:0.5;" x1="261.103" x2="261.103" y1="139.49" y2="175.9783"/><text fill="#000000" font-family="sans-serif" font-size="14" lengthAdjust="spacing" textLength="104.043" x="142.06" y="163.0252">Documentation</text></g><!--entity TD--><g class="entity" data-entity="TD" data-source-line="5" data-uid="ent0005" id="entity_TD"><polygon fill="#F1F1F1" points="306.52,139.49,316.52,129.49,457.6518,129.49,457.6518,165.9783,447.6518,175.9783,306.52,175.9783,306.52,139.49" style="stroke:#181818;stroke-width:0.5;"/><line style="stroke:#181818;stroke-width:0.5;" x1="447.6518" x2="457.6518" y1="139.49" y2="129.49"/><line style="stroke:#181818;stroke-width:0.5;" x1="306.52" x2="447.6518" y1="139.49" y2="139.49"/><line style="stroke:#181818;stroke-width:0.5;" x1="447.6518" x2="447.6518" y1="139.49" y2="175.9783"/><text fill="#000000" font-family="sans-serif" font-size="14" lengthAdjust="spacing" textLength="111.1318" x="321.52" y="163.0252">Type Definitions</text></g><!--entity MO--><g class="entity" data-entity="MO" data-source-line="6" data-uid="ent0006" id="entity_MO"><polygon fill="#F1F1F1" points="492.22,139.49,502.22,129.49,623.9514,129.49,623.9514,165.9783,613.9514,175.9783,492.22,175.9783,492.22,139.49" style="stroke:#181818;stroke-width:0.5;"/><line style="stroke:#181818;stroke-width:0.5;" x1="613.9514" x2="623.9514" y1="139.49" y2="129.49"/><line style="stroke:#181818;stroke-width:0.5;" x1="492.22" x2="613.9514" y1="139.49" y2="139.49"/><line style="stroke:#181818;stroke-width:0.5;" x1="613.9514" x2="613.9514" y1="139.49" y2="175.9783"/><text fill="#000000" font-family="sans-serif" font-size="14" lengthAdjust="spacing" textLength="91.7314" x="507.22" y="163.0252">Mock Objects</text></g><!--link MC to T--><g class="link" data-entity-1="MC" data-entity-2="T" data-source-line="8" data-uid="lnk7" id="link_MC_T"><path d="M216.15,43.62 C184.32,51.61 147.7,63.93 118.08,82.49 C98.8,94.57 85.2533,109.1981 73.5433,124.3881" fill="none" id="MC-to-T" style="stroke:#181818;stroke-width:1;"/><polygon fill="#181818" points="69.88,129.14,78.5428,124.4543,72.9327,125.1801,72.2069,119.57,69.88,129.14" style="stroke:#181818;stroke-width:1;"/><text fill="#000000" font-family="sans-serif" font-size="13" lengthAdjust="spacing" textLength="99.5884" x="119.08" y="96.0584">requires update</text></g><!--link MC to D--><g class="link" data-entity-1="MC" data-entity-2="D" data-source-line="9" data-uid="lnk8" id="link_MC_D"><path d="M264.82,52.92 C255.82,61.68 245.96,72.08 238.08,82.49 C227.01,97.12 219.6313,109.8926 212.4913,123.9226" fill="none" id="MC-to-D" style="stroke:#181818;stroke-width:1;"/><polygon fill="#181818" points="209.77,129.27,217.4169,123.0632,212.0378,124.8139,210.2871,119.4347,209.77,129.27" style="stroke:#181818;stroke-width:1;"/><text fill="#000000" font-family="sans-serif" font-size="13" lengthAdjust="spacing" textLength="99.5884" x="239.08" y="96.0584">requires update</text></g><!--link MC to TD--><g class="link" data-entity-1="MC" data-entity-2="TD" data-source-line="10" data-uid="lnk9" id="link_MC_TD"><path d="M315.85,52.85 C325.04,61.6 335.08,72.02 343.08,82.49 C354.23,97.07 361.6078,109.838 368.7278,123.888" fill="none" id="MC-to-TD" style="stroke:#181818;stroke-width:1;"/><polygon fill="#181818" points="371.44,129.24,370.9397,119.4039,369.1798,124.78,363.8037,123.0201,371.44,129.24" style="stroke:#181818;stroke-width:1;"/><text fill="#000000" font-family="sans-serif" font-size="13" lengthAdjust="spacing" textLength="123.1826" x="355.21" y="96.0584">may require update</text></g><!--link MC to MO--><g class="link" data-entity-1="MC" data-entity-2="MO" data-source-line="11" data-uid="lnk10" id="link_MC_MO"><path d="M363.7,40.51 C402.27,48.12 449.23,61.02 487.08,82.49 C508.05,94.39 523.4106,109.4284 536.5606,124.7384" fill="none" id="MC-to-MO" style="stroke:#181818;stroke-width:1;"/><polygon fill="#181818" points="540.47,129.29,537.6403,119.8564,537.2122,125.497,531.5715,125.0689,540.47,129.29" style="stroke:#181818;stroke-width:1;"/><text fill="#000000" font-family="sans-serif" font-size="13" lengthAdjust="spacing" textLength="123.1826" x="510.19" y="96.0584">may require update</text></g><!--SRC=[VP5BJm8n58Nt_HKdhc0nX8UWcOKnpgZ9I3D41lPbvWfLfiK-IFZtjWG2YT75tPpld9FUMm0CWD8DuOQJs-W6sKQeDTr0MF3iGYkopXxLwYBcklOjAIUSrEe8ywl4OKV8wKCg6V4fV6NWklv2kVga-jJComZZy0n9ye0AAGnzUsd8mkyQuUYAvl_IAk9M7CwMtmvU_kc8yqYgyUsMiTbMABVWK-p9sB091hrXVpZk3JkL9nH2eN-7GJyTZTFH17nU8U8kwxpEfh3QcvhGIEkCNFbuYIuhn5xWtIidMqfHxaWL-TjPmBFQIwDLF2mhblnYcDmcJz9XJYQy14lEmdM5txgGg7KZrJh5edf9xjaqVA4Nwz1DYcKwz9f3OFCV]--></g></svg>