<svg xmlns="http://www.w3.org/2000/svg" xmlns:xlink="http://www.w3.org/1999/xlink" contentStyleType="text/css" data-diagram-type="SEQUENCE" height="416px" preserveAspectRatio="none" style="width:667px;height:416px;background:#FFFFFF;" version="1.1" viewBox="0 0 667 416" width="667px" zoomAndPan="magnify"><defs/><g><g><title>Update Detector</title><rect fill="#FFFFFF" height="29.3105" style="stroke:#181818;stroke-width:1;" width="10" x="236.8457" y="112.7988"/></g><g><title>Model Updater</title><rect fill="#FFFFFF" height="29.3105" style="stroke:#181818;stroke-width:1;" width="10" x="365.9175" y="171.4199"/></g><g><title>Validation Engine</title><rect fill="#FFFFFF" height="29.3105" style="stroke:#181818;stroke-width:1;" width="10" x="498.7319" y="230.041"/></g><g><title>Telemetry</title><rect fill="#FFFFFF" height="29.3105" style="stroke:#181818;stroke-width:1;" width="10" x="615.5879" y="288.6621"/></g><g><title>Hypercube Analyzer</title><rect fill="#000000" fill-opacity="0.00000" height="254.4844" width="8" x="71.9185" y="81.4883"/><line style="stroke:#181818;stroke-width:0.5;stroke-dasharray:5.0,5.0;" x1="75" x2="75" y1="81.4883" y2="335.9727"/></g><g><title>Update Detector</title><rect fill="#000000" fill-opacity="0.00000" height="254.4844" width="8" x="237.8457" y="81.4883"/><line style="stroke:#181818;stroke-width:0.5;stroke-dasharray:5.0,5.0;" x1="241.5566" x2="241.5566" y1="81.4883" y2="335.9727"/></g><g><title>Model Updater</title><rect fill="#000000" fill-opacity="0.00000" height="254.4844" width="8" x="366.9175" y="81.4883"/><line style="stroke:#181818;stroke-width:0.5;stroke-dasharray:5.0,5.0;" x1="370.1348" x2="370.1348" y1="81.4883" y2="335.9727"/></g><g><title>Validation Engine</title><rect fill="#000000" fill-opacity="0.00000" height="254.4844" width="8" x="499.7319" y="81.4883"/><line style="stroke:#181818;stroke-width:0.5;stroke-dasharray:5.0,5.0;" x1="503.7002" x2="503.7002" y1="81.4883" y2="335.9727"/></g><g><title>Telemetry</title><rect fill="#000000" fill-opacity="0.00000" height="254.4844" width="8" x="616.5879" y="81.4883"/><line style="stroke:#181818;stroke-width:0.5;stroke-dasharray:5.0,5.0;" x1="619.7637" x2="619.7637" y1="81.4883" y2="335.9727"/></g><g class="participant participant-head" data-participant="HA"><text fill="#000000" font-family="sans-serif" font-size="14" lengthAdjust="spacing" textLength="135.8369" x="5" y="78.5352">Hypercube Analyzer</text><ellipse cx="75.9185" cy="13.5" fill="#E2E2F0" rx="8" ry="8" style="stroke:#181818;stroke-width:0.5;"/><path d="M75.9185,21.5 L75.9185,48.5 M62.9185,29.5 L88.9185,29.5 M75.9185,48.5 L62.9185,63.5 M75.9185,48.5 L88.9185,63.5" fill="none" style="stroke:#181818;stroke-width:0.5;"/></g><g class="participant participant-tail" data-participant="HA"><text fill="#000000" font-family="sans-serif" font-size="14" lengthAdjust="spacing" textLength="135.8369" x="5" y="348.5078">Hypercube Analyzer</text><ellipse cx="75.9185" cy="359.9609" fill="#E2E2F0" rx="8" ry="8" style="stroke:#181818;stroke-width:0.5;"/><path d="M75.9185,367.9609 L75.9185,394.9609 M62.9185,375.9609 L88.9185,375.9609 M75.9185,394.9609 L62.9185,409.9609 M75.9185,394.9609 L88.9185,409.9609" fill="none" style="stroke:#181818;stroke-width:0.5;"/></g><g class="participant participant-head" data-participant="UD"><rect fill="#E2E2F0" height="30.4883" rx="2.5" ry="2.5" style="stroke:#181818;stroke-width:0.5;" width="124.5781" x="179.5566" y="50"/><text fill="#000000" font-family="sans-serif" font-size="14" lengthAdjust="spacing" textLength="110.5781" x="186.5566" y="70.5352">Update Detector</text></g><g class="participant participant-tail" data-participant="UD"><rect fill="#E2E2F0" height="30.4883" rx="2.5" ry="2.5" style="stroke:#181818;stroke-width:0.5;" width="124.5781" x="179.5566" y="334.9727"/><text fill="#000000" font-family="sans-serif" font-size="14" lengthAdjust="spacing" textLength="110.5781" x="186.5566" y="355.5078">Update Detector</text></g><g class="participant participant-head" data-participant="MU"><rect fill="#E2E2F0" height="30.4883" rx="2.5" ry="2.5" style="stroke:#181818;stroke-width:0.5;" width="113.5654" x="314.1348" y="50"/><text fill="#000000" font-family="sans-serif" font-size="14" lengthAdjust="spacing" textLength="99.5654" x="321.1348" y="70.5352">Model Updater</text></g><g class="participant participant-tail" data-participant="MU"><rect fill="#E2E2F0" height="30.4883" rx="2.5" ry="2.5" style="stroke:#181818;stroke-width:0.5;" width="113.5654" x="314.1348" y="334.9727"/><text fill="#000000" font-family="sans-serif" font-size="14" lengthAdjust="spacing" textLength="99.5654" x="321.1348" y="355.5078">Model Updater</text></g><g class="participant participant-head" data-participant="VE"><rect fill="#E2E2F0" height="30.4883" rx="2.5" ry="2.5" style="stroke:#181818;stroke-width:0.5;" width="132.0635" x="437.7002" y="50"/><text fill="#000000" font-family="sans-serif" font-size="14" lengthAdjust="spacing" textLength="118.0635" x="444.7002" y="70.5352">Validation Engine</text></g><g class="participant participant-tail" data-participant="VE"><rect fill="#E2E2F0" height="30.4883" rx="2.5" ry="2.5" style="stroke:#181818;stroke-width:0.5;" width="132.0635" x="437.7002" y="334.9727"/><text fill="#000000" font-family="sans-serif" font-size="14" lengthAdjust="spacing" textLength="118.0635" x="444.7002" y="355.5078">Validation Engine</text></g><g class="participant participant-head" data-participant="T"><rect fill="#E2E2F0" height="30.4883" rx="2.5" ry="2.5" style="stroke:#181818;stroke-width:0.5;" width="81.6484" x="579.7637" y="50"/><text fill="#000000" font-family="sans-serif" font-size="14" lengthAdjust="spacing" textLength="67.6484" x="586.7637" y="70.5352">Telemetry</text></g><g class="participant participant-tail" data-participant="T"><rect fill="#E2E2F0" height="30.4883" rx="2.5" ry="2.5" style="stroke:#181818;stroke-width:0.5;" width="81.6484" x="579.7637" y="334.9727"/><text fill="#000000" font-family="sans-serif" font-size="14" lengthAdjust="spacing" textLength="67.6484" x="586.7637" y="355.5078">Telemetry</text></g><g><title>Update Detector</title><rect fill="#FFFFFF" height="29.3105" style="stroke:#181818;stroke-width:1;" width="10" x="236.8457" y="112.7988"/></g><g><title>Model Updater</title><rect fill="#FFFFFF" height="29.3105" style="stroke:#181818;stroke-width:1;" width="10" x="365.9175" y="171.4199"/></g><g><title>Validation Engine</title><rect fill="#FFFFFF" height="29.3105" style="stroke:#181818;stroke-width:1;" width="10" x="498.7319" y="230.041"/></g><g><title>Telemetry</title><rect fill="#FFFFFF" height="29.3105" style="stroke:#181818;stroke-width:1;" width="10" x="615.5879" y="288.6621"/></g><g class="message" data-participant-1="HA" data-participant-2="UD"><polygon fill="#181818" points="224.8457,108.7988,234.8457,112.7988,224.8457,116.7988,228.8457,112.7988" style="stroke:#181818;stroke-width:1;"/><line style="stroke:#181818;stroke-width:1;" x1="75.9185" x2="230.8457" y1="112.7988" y2="112.7988"/><text fill="#000000" font-family="sans-serif" font-size="13" lengthAdjust="spacing" textLength="141.9272" x="82.9185" y="108.0566">detect_update_needed</text></g><g class="message" data-participant-1="UD" data-participant-2="HA"><polygon fill="#181818" points="86.9185,138.1094,76.9185,142.1094,86.9185,146.1094,82.9185,142.1094" style="stroke:#181818;stroke-width:1;"/><line style="stroke:#181818;stroke-width:1;stroke-dasharray:2.0,2.0;" x1="80.9185" x2="240.8457" y1="142.1094" y2="142.1094"/><text fill="#000000" font-family="sans-serif" font-size="13" lengthAdjust="spacing" textLength="103.5303" x="92.9185" y="137.3672">update_required</text></g><g class="message" data-participant-1="HA" data-participant-2="MU"><polygon fill="#181818" points="353.9175,167.4199,363.9175,171.4199,353.9175,175.4199,357.9175,171.4199" style="stroke:#181818;stroke-width:1;"/><line style="stroke:#181818;stroke-width:1;" x1="75.9185" x2="359.9175" y1="171.4199" y2="171.4199"/><text fill="#000000" font-family="sans-serif" font-size="13" lengthAdjust="spacing" textLength="105.479" x="82.9185" y="166.6777">generate_update</text></g><g class="message" data-participant-1="MU" data-participant-2="HA"><polygon fill="#181818" points="86.9185,196.7305,76.9185,200.7305,86.9185,204.7305,82.9185,200.7305" style="stroke:#181818;stroke-width:1;"/><line style="stroke:#181818;stroke-width:1;stroke-dasharray:2.0,2.0;" x1="80.9185" x2="369.9175" y1="200.7305" y2="200.7305"/><text fill="#000000" font-family="sans-serif" font-size="13" lengthAdjust="spacing" textLength="77.4033" x="92.9185" y="195.9883">update_plan</text></g><g class="message" data-participant-1="HA" data-participant-2="VE"><polygon fill="#181818" points="486.7319,226.041,496.7319,230.041,486.7319,234.041,490.7319,230.041" style="stroke:#181818;stroke-width:1;"/><line style="stroke:#181818;stroke-width:1;" x1="75.9185" x2="492.7319" y1="230.041" y2="230.041"/><text fill="#000000" font-family="sans-serif" font-size="13" lengthAdjust="spacing" textLength="99.106" x="82.9185" y="225.2988">validate_update</text></g><g class="message" data-participant-1="VE" data-participant-2="HA"><polygon fill="#181818" points="86.9185,255.3516,76.9185,259.3516,86.9185,263.3516,82.9185,259.3516" style="stroke:#181818;stroke-width:1;"/><line style="stroke:#181818;stroke-width:1;stroke-dasharray:2.0,2.0;" x1="80.9185" x2="502.7319" y1="259.3516" y2="259.3516"/><text fill="#000000" font-family="sans-serif" font-size="13" lengthAdjust="spacing" textLength="103.835" x="92.9185" y="254.6094">validation_result</text></g><g class="message" data-participant-1="HA" data-participant-2="T"><polygon fill="#181818" points="603.5879,284.6621,613.5879,288.6621,603.5879,292.6621,607.5879,288.6621" style="stroke:#181818;stroke-width:1;"/><line style="stroke:#181818;stroke-width:1;" x1="75.9185" x2="609.5879" y1="288.6621" y2="288.6621"/><text fill="#000000" font-family="sans-serif" font-size="13" lengthAdjust="spacing" textLength="70.0654" x="82.9185" y="283.9199">log_update</text></g><g class="message" data-participant-1="T" data-participant-2="HA"><polygon fill="#181818" points="86.9185,313.9727,76.9185,317.9727,86.9185,321.9727,82.9185,317.9727" style="stroke:#181818;stroke-width:1;"/><line style="stroke:#181818;stroke-width:1;stroke-dasharray:2.0,2.0;" x1="80.9185" x2="619.5879" y1="317.9727" y2="317.9727"/><text fill="#000000" font-family="sans-serif" font-size="13" lengthAdjust="spacing" textLength="93.5962" x="92.9185" y="313.2305">update_logged</text></g><!--SRC=[PT31QeGm40RWUvvYyBuli8U2i88NRz7hCZK_4aXZces2VVgEKRPQp_dcdt_2VHeZ5VKI4Flf4rHwTiiFOa7yehfKWMEolGti4nLjC9n03oIiSzcqZxDfHWD7czn4qvv5nyxAgnqzLNwm7bbrrLbfE7mXnIM_QgNgacuViexkP7A1vvINF3rWO1JtoSvhFMaawYPOHkwqguZloKPn1aUvnpQjo04USRNRo5-YN23WVs9mx8zfelQqhX8rRsTUq-HI0U-q-VqTql4rkNJC5BjdQg5k72vfMkbBCt73-LAjVW40]--></g></svg>