<svg xmlns="http://www.w3.org/2000/svg" xmlns:xlink="http://www.w3.org/1999/xlink" contentStyleType="text/css" data-diagram-type="SEQUENCE" height="443px" preserveAspectRatio="none" style="width:824px;height:443px;background:#FFFFFF;" version="1.1" viewBox="0 0 824 443" width="824px" zoomAndPan="magnify"><defs/><g><g><title>MCPValidator</title><rect fill="#FFFFFF" height="322.416" style="stroke:#181818;stroke-width:1;" width="10" x="199.1353" y="67.7988"/></g><g><title>PlanPhase</title><rect fill="#FFFFFF" height="29.3105" style="stroke:#181818;stroke-width:1;" width="10" x="333.5317" y="97.1094"/></g><g><title>DoPhase</title><rect fill="#FFFFFF" height="29.3105" style="stroke:#181818;stroke-width:1;" width="10" x="420.272" y="155.7305"/></g><g><title>CheckPhase</title><rect fill="#FFFFFF" height="29.3105" style="stroke:#181818;stroke-width:1;" width="10" x="513.6738" y="214.3516"/></g><g><title>AdjustPhase</title><rect fill="#FFFFFF" height="29.3105" style="stroke:#181818;stroke-width:1;" width="10" x="619.4282" y="272.9727"/></g><g><title>ValidationHandler</title><rect fill="#FFFFFF" height="29.3105" style="stroke:#181818;stroke-width:1;" width="10" x="745.4648" y="331.5938"/></g><g><title>Client</title><rect fill="#000000" fill-opacity="0.00000" height="371.7266" width="8" x="27.7524" y="36.4883"/><line style="stroke:#181818;stroke-width:0.5;stroke-dasharray:5.0,5.0;" x1="31" x2="31" y1="36.4883" y2="408.2148"/></g><g><title>MCPValidator</title><rect fill="#000000" fill-opacity="0.00000" height="371.7266" width="8" x="200.1353" y="36.4883"/><line style="stroke:#181818;stroke-width:0.5;stroke-dasharray:5.0,5.0;" x1="203.8506" x2="203.8506" y1="36.4883" y2="408.2148"/></g><g><title>PlanPhase</title><rect fill="#000000" fill-opacity="0.00000" height="371.7266" width="8" x="334.5317" y="36.4883"/><line style="stroke:#181818;stroke-width:0.5;stroke-dasharray:5.0,5.0;" x1="337.8818" x2="337.8818" y1="36.4883" y2="408.2148"/></g><g><title>DoPhase</title><rect fill="#000000" fill-opacity="0.00000" height="371.7266" width="8" x="421.272" y="36.4883"/><line style="stroke:#181818;stroke-width:0.5;stroke-dasharray:5.0,5.0;" x1="425.1816" x2="425.1816" y1="36.4883" y2="408.2148"/></g><g><title>CheckPhase</title><rect fill="#000000" fill-opacity="0.00000" height="371.7266" width="8" x="514.6738" y="36.4883"/><line style="stroke:#181818;stroke-width:0.5;stroke-dasharray:5.0,5.0;" x1="518.3623" x2="518.3623" y1="36.4883" y2="408.2148"/></g><g><title>AdjustPhase</title><rect fill="#000000" fill-opacity="0.00000" height="371.7266" width="8" x="620.4282" y="36.4883"/><line style="stroke:#181818;stroke-width:0.5;stroke-dasharray:5.0,5.0;" x1="623.9854" x2="623.9854" y1="36.4883" y2="408.2148"/></g><g><title>ValidationHandler</title><rect fill="#000000" fill-opacity="0.00000" height="371.7266" width="8" x="746.4648" y="36.4883"/><line style="stroke:#181818;stroke-width:0.5;stroke-dasharray:5.0,5.0;" x1="749.8711" x2="749.8711" y1="36.4883" y2="408.2148"/></g><g class="participant participant-head" data-participant="client"><rect fill="#E2E2F0" height="30.4883" rx="2.5" ry="2.5" style="stroke:#181818;stroke-width:0.5;" width="53.5049" x="5" y="5"/><text fill="#000000" font-family="sans-serif" font-size="14" lengthAdjust="spacing" textLength="39.5049" x="12" y="25.5352">Client</text></g><g class="participant participant-tail" data-participant="client"><rect fill="#E2E2F0" height="30.4883" rx="2.5" ry="2.5" style="stroke:#181818;stroke-width:0.5;" width="53.5049" x="5" y="407.2148"/><text fill="#000000" font-family="sans-serif" font-size="14" lengthAdjust="spacing" textLength="39.5049" x="12" y="427.75">Client</text></g><g class="participant participant-head" data-participant="mcp"><rect fill="#E2E2F0" height="30.4883" rx="2.5" ry="2.5" style="stroke:#181818;stroke-width:0.5;" width="104.5693" x="151.8506" y="5"/><text fill="#000000" font-family="sans-serif" font-size="14" lengthAdjust="spacing" textLength="90.5693" x="158.8506" y="25.5352">MCPValidator</text></g><g class="participant participant-tail" data-participant="mcp"><rect fill="#E2E2F0" height="30.4883" rx="2.5" ry="2.5" style="stroke:#181818;stroke-width:0.5;" width="104.5693" x="151.8506" y="407.2148"/><text fill="#000000" font-family="sans-serif" font-size="14" lengthAdjust="spacing" textLength="90.5693" x="158.8506" y="427.75">MCPValidator</text></g><g class="participant participant-head" data-participant="plan"><rect fill="#E2E2F0" height="30.4883" rx="2.5" ry="2.5" style="stroke:#181818;stroke-width:0.5;" width="81.2998" x="297.8818" y="5"/><text fill="#000000" font-family="sans-serif" font-size="14" lengthAdjust="spacing" textLength="67.2998" x="304.8818" y="25.5352">PlanPhase</text></g><g class="participant participant-tail" data-participant="plan"><rect fill="#E2E2F0" height="30.4883" rx="2.5" ry="2.5" style="stroke:#181818;stroke-width:0.5;" width="81.2998" x="297.8818" y="407.2148"/><text fill="#000000" font-family="sans-serif" font-size="14" lengthAdjust="spacing" textLength="67.2998" x="304.8818" y="427.75">PlanPhase</text></g><g class="participant participant-head" data-participant="do"><rect fill="#E2E2F0" height="30.4883" rx="2.5" ry="2.5" style="stroke:#181818;stroke-width:0.5;" width="72.1807" x="389.1816" y="5"/><text fill="#000000" font-family="sans-serif" font-size="14" lengthAdjust="spacing" textLength="58.1807" x="396.1816" y="25.5352">DoPhase</text></g><g class="participant participant-tail" data-participant="do"><rect fill="#E2E2F0" height="30.4883" rx="2.5" ry="2.5" style="stroke:#181818;stroke-width:0.5;" width="72.1807" x="389.1816" y="407.2148"/><text fill="#000000" font-family="sans-serif" font-size="14" lengthAdjust="spacing" textLength="58.1807" x="396.1816" y="427.75">DoPhase</text></g><g class="participant participant-head" data-participant="check"><rect fill="#E2E2F0" height="30.4883" rx="2.5" ry="2.5" style="stroke:#181818;stroke-width:0.5;" width="94.623" x="471.3623" y="5"/><text fill="#000000" font-family="sans-serif" font-size="14" lengthAdjust="spacing" textLength="80.623" x="478.3623" y="25.5352">CheckPhase</text></g><g class="participant participant-tail" data-participant="check"><rect fill="#E2E2F0" height="30.4883" rx="2.5" ry="2.5" style="stroke:#181818;stroke-width:0.5;" width="94.623" x="471.3623" y="407.2148"/><text fill="#000000" font-family="sans-serif" font-size="14" lengthAdjust="spacing" textLength="80.623" x="478.3623" y="427.75">CheckPhase</text></g><g class="participant participant-head" data-participant="adjust"><rect fill="#E2E2F0" height="30.4883" rx="2.5" ry="2.5" style="stroke:#181818;stroke-width:0.5;" width="96.8857" x="575.9854" y="5"/><text fill="#000000" font-family="sans-serif" font-size="14" lengthAdjust="spacing" textLength="82.8857" x="582.9854" y="25.5352">AdjustPhase</text></g><g class="participant participant-tail" data-participant="adjust"><rect fill="#E2E2F0" height="30.4883" rx="2.5" ry="2.5" style="stroke:#181818;stroke-width:0.5;" width="96.8857" x="575.9854" y="407.2148"/><text fill="#000000" font-family="sans-serif" font-size="14" lengthAdjust="spacing" textLength="82.8857" x="582.9854" y="427.75">AdjustPhase</text></g><g class="participant participant-head" data-participant="handler"><rect fill="#E2E2F0" height="30.4883" rx="2.5" ry="2.5" style="stroke:#181818;stroke-width:0.5;" width="135.1875" x="682.8711" y="5"/><text fill="#000000" font-family="sans-serif" font-size="14" lengthAdjust="spacing" textLength="121.1875" x="689.8711" y="25.5352">ValidationHandler</text></g><g class="participant participant-tail" data-participant="handler"><rect fill="#E2E2F0" height="30.4883" rx="2.5" ry="2.5" style="stroke:#181818;stroke-width:0.5;" width="135.1875" x="682.8711" y="407.2148"/><text fill="#000000" font-family="sans-serif" font-size="14" lengthAdjust="spacing" textLength="121.1875" x="689.8711" y="427.75">ValidationHandler</text></g><g><title>MCPValidator</title><rect fill="#FFFFFF" height="322.416" style="stroke:#181818;stroke-width:1;" width="10" x="199.1353" y="67.7988"/></g><g><title>PlanPhase</title><rect fill="#FFFFFF" height="29.3105" style="stroke:#181818;stroke-width:1;" width="10" x="333.5317" y="97.1094"/></g><g><title>DoPhase</title><rect fill="#FFFFFF" height="29.3105" style="stroke:#181818;stroke-width:1;" width="10" x="420.272" y="155.7305"/></g><g><title>CheckPhase</title><rect fill="#FFFFFF" height="29.3105" style="stroke:#181818;stroke-width:1;" width="10" x="513.6738" y="214.3516"/></g><g><title>AdjustPhase</title><rect fill="#FFFFFF" height="29.3105" style="stroke:#181818;stroke-width:1;" width="10" x="619.4282" y="272.9727"/></g><g><title>ValidationHandler</title><rect fill="#FFFFFF" height="29.3105" style="stroke:#181818;stroke-width:1;" width="10" x="745.4648" y="331.5938"/></g><g class="message" data-participant-1="client" data-participant-2="mcp"><polygon fill="#181818" points="187.1353,63.7988,197.1353,67.7988,187.1353,71.7988,191.1353,67.7988" style="stroke:#181818;stroke-width:1;"/><line style="stroke:#181818;stroke-width:1;" x1="31.7524" x2="193.1353" y1="67.7988" y2="67.7988"/><text fill="#000000" font-family="sans-serif" font-size="13" lengthAdjust="spacing" textLength="148.3828" x="38.7524" y="63.0566">validate_bfg9k(context)</text></g><g class="message" data-participant-1="mcp" data-participant-2="plan"><polygon fill="#181818" points="321.5317,93.1094,331.5317,97.1094,321.5317,101.1094,325.5317,97.1094" style="stroke:#181818;stroke-width:1;"/><line style="stroke:#181818;stroke-width:1;" x1="209.1353" x2="327.5317" y1="97.1094" y2="97.1094"/><text fill="#000000" font-family="sans-serif" font-size="13" lengthAdjust="spacing" textLength="105.3965" x="216.1353" y="92.3672">execute(context)</text></g><g class="message" data-participant-1="plan" data-participant-2="mcp"><polygon fill="#181818" points="220.1353,122.4199,210.1353,126.4199,220.1353,130.4199,216.1353,126.4199" style="stroke:#181818;stroke-width:1;"/><line style="stroke:#181818;stroke-width:1;stroke-dasharray:2.0,2.0;" x1="214.1353" x2="337.5317" y1="126.4199" y2="126.4199"/><text fill="#000000" font-family="sans-serif" font-size="13" lengthAdjust="spacing" textLength="76.1909" x="226.1353" y="121.6777">plan_results</text></g><g class="message" data-participant-1="mcp" data-participant-2="do"><polygon fill="#181818" points="408.272,151.7305,418.272,155.7305,408.272,159.7305,412.272,155.7305" style="stroke:#181818;stroke-width:1;"/><line style="stroke:#181818;stroke-width:1;" x1="209.1353" x2="414.272" y1="155.7305" y2="155.7305"/><text fill="#000000" font-family="sans-serif" font-size="13" lengthAdjust="spacing" textLength="105.3965" x="216.1353" y="150.9883">execute(context)</text></g><g class="message" data-participant-1="do" data-participant-2="mcp"><polygon fill="#181818" points="220.1353,181.041,210.1353,185.041,220.1353,189.041,216.1353,185.041" style="stroke:#181818;stroke-width:1;"/><line style="stroke:#181818;stroke-width:1;stroke-dasharray:2.0,2.0;" x1="214.1353" x2="424.272" y1="185.041" y2="185.041"/><text fill="#000000" font-family="sans-serif" font-size="13" lengthAdjust="spacing" textLength="65.1714" x="226.1353" y="180.2988">do_results</text></g><g class="message" data-participant-1="mcp" data-participant-2="check"><polygon fill="#181818" points="501.6738,210.3516,511.6738,214.3516,501.6738,218.3516,505.6738,214.3516" style="stroke:#181818;stroke-width:1;"/><line style="stroke:#181818;stroke-width:1;" x1="209.1353" x2="507.6738" y1="214.3516" y2="214.3516"/><text fill="#000000" font-family="sans-serif" font-size="13" lengthAdjust="spacing" textLength="105.3965" x="216.1353" y="209.6094">execute(context)</text></g><g class="message" data-participant-1="check" data-participant-2="mcp"><polygon fill="#181818" points="220.1353,239.6621,210.1353,243.6621,220.1353,247.6621,216.1353,243.6621" style="stroke:#181818;stroke-width:1;"/><line style="stroke:#181818;stroke-width:1;stroke-dasharray:2.0,2.0;" x1="214.1353" x2="517.6738" y1="243.6621" y2="243.6621"/><text fill="#000000" font-family="sans-serif" font-size="13" lengthAdjust="spacing" textLength="85.23" x="226.1353" y="238.9199">check_results</text></g><g class="message" data-participant-1="mcp" data-participant-2="adjust"><polygon fill="#181818" points="607.4282,268.9727,617.4282,272.9727,607.4282,276.9727,611.4282,272.9727" style="stroke:#181818;stroke-width:1;"/><line style="stroke:#181818;stroke-width:1;" x1="209.1353" x2="613.4282" y1="272.9727" y2="272.9727"/><text fill="#000000" font-family="sans-serif" font-size="13" lengthAdjust="spacing" textLength="105.3965" x="216.1353" y="268.2305">execute(context)</text></g><g class="message" data-participant-1="adjust" data-participant-2="mcp"><polygon fill="#181818" points="220.1353,298.2832,210.1353,302.2832,220.1353,306.2832,216.1353,302.2832" style="stroke:#181818;stroke-width:1;"/><line style="stroke:#181818;stroke-width:1;stroke-dasharray:2.0,2.0;" x1="214.1353" x2="623.4282" y1="302.2832" y2="302.2832"/><text fill="#000000" font-family="sans-serif" font-size="13" lengthAdjust="spacing" textLength="87.877" x="226.1353" y="297.541">adjust_results</text></g><g class="message" data-participant-1="mcp" data-participant-2="handler"><polygon fill="#181818" points="733.4648,327.5938,743.4648,331.5938,733.4648,335.5938,737.4648,331.5938" style="stroke:#181818;stroke-width:1;"/><line style="stroke:#181818;stroke-width:1;" x1="209.1353" x2="739.4648" y1="331.5938" y2="331.5938"/><text fill="#000000" font-family="sans-serif" font-size="13" lengthAdjust="spacing" textLength="227.1572" x="216.1353" y="326.8516">validate(ValidationRule.SPORE, data)</text></g><g class="message" data-participant-1="handler" data-participant-2="mcp"><polygon fill="#181818" points="220.1353,356.9043,210.1353,360.9043,220.1353,364.9043,216.1353,360.9043" style="stroke:#181818;stroke-width:1;"/><line style="stroke:#181818;stroke-width:1;stroke-dasharray:2.0,2.0;" x1="214.1353" x2="749.4648" y1="360.9043" y2="360.9043"/><text fill="#000000" font-family="sans-serif" font-size="13" lengthAdjust="spacing" textLength="103.835" x="226.1353" y="356.1621">validation_result</text></g><g class="message" data-participant-1="mcp" data-participant-2="client"><polygon fill="#181818" points="42.7524,386.2148,32.7524,390.2148,42.7524,394.2148,38.7524,390.2148" style="stroke:#181818;stroke-width:1;"/><line style="stroke:#181818;stroke-width:1;stroke-dasharray:2.0,2.0;" x1="36.7524" x2="203.1353" y1="390.2148" y2="390.2148"/><text fill="#000000" font-family="sans-serif" font-size="13" lengthAdjust="spacing" textLength="69.9194" x="48.7524" y="385.4727">final_result</text></g><!--SRC=[VL9DIyGm4BtdLuGzhU1wjmT1gk15B2juNSPariQDIMdIiZ_VV6uQABqacSoRz-PhWD4A9WPGbkvQAL3P7GL3MNYIOUb-Rxila8A3rMC0_R6XHdGILDU3mU0Ud5NxNtJnSbtxsXxPfRYPDsl4C_-TZ2qG27QDIGaAhTv0SOanqJw-2ObbqSEJpxsXSqJZwVlyytZPCwqiNkqT0MR5xFv3XSGTFiANqr2y8fiihc1ZkUwWXyplhTE8PfBM48urDFDolSNgsiHrOUHwZS-1CblesnPXR6mu2sqmrvWZEfF7Zc-nfvd4g_17UqqW1MI5DAaocdsPw76I-F3PVHnVxwdxWOLi7d2wY_1yYqxYI-tRMWHntxom7Wqz2mLo9S2lmpy0]--></g></svg>