<svg xmlns="http://www.w3.org/2000/svg" xmlns:xlink="http://www.w3.org/1999/xlink" contentStyleType="text/css" data-diagram-type="DESCRIPTION" height="192px" preserveAspectRatio="none" style="width:627px;height:192px;background:#FFFFFF;" version="1.1" viewBox="0 0 627 192" width="627px" zoomAndPan="magnify"><defs/><g><!--entity RC--><g class="entity" data-entity="RC" data-source-line="2" data-uid="ent0002" id="entity_RC"><polygon fill="#F1F1F1" points="235.75,16,245.75,6,360.8916,6,360.8916,42.4883,350.8916,52.4883,235.75,52.4883,235.75,16" style="stroke:#181818;stroke-width:0.5;"/><line style="stroke:#181818;stroke-width:0.5;" x1="350.8916" x2="360.8916" y1="16" y2="6"/><line style="stroke:#181818;stroke-width:0.5;" x1="235.75" x2="350.8916" y1="16" y2="16"/><line style="stroke:#181818;stroke-width:0.5;" x1="350.8916" x2="350.8916" y1="16" y2="52.4883"/><text fill="#000000" font-family="sans-serif" font-size="14" lengthAdjust="spacing" textLength="85.1416" x="250.75" y="39.5352">Rule Change</text></g><!--entity TD--><g class="entity" data-entity="TD" data-source-line="3" data-uid="ent0003" id="entity_TD"><polygon fill="#F1F1F1" points="16,139.49,26,129.49,120.6406,129.49,120.6406,165.9783,110.6406,175.9783,16,175.9783,16,139.49" style="stroke:#181818;stroke-width:0.5;"/><line style="stroke:#181818;stroke-width:0.5;" x1="110.6406" x2="120.6406" y1="139.49" y2="129.49"/><line style="stroke:#181818;stroke-width:0.5;" x1="16" x2="110.6406" y1="139.49" y2="139.49"/><line style="stroke:#181818;stroke-width:0.5;" x1="110.6406" x2="110.6406" y1="139.49" y2="175.9783"/><text fill="#000000" font-family="sans-serif" font-size="14" lengthAdjust="spacing" textLength="64.6406" x="31" y="163.0252">Test Data</text></g><!--entity TA--><g class="entity" data-entity="TA" data-source-line="4" data-uid="ent0004" id="entity_TA"><polygon fill="#F1F1F1" points="156.01,139.49,166.01,129.49,300.634,129.49,300.634,165.9783,290.634,175.9783,156.01,175.9783,156.01,139.49" style="stroke:#181818;stroke-width:0.5;"/><line style="stroke:#181818;stroke-width:0.5;" x1="290.634" x2="300.634" y1="139.49" y2="129.49"/><line style="stroke:#181818;stroke-width:0.5;" x1="156.01" x2="290.634" y1="139.49" y2="139.49"/><line style="stroke:#181818;stroke-width:0.5;" x1="290.634" x2="290.634" y1="139.49" y2="175.9783"/><text fill="#000000" font-family="sans-serif" font-size="14" lengthAdjust="spacing" textLength="104.624" x="171.01" y="163.0252">Test Assertions</text></g><!--entity C--><g class="entity" data-entity="C" data-source-line="5" data-uid="ent0005" id="entity_C"><polygon fill="#F1F1F1" points="335.87,139.49,345.87,129.49,420.7684,129.49,420.7684,165.9783,410.7684,175.9783,335.87,175.9783,335.87,139.49" style="stroke:#181818;stroke-width:0.5;"/><line style="stroke:#181818;stroke-width:0.5;" x1="410.7684" x2="420.7684" y1="139.49" y2="129.49"/><line style="stroke:#181818;stroke-width:0.5;" x1="335.87" x2="410.7684" y1="139.49" y2="139.49"/><line style="stroke:#181818;stroke-width:0.5;" x1="410.7684" x2="410.7684" y1="139.49" y2="175.9783"/><text fill="#000000" font-family="sans-serif" font-size="14" lengthAdjust="spacing" textLength="44.8984" x="350.87" y="163.0252">Config</text></g><!--entity D--><g class="entity" data-entity="D" data-source-line="6" data-uid="ent0006" id="entity_D"><polygon fill="#F1F1F1" points="466.3,139.49,476.3,129.49,610.343,129.49,610.343,165.9783,600.343,175.9783,466.3,175.9783,466.3,139.49" style="stroke:#181818;stroke-width:0.5;"/><line style="stroke:#181818;stroke-width:0.5;" x1="600.343" x2="610.343" y1="139.49" y2="129.49"/><line style="stroke:#181818;stroke-width:0.5;" x1="466.3" x2="600.343" y1="139.49" y2="139.49"/><line style="stroke:#181818;stroke-width:0.5;" x1="600.343" x2="600.343" y1="139.49" y2="175.9783"/><text fill="#000000" font-family="sans-serif" font-size="14" lengthAdjust="spacing" textLength="104.043" x="481.3" y="163.0252">Documentation</text></g><!--link RC to TD--><g class="link" data-entity-1="RC" data-entity-2="TD" data-source-line="8" data-uid="lnk7" id="link_RC_TD"><path d="M235.55,37.23 C197.85,43.94 150.52,57.03 115.32,82.49 C98.84,94.41 89.0992,108.6873 81.1392,123.9873" fill="none" id="RC-to-TD" style="stroke:#181818;stroke-width:1;"/><polygon fill="#181818" points="78.37,129.31,86.0723,123.172,80.6777,124.8744,78.9753,119.4798,78.37,129.31" style="stroke:#181818;stroke-width:1;"/><text fill="#000000" font-family="sans-serif" font-size="13" lengthAdjust="spacing" textLength="99.5884" x="116.32" y="96.0584">requires update</text></g><!--link RC to TA--><g class="link" data-entity-1="RC" data-entity-2="TA" data-source-line="9" data-uid="lnk8" id="link_RC_TA"><path d="M255.89,52.97 C245.31,60.83 235.29,70.69 229.32,82.49 C222.1,96.76 221.4016,108.932 223.0816,123.062" fill="none" id="RC-to-TA" style="stroke:#181818;stroke-width:1;"/><polygon fill="#181818" points="223.79,129.02,226.6994,119.6107,223.1997,124.055,218.7554,120.5552,223.79,129.02" style="stroke:#181818;stroke-width:1;"/><text fill="#000000" font-family="sans-serif" font-size="13" lengthAdjust="spacing" textLength="99.5884" x="230.32" y="96.0584">requires update</text></g><!--link RC to C--><g class="link" data-entity-1="RC" data-entity-2="C" data-source-line="10" data-uid="lnk9" id="link_RC_C"><path d="M314.1,52.75 C320.46,61.92 327.81,72.66 334.32,82.49 C344.54,97.93 352.5419,110.4671 361.0719,124.0671" fill="none" id="RC-to-C" style="stroke:#181818;stroke-width:1;"/><polygon fill="#181818" points="364.26,129.15,362.8666,119.4002,361.6033,124.9142,356.0893,123.651,364.26,129.15" style="stroke:#181818;stroke-width:1;"/><text fill="#000000" font-family="sans-serif" font-size="13" lengthAdjust="spacing" textLength="123.1826" x="346.39" y="96.0584">may require update</text></g><!--link RC to D--><g class="link" data-entity-1="RC" data-entity-2="D" data-source-line="11" data-uid="lnk10" id="link_RC_D"><path d="M361.17,39.35 C397.54,46.76 442.97,59.85 478.32,82.49 C496.94,94.42 509.555,108.9187 520.375,124.1487" fill="none" id="RC-to-D" style="stroke:#181818;stroke-width:1;"/><polygon fill="#181818" points="523.85,129.04,521.8984,119.3864,520.9542,124.9639,515.3767,124.0197,523.85,129.04" style="stroke:#181818;stroke-width:1;"/><text fill="#000000" font-family="sans-serif" font-size="13" lengthAdjust="spacing" textLength="99.5884" x="498.73" y="96.0584">requires update</text></g><!--SRC=[VP5DJy9048Rl-olUS8932HH1quEnjcfIQIIbS5_fK3TfTt4_IFZtRci8HAE7kSppphEpkm0O0Aagmg1m3I7vuBAc0RX1aLnOISOYvPRtf4n_aDWOqbOeQRvvVE69adjHz-qhNwfshYLfUJVKmrxPLP4W2Exz6OYWwTC9JGRkK75BrpZ-5oUUjlnqJlmE_67lwe5avTg6iLN3fTtaInn96xydfkDm4ix7uR1qX8nBJ6undKIpUJHR85-NwF283LzMInZbz8vG2MErU7VTFKSiuqUEmaahMehmTY2PfQ_d1fxaKMWbktTXsJQ_11OtmQEmM9Fscs2RivJst3NMJ-nK9MGTOLC-1tTiwJ_FyTgxIR94UQy-URR-0W00]--></g></svg>