<svg xmlns="http://www.w3.org/2000/svg" xmlns:xlink="http://www.w3.org/1999/xlink" contentStyleType="text/css" height="394px" preserveAspectRatio="none" style="width:419px;height:394px;background:#FFFFFF;" version="1.1" viewBox="0 0 419 394" width="419px" zoomAndPan="magnify"><defs/><g><!--class BaseModel--><g id="elem_BaseModel"><rect codeLine="1" fill="#F1F1F1" height="97.4648" id="BaseModel" rx="2.5" ry="2.5" style="stroke:#181818;stroke-width:0.5;" width="150.5029" x="40.4" y="290.47"/><ellipse cx="76.3096" cy="306.47" fill="#ADD1B2" rx="11" ry="11" style="stroke:#181818;stroke-width:1.0;"/><path d="M78.7828,312.6131 Q78.2017,312.9119 77.5625,313.0613 Q76.9234,313.2107 76.2178,313.2107 Q73.711,313.2107 72.3912,311.5589 Q71.0713,309.907 71.0713,306.7859 Q71.0713,303.6565 72.3912,302.0047 Q73.711,300.3528 76.2178,300.3528 Q76.9234,300.3528 77.5708,300.5022 Q78.2183,300.6516 78.7828,300.9505 L78.7828,303.6731 Q78.1519,303.0921 77.5584,302.8223 Q76.9649,302.5525 76.334,302.5525 Q74.9893,302.5525 74.3045,303.6192 Q73.6197,304.6858 73.6197,306.7859 Q73.6197,308.8777 74.3045,309.9444 Q74.9893,311.011 76.334,311.011 Q76.9649,311.011 77.5584,310.7412 Q78.1519,310.4715 78.7828,309.8904 Z " fill="#000000"/><text fill="#000000" font-family="sans-serif" font-size="14" lengthAdjust="spacing" textLength="72.0371" x="94.9562" y="311.761">BaseModel</text><line style="stroke:#181818;stroke-width:0.5;" x1="41.4" x2="189.9029" y1="322.47" y2="322.47"/><ellipse cx="51.4" cy="336.2141" fill="none" rx="3" ry="3" style="stroke:#038048;stroke-width:1.0;"/><text fill="#000000" font-family="sans-serif" font-size="14" lengthAdjust="spacing" textLength="109.7783" x="60.4" y="340.0052">identifier: string</text><ellipse cx="51.4" cy="352.7024" fill="none" rx="3" ry="3" style="stroke:#038048;stroke-width:1.0;"/><text fill="#000000" font-family="sans-serif" font-size="14" lengthAdjust="spacing" textLength="85.7158" x="60.4" y="356.4934">name: string</text><ellipse cx="51.4" cy="369.1907" fill="none" rx="3" ry="3" style="stroke:#038048;stroke-width:1.0;"/><text fill="#000000" font-family="sans-serif" font-size="14" lengthAdjust="spacing" textLength="124.5029" x="60.4" y="372.9817">description: string</text><line style="stroke:#181818;stroke-width:0.5;" x1="41.4" x2="189.9029" y1="379.9348" y2="379.9348"/></g><!--class Transformation--><g id="elem_Transformation"><rect codeLine="7" fill="#F1F1F1" height="97.4648" id="Transformation" rx="2.5" ry="2.5" style="stroke:#181818;stroke-width:0.5;" width="211.7393" x="9.78" y="7"/><ellipse cx="58.9065" cy="23" fill="#ADD1B2" rx="11" ry="11" style="stroke:#181818;stroke-width:1.0;"/><path d="M61.3796,29.1431 Q60.7986,29.4419 60.1594,29.5913 Q59.5202,29.7407 58.8147,29.7407 Q56.3078,29.7407 54.988,28.0889 Q53.6682,26.437 53.6682,23.3159 Q53.6682,20.1865 54.988,18.5347 Q56.3078,16.8828 58.8147,16.8828 Q59.5202,16.8828 60.1677,17.0322 Q60.8152,17.1816 61.3796,17.4805 L61.3796,20.2031 Q60.7488,19.6221 60.1552,19.3523 Q59.5617,19.0825 58.9309,19.0825 Q57.5862,19.0825 56.9013,20.1492 Q56.2165,21.2158 56.2165,23.3159 Q56.2165,25.4077 56.9013,26.4744 Q57.5862,27.541 58.9309,27.541 Q59.5617,27.541 60.1552,27.2712 Q60.7488,27.0015 61.3796,26.4204 Z " fill="#000000"/><text fill="#000000" font-family="sans-serif" font-size="14" lengthAdjust="spacing" textLength="104.9863" x="79.4065" y="28.291">Transformation</text><line style="stroke:#181818;stroke-width:0.5;" x1="10.78" x2="220.5193" y1="39" y2="39"/><ellipse cx="20.78" cy="52.7441" fill="none" rx="3" ry="3" style="stroke:#038048;stroke-width:1.0;"/><text fill="#000000" font-family="sans-serif" font-size="14" lengthAdjust="spacing" textLength="126.0205" x="29.78" y="56.5352">source: BaseModel</text><ellipse cx="20.78" cy="69.2324" fill="none" rx="3" ry="3" style="stroke:#038048;stroke-width:1.0;"/><text fill="#000000" font-family="sans-serif" font-size="14" lengthAdjust="spacing" textLength="121.3584" x="29.78" y="73.0234">target: BaseModel</text><ellipse cx="20.78" cy="85.7207" fill="none" rx="3" ry="3" style="stroke:#038048;stroke-width:1.0;"/><text fill="#000000" font-family="sans-serif" font-size="14" lengthAdjust="spacing" textLength="185.7393" x="29.78" y="89.5117">rules: TransformationRule[]</text><line style="stroke:#181818;stroke-width:0.5;" x1="10.78" x2="220.5193" y1="96.4648" y2="96.4648"/></g><!--class TransformationRule--><g id="elem_TransformationRule"><rect codeLine="13" fill="#F1F1F1" height="48" id="TransformationRule" rx="2.5" ry="2.5" style="stroke:#181818;stroke-width:0.5;" width="166.374" x="246.46" y="181.47"/><ellipse cx="261.46" cy="197.47" fill="#ADD1B2" rx="11" ry="11" style="stroke:#181818;stroke-width:1.0;"/><path d="M263.9331,203.6131 Q263.3521,203.9119 262.7129,204.0613 Q262.0738,204.2107 261.3682,204.2107 Q258.8614,204.2107 257.5415,202.5589 Q256.2217,200.907 256.2217,197.7859 Q256.2217,194.6565 257.5415,193.0047 Q258.8614,191.3528 261.3682,191.3528 Q262.0738,191.3528 262.7212,191.5022 Q263.3687,191.6516 263.9331,191.9505 L263.9331,194.6731 Q263.3023,194.0921 262.7088,193.8223 Q262.1153,193.5525 261.4844,193.5525 Q260.1397,193.5525 259.4549,194.6192 Q258.7701,195.6858 258.7701,197.7859 Q258.7701,199.8777 259.4549,200.9444 Q260.1397,202.011 261.4844,202.011 Q262.1153,202.011 262.7088,201.7412 Q263.3023,201.4715 263.9331,200.8904 Z " fill="#000000"/><text fill="#000000" font-family="sans-serif" font-size="14" lengthAdjust="spacing" textLength="134.374" x="275.46" y="202.761">TransformationRule</text><line style="stroke:#181818;stroke-width:0.5;" x1="247.46" x2="411.834" y1="213.47" y2="213.47"/><line style="stroke:#181818;stroke-width:0.5;" x1="247.46" x2="411.834" y1="221.47" y2="221.47"/></g><!--link Transformation to BaseModel--><g id="link_Transformation_BaseModel"><path codeLine="16" d="M58.06,104.59 C49.09,113.85 40.53,123.96 33.65,134.47 C10.16,170.35 6,187.91 16.65,229.47 C22.54,252.46 24.7471,260.1221 41.0471,277.0821 " fill="none" id="Transformation-to-BaseModel" style="stroke:#181818;stroke-width:1.0;"/><polygon fill="none" points="53.52,290.06,45.3731,272.9244,36.7211,281.2397,53.52,290.06" style="stroke:#181818;stroke-width:1.0;"/></g><!--link Transformation to BaseModel--><g id="link_Transformation_BaseModel"><path codeLine="18" d="M99.88,104.62 C90.37,139.21 81.1,187.1 86.65,229.47 C89.29,249.61 92.9225,265.5606 98.2625,284.2606 " fill="none" id="Transformation-to-BaseModel-1" style="stroke:#181818;stroke-width:1.0;"/><polygon fill="#181818" points="99.91,290.03,101.285,280.2776,98.5371,285.2222,93.5925,282.4743,99.91,290.03" style="stroke:#181818;stroke-width:1.0;"/><text fill="#000000" font-family="sans-serif" font-size="13" lengthAdjust="spacing" textLength="41.9009" x="87.65" y="210.5384">source</text><text fill="#000000" font-family="sans-serif" font-size="13" lengthAdjust="spacing" textLength="8.2202" x="89.1493" y="279.6506">1</text></g><!--link Transformation to BaseModel--><g id="link_Transformation_BaseModel"><path codeLine="19" d="M125.46,104.71 C131.36,139.34 137.12,187.25 133.65,229.47 C132.01,249.39 129.7565,265.262 126.4265,284.062 " fill="none" id="Transformation-to-BaseModel-2" style="stroke:#181818;stroke-width:1.0;"/><polygon fill="#181818" points="125.38,289.97,130.8884,281.8056,126.2521,285.0466,123.011,280.4103,125.38,289.97" style="stroke:#181818;stroke-width:1.0;"/><text fill="#000000" font-family="sans-serif" font-size="13" lengthAdjust="spacing" textLength="37.5718" x="135.7" y="210.5384">target</text><text fill="#000000" font-family="sans-serif" font-size="13" lengthAdjust="spacing" textLength="8.2202" x="118.2011" y="279.5822">1</text></g><!--link TransformationRule to BaseModel--><g id="link_TransformationRule_BaseModel"><path codeLine="17" d="M291.88,229.71 C264.05,246.85 240.5788,261.2945 206.4788,282.2845 " fill="none" id="TransformationRule-to-BaseModel" style="stroke:#181818;stroke-width:1.0;"/><polygon fill="none" points="191.15,291.72,209.6239,287.3941,203.3336,277.1749,191.15,291.72" style="stroke:#181818;stroke-width:1.0;"/></g><!--link Transformation to TransformationRule--><g id="link_Transformation_TransformationRule"><path codeLine="20" d="M185.43,104.9 C222.38,130.41 261.1721,157.1916 290.7121,177.5816 " fill="none" id="Transformation-to-TransformationRule" style="stroke:#181818;stroke-width:1.0;"/><polygon fill="#181818" points="295.65,180.99,290.5154,172.5855,291.5351,178.1497,285.9709,179.1694,295.65,180.99" style="stroke:#181818;stroke-width:1.0;"/><text fill="#000000" font-family="sans-serif" font-size="13" lengthAdjust="spacing" textLength="31.0146" x="249.11" y="148.0384">rules</text><text fill="#000000" font-family="sans-serif" font-size="13" lengthAdjust="spacing" textLength="6.2651" x="280.6643" y="170.8011">*</text></g><!--SRC=[ZP0n3y8W48LtViMbewQ3AqC7TnVZPXm8N1kI5imTdTJ_Bj3OD0ID8-yztijtUbJCS5IC9szmX8S0s5k3BjZU8adWGDODINLgmiyR82a6MPEz1-lT6dm9eNFdXPJZtjEaahyKivz9nv9rBub1qO2X46aUaMLHSexYzVPj8hbn9hh5TDi-kqrxvTVFH7GxQ0xDvagHDfFyarpmgibTKqEGaE756m00]--></g></svg>