<svg xmlns="http://www.w3.org/2000/svg" xmlns:xlink="http://www.w3.org/1999/xlink" contentStyleType="text/css" data-diagram-type="DESCRIPTION" height="1490px" preserveAspectRatio="none" style="width:877px;height:1490px;" version="1.1" viewBox="0 0 877 1490" width="877px" zoomAndPan="magnify"><defs/><g><!--cluster Infrastructure--><g id="cluster_Infrastructure"><rect fill="transparent" height="390.46" rx="2.5" ry="2.5" style="stroke:#181818;stroke-width:1;" width="254" x="415" y="7"/><text fill="#000000" font-family="sans-serif" font-size="14" font-weight="bold" lengthAdjust="spacing" textLength="100.2695" x="491.8652" y="32.5352">Infrastructure</text></g><!--cluster Core Features--><g id="cluster_Core Features"><rect fill="transparent" height="401.47" rx="2.5" ry="2.5" style="stroke:#181818;stroke-width:1;" width="294" x="577" y="421.46"/><text fill="#000000" font-family="sans-serif" font-size="14" font-weight="bold" lengthAdjust="spacing" textLength="99.9209" x="674.0396" y="446.9952">Core Features</text></g><!--cluster Advanced Features--><g id="cluster_Advanced Features"><rect fill="transparent" height="425.46" rx="2.5" ry="2.5" style="stroke:#181818;stroke-width:1;" width="278" x="275" y="685.44"/><text fill="#000000" font-family="sans-serif" font-size="14" font-weight="bold" lengthAdjust="spacing" textLength="136.6846" x="345.6577" y="710.9752">Advanced Features</text></g><!--cluster Examples--><g id="cluster_Examples"><rect fill="transparent" height="390.46" rx="2.5" ry="2.5" style="stroke:#181818;stroke-width:1;" width="244" x="7" y="846.93"/><text fill="#000000" font-family="sans-serif" font-size="14" font-weight="bold" lengthAdjust="spacing" textLength="68.4346" x="94.7827" y="872.4652">Examples</text></g><!--entity workflow--><g id="elem_workflow"><rect fill="#ADD8E6" height="66.4883" rx="2.5" ry="2.5" style="stroke:#181818;stroke-width:0.5;" width="198.1162" x="448.94" y="62"/><rect fill="#ADD8E6" height="10" style="stroke:#181818;stroke-width:0.5;" width="15" x="627.0562" y="67"/><rect fill="#ADD8E6" height="2" style="stroke:#181818;stroke-width:0.5;" width="4" x="625.0562" y="69"/><rect fill="#ADD8E6" height="2" style="stroke:#181818;stroke-width:0.5;" width="4" x="625.0562" y="73"/><text fill="#000000" font-family="sans-serif" font-size="14" lengthAdjust="spacing" textLength="138.1162" x="473.94" y="105.5352">GitHub Workflow &#128295;</text></g><!--entity repo--><g id="elem_repo"><rect fill="#ADD8E6" height="66.4883" rx="2.5" ry="2.5" style="stroke:#181818;stroke-width:0.5;" width="221.8027" x="431.1" y="188.48"/><rect fill="#ADD8E6" height="10" style="stroke:#181818;stroke-width:0.5;" width="15" x="632.9027" y="193.48"/><rect fill="#ADD8E6" height="2" style="stroke:#181818;stroke-width:0.5;" width="4" x="630.9027" y="195.48"/><rect fill="#ADD8E6" height="2" style="stroke:#181818;stroke-width:0.5;" width="4" x="630.9027" y="199.48"/><text fill="#000000" font-family="sans-serif" font-size="14" lengthAdjust="spacing" textLength="161.8027" x="456.1" y="232.0152">Repository Structure &#128193;</text></g><!--entity testing--><g id="elem_testing"><rect fill="#ADD8E6" height="66.4883" rx="2.5" ry="2.5" style="stroke:#181818;stroke-width:0.5;" width="212.8682" x="438.57" y="314.97"/><rect fill="#ADD8E6" height="10" style="stroke:#181818;stroke-width:0.5;" width="15" x="631.4382" y="319.97"/><rect fill="#ADD8E6" height="2" style="stroke:#181818;stroke-width:0.5;" width="4" x="629.4382" y="321.97"/><rect fill="#ADD8E6" height="2" style="stroke:#181818;stroke-width:0.5;" width="4" x="629.4382" y="325.97"/><text fill="#000000" font-family="sans-serif" font-size="14" lengthAdjust="spacing" textLength="152.8682" x="463.57" y="358.5052">Integration Testing &#129514;</text></g><!--entity validation--><g id="elem_validation"><rect fill="#90EE90" height="66.4883" rx="2.5" ry="2.5" style="stroke:#181818;stroke-width:0.5;" width="226.7314" x="592.63" y="476.46"/><rect fill="#90EE90" height="10" style="stroke:#181818;stroke-width:0.5;" width="15" x="799.3614" y="481.46"/><rect fill="#90EE90" height="2" style="stroke:#181818;stroke-width:0.5;" width="4" x="797.3614" y="483.46"/><rect fill="#90EE90" height="2" style="stroke:#181818;stroke-width:0.5;" width="4" x="797.3614" y="487.46"/><text fill="#000000" font-family="sans-serif" font-size="14" lengthAdjust="spacing" textLength="166.7314" x="617.63" y="519.9952">Constraint Validation &#9989;</text></g><!--entity performance--><g id="elem_performance"><rect fill="#90EE90" height="66.4883" rx="2.5" ry="2.5" style="stroke:#181818;stroke-width:0.5;" width="261.4785" x="593.26" y="602.95"/><rect fill="#90EE90" height="10" style="stroke:#181818;stroke-width:0.5;" width="15" x="834.7385" y="607.95"/><rect fill="#90EE90" height="2" style="stroke:#181818;stroke-width:0.5;" width="4" x="832.7385" y="609.95"/><rect fill="#90EE90" height="2" style="stroke:#181818;stroke-width:0.5;" width="4" x="832.7385" y="613.95"/><text fill="#000000" font-family="sans-serif" font-size="14" lengthAdjust="spacing" textLength="201.4785" x="618.26" y="646.4852">Performance Optimization &#128640;</text></g><!--entity formats--><g id="elem_formats"><rect fill="#90EE90" height="66.4883" rx="2.5" ry="2.5" style="stroke:#181818;stroke-width:0.5;" width="247.8545" x="600.07" y="740.44"/><rect fill="#90EE90" height="10" style="stroke:#181818;stroke-width:0.5;" width="15" x="827.9245" y="745.44"/><rect fill="#90EE90" height="2" style="stroke:#181818;stroke-width:0.5;" width="4" x="825.9245" y="747.44"/><rect fill="#90EE90" height="2" style="stroke:#181818;stroke-width:0.5;" width="4" x="825.9245" y="751.44"/><text fill="#000000" font-family="sans-serif" font-size="14" lengthAdjust="spacing" textLength="187.8545" x="625.07" y="783.9752">Format Transformations &#128260;</text></g><!--entity vectordb--><g id="elem_vectordb"><rect fill="#FFFFE0" height="66.4883" rx="2.5" ry="2.5" style="stroke:#181818;stroke-width:0.5;" width="150.0869" x="367.96" y="740.44"/><rect fill="#FFFFE0" height="10" style="stroke:#181818;stroke-width:0.5;" width="15" x="498.0469" y="745.44"/><rect fill="#FFFFE0" height="2" style="stroke:#181818;stroke-width:0.5;" width="4" x="496.0469" y="747.44"/><rect fill="#FFFFE0" height="2" style="stroke:#181818;stroke-width:0.5;" width="4" x="496.0469" y="751.44"/><text fill="#000000" font-family="sans-serif" font-size="14" lengthAdjust="spacing" textLength="90.0869" x="392.96" y="783.9752">Vector DB &#128269;</text></g><!--entity collab--><g id="elem_collab"><rect fill="#FFFFE0" height="66.4883" rx="2.5" ry="2.5" style="stroke:#181818;stroke-width:0.5;" width="202.7031" x="323.65" y="901.93"/><rect fill="#FFFFE0" height="10" style="stroke:#181818;stroke-width:0.5;" width="15" x="506.3531" y="906.93"/><rect fill="#FFFFE0" height="2" style="stroke:#181818;stroke-width:0.5;" width="4" x="504.3531" y="908.93"/><rect fill="#FFFFE0" height="2" style="stroke:#181818;stroke-width:0.5;" width="4" x="504.3531" y="912.93"/><text fill="#000000" font-family="sans-serif" font-size="14" lengthAdjust="spacing" textLength="142.7031" x="348.65" y="945.4652">Collaborative Dev &#128101;</text></g><!--entity vocab--><g id="elem_vocab"><rect fill="#FFFFE0" height="66.4883" rx="2.5" ry="2.5" style="stroke:#181818;stroke-width:0.5;" width="245.168" x="291.42" y="1028.41"/><rect fill="#FFFFE0" height="10" style="stroke:#181818;stroke-width:0.5;" width="15" x="516.588" y="1033.41"/><rect fill="#FFFFE0" height="2" style="stroke:#181818;stroke-width:0.5;" width="4" x="514.588" y="1035.41"/><rect fill="#FFFFE0" height="2" style="stroke:#181818;stroke-width:0.5;" width="4" x="514.588" y="1039.41"/><text fill="#000000" font-family="sans-serif" font-size="14" lengthAdjust="spacing" textLength="185.168" x="316.42" y="1071.9452">Vocabulary Suggestions &#128161;</text></g><!--entity alignment--><g id="elem_alignment"><rect fill="#FFB6C1" height="66.4883" rx="2.5" ry="2.5" style="stroke:#181818;stroke-width:0.5;" width="189.1133" x="45.44" y="901.93"/><rect fill="#FFB6C1" height="10" style="stroke:#181818;stroke-width:0.5;" width="15" x="214.5533" y="906.93"/><rect fill="#FFB6C1" height="2" style="stroke:#181818;stroke-width:0.5;" width="4" x="212.5533" y="908.93"/><rect fill="#FFB6C1" height="2" style="stroke:#181818;stroke-width:0.5;" width="4" x="212.5533" y="912.93"/><text fill="#000000" font-family="sans-serif" font-size="14" lengthAdjust="spacing" textLength="129.1133" x="70.44" y="945.4652">Root Alignment &#128260;</text></g><!--entity elvis--><g id="elem_elvis"><rect fill="#FFB6C1" height="66.4883" rx="2.5" ry="2.5" style="stroke:#181818;stroke-width:0.5;" width="211.7949" x="23.1" y="1028.41"/><rect fill="#FFB6C1" height="10" style="stroke:#181818;stroke-width:0.5;" width="15" x="214.8949" y="1033.41"/><rect fill="#FFB6C1" height="2" style="stroke:#181818;stroke-width:0.5;" width="4" x="212.8949" y="1035.41"/><rect fill="#FFB6C1" height="2" style="stroke:#181818;stroke-width:0.5;" width="4" x="212.8949" y="1039.41"/><text fill="#000000" font-family="sans-serif" font-size="14" lengthAdjust="spacing" textLength="151.7949" x="48.1" y="1071.9452">Elvis Porkenheimer &#127928;</text></g><!--entity llm--><g id="elem_llm"><rect fill="#FFB6C1" height="66.4883" rx="2.5" ry="2.5" style="stroke:#181818;stroke-width:0.5;" width="189.2842" x="34.36" y="1154.9"/><rect fill="#FFB6C1" height="10" style="stroke:#181818;stroke-width:0.5;" width="15" x="203.6442" y="1159.9"/><rect fill="#FFB6C1" height="2" style="stroke:#181818;stroke-width:0.5;" width="4" x="201.6442" y="1161.9"/><rect fill="#FFB6C1" height="2" style="stroke:#181818;stroke-width:0.5;" width="4" x="201.6442" y="1165.9"/><text fill="#000000" font-family="sans-serif" font-size="14" lengthAdjust="spacing" textLength="129.2842" x="59.36" y="1198.4352">LLM Generation &#129302;</text></g><!--link workflow to repo--><g id="link_workflow_repo"><path d="M546.42,128.95 C545.54,147.25 544.7388,163.987 543.8588,182.247 " fill="transparent" id="workflow-to-repo" style="stroke:#666666;stroke-width:1;"/><polygon fill="#666666" points="543.57,188.24,547.9986,179.443,543.8107,183.2458,540.0079,179.0579,543.57,188.24" style="stroke:#666666;stroke-width:1;"/></g><!--link repo to testing--><g id="link_repo_testing"><path d="M542.79,255.44 C543.23,273.73 543.6355,290.4617 544.0755,308.7317 " fill="transparent" id="repo-to-testing" style="stroke:#666666;stroke-width:1;"/><polygon fill="#666666" points="544.22,314.73,548.0022,305.6363,544.0996,309.7314,540.0045,305.8289,544.22,314.73" style="stroke:#666666;stroke-width:1;"/></g><!--link validation to performance--><g id="link_validation_performance"><path d="M710.73,543.41 C713.38,561.71 715.8015,578.5017 718.4415,596.7617 " fill="transparent" id="validation-to-performance" style="stroke:#666666;stroke-width:1;"/><polygon fill="#666666" points="719.3,602.7,721.971,593.2203,718.5845,597.7515,714.0533,594.365,719.3,602.7" style="stroke:#666666;stroke-width:1;"/></g><!--link performance to formats--><g id="link_performance_formats"><path d="M724,669.65 C724,690.94 724,712.69 724,734.02 " fill="transparent" id="performance-to-formats" style="stroke:#666666;stroke-width:1;"/><polygon fill="#666666" points="724,740.02,728,731.02,724,735.02,720,731.02,724,740.02" style="stroke:#666666;stroke-width:1;"/></g><!--link vectordb to collab--><g id="link_vectordb_collab"><path d="M439.31,807.34 C436.21,834.86 432.464,868.078 429.354,895.588 " fill="transparent" id="vectordb-to-collab" style="stroke:#666666;stroke-width:1;"/><polygon fill="#666666" points="428.68,901.55,433.6657,893.0563,429.2417,896.5816,425.7163,892.1576,428.68,901.55" style="stroke:#666666;stroke-width:1;"/></g><!--link collab to vocab--><g id="link_collab_vocab"><path d="M422.11,968.88 C420.49,987.17 419.007,1003.9332 417.397,1022.1932 " fill="transparent" id="collab-to-vocab" style="stroke:#666666;stroke-width:1;"/><polygon fill="#666666" points="416.87,1028.17,421.645,1019.5561,417.3092,1023.1893,413.6759,1018.8535,416.87,1028.17" style="stroke:#666666;stroke-width:1;"/></g><!--link alignment to elvis--><g id="link_alignment_elvis"><path d="M137.11,968.88 C135.49,987.17 134.007,1003.9332 132.397,1022.1932 " fill="transparent" id="alignment-to-elvis" style="stroke:#666666;stroke-width:1;"/><polygon fill="#666666" points="131.87,1028.17,136.645,1019.5561,132.3092,1023.1893,128.6759,1018.8535,131.87,1028.17" style="stroke:#666666;stroke-width:1;"/></g><!--link elvis to llm--><g id="link_elvis_llm"><path d="M129,1095.37 C129,1113.66 129,1130.39 129,1148.66 " fill="transparent" id="elvis-to-llm" style="stroke:#666666;stroke-width:1;"/><polygon fill="#666666" points="129,1154.66,133,1145.66,129,1149.66,125,1145.66,129,1154.66" style="stroke:#666666;stroke-width:1;"/></g><!--link testing to validation--><g id="link_testing_validation"><path d="M577.97,381.88 C605.75,409.4 641.0375,444.3574 668.8075,471.8674 " fill="transparent" id="testing-to-validation" style="stroke:#666666;stroke-width:1;"/><polygon fill="#666666" points="673.07,476.09,669.4913,466.9143,669.5179,472.5711,663.8611,472.5977,673.07,476.09" style="stroke:#666666;stroke-width:1;"/></g><!--link performance to vectordb--><g id="link_performance_vectordb"><path d="M594.39,669.89 C588.45,672.26 582.62,674.77 577,677.44 C542.18,693.94 511.507,715.7741 485.857,736.2741 " fill="transparent" id="performance-to-vectordb" style="stroke:#666666;stroke-width:1;"/><polygon fill="#666666" points="481.17,740.02,490.6978,737.5258,485.0758,736.8984,485.7032,731.2764,481.17,740.02" style="stroke:#666666;stroke-width:1;"/></g><!--link repo to alignment--><g id="link_repo_alignment"><path d="M442.82,255.35 C339.03,296.47 191,378.03 191,508.7 C191,508.7 191,508.7 191,637.19 C191,734.5 165.6498,841.389 150.9198,895.729 " fill="transparent" id="repo-to-alignment" style="stroke:#666666;stroke-width:1;"/><polygon fill="#666666" points="149.35,901.52,155.5653,893.88,150.6581,896.6942,147.844,891.787,149.35,901.52" style="stroke:#666666;stroke-width:1;"/></g><!--link workflow to validation--><!--link validation to vectordb--><!--link vectordb to alignment--><rect fill="transparent" height="216.4414" id="_legend" rx="7.5" ry="7.5" style="stroke:#000000;stroke-width:1;" width="257.3389" x="593.6611" y="1254.39"/><text fill="#000000" font-family="sans-serif" font-size="14" font-weight="bold" lengthAdjust="spacing" textLength="39.1016" x="623.2754" y="1294.9252">Layer</text><text fill="#000000" font-family="sans-serif" font-size="14" font-weight="bold" lengthAdjust="spacing" textLength="44.6865" x="746.0059" y="1294.9252">Status</text><text fill="#000000" font-family="sans-serif" font-size="14" lengthAdjust="spacing" textLength="92.7432" x="623.0908" y="1331.4134">Infrastructure</text><text fill="#000000" font-family="sans-serif" font-size="14" lengthAdjust="spacing" textLength="75.749" x="745.8213" y="1331.4134">In Progress</text><text fill="#000000" font-family="sans-serif" font-size="14" lengthAdjust="spacing" textLength="93.8711" x="623.0908" y="1367.9017">Core Features</text><text fill="#000000" font-family="sans-serif" font-size="14" lengthAdjust="spacing" textLength="54.5029" x="745.8213" y="1367.9017">Pending</text><text fill="#000000" font-family="sans-serif" font-size="14" lengthAdjust="spacing" textLength="65.9189" x="623.0908" y="1404.39">Advanced</text><text fill="#000000" font-family="sans-serif" font-size="14" lengthAdjust="spacing" textLength="54.5029" x="745.8213" y="1404.39">Pending</text><text fill="#000000" font-family="sans-serif" font-size="14" lengthAdjust="spacing" textLength="64.7705" x="623.0908" y="1440.8783">Examples</text><text fill="#000000" font-family="sans-serif" font-size="14" lengthAdjust="spacing" textLength="54.5029" x="745.8213" y="1440.8783">Pending</text><line style="stroke:#000000;stroke-width:1;" x1="608.6611" x2="836" y1="1271.39" y2="1271.39"/><line style="stroke:#000000;stroke-width:1;" x1="608.6611" x2="836" y1="1307.8783" y2="1307.8783"/><line style="stroke:#000000;stroke-width:1;" x1="608.6611" x2="836" y1="1344.3666" y2="1344.3666"/><line style="stroke:#000000;stroke-width:1;" x1="608.6611" x2="836" y1="1380.8548" y2="1380.8548"/><line style="stroke:#000000;stroke-width:1;" x1="608.6611" x2="836" y1="1417.3431" y2="1417.3431"/><line style="stroke:#000000;stroke-width:1;" x1="608.6611" x2="836" y1="1453.8314" y2="1453.8314"/><line style="stroke:#000000;stroke-width:1;" x1="608.6611" x2="608.6611" y1="1271.39" y2="1453.8314"/><line style="stroke:#000000;stroke-width:1;" x1="731.3916" x2="731.3916" y1="1271.39" y2="1453.8314"/><line style="stroke:#000000;stroke-width:1;" x1="836" x2="836" y1="1271.39" y2="1453.8314"/><!--SRC=[TLJDQXH14BxFKpIRWwS5e-1DOVCVYCcI3V4GSkYTgSosszCzTFVikZ62WXuL_C6328kW17m2dySds4UmktfwVdRY78QXllhgg_wwQlIKYPmgcf6N4R7F5esdgPA5IBObbueOHOMs2I0CuWEbvDn36u_mmV2nJ61F2dDCCo2z0-0pC2oclHOuOjT0DX-qOcMfX_WWChGTq1H6Pi61A8WD5Ic74aeI9bAoUJzw5KNtoA6uKbGRLSIcK42Ew09Kb7i-wRNHNdd0Ytrc3eenUIRLz8hBELajlznU4gh9F4GsE4idPimBhtfn2hdKp4Yr8ADARBNy_0Pfog8Tog4ma2fgc1Ja3BHnNQ-Mjx-HOSh06WbVLHFzHCv5_mcMHmHrGhGiuMtObhQVFQ2kBxtkGWkiJDYMmZf3cJ3ad7AM-4x_Vd-73SxgaEynLG32CuUWhgJAg8Y1dEI6PUpQPwwMtruZEszaTEXx3Z7ap8qLPZckTfVm5ia-fZj4V3Nw2aOqn32bAHvoofhUh44oSs3oNyCw2PLfvtOOxR3kRBbsttkdC9ICotuNmEtT1OivfsFfXc06P0TcblNn5x9YXExWdCkOZWjEtQGLQUeksRlpwOUNStYNvyq9hOHZUnN4Ii60O1bln-uBckLsqKw4iPkOiguVPKPjmwcKXWni3oApVuNwwcWLyWtcJ4mzOvVFc2P3EzeW9i0oK9RruG-o0B5rnj7HKx8F0bIOhPzVCPlpR3qNNxLsE2FMHSmhXBYjK6wDabhtyR3sTd8G2OZOdZyAwrcvLKrTTDTq1T-Zre9M3JafAo8BwrdolD361NLKx_d5X2LM-XA9JR7cjAyb1Sdwpji93NKEgJqQKSupjEFciRzXzp4oTiGrkV70-l_K1SXGIRk5kavg_srkoD2MTtO5lDgVBXH6gGNP3zzZz0y0]--></g></svg>