<svg xmlns="http://www.w3.org/2000/svg" xmlns:xlink="http://www.w3.org/1999/xlink" contentStyleType="text/css" data-diagram-type="CLASS" height="559px" preserveAspectRatio="none" style="width:2017px;height:559px;background:#FFFFFF;" version="1.1" viewBox="0 0 2017 559" width="2017px" zoomAndPan="magnify"><defs/><g><!--cluster Requirements--><g class="cluster" data-entity="Requirements" data-source-line="22" data-uid="ent0005" id="cluster_Requirements"><path d="M8.5,6 L109.5166,6 A3.75,3.75 0 0 1 112.0166,8.5 L119.0166,28.4883 L1039.5,28.4883 A2.5,2.5 0 0 1 1042,30.9883 L1042,268.29 A2.5,2.5 0 0 1 1039.5,270.79 L8.5,270.79 A2.5,2.5 0 0 1 6,268.29 L6,8.5 A2.5,2.5 0 0 1 8.5,6" fill="#FFFFFF" style="stroke:#000000;stroke-width:1.5;"/><line style="stroke:#000000;stroke-width:1.5;" x1="6" x2="119.0166" y1="28.4883" y2="28.4883"/><text fill="#000000" font-family="sans-serif" font-size="14" font-weight="bold" lengthAdjust="spacing" textLength="100.0166" x="10" y="21.5352">Requirements</text></g><!--cluster Risks--><g class="cluster" data-entity="Risks" data-source-line="40" data-uid="ent0011" id="cluster_Risks"><path d="M1068.5,6 L1108.4033,6 A3.75,3.75 0 0 1 1110.9033,8.5 L1117.9033,28.4883 L1692.5,28.4883 A2.5,2.5 0 0 1 1695,30.9883 L1695,268.29 A2.5,2.5 0 0 1 1692.5,270.79 L1068.5,270.79 A2.5,2.5 0 0 1 1066,268.29 L1066,8.5 A2.5,2.5 0 0 1 1068.5,6" fill="#FFFFFF" style="stroke:#000000;stroke-width:1.5;"/><line style="stroke:#000000;stroke-width:1.5;" x1="1066" x2="1117.9033" y1="28.4883" y2="28.4883"/><text fill="#000000" font-family="sans-serif" font-size="14" font-weight="bold" lengthAdjust="spacing" textLength="38.9033" x="1070" y="21.5352">Risks</text></g><!--cluster Constraints--><g class="cluster" data-entity="Constraints" data-source-line="55" data-uid="ent0016" id="cluster_Constraints"><path d="M26.5,303.79 L111.1309,303.79 A3.75,3.75 0 0 1 113.6309,306.29 L120.6309,326.2783 L594.5,326.2783 A2.5,2.5 0 0 1 597,328.7783 L597,550.09 A2.5,2.5 0 0 1 594.5,552.59 L26.5,552.59 A2.5,2.5 0 0 1 24,550.09 L24,306.29 A2.5,2.5 0 0 1 26.5,303.79" fill="#FFFFFF" style="stroke:#000000;stroke-width:1.5;"/><line style="stroke:#000000;stroke-width:1.5;" x1="24" x2="120.6309" y1="326.2783" y2="326.2783"/><text fill="#000000" font-family="sans-serif" font-size="14" font-weight="bold" lengthAdjust="spacing" textLength="83.6309" x="28" y="319.3252">Constraints</text></g><!--class SPARQLSupport--><g class="entity" data-entity="SPARQLSupport" data-source-line="23" data-uid="ent0006" id="entity_SPARQLSupport"><rect fill="#FFFFFF" height="68.3984" rx="2.5" ry="2.5" style="stroke:#000000;stroke-width:0.5;" width="272.9414" x="21.53" y="41"/><ellipse cx="112.3825" cy="58.9551" fill="#ADD1B2" rx="11" ry="11" style="stroke:#181818;stroke-width:1;"/><path d="M114.8557,65.0981 Q114.2746,65.397 113.6355,65.5464 Q112.9963,65.6958 112.2907,65.6958 Q109.7839,65.6958 108.4641,64.0439 Q107.1443,62.3921 107.1443,59.271 Q107.1443,56.1416 108.4641,54.4897 Q109.7839,52.8379 112.2907,52.8379 Q112.9963,52.8379 113.6438,52.9873 Q114.2912,53.1367 114.8557,53.4355 L114.8557,56.1582 Q114.2248,55.5771 113.6313,55.3074 Q113.0378,55.0376 112.407,55.0376 Q111.0622,55.0376 110.3774,56.1042 Q109.6926,57.1709 109.6926,59.271 Q109.6926,61.3628 110.3774,62.4294 Q111.0622,63.4961 112.407,63.4961 Q113.0378,63.4961 113.6313,63.2263 Q114.2248,62.9565 114.8557,62.3755 Z " fill="#000000"/><text fill="#000000" font-family="sans-serif" font-size="12" font-style="italic" lengthAdjust="spacing" textLength="86.7363" x="130.8825" y="57.6016">&#171;Requirement&#187;</text><text fill="#000000" font-family="sans-serif" font-size="10" font-weight="bold" lengthAdjust="spacing" textLength="80.6787" x="133.9113" y="69.8008">SPARQLSupport</text><line style="stroke:#000000;stroke-width:0.5;" x1="22.53" x2="293.4714" y1="76.9102" y2="76.9102"/><text fill="#000000" font-family="sans-serif" font-size="14" lengthAdjust="spacing" textLength="260.9414" x="27.53" y="94.4453">Must support SPARQL query execution</text><line style="stroke:#000000;stroke-width:0.5;" x1="22.53" x2="293.4714" y1="101.3984" y2="101.3984"/></g><!--class GraphManagement--><g class="entity" data-entity="GraphManagement" data-source-line="26" data-uid="ent0007" id="entity_GraphManagement"><rect fill="#FFFFFF" height="68.3984" rx="2.5" ry="2.5" style="stroke:#000000;stroke-width:0.5;" width="387.8467" x="329.08" y="41"/><ellipse cx="470.1987" cy="58.9551" fill="#ADD1B2" rx="11" ry="11" style="stroke:#181818;stroke-width:1;"/><path d="M472.6718,65.0981 Q472.0907,65.397 471.4516,65.5464 Q470.8124,65.6958 470.1069,65.6958 Q467.6,65.6958 466.2802,64.0439 Q464.9604,62.3921 464.9604,59.271 Q464.9604,56.1416 466.2802,54.4897 Q467.6,52.8379 470.1069,52.8379 Q470.8124,52.8379 471.4599,52.9873 Q472.1073,53.1367 472.6718,53.4355 L472.6718,56.1582 Q472.0409,55.5771 471.4474,55.3074 Q470.8539,55.0376 470.2231,55.0376 Q468.8783,55.0376 468.1935,56.1042 Q467.5087,57.1709 467.5087,59.271 Q467.5087,61.3628 468.1935,62.4294 Q468.8783,63.4961 470.2231,63.4961 Q470.8539,63.4961 471.4474,63.2263 Q472.0409,62.9565 472.6718,62.3755 Z " fill="#000000"/><text fill="#000000" font-family="sans-serif" font-size="12" font-style="italic" lengthAdjust="spacing" textLength="86.7363" x="495.8852" y="57.6016">&#171;Requirement&#187;</text><text fill="#000000" font-family="sans-serif" font-size="10" font-weight="bold" lengthAdjust="spacing" textLength="97.1094" x="490.6987" y="69.8008">GraphManagement</text><line style="stroke:#000000;stroke-width:0.5;" x1="330.08" x2="715.9267" y1="76.9102" y2="76.9102"/><text fill="#000000" font-family="sans-serif" font-size="14" lengthAdjust="spacing" textLength="375.8467" x="335.08" y="94.4453">Must support graph upload/download/clear operations</text><line style="stroke:#000000;stroke-width:0.5;" x1="330.08" x2="715.9267" y1="101.3984" y2="101.3984"/></g><!--class ErrorHandling--><g class="entity" data-entity="ErrorHandling" data-source-line="29" data-uid="ent0008" id="entity_ErrorHandling"><rect fill="#FFFFFF" height="68.3984" rx="2.5" ry="2.5" style="stroke:#000000;stroke-width:0.5;" width="273.9053" x="752.05" y="41"/><ellipse cx="843.3845" cy="58.9551" fill="#ADD1B2" rx="11" ry="11" style="stroke:#181818;stroke-width:1;"/><path d="M845.8576,65.0981 Q845.2766,65.397 844.6374,65.5464 Q843.9982,65.6958 843.2927,65.6958 Q840.7858,65.6958 839.466,64.0439 Q838.1462,62.3921 838.1462,59.271 Q838.1462,56.1416 839.466,54.4897 Q840.7858,52.8379 843.2927,52.8379 Q843.9982,52.8379 844.6457,52.9873 Q845.2932,53.1367 845.8576,53.4355 L845.8576,56.1582 Q845.2268,55.5771 844.6333,55.3074 Q844.0397,55.0376 843.4089,55.0376 Q842.0642,55.0376 841.3793,56.1042 Q840.6945,57.1709 840.6945,59.271 Q840.6945,61.3628 841.3793,62.4294 Q842.0642,63.4961 843.4089,63.4961 Q844.0397,63.4961 844.6333,63.2263 Q845.2268,62.9565 845.8576,62.3755 Z " fill="#000000"/><text fill="#000000" font-family="sans-serif" font-size="12" font-style="italic" lengthAdjust="spacing" textLength="86.7363" x="861.8845" y="57.6016">&#171;Requirement&#187;</text><text fill="#000000" font-family="sans-serif" font-size="10" font-weight="bold" lengthAdjust="spacing" textLength="72.5732" x="868.966" y="69.8008">ErrorHandling</text><line style="stroke:#000000;stroke-width:0.5;" x1="753.05" x2="1024.9553" y1="76.9102" y2="76.9102"/><text fill="#000000" font-family="sans-serif" font-size="14" lengthAdjust="spacing" textLength="261.9053" x="758.05" y="94.4453">Must implement proper error handling</text><line style="stroke:#000000;stroke-width:0.5;" x1="753.05" x2="1024.9553" y1="101.3984" y2="101.3984"/></g><!--class Authentication--><g class="entity" data-entity="Authentication" data-source-line="32" data-uid="ent0009" id="entity_Authentication"><rect fill="#FFFFFF" height="68.3984" rx="2.5" ry="2.5" style="stroke:#000000;stroke-width:0.5;" width="293.5518" x="22.22" y="186.39"/><ellipse cx="123.3777" cy="204.3451" fill="#ADD1B2" rx="11" ry="11" style="stroke:#181818;stroke-width:1;"/><path d="M125.8509,210.4881 Q125.2698,210.787 124.6306,210.9364 Q123.9915,211.0858 123.2859,211.0858 Q120.7791,211.0858 119.4593,209.4339 Q118.1394,207.7821 118.1394,204.661 Q118.1394,201.5316 119.4593,199.8797 Q120.7791,198.2279 123.2859,198.2279 Q123.9915,198.2279 124.6389,198.3773 Q125.2864,198.5267 125.8509,198.8255 L125.8509,201.5482 Q125.22,200.9671 124.6265,200.6974 Q124.033,200.4276 123.4021,200.4276 Q122.0574,200.4276 121.3726,201.4942 Q120.6878,202.5609 120.6878,204.661 Q120.6878,206.7528 121.3726,207.8194 Q122.0574,208.8861 123.4021,208.8861 Q124.033,208.8861 124.6265,208.6163 Q125.22,208.3465 125.8509,207.7655 Z " fill="#000000"/><text fill="#000000" font-family="sans-serif" font-size="12" font-style="italic" lengthAdjust="spacing" textLength="86.7363" x="141.8777" y="202.9916">&#171;Requirement&#187;</text><text fill="#000000" font-family="sans-serif" font-size="10" font-weight="bold" lengthAdjust="spacing" textLength="75.7422" x="147.3748" y="215.1908">Authentication</text><line style="stroke:#000000;stroke-width:0.5;" x1="23.22" x2="314.7718" y1="222.3002" y2="222.3002"/><text fill="#000000" font-family="sans-serif" font-size="14" lengthAdjust="spacing" textLength="281.5518" x="28.22" y="239.8353">Must support authentication mechanisms</text><line style="stroke:#000000;stroke-width:0.5;" x1="23.22" x2="314.7718" y1="246.7884" y2="246.7884"/></g><!--class Validation--><g class="entity" data-entity="Validation" data-source-line="35" data-uid="ent0010" id="entity_Validation"><rect fill="#FFFFFF" height="68.3984" rx="2.5" ry="2.5" style="stroke:#000000;stroke-width:0.5;" width="207.1182" x="350.44" y="186.39"/><ellipse cx="408.3809" cy="204.3451" fill="#ADD1B2" rx="11" ry="11" style="stroke:#181818;stroke-width:1;"/><path d="M410.8541,210.4881 Q410.273,210.787 409.6338,210.9364 Q408.9947,211.0858 408.2891,211.0858 Q405.7823,211.0858 404.4625,209.4339 Q403.1426,207.7821 403.1426,204.661 Q403.1426,201.5316 404.4625,199.8797 Q405.7823,198.2279 408.2891,198.2279 Q408.9947,198.2279 409.6421,198.3773 Q410.2896,198.5267 410.8541,198.8255 L410.8541,201.5482 Q410.2232,200.9671 409.6297,200.6974 Q409.0362,200.4276 408.4053,200.4276 Q407.0606,200.4276 406.3758,201.4942 Q405.691,202.5609 405.691,204.661 Q405.691,206.7528 406.3758,207.8194 Q407.0606,208.8861 408.4053,208.8861 Q409.0362,208.8861 409.6297,208.6163 Q410.2232,208.3465 410.8541,207.7655 Z " fill="#000000"/><text fill="#000000" font-family="sans-serif" font-size="12" font-style="italic" lengthAdjust="spacing" textLength="86.7363" x="426.8809" y="202.9916">&#171;Requirement&#187;</text><text fill="#000000" font-family="sans-serif" font-size="10" font-weight="bold" lengthAdjust="spacing" textLength="52.1338" x="444.1822" y="215.1908">Validation</text><line style="stroke:#000000;stroke-width:0.5;" x1="351.44" x2="556.5582" y1="222.3002" y2="222.3002"/><text fill="#000000" font-family="sans-serif" font-size="14" lengthAdjust="spacing" textLength="195.1182" x="356.44" y="239.8353">Must support data validation</text><line style="stroke:#000000;stroke-width:0.5;" x1="351.44" x2="556.5582" y1="246.7884" y2="246.7884"/></g><!--class ConnectionFailure--><g class="entity" data-entity="ConnectionFailure" data-source-line="41" data-uid="ent0012" id="entity_ConnectionFailure"><rect fill="#FFFFFF" height="68.3984" rx="2.5" ry="2.5" style="stroke:#000000;stroke-width:0.5;" width="312.5625" x="1081.72" y="41"/><ellipse cx="1187.1595" cy="58.9551" fill="#ADD1B2" rx="11" ry="11" style="stroke:#181818;stroke-width:1;"/><path d="M1189.6326,65.0981 Q1189.0515,65.397 1188.4124,65.5464 Q1187.7732,65.6958 1187.0677,65.6958 Q1184.5608,65.6958 1183.241,64.0439 Q1181.9212,62.3921 1181.9212,59.271 Q1181.9212,56.1416 1183.241,54.4897 Q1184.5608,52.8379 1187.0677,52.8379 Q1187.7732,52.8379 1188.4207,52.9873 Q1189.0681,53.1367 1189.6326,53.4355 L1189.6326,56.1582 Q1189.0017,55.5771 1188.4082,55.3074 Q1187.8147,55.0376 1187.1839,55.0376 Q1185.8391,55.0376 1185.1543,56.1042 Q1184.4695,57.1709 1184.4695,59.271 Q1184.4695,61.3628 1185.1543,62.4294 Q1185.8391,63.4961 1187.1839,63.4961 Q1187.8147,63.4961 1188.4082,63.2263 Q1189.0017,62.9565 1189.6326,62.3755 Z " fill="#000000"/><text fill="#000000" font-family="sans-serif" font-size="12" font-style="italic" lengthAdjust="spacing" textLength="36.7617" x="1235.8704" y="57.6016">&#171;Risk&#187;</text><text fill="#000000" font-family="sans-serif" font-size="10" font-weight="bold" lengthAdjust="spacing" textLength="93.1836" x="1207.6595" y="69.8008">ConnectionFailure</text><line style="stroke:#000000;stroke-width:0.5;" x1="1082.72" x2="1393.2825" y1="76.9102" y2="76.9102"/><text fill="#000000" font-family="sans-serif" font-size="14" lengthAdjust="spacing" textLength="300.5625" x="1087.72" y="94.4453">Risk of connection to GraphDB server failing</text><line style="stroke:#000000;stroke-width:0.5;" x1="1082.72" x2="1393.2825" y1="101.3984" y2="101.3984"/></g><!--class DataLoss--><g class="entity" data-entity="DataLoss" data-source-line="44" data-uid="ent0013" id="entity_DataLoss"><rect fill="#FFFFFF" height="68.3984" rx="2.5" ry="2.5" style="stroke:#000000;stroke-width:0.5;" width="249.6172" x="1429.19" y="41"/><ellipse cx="1526.1231" cy="58.9551" fill="#ADD1B2" rx="11" ry="11" style="stroke:#181818;stroke-width:1;"/><path d="M1528.5963,65.0981 Q1528.0152,65.397 1527.376,65.5464 Q1526.7369,65.6958 1526.0313,65.6958 Q1523.5245,65.6958 1522.2046,64.0439 Q1520.8848,62.3921 1520.8848,59.271 Q1520.8848,56.1416 1522.2046,54.4897 Q1523.5245,52.8379 1526.0313,52.8379 Q1526.7369,52.8379 1527.3843,52.9873 Q1528.0318,53.1367 1528.5963,53.4355 L1528.5963,56.1582 Q1527.9654,55.5771 1527.3719,55.3074 Q1526.7784,55.0376 1526.1475,55.0376 Q1524.8028,55.0376 1524.118,56.1042 Q1523.4332,57.1709 1523.4332,59.271 Q1523.4332,61.3628 1524.118,62.4294 Q1524.8028,63.4961 1526.1475,63.4961 Q1526.7784,63.4961 1527.3719,63.2263 Q1527.9654,62.9565 1528.5963,62.3755 Z " fill="#000000"/><text fill="#000000" font-family="sans-serif" font-size="12" font-style="italic" lengthAdjust="spacing" textLength="36.7617" x="1551.8677" y="57.6016">&#171;Risk&#187;</text><text fill="#000000" font-family="sans-serif" font-size="10" font-weight="bold" lengthAdjust="spacing" textLength="47.251" x="1546.6231" y="69.8008">DataLoss</text><line style="stroke:#000000;stroke-width:0.5;" x1="1430.19" x2="1677.8072" y1="76.9102" y2="76.9102"/><text fill="#000000" font-family="sans-serif" font-size="14" lengthAdjust="spacing" textLength="237.6172" x="1435.19" y="94.4453">Risk of data loss during operations</text><line style="stroke:#000000;stroke-width:0.5;" x1="1430.19" x2="1677.8072" y1="101.3984" y2="101.3984"/></g><!--class Security--><g class="entity" data-entity="Security" data-source-line="47" data-uid="ent0014" id="entity_Security"><rect fill="#FFFFFF" height="68.3984" rx="2.5" ry="2.5" style="stroke:#000000;stroke-width:0.5;" width="202.1348" x="1136.93" y="186.39"/><ellipse cx="1213.1761" cy="204.3451" fill="#ADD1B2" rx="11" ry="11" style="stroke:#181818;stroke-width:1;"/><path d="M1215.6492,210.4881 Q1215.0682,210.787 1214.429,210.9364 Q1213.7899,211.0858 1213.0843,211.0858 Q1210.5775,211.0858 1209.2576,209.4339 Q1207.9378,207.7821 1207.9378,204.661 Q1207.9378,201.5316 1209.2576,199.8797 Q1210.5775,198.2279 1213.0843,198.2279 Q1213.7899,198.2279 1214.4373,198.3773 Q1215.0848,198.5267 1215.6492,198.8255 L1215.6492,201.5482 Q1215.0184,200.9671 1214.4249,200.6974 Q1213.8314,200.4276 1213.2005,200.4276 Q1211.8558,200.4276 1211.171,201.4942 Q1210.4862,202.5609 1210.4862,204.661 Q1210.4862,206.7528 1211.171,207.8194 Q1211.8558,208.8861 1213.2005,208.8861 Q1213.8314,208.8861 1214.4249,208.6163 Q1215.0184,208.3465 1215.6492,207.7655 Z " fill="#000000"/><text fill="#000000" font-family="sans-serif" font-size="12" font-style="italic" lengthAdjust="spacing" textLength="36.7617" x="1235.8665" y="202.9916">&#171;Risk&#187;</text><text fill="#000000" font-family="sans-serif" font-size="10" font-weight="bold" lengthAdjust="spacing" textLength="41.1426" x="1233.6761" y="215.1908">Security</text><line style="stroke:#000000;stroke-width:0.5;" x1="1137.93" x2="1338.0648" y1="222.3002" y2="222.3002"/><text fill="#000000" font-family="sans-serif" font-size="14" lengthAdjust="spacing" textLength="190.1348" x="1142.93" y="239.8353">Risk of unauthorized access</text><line style="stroke:#000000;stroke-width:0.5;" x1="1137.93" x2="1338.0648" y1="246.7884" y2="246.7884"/></g><!--class Performance--><g class="entity" data-entity="Performance" data-source-line="50" data-uid="ent0015" id="entity_Performance"><rect fill="#FFFFFF" height="68.3984" rx="2.5" ry="2.5" style="stroke:#000000;stroke-width:0.5;" width="235.4463" x="1374.28" y="186.39"/><ellipse cx="1455.2824" cy="204.3451" fill="#ADD1B2" rx="11" ry="11" style="stroke:#181818;stroke-width:1;"/><path d="M1457.7556,210.4881 Q1457.1745,210.787 1456.5354,210.9364 Q1455.8962,211.0858 1455.1906,211.0858 Q1452.6838,211.0858 1451.364,209.4339 Q1450.0442,207.7821 1450.0442,204.661 Q1450.0442,201.5316 1451.364,199.8797 Q1452.6838,198.2279 1455.1906,198.2279 Q1455.8962,198.2279 1456.5437,198.3773 Q1457.1911,198.5267 1457.7556,198.8255 L1457.7556,201.5482 Q1457.1247,200.9671 1456.5312,200.6974 Q1455.9377,200.4276 1455.3069,200.4276 Q1453.9621,200.4276 1453.2773,201.4942 Q1452.5925,202.5609 1452.5925,204.661 Q1452.5925,206.7528 1453.2773,207.8194 Q1453.9621,208.8861 1455.3069,208.8861 Q1455.9377,208.8861 1456.5312,208.6163 Q1457.1247,208.3465 1457.7556,207.7655 Z " fill="#000000"/><text fill="#000000" font-family="sans-serif" font-size="12" font-style="italic" lengthAdjust="spacing" textLength="36.7617" x="1489.8723" y="202.9916">&#171;Risk&#187;</text><text fill="#000000" font-family="sans-serif" font-size="10" font-weight="bold" lengthAdjust="spacing" textLength="64.9414" x="1475.7824" y="215.1908">Performance</text><line style="stroke:#000000;stroke-width:0.5;" x1="1375.28" x2="1608.7263" y1="222.3002" y2="222.3002"/><text fill="#000000" font-family="sans-serif" font-size="14" lengthAdjust="spacing" textLength="223.4463" x="1380.28" y="239.8353">Risk of performance degradation</text><line style="stroke:#000000;stroke-width:0.5;" x1="1375.28" x2="1608.7263" y1="246.7884" y2="246.7884"/></g><!--class GraphDBServer--><g class="entity" data-entity="GraphDBServer" data-source-line="56" data-uid="ent0017" id="entity_GraphDBServer"><rect fill="#FFFFFF" height="68.3984" rx="2.5" ry="2.5" style="stroke:#000000;stroke-width:0.5;" width="257.7725" x="40.11" y="338.79"/><ellipse cx="125.8668" cy="356.7451" fill="#ADD1B2" rx="11" ry="11" style="stroke:#181818;stroke-width:1;"/><path d="M128.34,362.8881 Q127.7589,363.187 127.1198,363.3364 Q126.4806,363.4858 125.775,363.4858 Q123.2682,363.4858 121.9484,361.8339 Q120.6286,360.1821 120.6286,357.061 Q120.6286,353.9316 121.9484,352.2797 Q123.2682,350.6279 125.775,350.6279 Q126.4806,350.6279 127.1281,350.7773 Q127.7755,350.9267 128.34,351.2255 L128.34,353.9482 Q127.7091,353.3671 127.1156,353.0974 Q126.5221,352.8276 125.8913,352.8276 Q124.5465,352.8276 123.8617,353.8942 Q123.1769,354.9609 123.1769,357.061 Q123.1769,359.1528 123.8617,360.2194 Q124.5465,361.2861 125.8913,361.2861 Q126.5221,361.2861 127.1156,361.0163 Q127.7091,360.7465 128.34,360.1655 Z " fill="#000000"/><text fill="#000000" font-family="sans-serif" font-size="12" font-style="italic" lengthAdjust="spacing" textLength="73.2422" x="148.6251" y="355.3916">&#171;Constraint&#187;</text><text fill="#000000" font-family="sans-serif" font-size="10" font-weight="bold" lengthAdjust="spacing" textLength="77.7588" x="146.3668" y="367.5908">GraphDBServer</text><line style="stroke:#000000;stroke-width:0.5;" x1="41.11" x2="296.8825" y1="374.7002" y2="374.7002"/><text fill="#000000" font-family="sans-serif" font-size="14" lengthAdjust="spacing" textLength="245.7725" x="46.11" y="392.2353">Must have access to GraphDB server</text><line style="stroke:#000000;stroke-width:0.5;" x1="41.11" x2="296.8825" y1="399.1884" y2="399.1884"/></g><!--class Authentication--><g class="entity" data-entity="Authentication" data-source-line="59" data-uid="ent0018" id="entity_Authentication"><rect fill="#FFFFFF" height="68.3984" rx="2.5" ry="2.5" style="stroke:#000000;stroke-width:0.5;" width="195.9551" x="333.02" y="338.79"/><ellipse cx="388.8764" cy="356.7451" fill="#ADD1B2" rx="11" ry="11" style="stroke:#181818;stroke-width:1;"/><path d="M391.3496,362.8881 Q390.7685,363.187 390.1294,363.3364 Q389.4902,363.4858 388.7846,363.4858 Q386.2778,363.4858 384.958,361.8339 Q383.6382,360.1821 383.6382,357.061 Q383.6382,353.9316 384.958,352.2797 Q386.2778,350.6279 388.7846,350.6279 Q389.4902,350.6279 390.1377,350.7773 Q390.7851,350.9267 391.3496,351.2255 L391.3496,353.9482 Q390.7187,353.3671 390.1252,353.0974 Q389.5317,352.8276 388.9009,352.8276 Q387.5561,352.8276 386.8713,353.8942 Q386.1865,354.9609 386.1865,357.061 Q386.1865,359.1528 386.8713,360.2194 Q387.5561,361.2861 388.9009,361.2861 Q389.5317,361.2861 390.1252,361.0163 Q390.7187,360.7465 391.3496,360.1655 Z " fill="#000000"/><text fill="#000000" font-family="sans-serif" font-size="12" font-style="italic" lengthAdjust="spacing" textLength="73.2422" x="410.6264" y="355.3916">&#171;Constraint&#187;</text><text fill="#000000" font-family="sans-serif" font-size="10" font-weight="bold" lengthAdjust="spacing" textLength="75.7422" x="409.3764" y="367.5908">Authentication</text><line style="stroke:#000000;stroke-width:0.5;" x1="334.02" x2="527.9751" y1="374.7002" y2="374.7002"/><text fill="#000000" font-family="sans-serif" font-size="14" lengthAdjust="spacing" textLength="183.9551" x="339.02" y="392.2353">Must have valid credentials</text><line style="stroke:#000000;stroke-width:0.5;" x1="334.02" x2="527.9751" y1="399.1884" y2="399.1884"/></g><!--class Network--><g class="entity" data-entity="Network" data-source-line="62" data-uid="ent0019" id="entity_Network"><rect fill="#FFFFFF" height="68.3984" rx="2.5" ry="2.5" style="stroke:#000000;stroke-width:0.5;" width="226.1426" x="39.93" y="468.19"/><ellipse cx="114.1302" cy="486.1451" fill="#ADD1B2" rx="11" ry="11" style="stroke:#181818;stroke-width:1;"/><path d="M116.6033,492.2881 Q116.0223,492.587 115.3831,492.7364 Q114.744,492.8858 114.0384,492.8858 Q111.5316,492.8858 110.2117,491.2339 Q108.8919,489.5821 108.8919,486.461 Q108.8919,483.3316 110.2117,481.6797 Q111.5316,480.0279 114.0384,480.0279 Q114.744,480.0279 115.3914,480.1773 Q116.0389,480.3267 116.6033,480.6255 L116.6033,483.3482 Q115.9725,482.7671 115.379,482.4974 Q114.7855,482.2276 114.1546,482.2276 Q112.8099,482.2276 112.1251,483.2942 Q111.4403,484.3609 111.4403,486.461 Q111.4403,488.5528 112.1251,489.6194 Q112.8099,490.6861 114.1546,490.6861 Q114.7855,490.6861 115.379,490.4163 Q115.9725,490.1465 116.6033,489.5655 Z " fill="#000000"/><text fill="#000000" font-family="sans-serif" font-size="12" font-style="italic" lengthAdjust="spacing" textLength="73.2422" x="132.6302" y="484.7916">&#171;Constraint&#187;</text><text fill="#000000" font-family="sans-serif" font-size="10" font-weight="bold" lengthAdjust="spacing" textLength="43.4863" x="147.5081" y="496.9908">Network</text><line style="stroke:#000000;stroke-width:0.5;" x1="40.93" x2="265.0726" y1="504.1002" y2="504.1002"/><text fill="#000000" font-family="sans-serif" font-size="14" lengthAdjust="spacing" textLength="214.1426" x="45.93" y="521.6353">Must have network connectivity</text><line style="stroke:#000000;stroke-width:0.5;" x1="40.93" x2="265.0726" y1="528.5884" y2="528.5884"/></g><!--class Storage--><g class="entity" data-entity="Storage" data-source-line="65" data-uid="ent0020" id="entity_Storage"><rect fill="#FFFFFF" height="68.3984" rx="2.5" ry="2.5" style="stroke:#000000;stroke-width:0.5;" width="279.1074" x="301.45" y="468.19"/><ellipse cx="402.1326" cy="486.1451" fill="#ADD1B2" rx="11" ry="11" style="stroke:#181818;stroke-width:1;"/><path d="M404.6058,492.2881 Q404.0247,492.587 403.3855,492.7364 Q402.7464,492.8858 402.0408,492.8858 Q399.534,492.8858 398.2142,491.2339 Q396.8943,489.5821 396.8943,486.461 Q396.8943,483.3316 398.2142,481.6797 Q399.534,480.0279 402.0408,480.0279 Q402.7464,480.0279 403.3938,480.1773 Q404.0413,480.3267 404.6058,480.6255 L404.6058,483.3482 Q403.9749,482.7671 403.3814,482.4974 Q402.7879,482.2276 402.157,482.2276 Q400.8123,482.2276 400.1275,483.2942 Q399.4427,484.3609 399.4427,486.461 Q399.4427,488.5528 400.1275,489.6194 Q400.8123,490.6861 402.157,490.6861 Q402.7879,490.6861 403.3814,490.4163 Q403.9749,490.1465 404.6058,489.5655 Z " fill="#000000"/><text fill="#000000" font-family="sans-serif" font-size="12" font-style="italic" lengthAdjust="spacing" textLength="73.2422" x="420.6326" y="484.7916">&#171;Constraint&#187;</text><text fill="#000000" font-family="sans-serif" font-size="10" font-weight="bold" lengthAdjust="spacing" textLength="39.0332" x="437.7371" y="496.9908">Storage</text><line style="stroke:#000000;stroke-width:0.5;" x1="302.45" x2="579.5574" y1="504.1002" y2="504.1002"/><text fill="#000000" font-family="sans-serif" font-size="14" lengthAdjust="spacing" textLength="267.1074" x="307.45" y="521.6353">Must have sufficient storage for graphs</text><line style="stroke:#000000;stroke-width:0.5;" x1="302.45" x2="579.5574" y1="528.5884" y2="528.5884"/></g><!--class GraphDBClient--><g class="entity" data-entity="GraphDBClient" data-source-line="12" data-uid="ent0002" id="entity_GraphDBClient"><rect fill="#FFFFFF" height="64.4883" rx="2.5" ry="2.5" style="stroke:#000000;stroke-width:0.5;" width="296.0469" x="1713.98" y="42.95"/><ellipse cx="1820.0484" cy="58.95" fill="#ADD1B2" rx="11" ry="11" style="stroke:#181818;stroke-width:1;"/><path d="M1822.5215,65.0931 Q1821.9404,65.3919 1821.3013,65.5413 Q1820.6621,65.6907 1819.9566,65.6907 Q1817.4497,65.6907 1816.1299,64.0389 Q1814.8101,62.387 1814.8101,59.2659 Q1814.8101,56.1365 1816.1299,54.4847 Q1817.4497,52.8328 1819.9566,52.8328 Q1820.6621,52.8328 1821.3096,52.9822 Q1821.9571,53.1316 1822.5215,53.4305 L1822.5215,56.1531 Q1821.8906,55.5721 1821.2971,55.3023 Q1820.7036,55.0325 1820.0728,55.0325 Q1818.728,55.0325 1818.0432,56.0992 Q1817.3584,57.1658 1817.3584,59.2659 Q1817.3584,61.3577 1818.0432,62.4244 Q1818.728,63.491 1820.0728,63.491 Q1820.7036,63.491 1821.2971,63.2212 Q1821.8906,62.9515 1822.5215,62.3704 Z " fill="#000000"/><text fill="#000000" font-family="sans-serif" font-size="10" font-weight="bold" lengthAdjust="spacing" textLength="75.4102" x="1840.5484" y="62.7293">GraphDBClient</text><line style="stroke:#000000;stroke-width:0.5;" x1="1714.98" x2="2009.0269" y1="74.95" y2="74.95"/><text fill="#000000" font-family="sans-serif" font-size="14" lengthAdjust="spacing" textLength="284.0469" x="1719.98" y="92.4852">Client for interacting with GraphDB server</text><line style="stroke:#000000;stroke-width:0.5;" x1="1714.98" x2="2009.0269" y1="99.4383" y2="99.4383"/></g><!--class GraphDBError--><g class="entity" data-entity="GraphDBError" data-source-line="16" data-uid="ent0003" id="entity_GraphDBError"><rect fill="#FFFFFF" height="64.4883" rx="2.5" ry="2.5" style="stroke:#000000;stroke-width:0.5;" width="288.4111" x="1717.79" y="188.35"/><ellipse cx="1822.0791" cy="204.35" fill="#ADD1B2" rx="11" ry="11" style="stroke:#181818;stroke-width:1;"/><path d="M1824.5522,210.4931 Q1823.9712,210.7919 1823.332,210.9413 Q1822.6928,211.0907 1821.9873,211.0907 Q1819.4804,211.0907 1818.1606,209.4389 Q1816.8408,207.787 1816.8408,204.6659 Q1816.8408,201.5365 1818.1606,199.8847 Q1819.4804,198.2328 1821.9873,198.2328 Q1822.6928,198.2328 1823.3403,198.3822 Q1823.9878,198.5316 1824.5522,198.8305 L1824.5522,201.5531 Q1823.9213,200.9721 1823.3278,200.7023 Q1822.7343,200.4325 1822.1035,200.4325 Q1820.7588,200.4325 1820.0739,201.4992 Q1819.3891,202.5658 1819.3891,204.6659 Q1819.3891,206.7577 1820.0739,207.8244 Q1820.7588,208.891 1822.1035,208.891 Q1822.7343,208.891 1823.3278,208.6212 Q1823.9213,208.3515 1824.5522,207.7704 Z " fill="#000000"/><text fill="#000000" font-family="sans-serif" font-size="10" font-weight="bold" lengthAdjust="spacing" textLength="71.333" x="1842.5791" y="208.1293">GraphDBError</text><line style="stroke:#000000;stroke-width:0.5;" x1="1718.79" x2="2005.2011" y1="220.35" y2="220.35"/><text fill="#000000" font-family="sans-serif" font-size="14" lengthAdjust="spacing" textLength="276.4111" x="1723.79" y="237.8852">Base exception for GraphDB client errors</text><line style="stroke:#000000;stroke-width:0.5;" x1="1718.79" x2="2005.2011" y1="244.8383" y2="244.8383"/></g><!--link GraphDBClient to GraphDBError--><g class="link" data-entity-1="GraphDBClient" data-entity-2="GraphDBError" data-source-line="20" data-uid="lnk4" id="link_GraphDBClient_GraphDBError"><path codeLine="20" d="M1862,107.66 C1862,131.57 1862,158.31 1862,182.2" fill="none" id="GraphDBClient-to-GraphDBError" style="stroke:#000000;stroke-width:1;"/><polygon fill="#000000" points="1862,188.2,1866,179.2,1862,183.2,1858,179.2,1862,188.2" style="stroke:#000000;stroke-width:1;"/><text fill="#000000" font-family="sans-serif" font-size="13" lengthAdjust="spacing" textLength="36.7529" x="1863" y="152.9584">raises</text></g><!--SRC=[ZPJTRXiX48Nlzodc1QAsjvLboNQQjb9IfR7KUyoElSWia07ikfNVlGExTet_xrZnpPd36LY_LCO94Yr8BRmVXK1g5WD-bzPCrH-4ZvKlaIThGjxvT7uhR3J2pEhwU7Siv791DffwOhKbM3Sgu0bagKRgW9dcYcDWH6JNv_STVue5tkgpmwvqCZRSbCdCYKQLJS9N4gvv74-qGXFWRmNGB-TCAXEGX0pAB62jGhEZmIEjaAhjaSeNFZ9baR7m2FXReWlAcYosgvMTFYRM9udImiF3i9Jx32IKHrzLVHxmXkzH4RQC-zojCp5z7RtzV9v6vom560mEiE4mSm0lqGVmFT8Lm7j4sh1Pb36PPMwxrynENeJXjadd7jL5Ae7ej1NrXzgkJLv8ZOB0EiupDV55btpGRyBKEYLzfOTgdUwCE4fQNOhGzAM5w2Y6XaabSyDxd8koeaN9migtfTbVGglwRaqc1Qps9LbfUp1AvPU7CvnOOr0cyaae7GbJ3sRsuka3x1pa7eHWZ-ubpBdsE8v7Dl9iUN51C1lL2QWZfJ5ScDMKhmcfiBca4qsAqHB_U6eGKg8lwr-H-3MqmiYBPtC7I8rydyvdnrdvm6-ZV0Lz5DCkYS7WFrKEg14hxFsT9dZz8bsLpBC6ILYd6g7Bq__0iBQql2LYUcmtvHK7NauXM4ePtD3nSJvNClzNV5-HVaNvYVe-pty0]--></g></svg>