<?xml version="1.0" encoding="UTF-8" standalone="no"?>
<!DOCTYPE svg PUBLIC "-//W3C//DTD SVG 1.1//EN"
 "http://www.w3.org/Graphics/SVG/1.1/DTD/svg11.dtd">
<!-- Generated by graphviz version 12.2.1 (20241206.2353)
 -->
<!-- Title: namespace_dependencies Pages: 1 -->
<svg width="355pt" height="403pt"
 viewBox="0.00 0.00 355.25 403.00" xmlns="http://www.w3.org/2000/svg" xmlns:xlink="http://www.w3.org/1999/xlink">
<g id="graph0" class="graph" transform="scale(1 1) rotate(0) translate(4 399)">
<title>namespace_dependencies</title>
<polygon fill="white" stroke="none" points="-4,4 -4,-399 351.25,-399 351.25,4 -4,4"/>
<!-- meta -->
<g id="node1" class="node">
<title>meta</title>
<polygon fill="lightblue" stroke="black" points="205.25,-218 139.75,-218 139.75,-177 205.25,-177 205.25,-218"/>
<text text-anchor="middle" x="172.5" y="-200.7" font-family="Times,serif" font-size="14.00">meta</text>
<text text-anchor="middle" x="172.5" y="-184.2" font-family="Times,serif" font-size="14.00">(12 files)</text>
</g>
<!-- guidance -->
<g id="node2" class="node">
<title>guidance</title>
<polygon fill="lightblue" stroke="black" points="347.25,-218 281.75,-218 281.75,-177 347.25,-177 347.25,-218"/>
<text text-anchor="middle" x="314.5" y="-200.7" font-family="Times,serif" font-size="14.00">guidance</text>
<text text-anchor="middle" x="314.5" y="-184.2" font-family="Times,serif" font-size="14.00">(10 files)</text>
</g>
<!-- meta&#45;&gt;guidance -->
<g id="edge1" class="edge">
<title>meta&#45;&gt;guidance</title>
<path fill="none" stroke="#7f7f7f" d="M205.62,-197.5C224.74,-197.5 249.25,-197.5 270.08,-197.5"/>
<polygon fill="#7f7f7f" stroke="#7f7f7f" points="270.02,-201 280.02,-197.5 270.02,-194 270.02,-201"/>
<text text-anchor="middle" x="243.5" y="-200.7" font-family="Times,serif" font-size="14.00">12 files</text>
</g>
<!-- guidance&#45;&gt;meta -->
<g id="edge2" class="edge">
<title>guidance&#45;&gt;meta</title>
<path fill="none" stroke="#7f7f7f" d="M281.42,-182.16C275.66,-180.02 269.61,-178.16 263.75,-177 246.09,-173.5 240.91,-173.5 223.25,-177 220.96,-177.45 218.64,-178.01 216.32,-178.66"/>
<polygon fill="#7f7f7f" stroke="#7f7f7f" points="215.44,-175.26 207.02,-181.69 217.61,-181.92 215.44,-175.26"/>
<text text-anchor="middle" x="243.5" y="-180.2" font-family="Times,serif" font-size="14.00">10 files</text>
</g>
<!-- test -->
<g id="node3" class="node">
<title>test</title>
<polygon fill="lightblue" stroke="black" points="64.38,-395 5.62,-395 5.62,-354 64.38,-354 64.38,-395"/>
<text text-anchor="middle" x="35" y="-377.7" font-family="Times,serif" font-size="14.00">test</text>
<text text-anchor="middle" x="35" y="-361.2" font-family="Times,serif" font-size="14.00">(8 files)</text>
</g>
<!-- test&#45;&gt;meta -->
<g id="edge3" class="edge">
<title>test&#45;&gt;meta</title>
<path fill="none" stroke="#7f7f7f" d="M60.59,-353.68C63.77,-350.94 66.97,-348.17 70,-345.5 93.32,-324.97 103.06,-323.32 121.75,-298.5 137.9,-277.06 151.04,-249.56 159.75,-228.67"/>
<polygon fill="#7f7f7f" stroke="#7f7f7f" points="162.94,-230.11 163.44,-219.53 156.45,-227.49 162.94,-230.11"/>
<text text-anchor="middle" x="104.88" y="-333.41" font-family="Times,serif" font-size="14.00">8 files</text>
</g>
<!-- boldo -->
<g id="node4" class="node">
<title>boldo</title>
<polygon fill="lightblue" stroke="black" points="64.38,-336 5.62,-336 5.62,-295 64.38,-295 64.38,-336"/>
<text text-anchor="middle" x="35" y="-318.7" font-family="Times,serif" font-size="14.00">boldo</text>
<text text-anchor="middle" x="35" y="-302.2" font-family="Times,serif" font-size="14.00">(6 files)</text>
</g>
<!-- boldo&#45;&gt;meta -->
<g id="edge4" class="edge">
<title>boldo&#45;&gt;meta</title>
<path fill="none" stroke="#7f7f7f" d="M64.52,-296.71C81.76,-284.84 103.79,-268.72 121.75,-252.5 130.49,-244.6 139.34,-235.33 147.1,-226.66"/>
<polygon fill="#7f7f7f" stroke="#7f7f7f" points="149.5,-229.24 153.46,-219.42 144.24,-224.63 149.5,-229.24"/>
<text text-anchor="middle" x="104.88" y="-281.55" font-family="Times,serif" font-size="14.00">6 files</text>
</g>
<!-- error -->
<g id="node5" class="node">
<title>error</title>
<polygon fill="lightblue" stroke="black" points="64.38,-277 5.62,-277 5.62,-236 64.38,-236 64.38,-277"/>
<text text-anchor="middle" x="35" y="-259.7" font-family="Times,serif" font-size="14.00">error</text>
<text text-anchor="middle" x="35" y="-243.2" font-family="Times,serif" font-size="14.00">(5 files)</text>
</g>
<!-- error&#45;&gt;meta -->
<g id="edge5" class="edge">
<title>error&#45;&gt;meta</title>
<path fill="none" stroke="#7f7f7f" d="M64.74,-243.99C83.39,-235.86 108.03,-225.13 128.94,-216.03"/>
<polygon fill="#7f7f7f" stroke="#7f7f7f" points="130.33,-219.25 138.1,-212.04 127.53,-212.83 130.33,-219.25"/>
<text text-anchor="middle" x="104.88" y="-235.48" font-family="Times,serif" font-size="14.00">5 files</text>
</g>
<!-- dialog -->
<g id="node6" class="node">
<title>dialog</title>
<polygon fill="lightblue" stroke="black" points="64.38,-218 5.62,-218 5.62,-177 64.38,-177 64.38,-218"/>
<text text-anchor="middle" x="35" y="-200.7" font-family="Times,serif" font-size="14.00">dialog</text>
<text text-anchor="middle" x="35" y="-184.2" font-family="Times,serif" font-size="14.00">(4 files)</text>
</g>
<!-- dialog&#45;&gt;meta -->
<g id="edge6" class="edge">
<title>dialog&#45;&gt;meta</title>
<path fill="none" stroke="#7f7f7f" d="M64.74,-197.5C83.13,-197.5 107.36,-197.5 128.08,-197.5"/>
<polygon fill="#7f7f7f" stroke="#7f7f7f" points="127.97,-201 137.97,-197.5 127.97,-194 127.97,-201"/>
<text text-anchor="middle" x="104.88" y="-200.7" font-family="Times,serif" font-size="14.00">4 files</text>
</g>
<!-- bt -->
<g id="node7" class="node">
<title>bt</title>
<polygon fill="lightblue" stroke="black" points="64.38,-159 5.62,-159 5.62,-118 64.38,-118 64.38,-159"/>
<text text-anchor="middle" x="35" y="-141.7" font-family="Times,serif" font-size="14.00">bt</text>
<text text-anchor="middle" x="35" y="-125.2" font-family="Times,serif" font-size="14.00">(3 files)</text>
</g>
<!-- bt&#45;&gt;meta -->
<g id="edge7" class="edge">
<title>bt&#45;&gt;meta</title>
<path fill="none" stroke="#7f7f7f" d="M64.74,-151.01C83.39,-159.14 108.03,-169.87 128.94,-178.97"/>
<polygon fill="#7f7f7f" stroke="#7f7f7f" points="127.53,-182.17 138.1,-182.96 130.33,-175.75 127.53,-182.17"/>
<text text-anchor="middle" x="104.88" y="-178.22" font-family="Times,serif" font-size="14.00">3 files</text>
</g>
<!-- cog -->
<g id="node8" class="node">
<title>cog</title>
<polygon fill="lightblue" stroke="black" points="64.38,-100 5.62,-100 5.62,-59 64.38,-59 64.38,-100"/>
<text text-anchor="middle" x="35" y="-82.7" font-family="Times,serif" font-size="14.00">cog</text>
<text text-anchor="middle" x="35" y="-66.2" font-family="Times,serif" font-size="14.00">(3 files)</text>
</g>
<!-- cog&#45;&gt;meta -->
<g id="edge8" class="edge">
<title>cog&#45;&gt;meta</title>
<path fill="none" stroke="#7f7f7f" d="M64.56,-98.08C81.81,-109.83 103.85,-125.82 121.75,-142 130.53,-149.94 139.39,-159.29 147.15,-168.04"/>
<polygon fill="#7f7f7f" stroke="#7f7f7f" points="144.31,-170.1 153.51,-175.36 149.6,-165.51 144.31,-170.1"/>
<text text-anchor="middle" x="104.88" y="-145.2" font-family="Times,serif" font-size="14.00">3 files</text>
</g>
<!-- validation -->
<g id="node9" class="node">
<title>validation</title>
<polygon fill="lightblue" stroke="black" points="70,-41 0,-41 0,0 70,0 70,-41"/>
<text text-anchor="middle" x="35" y="-23.7" font-family="Times,serif" font-size="14.00">validation</text>
<text text-anchor="middle" x="35" y="-7.2" font-family="Times,serif" font-size="14.00">(3 files)</text>
</g>
<!-- validation&#45;&gt;meta -->
<g id="edge9" class="edge">
<title>validation&#45;&gt;meta</title>
<path fill="none" stroke="#7f7f7f" d="M64.87,-41.21C82.88,-55.18 105.62,-74.88 121.75,-96 138.11,-117.42 151.23,-145.06 159.88,-166.09"/>
<polygon fill="#7f7f7f" stroke="#7f7f7f" points="156.6,-167.31 163.55,-175.31 163.11,-164.72 156.6,-167.31"/>
<text text-anchor="middle" x="104.88" y="-99.2" font-family="Times,serif" font-size="14.00">3 files</text>
</g>
</g>
</svg>
